<?xml version="1.0" standalone="no"?>
 <!DOCTYPE svg PUBLIC "-//W3C//DTD SVG 1.1//EN" 
 "http://www.w3.org/Graphics/SVG/1.1/DTD/svg11.dtd"> 
<svg xmlns="http://www.w3.org/2000/svg" version="1.1" 
    width="29.7002cm" height="21.0007cm" viewBox="0 0 116930 82680 ">
<title>SVG Picture created as sch-F.SilkS.svg date 2016/11/03 23:41:14 </title>
  <desc>Picture generated by PCBNEW </desc>
<g style="fill:#000000; fill-opacity:1;stroke:#000000; stroke-opacity:1;
stroke-linecap:round; stroke-linejoin:round; "
 transform="translate(0 0) scale(1 1)">
</g>
<g style="fill:#000000; fill-opacity:0.0; 
stroke:#000000; stroke-width:-0.000393701; stroke-opacity:1; 
stroke-linecap:round; stroke-linejoin:round;">
</g>
<g style="fill:#000000; fill-opacity:0.0; 
stroke:#000000; stroke-width:59.0551; stroke-opacity:1; 
stroke-linecap:round; stroke-linejoin:round;">
<path d="M22850 55825
L24850 55825
" />
<path d="M24850 55825
L24850 54825
" />
<path d="M24850 54825
L22850 54825
" />
<path d="M21739 54714
L22350 54714
" />
<path d="M22850 54825
L22850 55825
" />
<path d="M22350 55935
L21739 55935
" />
<path d="M21739 55935
L21739 54714
" />
</g>
<g style="fill:#000000; fill-opacity:0.0; 
stroke:#000000; stroke-width:78.7402; stroke-opacity:1; 
stroke-linecap:round; stroke-linejoin:round;">
<path d="M33628 51396
L35046 51396
" />
<path d="M35046 51396
L35046 52578
" />
<path d="M35046 52578
L33628 52578
" />
<path d="M33628 52578
L33628 51396
" />
<circle cx="33924.1" cy="51692.2" r="196.85" /> 
</g>
<g style="fill:#000000; fill-opacity:0.0; 
stroke:#000000; stroke-width:59.0551; stroke-opacity:1; 
stroke-linecap:round; stroke-linejoin:round;">
<path d="M38728 52758
L38728 50791
" />
<path d="M38673 52755
L38673 50794
" />
<path d="M38618 52749
L38618 51812
" />
<path d="M38618 51737
L38618 50800
" />
<path d="M38562 52739
L38562 51967
" />
<path d="M38562 51582
L38562 50810
" />
<path d="M38507 52726
L38507 52033
" />
<path d="M38507 51516
L38507 50823
" />
<path d="M38452 52710
L38452 52075
" />
<path d="M38452 51474
L38452 50839
" />
<path d="M38397 52691
L38397 52103
" />
<path d="M38397 51446
L38397 50858
" />
<path d="M38342 52667
L38342 52121
" />
<path d="M38342 51428
L38342 50882
" />
<path d="M38287 52639
L38287 52128
" />
<path d="M38287 51421
L38287 50910
" />
<path d="M38232 52607
L38232 52127
" />
<path d="M38232 51422
L38232 50942
" />
<path d="M38177 52569
L38177 52117
" />
<path d="M38177 51432
L38177 50980
" />
<path d="M38122 52526
L38122 52099
" />
<path d="M38122 51450
L38122 51023
" />
<path d="M38066 52475
L38066 52068
" />
<path d="M38066 51481
L38066 51074
" />
<path d="M38011 52417
L38011 52022
" />
<path d="M38011 51527
L38011 51132
" />
<path d="M37956 52346
L37956 51948
" />
<path d="M37956 51601
L37956 51203
" />
<path d="M37901 52260
L37901 51289
" />
<path d="M37846 52146
L37846 51403
" />
<path d="M37791 51960
L37791 51589
" />
<circle cx="38265.7" cy="51775" r="354.331" /> 
<circle cx="38757.9" cy="51775" r="999.016" /> 
<circle cx="44175" cy="55375" r="900" /> 
<circle cx="44175" cy="37825" r="900" /> 
<circle cx="10800" cy="37800" r="900" /> 
</g>
<g style="fill:#000000; fill-opacity:0.0; 
stroke:#000000; stroke-width:19.685; stroke-opacity:1; 
stroke-linecap:round; stroke-linejoin:round;">
<path d="M31045 37270
L31045 43175
" />
<path d="M31045 43175
L36164 43175
" />
<path d="M36164 43175
L36164 37270
" />
<path d="M33605 37270
L31045 37270
" />
<path d="M36164 37270
L33605 37270
" />
<path d="M9900 52574
L11868 52574
" />
<path d="M9900 36825
L11868 36825
" />
<path d="M11868 52574
L11868 36825
" />
<path d="M9900 36825
L9900 52574
" />
</g>
<g style="fill:#000000; fill-opacity:0.0; 
stroke:#000000; stroke-width:59.0551; stroke-opacity:1; 
stroke-linecap:round; stroke-linejoin:round;">
<path d="M11187 41262
L11187 49262
" />
<path d="M11187 49262
L10187 49262
" />
<path d="M10187 49262
L10187 41262
" />
<path d="M11297 40152
L11297 40762
" />
<path d="M11187 41262
L10187 41262
" />
<path d="M10077 40762
L10077 40152
" />
<path d="M10077 40152
L11297 40152
" />
<path d="M19368 47019
L19761 47019
" />
<path d="M19761 46350
L19368 46350
" />
<path d="M27819 47586
L27819 47389
" />
<path d="M27444 47389
L27444 47586
" />
<path d="M20292 44921
L20292 45118
" />
<path d="M20667 45118
L20667 44921
" />
<path d="M21579 41391
L21579 40998
" />
<path d="M20910 40998
L20910 41391
" />
<path d="M19181 46207
L19378 46207
" />
<path d="M19378 45832
L19181 45832
" />
<path d="M20647 41538
L20647 41341
" />
<path d="M20272 41341
L20272 41538
" />
<path d="M14552 44701
L14552 44898
" />
<path d="M14927 44898
L14927 44701
" />
<path d="M16518 39572
L16321 39572
" />
<path d="M16321 39947
L16518 39947
" />
<path d="M14132 41541
L14132 41738
" />
<path d="M14507 41738
L14507 41541
" />
<path d="M32187 45776
L32187 45973
" />
<path d="M32562 45973
L32562 45776
" />
<path d="M44246 46990
L43853 46990
" />
<path d="M43853 47659
L44246 47659
" />
<path d="M20982 38171
L20982 38368
" />
<path d="M21357 38368
L21357 38171
" />
<path d="M18074 38076
L18074 37683
" />
<path d="M17405 37683
L17405 38076
" />
<path d="M13445 37983
L13445 38376
" />
<path d="M14114 38376
L14114 37983
" />
<path d="M13974 44656
L13974 44263
" />
<path d="M13305 44263
L13305 44656
" />
<path d="M19661 38575
L19268 38575
" />
<path d="M19268 39244
L19661 39244
" />
<path d="M20231 37725
L19838 37725
" />
<path d="M19838 38394
L20231 38394
" />
<path d="M36823 43187
L36626 43187
" />
<path d="M36626 43562
L36823 43562
" />
<path d="M23735 42208
L23735 42601
" />
<path d="M24404 42601
L24404 42208
" />
<path d="M37037 41206
L37037 41403
" />
<path d="M37412 41403
L37412 41206
" />
<path d="M26063 41489
L26456 41489
" />
<path d="M26456 40820
L26063 40820
" />
<path d="M37002 42411
L37002 42608
" />
<path d="M37377 42608
L37377 42411
" />
<path d="M27719 41666
L27719 41273
" />
<path d="M27050 41273
L27050 41666
" />
<path d="M27118 43407
L26921 43407
" />
<path d="M26921 43782
L27118 43782
" />
<path d="M32423 47512
L32226 47512
" />
<path d="M32226 47887
L32423 47887
" />
<path d="M40387 51658
L40387 51461
" />
<path d="M40012 51461
L40012 51658
" />
<path d="M30209 55546
L30209 55153
" />
<path d="M29540 55153
L29540 55546
" />
<path d="M40314 50296
L40314 49903
" />
<path d="M39645 49903
L39645 50296
" />
<path d="M43963 49201
L41996 49201
" />
<path d="M43960 49256
L41999 49256
" />
<path d="M43954 49311
L43017 49311
" />
<path d="M42942 49311
L42005 49311
" />
<path d="M43944 49367
L43172 49367
" />
<path d="M42787 49367
L42015 49367
" />
<path d="M43931 49422
L43238 49422
" />
<path d="M42721 49422
L42028 49422
" />
<path d="M43915 49477
L43280 49477
" />
<path d="M42679 49477
L42044 49477
" />
<path d="M43896 49532
L43308 49532
" />
<path d="M42651 49532
L42063 49532
" />
<path d="M43872 49587
L43326 49587
" />
<path d="M42633 49587
L42087 49587
" />
<path d="M43844 49642
L43333 49642
" />
<path d="M42626 49642
L42115 49642
" />
<path d="M43812 49697
L43332 49697
" />
<path d="M42627 49697
L42147 49697
" />
<path d="M43774 49752
L43322 49752
" />
<path d="M42637 49752
L42185 49752
" />
<path d="M43731 49807
L43304 49807
" />
<path d="M42655 49807
L42228 49807
" />
<path d="M43680 49863
L43273 49863
" />
<path d="M42686 49863
L42279 49863
" />
<path d="M43622 49918
L43227 49918
" />
<path d="M42732 49918
L42337 49918
" />
<path d="M43551 49973
L43153 49973
" />
<path d="M42806 49973
L42408 49973
" />
<path d="M43465 50028
L42494 50028
" />
<path d="M43351 50083
L42608 50083
" />
<path d="M43165 50138
L42794 50138
" />
<circle cx="42980" cy="49664.3" r="354.331" /> 
<circle cx="42980" cy="49172.1" r="999.016" /> 
<path d="M34759 55521
L34759 55128
" />
<path d="M34090 55128
L34090 55521
" />
<path d="M45008 52846
L43041 52846
" />
<path d="M45005 52901
L43044 52901
" />
<path d="M44999 52956
L44062 52956
" />
<path d="M43987 52956
L43050 52956
" />
<path d="M44989 53012
L44217 53012
" />
<path d="M43832 53012
L43060 53012
" />
<path d="M44976 53067
L44283 53067
" />
<path d="M43766 53067
L43073 53067
" />
<path d="M44960 53122
L44325 53122
" />
<path d="M43724 53122
L43089 53122
" />
<path d="M44941 53177
L44353 53177
" />
<path d="M43696 53177
L43108 53177
" />
<path d="M44917 53232
L44371 53232
" />
<path d="M43678 53232
L43132 53232
" />
<path d="M44889 53287
L44378 53287
" />
<path d="M43671 53287
L43160 53287
" />
<path d="M44857 53342
L44377 53342
" />
<path d="M43672 53342
L43192 53342
" />
<path d="M44819 53397
L44367 53397
" />
<path d="M43682 53397
L43230 53397
" />
<path d="M44776 53452
L44349 53452
" />
<path d="M43700 53452
L43273 53452
" />
<path d="M44725 53508
L44318 53508
" />
<path d="M43731 53508
L43324 53508
" />
<path d="M44667 53563
L44272 53563
" />
<path d="M43777 53563
L43382 53563
" />
<path d="M44596 53618
L44198 53618
" />
<path d="M43851 53618
L43453 53618
" />
<path d="M44510 53673
L43539 53673
" />
<path d="M44396 53728
L43653 53728
" />
<path d="M44210 53783
L43839 53783
" />
<circle cx="44025" cy="53309.3" r="354.331" /> 
<circle cx="44025" cy="52817.1" r="999.016" /> 
<path d="M36040 54428
L36040 54821
" />
<path d="M36709 54821
L36709 54428
" />
<path d="M38828 53759
L39221 53759
" />
<path d="M39221 53090
L38828 53090
" />
<path d="M43334 51776
L43334 51383
" />
<path d="M42665 51383
L42665 51776
" />
</g>
<g style="fill:#000000; fill-opacity:0.0; 
stroke:#000000; stroke-width:50; stroke-opacity:1; 
stroke-linecap:round; stroke-linejoin:round;">
<path d="M30875 53475
L30795 53475
" />
<path d="M30275 52725
L32075 52725
" />
<path d="M32075 52725
L32075 52975
" />
<path d="M31435 54225
L31435 52725
" />
<path d="M31565 54225
L31565 52725
" />
<path d="M30275 53975
L30275 54225
" />
<path d="M30275 54225
L32075 54225
" />
<path d="M32075 54225
L32075 53975
" />
<path d="M30275 52975
L30275 52725
" />
<path d="M31125 53475
L30875 53288
" />
<path d="M30875 53288
L30875 53475
" />
<path d="M30875 53475
L30875 53662
" />
<path d="M30875 53662
L31125 53475
" />
<path d="M31125 53475
L31125 53350
" />
<path d="M31125 53350
L31063 53288
" />
<path d="M31125 53475
L31125 53600
" />
<path d="M31125 53600
L31187 53662
" />
<path d="M31125 53475
L31562 53475
" />
<path d="M41775 54075
L41855 54075
" />
<path d="M42375 54825
L40575 54825
" />
<path d="M40575 54825
L40575 54575
" />
<path d="M41215 53325
L41215 54825
" />
<path d="M41085 53325
L41085 54825
" />
<path d="M42375 53575
L42375 53325
" />
<path d="M42375 53325
L40575 53325
" />
<path d="M40575 53325
L40575 53575
" />
<path d="M42375 54575
L42375 54825
" />
<path d="M41525 54075
L41775 54262
" />
<path d="M41775 54262
L41775 54075
" />
<path d="M41775 54075
L41775 53888
" />
<path d="M41775 53888
L41525 54075
" />
<path d="M41525 54075
L41525 54200
" />
<path d="M41525 54200
L41587 54262
" />
<path d="M41525 54075
L41525 53950
" />
<path d="M41525 53950
L41463 53888
" />
<path d="M41525 54075
L41088 54075
" />
</g>
<g style="fill:#000000; fill-opacity:0.0; 
stroke:#000000; stroke-width:59.0551; stroke-opacity:1; 
stroke-linecap:round; stroke-linejoin:round;">
<path d="M20300 54800
L18300 54800
" />
<path d="M18300 54800
L18300 55800
" />
<path d="M18300 55800
L20300 55800
" />
<path d="M21410 55910
L20800 55910
" />
<path d="M20300 55800
L20300 54800
" />
<path d="M20800 54689
L21410 54689
" />
<path d="M21410 54689
L21410 55910
" />
<path d="M17910 54688
L17300 54688
" />
<path d="M17910 55200
L17910 54688
" />
<path d="M17350 56850
L17350 59150
" />
<path d="M17350 59150
L17250 59150
" />
<path d="M17250 59150
L17250 56850
" />
<path d="M17250 56850
L17300 56850
" />
<path d="M17300 56850
L17300 59150
" />
<path d="M17400 55800
L17400 55650
" />
<path d="M17200 55800
L17200 55650
" />
<path d="M16400 55800
L16400 55650
" />
<path d="M16200 55800
L16200 55650
" />
<path d="M15400 55800
L15400 55650
" />
<path d="M15200 55800
L15200 55650
" />
<path d="M14400 55800
L14400 55650
" />
<path d="M14200 55800
L14200 55650
" />
<path d="M13200 55800
L13200 55650
" />
<path d="M13400 55800
L13400 55650
" />
<path d="M16800 56800
L17800 56800
" />
<path d="M17200 59200
L17200 56800
" />
<path d="M17400 59200
L17200 59200
" />
<path d="M17400 56800
L17400 59200
" />
<path d="M16800 55800
L16800 56800
" />
<path d="M17800 55800
L16800 55800
" />
<path d="M17800 55800
L17800 56800
" />
<path d="M15800 55800
L15800 56800
" />
<path d="M15800 55800
L14800 55800
" />
<path d="M14800 55800
L14800 56800
" />
<path d="M15400 56800
L15400 59200
" />
<path d="M15400 59200
L15200 59200
" />
<path d="M15200 59200
L15200 56800
" />
<path d="M14800 56800
L15800 56800
" />
<path d="M15800 56800
L16800 56800
" />
<path d="M16200 59200
L16200 56800
" />
<path d="M16400 59200
L16200 59200
" />
<path d="M16400 56800
L16400 59200
" />
<path d="M15800 55800
L15800 56800
" />
<path d="M16800 55800
L15800 55800
" />
<path d="M16800 55800
L16800 56800
" />
<path d="M13800 55800
L13800 56800
" />
<path d="M13800 55800
L12800 55800
" />
<path d="M12800 55800
L12800 56800
" />
<path d="M13400 56800
L13400 59200
" />
<path d="M13400 59200
L13200 59200
" />
<path d="M13200 59200
L13200 56800
" />
<path d="M12800 56800
L13800 56800
" />
<path d="M13800 56800
L14800 56800
" />
<path d="M14200 59200
L14200 56800
" />
<path d="M14400 59200
L14200 59200
" />
<path d="M14400 56800
L14400 59200
" />
<path d="M13800 55800
L13800 56800
" />
<path d="M14800 55800
L13800 55800
" />
<path d="M14800 55800
L14800 56800
" />
<path d="M41710 44635
L42710 44635
" />
<path d="M40599 44524
L41210 44524
" />
<path d="M41710 44635
L41710 45635
" />
<path d="M41210 45745
L40599 45745
" />
<path d="M40599 45745
L40599 44524
" />
<path d="M41710 45635
L42710 45635
" />
<path d="M42710 45635
L42710 44635
" />
<path d="M40270 45635
L40270 42635
" />
<path d="M39270 45635
L39270 42635
" />
<path d="M39159 46745
L39159 46135
" />
<path d="M40270 42635
L39270 42635
" />
<path d="M39270 45635
L40270 45635
" />
<path d="M40380 46135
L40380 46745
" />
<path d="M40380 46745
L39159 46745
" />
<path d="M44730 42165
L44730 43165
" />
<path d="M44840 41054
L44840 41665
" />
<path d="M44730 42165
L43730 42165
" />
<path d="M43619 41665
L43619 41054
" />
<path d="M43619 41054
L44840 41054
" />
<path d="M43730 42165
L43730 43165
" />
<path d="M43730 43165
L44730 43165
" />
<path d="M37614 47575
L37614 46964
" />
<path d="M38225 46964
L37614 46964
" />
<path d="M37725 48075
L38725 48075
" />
<path d="M38725 48075
L38725 47075
" />
<path d="M38725 47075
L39725 47075
" />
<path d="M39725 47075
L39725 49075
" />
<path d="M39725 49075
L37725 49075
" />
<path d="M37725 49075
L37725 48075
" />
<path d="M27438 53356
L27457 53356
" />
<path d="M28540 53080
L28540 53356
" />
<path d="M28540 53356
L28442 53356
" />
<path d="M27438 53356
L27359 53356
" />
<path d="M27359 53356
L27359 53080
" />
<path d="M34616 51251
L34616 51232
" />
<path d="M34340 50149
L34616 50149
" />
<path d="M34616 50149
L34616 50247
" />
<path d="M34616 51251
L34616 51330
" />
<path d="M34616 51330
L34340 51330
" />
<path d="M39781 55536
L39781 55517
" />
<path d="M39505 54434
L39781 54434
" />
<path d="M39781 54434
L39781 54532
" />
<path d="M39781 55536
L39781 55615
" />
<path d="M39781 55615
L39505 55615
" />
<path d="M40934 42596
L40934 42203
" />
<path d="M41465 42203
L41465 42596
" />
<path d="M41959 42596
L41959 42203
" />
<path d="M42490 42203
L42490 42596
" />
<path d="M28621 47756
L29014 47756
" />
<path d="M29014 48287
L28621 48287
" />
<path d="M27573 48482
L27966 48482
" />
<path d="M27966 49013
L27573 49013
" />
<path d="M41315 45976
L41708 45976
" />
<path d="M41708 46507
L41315 46507
" />
<path d="M42740 46178
L42740 46571
" />
<path d="M42209 46571
L42209 46178
" />
<path d="M29674 48876
L29674 48483
" />
<path d="M30205 48483
L30205 48876
" />
<path d="M27634 50696
L27634 50303
" />
<path d="M28165 50303
L28165 50696
" />
<path d="M25746 52440
L25353 52440
" />
<path d="M25353 51909
L25746 51909
" />
<path d="M25154 51256
L25154 50863
" />
<path d="M25685 50863
L25685 51256
" />
<path d="M25465 53253
L25465 53646
" />
<path d="M24934 53646
L24934 53253
" />
<path d="M30559 55596
L30559 55203
" />
<path d="M31090 55203
L31090 55596
" />
<path d="M31969 55063
L31969 55536
" />
<path d="M31280 55536
L31280 55063
" />
<path d="M34555 48768
L34555 49161
" />
<path d="M34024 49161
L34024 48768
" />
<path d="M38974 50216
L38974 49823
" />
<path d="M39505 49823
L39505 50216
" />
<path d="M29754 50756
L29754 50363
" />
<path d="M30285 50363
L30285 50756
" />
<path d="M29916 49945
L29523 49945
" />
<path d="M29523 49414
L29916 49414
" />
<path d="M37405 50623
L37405 51016
" />
<path d="M36874 51016
L36874 50623
" />
<circle cx="22895" cy="38265" r="689.257" /> 
<path d="M24164 36995
L24164 37005
" />
<path d="M24164 39534
L24164 39524
" />
<path d="M21625 39534
L21625 39524
" />
<path d="M21625 37005
L21625 36995
" />
<path d="M24164 37753
L24164 38776
" />
<path d="M21625 36995
L24164 36995
" />
<path d="M21625 37753
L21625 38776
" />
<path d="M21625 39534
L24164 39534
" />
<path d="M26380 47000
L26380 49000
" />
<path d="M26380 49000
L24580 49000
" />
<path d="M24580 49000
L24580 47000
" />
<path d="M24580 47000
L26380 47000
" />
<path d="M25780 47000
L25780 47200
" />
<path d="M25780 47200
L25280 47200
" />
<path d="M25280 47200
L25280 47000
" />
<path d="M36858 45118
L36848 45118
" />
<path d="M36858 46751
L36816 46751
" />
<path d="M32861 46751
L32903 46751
" />
<path d="M32861 45118
L32903 45118
" />
<path d="M36858 45118
L36858 46751
" />
<path d="M32861 45118
L32861 46751
" />
<path d="M36848 45118
L36848 44576
" />
</g>
<g style="fill:#000000; fill-opacity:0.0; 
stroke:#000000; stroke-width:19.685; stroke-opacity:1; 
stroke-linecap:round; stroke-linejoin:round;">
<circle cx="25775" cy="42150.7" r="55.6776" /> 
<path d="M25499 41914
L26680 41914
" />
<path d="M26680 41914
L26680 43095
" />
<path d="M26680 43095
L25499 43095
" />
<path d="M25499 43095
L25499 41914
" />
</g>
<g style="fill:#000000; fill-opacity:0.0; 
stroke:#000000; stroke-width:59.0551; stroke-opacity:1; 
stroke-linecap:round; stroke-linejoin:round;">
<circle cx="31561.9" cy="48130.7" r="39.3701" /> 
<path d="M31778 48229
L31581 48229
" />
<path d="M31778 49370
L31778 48229
" />
<path d="M31581 49370
L31778 49370
" />
<path d="M31581 48229
L31581 49370
" />
<circle cx="25855.7" cy="50868.1" r="39.3701" /> 
<path d="M25954 50651
L25954 50848
" />
<path d="M27095 50651
L25954 50651
" />
<path d="M27095 50848
L27095 50651
" />
<path d="M25954 50848
L27095 50848
" />
<circle cx="28256.9" cy="54055.7" r="39.3701" /> 
<path d="M28473 54154
L28276 54154
" />
<path d="M28473 55295
L28473 54154
" />
<path d="M28276 55295
L28473 55295
" />
<path d="M28276 54154
L28276 55295
" />
<path d="M36172 47815
L35207 47815
" />
<path d="M36457 49114
L35207 49114
" />
<circle cx="32781.9" cy="54180.7" r="39.3701" /> 
<path d="M32998 54279
L32801 54279
" />
<path d="M32998 55420
L32998 54279
" />
<path d="M32801 55420
L32998 55420
" />
<path d="M32801 54279
L32801 55420
" />
<path d="M32412 52262
L32412 51462
" />
<path d="M32412 51462
L31912 51462
" />
<path d="M31912 51462
L31912 52262
" />
<path d="M31912 52262
L32412 52262
" />
<circle cx="36569.4" cy="51293.2" r="39.3701" /> 
<path d="M36785 51391
L36589 51391
" />
<path d="M36785 52533
L36785 51391
" />
<path d="M36589 52533
L36785 52533
" />
<path d="M36589 51391
L36589 52533
" />
<circle cx="37606.9" cy="54355.7" r="39.3701" /> 
<path d="M37823 54454
L37626 54454
" />
<path d="M37823 55595
L37823 54454
" />
<path d="M37626 55595
L37823 55595
" />
<path d="M37626 54454
L37626 55595
" />
<path d="M16763 37871
L17039 37871
" />
<path d="M16015 37280
L16015 37083
" />
<path d="M15463 37280
L16015 37280
" />
<path d="M16016 38619
L15464 38619
" />
<path d="M14716 37871
L14716 38028
" />
<path d="M16763 37871
L16763 38028
" />
<path d="M18438 38038
L18556 38077
" />
<path d="M18438 37802
L18556 37763
" />
<path d="M18438 37566
L16450 37566
" />
<path d="M16450 37566
L16450 38274
" />
<path d="M16450 38274
L18438 38274
" />
<path d="M18438 37566
L18438 38274
" />
<path d="M19617 41082
L19223 41082
" />
<path d="M19617 45157
L19194 45157
" />
<path d="M15542 45157
L15965 45157
" />
<path d="M15542 41082
L15965 41082
" />
<path d="M19617 41082
L19617 41505
" />
<path d="M15542 41082
L15542 41505
" />
<path d="M15542 45157
L15542 44734
" />
<path d="M19617 45157
L19617 44734
" />
<path d="M19223 41082
L19223 40679
" />
<path d="M37044 38166
L37044 37773
" />
<path d="M37575 37773
L37575 38166
" />
<circle cx="10800" cy="55400" r="900" /> 
<path d="M26700 53450
L26700 52650
" />
<path d="M26700 52650
L26200 52650
" />
<path d="M26200 52650
L26200 53450
" />
<path d="M26200 53450
L26700 53450
" />
<path d="M27782 51169
L29317 51169
" />
<path d="M29317 52330
L27782 52330
" />
<path d="M32427 50900
L30892 50900
" />
<path d="M30892 49739
L32427 49739
" />
<path d="M40190 48082
L40190 47082
" />
<path d="M40079 49192
L40079 48582
" />
<path d="M40190 48082
L41190 48082
" />
<path d="M41300 48582
L41300 49192
" />
<path d="M41300 49192
L40079 49192
" />
<path d="M41190 48082
L41190 47082
" />
<path d="M41190 47082
L40190 47082
" />
<path d="M28414 50056
L28414 49663
" />
<path d="M28945 49663
L28945 50056
" />
<path d="M11160 52860
L12160 52860
" />
<path d="M10049 52749
L10660 52749
" />
<path d="M11160 52860
L11160 53860
" />
<path d="M10660 53970
L10049 53970
" />
<path d="M10049 53970
L10049 52749
" />
<path d="M11160 53860
L12160 53860
" />
<path d="M12160 53860
L12160 52860
" />
</g>
<g style="fill:#000000; fill-opacity:0.0; 
stroke:#000000; stroke-width:150; stroke-opacity:1; 
stroke-linecap:round; stroke-linejoin:round;">
<path d="M19104 48735
L17489 48735
" />
<path d="M17489 48734
L17489 53104
" />
<path d="M17489 53104
L19104 53104
" />
<path d="M19104 48419
L23710 48419
" />
<path d="M23710 48419
L23710 53459
" />
<path d="M23710 53459
L19104 53459
" />
<path d="M19104 53459
L19104 48419
" />
</g>
<g style="fill:#000000; fill-opacity:0.0; 
stroke:#000000; stroke-width:59.0551; stroke-opacity:1; 
stroke-linecap:round; stroke-linejoin:round;">
<path d="M41715 43150
L42715 43150
" />
<path d="M40604 43039
L41215 43039
" />
<path d="M41715 43150
L41715 44150
" />
<path d="M41215 44260
L40604 44260
" />
<path d="M40604 44260
L40604 43039
" />
<path d="M41715 44150
L42715 44150
" />
<path d="M42715 44150
L42715 43150
" />
<path d="M38835 45635
L38835 42635
" />
<path d="M37835 45635
L37835 42635
" />
<path d="M37724 46745
L37724 46135
" />
<path d="M38835 42635
L37835 42635
" />
<path d="M37835 45635
L38835 45635
" />
<path d="M38945 46135
L38945 46745
" />
<path d="M38945 46745
L37724 46745
" />
<path d="M20520 55615
L20126 55615
L20126 55465
L20145 55428
L20164 55409
L20201 55390
L20257 55390
L20295 55409
L20314 55428
L20332 55465
L20332 55615
" />
<path d="M20164 55240
L20145 55221
L20126 55184
L20126 55090
L20145 55053
L20164 55034
L20201 55015
L20239 55015
L20295 55034
L20520 55259
L20520 55015
" />
</g>
<g style="fill:#000000; fill-opacity:0.0; 
stroke:#000000; stroke-width:38.3858; stroke-opacity:1; 
stroke-linecap:round; stroke-linejoin:round;">
<path d="M34020 50922
L34020 51129
L34032 51153
L34045 51165
L34069 51178
L34118 51178
L34142 51165
L34154 51153
L34166 51129
L34166 50922
" />
<path d="M34422 51178
L34276 51178
" />
<path d="M34349 51178
L34349 50922
L34325 50958
L34300 50983
L34276 50995
" />
<path d="M34642 51007
L34642 51178
" />
<path d="M34581 50909
L34520 51092
L34678 51092
" />
<path d="M33295 52693
L33466 52693
L33356 52949
" />
<path d="M33673 52779
L33673 52949
" />
<path d="M33612 52681
L33551 52864
L33709 52864
" />
<path d="M33929 52949
L33807 52949
L33807 52693
" />
<path d="M33978 52693
L34063 52949
L34148 52693
" />
<path d="M34380 52925
L34367 52937
L34331 52949
L34307 52949
L34270 52937
L34246 52913
L34233 52888
L34221 52840
L34221 52803
L34233 52754
L34246 52730
L34270 52706
L34307 52693
L34331 52693
L34367 52706
L34380 52718
" />
<path d="M34477 52718
L34489 52706
L34514 52693
L34575 52693
L34599 52706
L34611 52718
L34623 52742
L34623 52766
L34611 52803
L34465 52949
L34623 52949
" />
<path d="M34867 52706
L34843 52693
L34806 52693
L34770 52706
L34745 52730
L34733 52754
L34721 52803
L34721 52840
L34733 52888
L34745 52913
L34770 52937
L34806 52949
L34831 52949
L34867 52937
L34879 52925
L34879 52840
L34831 52840
" />
<path d="M34965 52693
L35135 52693
L35026 52949
" />
<path d="M35342 52779
L35342 52949
" />
<path d="M35281 52681
L35220 52864
L35379 52864
" />
</g>
<g style="fill:#000000; fill-opacity:0.0; 
stroke:#000000; stroke-width:39.3701; stroke-opacity:1; 
stroke-linecap:round; stroke-linejoin:round;">
<path d="M33456 51307
L33486 51307
L33516 51322
L33531 51352
L33531 51382
L33516 51412
L33486 51427
L33456 51427
L33426 51412
L33411 51382
L33411 51352
L33426 51322
L33456 51307
" />
</g>
<g style="fill:#000000; fill-opacity:0.0; 
stroke:#000000; stroke-width:59.0551; stroke-opacity:1; 
stroke-linecap:round; stroke-linejoin:round;">
<path d="M38504 53411
L38486 53430
L38429 53449
L38392 53449
L38336 53430
L38298 53392
L38279 53355
L38261 53280
L38261 53224
L38279 53149
L38298 53111
L38336 53074
L38392 53055
L38429 53055
L38486 53074
L38504 53092
" />
<path d="M38879 53449
L38654 53449
" />
<path d="M38767 53449
L38767 53055
L38729 53111
L38692 53149
L38654 53167
" />
<path d="M39104 53224
L39067 53205
L39048 53186
L39029 53149
L39029 53130
L39048 53092
L39067 53074
L39104 53055
L39179 53055
L39217 53074
L39235 53092
L39254 53130
L39254 53149
L39235 53186
L39217 53205
L39179 53224
L39104 53224
L39067 53242
L39048 53261
L39029 53299
L39029 53374
L39048 53411
L39067 53430
L39104 53449
L39179 53449
L39217 53430
L39235 53411
L39254 53374
L39254 53299
L39235 53261
L39217 53242
L39179 53224
" />
<path d="M43650 54353
L43518 54165
" />
<path d="M43425 54353
L43425 53959
L43575 53959
L43612 53978
L43631 53996
L43650 54034
L43650 54090
L43631 54128
L43612 54146
L43575 54165
L43425 54165
" />
<path d="M43818 54146
L43950 54146
" />
<path d="M44006 54353
L43818 54353
L43818 53959
L44006 53959
" />
<path d="M44306 54146
L44175 54146
" />
<path d="M44175 54353
L44175 53959
L44362 53959
" />
<path d="M44568 53959
L44568 54053
" />
<path d="M44474 54015
L44568 54053
L44662 54015
" />
<path d="M44512 54128
L44568 54053
L44624 54128
" />
<path d="M44868 53959
L44868 54053
" />
<path d="M44774 54015
L44868 54053
L44962 54015
" />
<path d="M44812 54128
L44868 54053
L44924 54128
" />
<path d="M43650 36803
L43518 36615
" />
<path d="M43425 36803
L43425 36409
L43575 36409
L43612 36428
L43631 36446
L43650 36484
L43650 36540
L43631 36578
L43612 36596
L43575 36615
L43425 36615
" />
<path d="M43818 36596
L43950 36596
" />
<path d="M44006 36803
L43818 36803
L43818 36409
L44006 36409
" />
<path d="M44306 36596
L44175 36596
" />
<path d="M44175 36803
L44175 36409
L44362 36409
" />
<path d="M44568 36409
L44568 36503
" />
<path d="M44474 36465
L44568 36503
L44662 36465
" />
<path d="M44512 36578
L44568 36503
L44624 36578
" />
<path d="M44868 36409
L44868 36503
" />
<path d="M44774 36465
L44868 36503
L44962 36465
" />
<path d="M44812 36578
L44868 36503
L44924 36578
" />
<path d="M10275 36778
L10143 36590
" />
<path d="M10050 36778
L10050 36384
L10200 36384
L10237 36403
L10256 36421
L10275 36459
L10275 36515
L10256 36553
L10237 36571
L10200 36590
L10050 36590
" />
<path d="M10443 36571
L10575 36571
" />
<path d="M10631 36778
L10443 36778
L10443 36384
L10631 36384
" />
<path d="M10931 36571
L10800 36571
" />
<path d="M10800 36778
L10800 36384
L10987 36384
" />
<path d="M11193 36384
L11193 36478
" />
<path d="M11099 36440
L11193 36478
L11287 36440
" />
<path d="M11137 36553
L11193 36478
L11249 36553
" />
<path d="M11493 36384
L11493 36478
" />
<path d="M11399 36440
L11493 36478
L11587 36440
" />
<path d="M11437 36553
L11493 36478
L11549 36553
" />
<path d="M33305 38274
L33305 38593
L33323 38631
L33342 38649
L33380 38668
L33455 38668
L33492 38649
L33511 38631
L33530 38593
L33530 38274
" />
<path d="M33904 38274
L33717 38274
L33698 38462
L33717 38443
L33754 38424
L33848 38424
L33886 38443
L33904 38462
L33923 38499
L33923 38593
L33904 38631
L33886 38649
L33848 38668
L33754 38668
L33717 38649
L33698 38631
" />
<path d="M10396 38933
L10396 38539
L10546 38539
L10584 38558
L10603 38577
L10621 38614
L10621 38670
L10603 38708
L10584 38726
L10546 38745
L10396 38745
" />
<path d="M10809 38933
L10884 38933
L10921 38914
L10940 38895
L10977 38839
L10996 38764
L10996 38614
L10977 38577
L10959 38558
L10921 38539
L10846 38539
L10809 38558
L10790 38577
L10771 38614
L10771 38708
L10790 38745
L10809 38764
L10846 38783
L10921 38783
L10959 38764
L10977 38745
L10996 38708
" />
<path d="M19499 47652
L19480 47671
L19424 47689
L19386 47689
L19330 47671
L19293 47633
L19274 47596
L19255 47521
L19255 47464
L19274 47389
L19293 47352
L19330 47314
L19386 47296
L19424 47296
L19480 47314
L19499 47333
" />
<path d="M19874 47689
L19649 47689
" />
<path d="M19761 47689
L19761 47296
L19724 47352
L19686 47389
L19649 47408
" />
<path d="M28441 47553
L28460 47572
L28479 47628
L28479 47666
L28460 47722
L28423 47759
L28385 47778
L28310 47797
L28254 47797
L28179 47778
L28141 47759
L28104 47722
L28085 47666
L28085 47628
L28104 47572
L28123 47553
" />
<path d="M28123 47403
L28104 47384
L28085 47347
L28085 47253
L28104 47216
L28123 47197
L28160 47178
L28198 47178
L28254 47197
L28479 47422
L28479 47178
" />
<path d="M19951 45085
L19970 45104
L19988 45160
L19988 45198
L19970 45254
L19932 45291
L19895 45310
L19820 45329
L19763 45329
L19688 45310
L19651 45291
L19613 45254
L19595 45198
L19595 45160
L19613 45104
L19632 45085
" />
<path d="M19595 44954
L19595 44710
L19745 44841
L19745 44785
L19763 44748
L19782 44729
L19820 44710
L19913 44710
L19951 44729
L19970 44748
L19988 44785
L19988 44898
L19970 44935
L19951 44954
" />
<path d="M22212 41260
L22231 41279
L22249 41335
L22249 41373
L22231 41429
L22193 41466
L22156 41485
L22081 41504
L22024 41504
L21949 41485
L21912 41466
L21874 41429
L21856 41373
L21856 41335
L21874 41279
L21893 41260
" />
<path d="M21987 40923
L22249 40923
" />
<path d="M21837 41016
L22118 41110
L22118 40866
" />
<path d="M19214 46829
L19195 46848
L19139 46867
L19101 46867
L19045 46848
L19008 46811
L18989 46773
L18970 46698
L18970 46642
L18989 46567
L19008 46529
L19045 46492
L19101 46473
L19139 46473
L19195 46492
L19214 46511
" />
<path d="M19570 46473
L19383 46473
L19364 46661
L19383 46642
L19420 46623
L19514 46623
L19551 46642
L19570 46661
L19589 46698
L19589 46792
L19570 46829
L19551 46848
L19514 46867
L19420 46867
L19383 46848
L19364 46829
" />
<path d="M21269 41505
L21288 41524
L21307 41580
L21307 41618
L21288 41674
L21251 41711
L21213 41730
L21138 41749
L21082 41749
L21007 41730
L20969 41711
L20932 41674
L20913 41618
L20913 41580
L20932 41524
L20951 41505
" />
<path d="M20913 41168
L20913 41243
L20932 41280
L20951 41299
L21007 41336
L21082 41355
L21232 41355
L21269 41336
L21288 41318
L21307 41280
L21307 41205
L21288 41168
L21269 41149
L21232 41130
L21138 41130
L21101 41149
L21082 41168
L21063 41205
L21063 41280
L21082 41318
L21101 41336
L21138 41355
" />
<path d="M14211 44865
L14230 44884
L14248 44940
L14248 44978
L14230 45034
L14192 45071
L14155 45090
L14080 45109
L14023 45109
L13948 45090
L13911 45071
L13873 45034
L13855 44978
L13855 44940
L13873 44884
L13892 44865
" />
<path d="M13855 44734
L13855 44471
L14248 44640
" />
<path d="M16354 39231
L16335 39250
L16279 39268
L16241 39268
L16185 39250
L16148 39212
L16129 39175
L16110 39100
L16110 39043
L16129 38968
L16148 38931
L16185 38893
L16241 38875
L16279 38875
L16335 38893
L16354 38912
" />
<path d="M16579 39043
L16541 39025
L16523 39006
L16504 38968
L16504 38950
L16523 38912
L16541 38893
L16579 38875
L16654 38875
L16691 38893
L16710 38912
L16729 38950
L16729 38968
L16710 39006
L16691 39025
L16654 39043
L16579 39043
L16541 39062
L16523 39081
L16504 39118
L16504 39193
L16523 39231
L16541 39250
L16579 39268
L16654 39268
L16691 39250
L16710 39231
L16729 39193
L16729 39118
L16710 39081
L16691 39062
L16654 39043
" />
<path d="M13791 41705
L13810 41724
L13828 41780
L13828 41818
L13810 41874
L13772 41911
L13735 41930
L13660 41949
L13603 41949
L13528 41930
L13491 41911
L13453 41874
L13435 41818
L13435 41780
L13453 41724
L13472 41705
" />
<path d="M13828 41518
L13828 41443
L13810 41405
L13791 41386
L13735 41349
L13660 41330
L13510 41330
L13472 41349
L13453 41368
L13435 41405
L13435 41480
L13453 41518
L13472 41536
L13510 41555
L13603 41555
L13641 41536
L13660 41518
L13678 41480
L13678 41405
L13660 41368
L13641 41349
L13603 41330
" />
<path d="M31846 46128
L31865 46146
L31883 46203
L31883 46240
L31865 46296
L31827 46334
L31790 46353
L31715 46371
L31658 46371
L31583 46353
L31546 46334
L31508 46296
L31490 46240
L31490 46203
L31508 46146
L31527 46128
" />
<path d="M31883 45753
L31883 45978
" />
<path d="M31883 45865
L31490 45865
L31546 45903
L31583 45940
L31602 45978
" />
<path d="M31490 45509
L31490 45471
L31508 45434
L31527 45415
L31565 45396
L31640 45378
L31733 45378
L31808 45396
L31846 45415
L31865 45434
L31883 45471
L31883 45509
L31865 45546
L31846 45565
L31808 45584
L31733 45603
L31640 45603
L31565 45584
L31527 45565
L31508 45546
L31490 45509
" />
<path d="M43796 46638
L43778 46657
L43721 46676
L43684 46676
L43628 46657
L43590 46620
L43571 46582
L43553 46507
L43553 46451
L43571 46376
L43590 46338
L43628 46301
L43684 46282
L43721 46282
L43778 46301
L43796 46320
" />
<path d="M44171 46676
L43946 46676
" />
<path d="M44059 46676
L44059 46282
L44021 46338
L43984 46376
L43946 46395
" />
<path d="M44546 46676
L44321 46676
" />
<path d="M44434 46676
L44434 46282
L44396 46338
L44359 46376
L44321 46395
" />
<path d="M20641 38523
L20660 38541
L20678 38598
L20678 38635
L20660 38691
L20622 38729
L20585 38748
L20510 38766
L20453 38766
L20378 38748
L20341 38729
L20303 38691
L20285 38635
L20285 38598
L20303 38541
L20322 38523
" />
<path d="M20678 38148
L20678 38373
" />
<path d="M20678 38260
L20285 38260
L20341 38298
L20378 38335
L20397 38373
" />
<path d="M20322 37998
L20303 37979
L20285 37941
L20285 37848
L20303 37810
L20322 37791
L20360 37773
L20397 37773
L20453 37791
L20678 38016
L20678 37773
" />
<path d="M18707 38133
L18726 38151
L18744 38208
L18744 38245
L18726 38301
L18688 38339
L18651 38358
L18576 38376
L18519 38376
L18444 38358
L18407 38339
L18369 38301
L18351 38245
L18351 38208
L18369 38151
L18388 38133
" />
<path d="M18744 37758
L18744 37983
" />
<path d="M18744 37870
L18351 37870
L18407 37908
L18444 37945
L18463 37983
" />
<path d="M18351 37626
L18351 37383
L18501 37514
L18501 37458
L18519 37420
L18538 37401
L18576 37383
L18669 37383
L18707 37401
L18726 37420
L18744 37458
L18744 37570
L18726 37608
L18707 37626
" />
<path d="M13093 38433
L13112 38451
L13131 38508
L13131 38545
L13112 38601
L13075 38639
L13037 38658
L12962 38676
L12906 38676
L12831 38658
L12793 38639
L12756 38601
L12737 38545
L12737 38508
L12756 38451
L12775 38433
" />
<path d="M13131 38058
L13131 38283
" />
<path d="M13131 38170
L12737 38170
L12793 38208
L12831 38245
L12850 38283
" />
<path d="M12868 37720
L13131 37720
" />
<path d="M12718 37814
L13000 37908
L13000 37664
" />
<path d="M14607 44713
L14626 44731
L14644 44788
L14644 44825
L14626 44881
L14588 44919
L14551 44938
L14476 44956
L14419 44956
L14344 44938
L14307 44919
L14269 44881
L14251 44825
L14251 44788
L14269 44731
L14288 44713
" />
<path d="M14644 44338
L14644 44563
" />
<path d="M14644 44450
L14251 44450
L14307 44488
L14344 44525
L14363 44563
" />
<path d="M14251 43981
L14251 44169
L14438 44188
L14419 44169
L14401 44131
L14401 44038
L14419 44000
L14438 43981
L14476 43963
L14569 43963
L14607 43981
L14626 44000
L14644 44038
L14644 44131
L14626 44169
L14607 44188
" />
<path d="M19211 38223
L19193 38242
L19136 38261
L19099 38261
L19043 38242
L19005 38205
L18986 38167
L18968 38092
L18968 38036
L18986 37961
L19005 37923
L19043 37886
L19099 37867
L19136 37867
L19193 37886
L19211 37905
" />
<path d="M19586 38261
L19361 38261
" />
<path d="M19474 38261
L19474 37867
L19436 37923
L19399 37961
L19361 37980
" />
<path d="M19924 37867
L19849 37867
L19811 37886
L19793 37905
L19755 37961
L19736 38036
L19736 38186
L19755 38223
L19774 38242
L19811 38261
L19886 38261
L19924 38242
L19943 38223
L19961 38186
L19961 38092
L19943 38055
L19924 38036
L19886 38017
L19811 38017
L19774 38036
L19755 38055
L19736 38092
" />
<path d="M19781 37373
L19763 37392
L19706 37411
L19669 37411
L19613 37392
L19575 37355
L19556 37317
L19538 37242
L19538 37186
L19556 37111
L19575 37073
L19613 37036
L19669 37017
L19706 37017
L19763 37036
L19781 37055
" />
<path d="M20156 37411
L19931 37411
" />
<path d="M20044 37411
L20044 37017
L20006 37073
L19969 37111
L19931 37130
" />
<path d="M20288 37017
L20550 37017
L20381 37411
" />
<path d="M36471 42846
L36453 42865
L36396 42883
L36359 42883
L36303 42865
L36265 42827
L36246 42790
L36228 42715
L36228 42658
L36246 42583
L36265 42546
L36303 42508
L36359 42490
L36396 42490
L36453 42508
L36471 42527
" />
<path d="M36846 42883
L36621 42883
" />
<path d="M36734 42883
L36734 42490
L36696 42546
L36659 42583
L36621 42602
" />
<path d="M37034 42883
L37109 42883
L37146 42865
L37165 42846
L37203 42790
L37221 42715
L37221 42565
L37203 42527
L37184 42508
L37146 42490
L37071 42490
L37034 42508
L37015 42527
L36996 42565
L36996 42658
L37015 42696
L37034 42715
L37071 42733
L37146 42733
L37184 42715
L37203 42696
L37221 42658
" />
<path d="M23383 42658
L23402 42676
L23421 42733
L23421 42770
L23402 42826
L23365 42864
L23327 42883
L23252 42901
L23196 42901
L23121 42883
L23083 42864
L23046 42826
L23027 42770
L23027 42733
L23046 42676
L23065 42658
" />
<path d="M23065 42508
L23046 42489
L23027 42451
L23027 42358
L23046 42320
L23065 42301
L23102 42283
L23140 42283
L23196 42301
L23421 42526
L23421 42283
" />
<path d="M23027 42039
L23027 42001
L23046 41964
L23065 41945
L23102 41926
L23177 41908
L23271 41908
L23346 41926
L23383 41945
L23402 41964
L23421 42001
L23421 42039
L23402 42076
L23383 42095
L23346 42114
L23271 42133
L23177 42133
L23102 42114
L23065 42095
L23046 42076
L23027 42039
" />
<path d="M36696 41558
L36715 41576
L36733 41633
L36733 41670
L36715 41726
L36677 41764
L36640 41783
L36565 41801
L36508 41801
L36433 41783
L36396 41764
L36358 41726
L36340 41670
L36340 41633
L36358 41576
L36377 41558
" />
<path d="M36377 41408
L36358 41389
L36340 41351
L36340 41258
L36358 41220
L36377 41201
L36415 41183
L36452 41183
L36508 41201
L36733 41426
L36733 41183
" />
<path d="M36733 40808
L36733 41033
" />
<path d="M36733 40920
L36340 40920
L36396 40958
L36433 40995
L36452 41033
" />
<path d="M26006 42122
L25988 42141
L25931 42159
L25894 42159
L25838 42141
L25800 42103
L25781 42066
L25763 41991
L25763 41934
L25781 41859
L25800 41822
L25838 41784
L25894 41766
L25931 41766
L25988 41784
L26006 41803
" />
<path d="M26156 41803
L26175 41784
L26213 41766
L26306 41766
L26344 41784
L26363 41803
L26381 41841
L26381 41878
L26363 41934
L26138 42159
L26381 42159
" />
<path d="M26531 41803
L26550 41784
L26588 41766
L26681 41766
L26719 41784
L26738 41803
L26756 41841
L26756 41878
L26738 41934
L26513 42159
L26756 42159
" />
<path d="M36661 42763
L36680 42781
L36698 42838
L36698 42875
L36680 42931
L36642 42969
L36605 42988
L36530 43006
L36473 43006
L36398 42988
L36361 42969
L36323 42931
L36305 42875
L36305 42838
L36323 42781
L36342 42763
" />
<path d="M36342 42613
L36323 42594
L36305 42556
L36305 42463
L36323 42425
L36342 42406
L36380 42388
L36417 42388
L36473 42406
L36698 42631
L36698 42388
" />
<path d="M36305 42256
L36305 42013
L36455 42144
L36455 42088
L36473 42050
L36492 42031
L36530 42013
L36623 42013
L36661 42031
L36680 42050
L36698 42088
L36698 42200
L36680 42238
L36661 42256
" />
<path d="M28352 41723
L28371 41741
L28389 41798
L28389 41835
L28371 41891
L28333 41929
L28296 41948
L28221 41966
L28164 41966
L28089 41948
L28052 41929
L28014 41891
L27996 41835
L27996 41798
L28014 41741
L28033 41723
" />
<path d="M28033 41573
L28014 41554
L27996 41516
L27996 41423
L28014 41385
L28033 41366
L28071 41348
L28108 41348
L28164 41366
L28389 41591
L28389 41348
" />
<path d="M28127 41010
L28389 41010
" />
<path d="M27977 41104
L28258 41198
L28258 40954
" />
<path d="M26766 43066
L26748 43085
L26691 43103
L26654 43103
L26598 43085
L26560 43047
L26541 43010
L26523 42935
L26523 42878
L26541 42803
L26560 42766
L26598 42728
L26654 42710
L26691 42710
L26748 42728
L26766 42747
" />
<path d="M26916 42747
L26935 42728
L26973 42710
L27066 42710
L27104 42728
L27123 42747
L27141 42785
L27141 42822
L27123 42878
L26898 43103
L27141 43103
" />
<path d="M27498 42710
L27310 42710
L27291 42897
L27310 42878
L27348 42860
L27441 42860
L27479 42878
L27498 42897
L27516 42935
L27516 43028
L27498 43066
L27479 43085
L27441 43103
L27348 43103
L27310 43085
L27291 43066
" />
<path d="M32071 47171
L32053 47190
L31996 47208
L31959 47208
L31903 47190
L31865 47152
L31846 47115
L31828 47040
L31828 46983
L31846 46908
L31865 46871
L31903 46833
L31959 46815
L31996 46815
L32053 46833
L32071 46852
" />
<path d="M32221 46852
L32240 46833
L32278 46815
L32371 46815
L32409 46833
L32428 46852
L32446 46890
L32446 46927
L32428 46983
L32203 47208
L32446 47208
" />
<path d="M32784 46815
L32709 46815
L32671 46833
L32653 46852
L32615 46908
L32596 46983
L32596 47133
L32615 47171
L32634 47190
L32671 47208
L32746 47208
L32784 47190
L32803 47171
L32821 47133
L32821 47040
L32803 47002
L32784 46983
L32746 46965
L32671 46965
L32634 46983
L32615 47002
L32596 47040
" />
<path d="M41009 51813
L41028 51831
L41047 51888
L41047 51925
L41028 51981
L40991 52019
L40953 52038
L40878 52056
L40822 52056
L40747 52038
L40709 52019
L40672 51981
L40653 51925
L40653 51888
L40672 51831
L40691 51813
" />
<path d="M40691 51663
L40672 51644
L40653 51606
L40653 51513
L40672 51475
L40691 51456
L40728 51438
L40766 51438
L40822 51456
L41047 51681
L41047 51438
" />
<path d="M40653 51306
L40653 51044
L41047 51213
" />
<path d="M30842 55603
L30861 55621
L30879 55678
L30879 55715
L30861 55771
L30823 55809
L30786 55828
L30711 55846
L30654 55846
L30579 55828
L30542 55809
L30504 55771
L30486 55715
L30486 55678
L30504 55621
L30523 55603
" />
<path d="M30523 55453
L30504 55434
L30486 55396
L30486 55303
L30504 55265
L30523 55246
L30561 55228
L30598 55228
L30654 55246
L30879 55471
L30879 55228
" />
<path d="M30654 55003
L30636 55040
L30617 55059
L30579 55078
L30561 55078
L30523 55059
L30504 55040
L30486 55003
L30486 54928
L30504 54890
L30523 54871
L30561 54853
L30579 54853
L30617 54871
L30636 54890
L30654 54928
L30654 55003
L30673 55040
L30692 55059
L30729 55078
L30804 55078
L30842 55059
L30861 55040
L30879 55003
L30879 54928
L30861 54890
L30842 54871
L30804 54853
L30729 54853
L30692 54871
L30673 54890
L30654 54928
" />
<path d="M40947 50353
L40966 50371
L40984 50428
L40984 50465
L40966 50521
L40928 50559
L40891 50578
L40816 50596
L40759 50596
L40684 50578
L40647 50559
L40609 50521
L40591 50465
L40591 50428
L40609 50371
L40628 50353
" />
<path d="M40628 50203
L40609 50184
L40591 50146
L40591 50053
L40609 50015
L40628 49996
L40666 49978
L40703 49978
L40759 49996
L40984 50221
L40984 49978
" />
<path d="M40984 49790
L40984 49715
L40966 49678
L40947 49659
L40891 49621
L40816 49603
L40666 49603
L40628 49621
L40609 49640
L40591 49678
L40591 49753
L40609 49790
L40628 49809
L40666 49828
L40759 49828
L40797 49809
L40816 49790
L40834 49753
L40834 49678
L40816 49640
L40797 49621
L40759 49603
" />
<path d="M44616 49425
L44635 49443
L44654 49500
L44654 49537
L44635 49593
L44597 49631
L44560 49650
L44485 49668
L44429 49668
L44354 49650
L44316 49631
L44279 49593
L44260 49537
L44260 49500
L44279 49443
L44297 49425
" />
<path d="M44260 49293
L44260 49050
L44410 49181
L44410 49125
L44429 49087
L44447 49069
L44485 49050
L44579 49050
L44616 49069
L44635 49087
L44654 49125
L44654 49237
L44635 49275
L44616 49293
" />
<path d="M44260 48806
L44260 48769
L44279 48731
L44297 48712
L44335 48694
L44410 48675
L44504 48675
L44579 48694
L44616 48712
L44635 48731
L44654 48769
L44654 48806
L44635 48844
L44616 48862
L44579 48881
L44504 48900
L44410 48900
L44335 48881
L44297 48862
L44279 48844
L44260 48806
" />
<path d="M35392 55578
L35411 55596
L35429 55653
L35429 55690
L35411 55746
L35373 55784
L35336 55803
L35261 55821
L35204 55821
L35129 55803
L35092 55784
L35054 55746
L35036 55690
L35036 55653
L35054 55596
L35073 55578
" />
<path d="M35036 55446
L35036 55203
L35186 55334
L35186 55278
L35204 55240
L35223 55221
L35261 55203
L35354 55203
L35392 55221
L35411 55240
L35429 55278
L35429 55390
L35411 55428
L35392 55446
" />
<path d="M35429 54828
L35429 55053
" />
<path d="M35429 54940
L35036 54940
L35092 54978
L35129 55015
L35148 55053
" />
<path d="M45661 53070
L45680 53088
L45699 53145
L45699 53182
L45680 53238
L45642 53276
L45605 53295
L45530 53313
L45474 53313
L45399 53295
L45361 53276
L45324 53238
L45305 53182
L45305 53145
L45324 53088
L45342 53070
" />
<path d="M45305 52938
L45305 52695
L45455 52826
L45455 52770
L45474 52732
L45492 52714
L45530 52695
L45624 52695
L45661 52714
L45680 52732
L45699 52770
L45699 52882
L45680 52920
L45661 52938
" />
<path d="M45342 52545
L45324 52526
L45305 52489
L45305 52395
L45324 52357
L45342 52339
L45380 52320
L45417 52320
L45474 52339
L45699 52564
L45699 52320
" />
<path d="M35688 54878
L35707 54896
L35726 54953
L35726 54990
L35707 55046
L35670 55084
L35632 55103
L35557 55121
L35501 55121
L35426 55103
L35388 55084
L35351 55046
L35332 54990
L35332 54953
L35351 54896
L35370 54878
" />
<path d="M35332 54746
L35332 54503
L35482 54634
L35482 54578
L35501 54540
L35520 54521
L35557 54503
L35651 54503
L35688 54521
L35707 54540
L35726 54578
L35726 54690
L35707 54728
L35688 54746
" />
<path d="M35332 54371
L35332 54128
L35482 54259
L35482 54203
L35501 54165
L35520 54146
L35557 54128
L35651 54128
L35688 54146
L35707 54165
L35726 54203
L35726 54315
L35707 54353
L35688 54371
" />
<path d="M38771 54392
L38753 54411
L38696 54429
L38659 54429
L38603 54411
L38565 54373
L38546 54336
L38528 54261
L38528 54204
L38546 54129
L38565 54092
L38603 54054
L38659 54036
L38696 54036
L38753 54054
L38771 54073
" />
<path d="M38903 54036
L39146 54036
L39015 54186
L39071 54186
L39109 54204
L39128 54223
L39146 54261
L39146 54354
L39128 54392
L39109 54411
L39071 54429
L38959 54429
L38921 54411
L38903 54392
" />
<path d="M39484 54167
L39484 54429
" />
<path d="M39390 54017
L39296 54298
L39540 54298
" />
<path d="M43967 51833
L43986 51851
L44004 51908
L44004 51945
L43986 52001
L43948 52039
L43911 52058
L43836 52076
L43779 52076
L43704 52058
L43667 52039
L43629 52001
L43611 51945
L43611 51908
L43629 51851
L43648 51833
" />
<path d="M43611 51701
L43611 51458
L43761 51589
L43761 51533
L43779 51495
L43798 51476
L43836 51458
L43929 51458
L43967 51476
L43986 51495
L44004 51533
L44004 51645
L43986 51683
L43967 51701
" />
<path d="M43611 51101
L43611 51289
L43798 51308
L43779 51289
L43761 51251
L43761 51158
L43779 51120
L43798 51101
L43836 51083
L43929 51083
L43967 51101
L43986 51120
L44004 51158
L44004 51251
L43986 51289
L43967 51308
" />
</g>
<g style="fill:#000000; fill-opacity:0.0; 
stroke:#000000; stroke-width:47; stroke-opacity:1; 
stroke-linecap:round; stroke-linejoin:round;">
<path d="M30884 52629
L30884 52235
L30978 52235
L31034 52254
L31071 52291
L31090 52329
L31109 52404
L31109 52460
L31090 52535
L31071 52572
L31034 52610
L30978 52629
L30884 52629
" />
<path d="M31484 52629
L31259 52629
" />
<path d="M31372 52629
L31372 52235
L31334 52291
L31296 52329
L31259 52347
" />
<path d="M29674 54755
L29674 54361
L29767 54361
L29824 54380
L29861 54417
L29880 54455
L29899 54530
L29899 54586
L29880 54661
L29861 54698
L29824 54736
L29767 54755
L29674 54755
" />
<path d="M29974 54792
L30274 54792
" />
<path d="M30349 54736
L30405 54755
L30499 54755
L30537 54736
L30555 54717
L30574 54680
L30574 54642
L30555 54605
L30537 54586
L30499 54567
L30424 54548
L30386 54530
L30368 54511
L30349 54473
L30349 54436
L30368 54398
L30386 54380
L30424 54361
L30518 54361
L30574 54380
" />
<path d="M30912 54736
L30874 54755
L30799 54755
L30762 54736
L30743 54717
L30724 54680
L30724 54567
L30743 54530
L30762 54511
L30799 54492
L30874 54492
L30912 54511
" />
<path d="M31081 54755
L31081 54361
" />
<path d="M31250 54755
L31250 54548
L31231 54511
L31193 54492
L31137 54492
L31099 54511
L31081 54530
" />
<path d="M31493 54755
L31456 54736
L31437 54717
L31418 54680
L31418 54567
L31437 54530
L31456 54511
L31493 54492
L31550 54492
L31587 54511
L31606 54530
L31625 54567
L31625 54680
L31606 54717
L31587 54736
L31550 54755
L31493 54755
" />
<path d="M31737 54492
L31887 54492
" />
<path d="M31794 54361
L31794 54698
L31812 54736
L31850 54755
L31887 54755
" />
<path d="M31963 54492
L32113 54492
" />
<path d="M32019 54361
L32019 54698
L32038 54736
L32075 54755
L32113 54755
" />
<path d="M32244 54755
L32244 54361
" />
<path d="M32281 54605
L32394 54755
" />
<path d="M32394 54492
L32244 54642
" />
<path d="M32525 54492
L32619 54755
" />
<path d="M32713 54492
L32619 54755
L32582 54849
L32563 54867
L32525 54886
" />
<path d="M41184 55277
L41184 54883
L41278 54883
L41334 54902
L41371 54939
L41390 54977
L41409 55052
L41409 55108
L41390 55183
L41371 55220
L41334 55258
L41278 55277
L41184 55277
" />
<path d="M41559 54920
L41578 54902
L41615 54883
L41709 54883
L41747 54902
L41765 54920
L41784 54958
L41784 54995
L41765 55052
L41540 55277
L41784 55277
" />
<path d="M39974 53151
L39974 52757
L40067 52757
L40124 52776
L40161 52813
L40180 52851
L40199 52926
L40199 52982
L40180 53057
L40161 53094
L40124 53132
L40067 53151
L39974 53151
" />
<path d="M40274 53188
L40574 53188
" />
<path d="M40649 53132
L40705 53151
L40799 53151
L40837 53132
L40855 53113
L40874 53076
L40874 53038
L40855 53001
L40837 52982
L40799 52963
L40724 52944
L40686 52926
L40668 52907
L40649 52869
L40649 52832
L40668 52794
L40686 52776
L40724 52757
L40818 52757
L40874 52776
" />
<path d="M41212 53132
L41174 53151
L41099 53151
L41062 53132
L41043 53113
L41024 53076
L41024 52963
L41043 52926
L41062 52907
L41099 52888
L41174 52888
L41212 52907
" />
<path d="M41381 53151
L41381 52757
" />
<path d="M41550 53151
L41550 52944
L41531 52907
L41493 52888
L41437 52888
L41399 52907
L41381 52926
" />
<path d="M41793 53151
L41756 53132
L41737 53113
L41718 53076
L41718 52963
L41737 52926
L41756 52907
L41793 52888
L41850 52888
L41887 52907
L41906 52926
L41925 52963
L41925 53076
L41906 53113
L41887 53132
L41850 53151
L41793 53151
" />
<path d="M42037 52888
L42187 52888
" />
<path d="M42094 52757
L42094 53094
L42112 53132
L42150 53151
L42187 53151
" />
<path d="M42263 52888
L42413 52888
" />
<path d="M42319 52757
L42319 53094
L42338 53132
L42375 53151
L42413 53151
" />
<path d="M42544 53151
L42544 52757
" />
<path d="M42581 53001
L42694 53151
" />
<path d="M42694 52888
L42544 53038
" />
<path d="M42825 52888
L42919 53151
" />
<path d="M43013 52888
L42919 53151
L42882 53245
L42863 53263
L42825 53282
" />
</g>
<g style="fill:#000000; fill-opacity:0.0; 
stroke:#000000; stroke-width:59.0551; stroke-opacity:1; 
stroke-linecap:round; stroke-linejoin:round;">
<path d="M22985 55590
L22592 55590
L22592 55440
L22611 55403
L22629 55384
L22667 55365
L22723 55365
L22761 55384
L22779 55403
L22798 55440
L22798 55590
" />
<path d="M22985 54990
L22985 55215
" />
<path d="M22985 55103
L22592 55103
L22648 55140
L22686 55178
L22704 55215
" />
<path d="M19485 55490
L19092 55490
L19092 55340
L19111 55303
L19129 55284
L19167 55265
L19223 55265
L19261 55284
L19279 55303
L19298 55340
L19298 55490
" />
<path d="M19092 55134
L19092 54890
L19242 55021
L19242 54965
L19261 54928
L19279 54909
L19317 54890
L19410 54890
L19448 54909
L19467 54928
L19485 54965
L19485 55078
L19467 55115
L19448 55134
" />
<path d="M39380 45425
L38986 45425
L38986 45275
L39005 45238
L39024 45219
L39061 45200
L39117 45200
L39155 45219
L39174 45238
L39192 45275
L39192 45425
" />
<path d="M38986 44844
L38986 45031
L39174 45050
L39155 45031
L39136 44994
L39136 44900
L39155 44863
L39174 44844
L39211 44825
L39305 44825
L39342 44844
L39361 44863
L39380 44900
L39380 44994
L39361 45031
L39342 45050
" />
<path d="M39479 48320
L39479 47927
L39629 47927
L39666 47946
L39685 47964
L39704 48002
L39704 48058
L39685 48096
L39666 48114
L39629 48133
L39479 48133
" />
<path d="M39835 47927
L40098 47927
L39929 48320
" />
<path d="M43939 39835
L43939 39441
L44089 39441
L44126 39460
L44145 39479
L44164 39516
L44164 39572
L44145 39610
L44126 39629
L44089 39647
L43939 39647
" />
<path d="M44389 39610
L44351 39591
L44333 39572
L44314 39535
L44314 39516
L44333 39479
L44351 39460
L44389 39441
L44464 39441
L44501 39460
L44520 39479
L44539 39516
L44539 39535
L44520 39572
L44501 39591
L44464 39610
L44389 39610
L44351 39629
L44333 39647
L44314 39685
L44314 39760
L44333 39797
L44351 39816
L44389 39835
L44464 39835
L44501 39816
L44520 39797
L44539 39760
L44539 39685
L44520 39647
L44501 39629
L44464 39610
" />
<path d="M37746 45745
L37746 45351
L37896 45351
L37934 45370
L37953 45389
L37971 45426
L37971 45482
L37953 45520
L37934 45539
L37896 45557
L37746 45557
" />
<path d="M38346 45745
L38121 45745
" />
<path d="M38234 45745
L38234 45351
L38196 45407
L38159 45445
L38121 45464
" />
<path d="M38721 45745
L38496 45745
" />
<path d="M38609 45745
L38609 45351
L38571 45407
L38534 45445
L38496 45464
" />
<path d="M27912 54201
L27875 54182
L27837 54145
L27781 54088
L27743 54070
L27706 54070
" />
<path d="M27725 54163
L27687 54145
L27650 54107
L27631 54032
L27631 53901
L27650 53826
L27687 53788
L27725 53770
L27800 53770
L27837 53788
L27875 53826
L27893 53901
L27893 54032
L27875 54107
L27837 54145
L27800 54163
L27725 54163
" />
<path d="M28268 54163
L28043 54163
" />
<path d="M28156 54163
L28156 53770
L28118 53826
L28081 53863
L28043 53882
" />
<path d="M35461 50777
L35442 50814
L35405 50852
L35348 50908
L35330 50946
L35330 50983
" />
<path d="M35423 50964
L35405 51002
L35367 51039
L35292 51058
L35161 51058
L35086 51039
L35048 51002
L35030 50964
L35030 50889
L35048 50852
L35086 50814
L35161 50796
L35292 50796
L35367 50814
L35405 50852
L35423 50889
L35423 50964
" />
<path d="M35067 50646
L35048 50627
L35030 50590
L35030 50496
L35048 50458
L35067 50440
L35105 50421
L35142 50421
L35198 50440
L35423 50665
L35423 50421
" />
<path d="M40626 55062
L40607 55099
L40570 55137
L40513 55193
L40495 55231
L40495 55268
" />
<path d="M40588 55249
L40570 55287
L40532 55324
L40457 55343
L40326 55343
L40251 55324
L40213 55287
L40195 55249
L40195 55174
L40213 55137
L40251 55099
L40326 55081
L40457 55081
L40532 55099
L40570 55137
L40588 55174
L40588 55249
" />
<path d="M40195 54950
L40195 54706
L40345 54837
L40345 54781
L40363 54743
L40382 54725
L40420 54706
L40513 54706
L40551 54725
L40570 54743
L40588 54781
L40588 54893
L40570 54931
L40551 54950
" />
<path d="M42126 42465
L41938 42596
" />
<path d="M42126 42690
L41732 42690
L41732 42540
L41751 42503
L41769 42484
L41807 42465
L41863 42465
L41901 42484
L41919 42503
L41938 42540
L41938 42690
" />
<path d="M42126 42090
L42126 42315
" />
<path d="M42126 42203
L41732 42203
L41788 42240
L41826 42278
L41844 42315
" />
<path d="M43151 42465
L42963 42596
" />
<path d="M43151 42690
L42757 42690
L42757 42540
L42776 42503
L42794 42484
L42832 42465
L42888 42465
L42926 42484
L42944 42503
L42963 42540
L42963 42690
" />
<path d="M42794 42315
L42776 42296
L42757 42259
L42757 42165
L42776 42128
L42794 42109
L42832 42090
L42869 42090
L42926 42109
L43151 42334
L43151 42090
" />
<path d="M28752 48948
L28621 48760
" />
<path d="M28527 48948
L28527 48554
L28677 48554
L28714 48573
L28733 48591
L28752 48629
L28752 48685
L28733 48723
L28714 48741
L28677 48760
L28527 48760
" />
<path d="M28883 48554
L29127 48554
L28996 48704
L29052 48704
L29089 48723
L29108 48741
L29127 48779
L29127 48873
L29108 48910
L29089 48929
L29052 48948
L28939 48948
L28902 48929
L28883 48910
" />
<path d="M27704 49674
L27573 49486
" />
<path d="M27479 49674
L27479 49280
L27629 49280
L27666 49299
L27685 49317
L27704 49355
L27704 49411
L27685 49449
L27666 49467
L27629 49486
L27479 49486
" />
<path d="M28041 49411
L28041 49674
" />
<path d="M27948 49261
L27854 49542
L28098 49542
" />
<path d="M41446 47168
L41315 46980
" />
<path d="M41221 47168
L41221 46774
L41371 46774
L41408 46793
L41427 46811
L41446 46849
L41446 46905
L41427 46943
L41408 46961
L41371 46980
L41221 46980
" />
<path d="M41577 46774
L41840 46774
L41671 47168
" />
<path d="M41905 46440
L41717 46571
" />
<path d="M41905 46665
L41511 46665
L41511 46515
L41530 46478
L41548 46459
L41586 46440
L41642 46440
L41680 46459
L41698 46478
L41717 46515
L41717 46665
" />
<path d="M41680 46215
L41661 46253
L41642 46271
L41605 46290
L41586 46290
L41548 46271
L41530 46253
L41511 46215
L41511 46140
L41530 46103
L41548 46084
L41586 46065
L41605 46065
L41642 46084
L41661 46103
L41680 46140
L41680 46215
L41698 46253
L41717 46271
L41755 46290
L41830 46290
L41867 46271
L41886 46253
L41905 46215
L41905 46140
L41886 46103
L41867 46084
L41830 46065
L41755 46065
L41717 46084
L41698 46103
L41680 46140
" />
<path d="M30866 48933
L30678 49064
" />
<path d="M30866 49158
L30472 49158
L30472 49008
L30491 48970
L30509 48951
L30547 48933
L30603 48933
L30641 48951
L30659 48970
L30678 49008
L30678 49158
" />
<path d="M30866 48558
L30866 48783
" />
<path d="M30866 48670
L30472 48670
L30528 48708
L30566 48745
L30584 48783
" />
<path d="M30866 48183
L30866 48408
" />
<path d="M30866 48295
L30472 48295
L30528 48333
L30566 48370
L30584 48408
" />
<path d="M28826 50753
L28638 50884
" />
<path d="M28826 50978
L28432 50978
L28432 50828
L28451 50790
L28469 50771
L28507 50753
L28563 50753
L28601 50771
L28619 50790
L28638 50828
L28638 50978
" />
<path d="M28826 50378
L28826 50603
" />
<path d="M28826 50490
L28432 50490
L28488 50528
L28526 50565
L28544 50603
" />
<path d="M28469 50228
L28451 50209
L28432 50171
L28432 50078
L28451 50040
L28469 50021
L28507 50003
L28544 50003
L28601 50021
L28826 50246
L28826 50003
" />
<path d="M25296 51605
L25165 51417
" />
<path d="M25071 51605
L25071 51211
L25221 51211
L25259 51230
L25278 51248
L25296 51286
L25296 51342
L25278 51380
L25259 51398
L25221 51417
L25071 51417
" />
<path d="M25671 51605
L25446 51605
" />
<path d="M25559 51605
L25559 51211
L25521 51267
L25484 51305
L25446 51323
" />
<path d="M26009 51342
L26009 51605
" />
<path d="M25915 51192
L25821 51473
L26065 51473
" />
<path d="M26346 51313
L26158 51444
" />
<path d="M26346 51538
L25952 51538
L25952 51388
L25971 51350
L25989 51331
L26027 51313
L26083 51313
L26121 51331
L26139 51350
L26158 51388
L26158 51538
" />
<path d="M26346 50938
L26346 51163
" />
<path d="M26346 51050
L25952 51050
L26008 51088
L26046 51125
L26064 51163
" />
<path d="M25952 50581
L25952 50769
L26139 50788
L26121 50769
L26102 50731
L26102 50638
L26121 50600
L26139 50581
L26177 50563
L26271 50563
L26308 50581
L26327 50600
L26346 50638
L26346 50731
L26327 50769
L26308 50788
" />
<path d="M24630 53703
L24442 53834
" />
<path d="M24630 53928
L24236 53928
L24236 53778
L24255 53740
L24273 53721
L24311 53703
L24367 53703
L24405 53721
L24423 53740
L24442 53778
L24442 53928
" />
<path d="M24630 53328
L24630 53553
" />
<path d="M24630 53440
L24236 53440
L24292 53478
L24330 53515
L24348 53553
" />
<path d="M24236 52990
L24236 53065
L24255 53103
L24273 53121
L24330 53159
L24405 53178
L24555 53178
L24592 53159
L24611 53140
L24630 53103
L24630 53028
L24611 52990
L24592 52971
L24555 52953
L24461 52953
L24423 52971
L24405 52990
L24386 53028
L24386 53103
L24405 53140
L24423 53159
L24461 53178
" />
<path d="M31751 55653
L31563 55784
" />
<path d="M31751 55878
L31357 55878
L31357 55728
L31376 55690
L31394 55671
L31432 55653
L31488 55653
L31526 55671
L31544 55690
L31563 55728
L31563 55878
" />
<path d="M31751 55278
L31751 55503
" />
<path d="M31751 55390
L31357 55390
L31413 55428
L31451 55465
L31469 55503
" />
<path d="M31526 55053
L31507 55090
L31488 55109
L31451 55128
L31432 55128
L31394 55109
L31376 55090
L31357 55053
L31357 54978
L31376 54940
L31394 54921
L31432 54903
L31451 54903
L31488 54921
L31507 54940
L31526 54978
L31526 55053
L31544 55090
L31563 55109
L31601 55128
L31676 55128
L31713 55109
L31732 55090
L31751 55053
L31751 54978
L31732 54940
L31713 54921
L31676 54903
L31601 54903
L31563 54921
L31544 54940
L31526 54978
" />
<path d="M30976 55553
L30788 55684
" />
<path d="M30976 55778
L30582 55778
L30582 55628
L30601 55590
L30620 55571
L30657 55553
L30713 55553
L30751 55571
L30770 55590
L30788 55628
L30788 55778
" />
<path d="M30976 55178
L30976 55403
" />
<path d="M30976 55290
L30582 55290
L30638 55328
L30676 55365
L30695 55403
" />
<path d="M30976 54990
L30976 54915
L30957 54878
L30938 54859
L30882 54821
L30807 54803
L30657 54803
L30620 54821
L30601 54840
L30582 54878
L30582 54953
L30601 54990
L30620 55009
L30657 55028
L30751 55028
L30788 55009
L30807 54990
L30826 54953
L30826 54878
L30807 54840
L30788 54821
L30751 54803
" />
<path d="M33720 49218
L33532 49349
" />
<path d="M33720 49443
L33326 49443
L33326 49293
L33345 49255
L33363 49236
L33401 49218
L33457 49218
L33495 49236
L33513 49255
L33532 49293
L33532 49443
" />
<path d="M33363 49068
L33345 49049
L33326 49011
L33326 48918
L33345 48880
L33363 48861
L33401 48843
L33438 48843
L33495 48861
L33720 49086
L33720 48843
" />
<path d="M33326 48599
L33326 48561
L33345 48524
L33363 48505
L33401 48486
L33476 48468
L33570 48468
L33645 48486
L33682 48505
L33701 48524
L33720 48561
L33720 48599
L33701 48636
L33682 48655
L33645 48674
L33570 48693
L33476 48693
L33401 48674
L33363 48655
L33345 48636
L33326 48599
" />
<path d="M40166 50273
L39978 50404
" />
<path d="M40166 50498
L39772 50498
L39772 50348
L39791 50310
L39809 50291
L39847 50273
L39903 50273
L39941 50291
L39959 50310
L39978 50348
L39978 50498
" />
<path d="M39809 50123
L39791 50104
L39772 50066
L39772 49973
L39791 49935
L39809 49916
L39847 49898
L39884 49898
L39941 49916
L40166 50141
L40166 49898
" />
<path d="M40166 49523
L40166 49748
" />
<path d="M40166 49635
L39772 49635
L39828 49673
L39866 49710
L39884 49748
" />
<path d="M30946 50813
L30758 50944
" />
<path d="M30946 51038
L30552 51038
L30552 50888
L30571 50850
L30589 50831
L30627 50813
L30683 50813
L30721 50831
L30739 50850
L30758 50888
L30758 51038
" />
<path d="M30589 50663
L30571 50644
L30552 50606
L30552 50513
L30571 50475
L30589 50456
L30627 50438
L30664 50438
L30721 50456
L30946 50681
L30946 50438
" />
<path d="M30589 50288
L30571 50269
L30552 50231
L30552 50138
L30571 50100
L30589 50081
L30627 50063
L30664 50063
L30721 50081
L30946 50306
L30946 50063
" />
<path d="M29466 49110
L29335 48922
" />
<path d="M29241 49110
L29241 48716
L29391 48716
L29429 48735
L29448 48753
L29466 48791
L29466 48847
L29448 48885
L29429 48903
L29391 48922
L29241 48922
" />
<path d="M29616 48753
L29635 48735
L29673 48716
L29766 48716
L29804 48735
L29823 48753
L29841 48791
L29841 48828
L29823 48885
L29598 49110
L29841 49110
" />
<path d="M29973 48716
L30216 48716
L30085 48866
L30141 48866
L30179 48885
L30198 48903
L30216 48941
L30216 49035
L30198 49072
L30179 49091
L30141 49110
L30029 49110
L29991 49091
L29973 49072
" />
<path d="M36570 51073
L36382 51204
" />
<path d="M36570 51298
L36176 51298
L36176 51148
L36195 51110
L36213 51091
L36251 51073
L36307 51073
L36345 51091
L36363 51110
L36382 51148
L36382 51298
" />
<path d="M36213 50923
L36195 50904
L36176 50866
L36176 50773
L36195 50735
L36213 50716
L36251 50698
L36288 50698
L36345 50716
L36570 50941
L36570 50698
" />
<path d="M36176 50341
L36176 50529
L36363 50548
L36345 50529
L36326 50491
L36326 50398
L36345 50360
L36363 50341
L36401 50323
L36495 50323
L36532 50341
L36551 50360
L36570 50398
L36570 50491
L36551 50529
L36532 50548
" />
<path d="M22370 36829
L22426 36848
L22520 36848
L22557 36829
L22576 36811
L22595 36773
L22595 36736
L22576 36698
L22557 36679
L22520 36661
L22445 36642
L22407 36623
L22388 36604
L22370 36567
L22370 36529
L22388 36492
L22407 36473
L22445 36454
L22538 36454
L22595 36473
" />
<path d="M22726 36454
L22820 36848
L22895 36567
L22969 36848
L23063 36454
" />
<path d="M23419 36848
L23194 36848
" />
<path d="M23307 36848
L23307 36454
L23269 36511
L23232 36548
L23194 36567
" />
<path d="M25764 48299
L26083 48299
L26120 48281
L26139 48262
L26158 48224
L26158 48149
L26139 48112
L26120 48093
L26083 48074
L25764 48074
" />
<path d="M26158 47681
L26158 47906
" />
<path d="M26158 47793
L25764 47793
L25820 47831
L25858 47868
L25876 47906
" />
<path d="M37006 46234
L37325 46234
L37362 46216
L37381 46197
L37400 46159
L37400 46084
L37381 46047
L37362 46028
L37325 46009
L37006 46009
" />
<path d="M37006 45860
L37006 45616
L37156 45747
L37156 45691
L37175 45653
L37194 45635
L37231 45616
L37325 45616
L37362 45635
L37381 45653
L37400 45691
L37400 45803
L37381 45841
L37362 45860
" />
</g>
<g style="fill:#000000; fill-opacity:0.0; 
stroke:#000000; stroke-width:26; stroke-opacity:1; 
stroke-linecap:round; stroke-linejoin:round;">
<path d="M26000 42164
L26000 42259
L26005 42271
L26011 42276
L26022 42282
L26045 42282
L26056 42276
L26061 42271
L26067 42259
L26067 42164
" />
<path d="M26174 42203
L26174 42282
" />
<path d="M26146 42158
L26118 42243
L26191 42243
" />
<path d="M25775 42676
L25719 42676
L25719 42558
" />
<path d="M25809 42670
L25825 42676
L25854 42676
L25865 42670
L25870 42665
L25876 42653
L25876 42642
L25870 42631
L25865 42625
L25854 42620
L25831 42614
L25820 42608
L25814 42603
L25809 42592
L25809 42580
L25814 42569
L25820 42564
L25831 42558
L25859 42558
L25876 42564
" />
<path d="M25927 42676
L25927 42558
L25966 42642
L26005 42558
L26005 42676
" />
<path d="M26050 42558
L26123 42558
L26084 42603
L26101 42603
L26112 42608
L26118 42614
L26123 42625
L26123 42653
L26118 42665
L26112 42670
L26101 42676
L26067 42676
L26056 42670
L26050 42665
" />
<path d="M26196 42558
L26208 42558
L26219 42564
L26224 42569
L26230 42580
L26236 42603
L26236 42631
L26230 42653
L26224 42665
L26219 42670
L26208 42676
L26196 42676
L26185 42670
L26179 42665
L26174 42653
L26168 42631
L26168 42603
L26174 42580
L26179 42569
L26185 42564
L26196 42558
" />
<path d="M26275 42558
L26348 42558
L26309 42603
L26326 42603
L26337 42608
L26342 42614
L26348 42625
L26348 42653
L26342 42665
L26337 42670
L26326 42676
L26292 42676
L26281 42670
L26275 42665
" />
<path d="M26399 42676
L26399 42558
L26427 42558
L26444 42564
L26455 42575
L26460 42586
L26466 42608
L26466 42625
L26460 42648
L26455 42659
L26444 42670
L26427 42676
L26399 42676
" />
</g>
<g style="fill:#000000; fill-opacity:0.0; 
stroke:#000000; stroke-width:59.0551; stroke-opacity:1; 
stroke-linecap:round; stroke-linejoin:round;">
<path d="M31360 47580
L31360 47899
L31379 47936
L31397 47955
L31435 47974
L31510 47974
L31547 47955
L31566 47936
L31585 47899
L31585 47580
" />
<path d="M31735 47580
L31997 47580
L31829 47974
" />
<path d="M25305 51069
L25624 51069
L25661 51050
L25680 51032
L25699 50994
L25699 50919
L25680 50882
L25661 50863
L25624 50844
L25305 50844
" />
<path d="M25474 50600
L25455 50638
L25436 50657
L25399 50675
L25380 50675
L25342 50657
L25324 50638
L25305 50600
L25305 50525
L25324 50488
L25342 50469
L25380 50450
L25399 50450
L25436 50469
L25455 50488
L25474 50525
L25474 50600
L25492 50638
L25511 50657
L25549 50675
L25624 50675
L25661 50657
L25680 50638
L25699 50600
L25699 50525
L25680 50488
L25661 50469
L25624 50450
L25549 50450
L25511 50469
L25492 50488
L25474 50525
" />
<path d="M27867 53505
L27867 53824
L27886 53861
L27905 53880
L27942 53899
L28017 53899
L28055 53880
L28074 53861
L28092 53824
L28092 53505
" />
<path d="M28486 53899
L28261 53899
" />
<path d="M28374 53899
L28374 53505
L28336 53561
L28299 53599
L28261 53617
" />
<path d="M28730 53505
L28767 53505
L28805 53524
L28824 53542
L28842 53580
L28861 53655
L28861 53749
L28842 53824
L28824 53861
L28805 53880
L28767 53899
L28730 53899
L28692 53880
L28674 53861
L28655 53824
L28636 53749
L28636 53655
L28655 53580
L28674 53542
L28692 53524
L28730 53505
" />
<path d="M35202 49263
L35202 49581
L35221 49619
L35240 49638
L35277 49656
L35352 49656
L35390 49638
L35408 49619
L35427 49581
L35427 49263
" />
<path d="M35821 49656
L35596 49656
" />
<path d="M35708 49656
L35708 49263
L35671 49319
L35633 49356
L35596 49375
" />
<path d="M36196 49656
L35971 49656
" />
<path d="M36083 49656
L36083 49263
L36046 49319
L36008 49356
L35971 49375
" />
<path d="M32392 53630
L32392 53949
L32411 53986
L32430 54005
L32467 54024
L32542 54024
L32580 54005
L32599 53986
L32617 53949
L32617 53630
" />
<path d="M33011 54024
L32786 54024
" />
<path d="M32899 54024
L32899 53630
L32861 53686
L32824 53724
L32786 53742
" />
<path d="M33161 53667
L33180 53649
L33217 53630
L33311 53630
L33349 53649
L33367 53667
L33386 53705
L33386 53742
L33367 53799
L33142 54024
L33386 54024
" />
<path d="M31985 52349
L32304 52349
L32342 52331
L32360 52312
L32379 52274
L32379 52199
L32360 52162
L32342 52143
L32304 52124
L31985 52124
" />
<path d="M32379 51731
L32379 51956
" />
<path d="M32379 51843
L31985 51843
L32042 51881
L32079 51918
L32098 51956
" />
<path d="M31985 51600
L31985 51356
L32135 51487
L32135 51431
L32154 51393
L32173 51375
L32210 51356
L32304 51356
L32342 51375
L32360 51393
L32379 51431
L32379 51543
L32360 51581
L32342 51600
" />
<path d="M36180 50742
L36180 51061
L36199 51099
L36217 51117
L36255 51136
L36330 51136
L36367 51117
L36386 51099
L36405 51061
L36405 50742
" />
<path d="M36799 51136
L36574 51136
" />
<path d="M36686 51136
L36686 50742
L36649 50799
L36611 50836
L36574 50855
" />
<path d="M37155 50742
L36967 50742
L36949 50930
L36967 50911
L37005 50892
L37099 50892
L37136 50911
L37155 50930
L37174 50967
L37174 51061
L37155 51099
L37136 51117
L37099 51136
L37005 51136
L36967 51117
L36949 51099
" />
<path d="M37217 53805
L37217 54124
L37236 54161
L37255 54180
L37292 54199
L37367 54199
L37405 54180
L37424 54161
L37442 54124
L37442 53805
" />
<path d="M37836 54199
L37611 54199
" />
<path d="M37724 54199
L37724 53805
L37686 53861
L37649 53899
L37611 53917
" />
<path d="M38174 53805
L38099 53805
L38061 53824
L38042 53842
L38005 53899
L37986 53974
L37986 54124
L38005 54161
L38024 54180
L38061 54199
L38136 54199
L38174 54180
L38192 54161
L38211 54124
L38211 54030
L38192 53992
L38174 53974
L38136 53955
L38061 53955
L38024 53974
L38005 53992
L37986 54030
" />
<path d="M15552 39121
L15552 39309
" />
<path d="M15421 38915
L15552 39121
L15683 38915
" />
<path d="M16021 39309
L15796 39309
" />
<path d="M15908 39309
L15908 38915
L15871 38971
L15833 39009
L15796 39027
" />
<path d="M15613 38186
L15801 38186
" />
<path d="M15407 38317
L15613 38186
L15407 38055
" />
<path d="M15444 37942
L15426 37924
L15407 37886
L15407 37792
L15426 37755
L15444 37736
L15482 37717
L15519 37717
L15576 37736
L15801 37961
L15801 37717
" />
<path d="M20199 43419
L20517 43419
L20555 43401
L20574 43382
L20592 43344
L20592 43269
L20574 43232
L20555 43213
L20517 43194
L20199 43194
" />
<path d="M20236 43026
L20217 43007
L20199 42970
L20199 42876
L20217 42838
L20236 42820
L20274 42801
L20311 42801
L20367 42820
L20592 43045
L20592 42801
" />
<path d="M38236 38035
L38048 38166
" />
<path d="M38236 38260
L37842 38260
L37842 38110
L37861 38073
L37879 38054
L37917 38035
L37973 38035
L38011 38054
L38029 38073
L38048 38110
L38048 38260
" />
<path d="M37842 37679
L37842 37866
L38029 37885
L38011 37866
L37992 37829
L37992 37735
L38011 37698
L38029 37679
L38067 37660
L38161 37660
L38198 37679
L38217 37698
L38236 37735
L38236 37829
L38217 37866
L38198 37885
" />
<path d="M10275 54378
L10143 54190
" />
<path d="M10050 54378
L10050 53984
L10200 53984
L10237 54003
L10256 54021
L10275 54059
L10275 54115
L10256 54153
L10237 54171
L10200 54190
L10050 54190
" />
<path d="M10443 54171
L10575 54171
" />
<path d="M10631 54378
L10443 54378
L10443 53984
L10631 53984
" />
<path d="M10931 54171
L10800 54171
" />
<path d="M10800 54378
L10800 53984
L10987 53984
" />
<path d="M11193 53984
L11193 54078
" />
<path d="M11099 54040
L11193 54078
L11287 54040
" />
<path d="M11137 54153
L11193 54078
L11249 54153
" />
<path d="M11493 53984
L11493 54078
" />
<path d="M11399 54040
L11493 54078
L11587 54040
" />
<path d="M11437 54153
L11493 54078
L11549 54153
" />
<path d="M26273 53349
L26592 53349
L26629 53331
L26648 53312
L26667 53274
L26667 53199
L26648 53162
L26629 53143
L26592 53124
L26273 53124
" />
<path d="M26667 52918
L26667 52843
L26648 52806
L26629 52787
L26573 52750
L26498 52731
L26348 52731
L26310 52750
L26292 52768
L26273 52806
L26273 52881
L26292 52918
L26310 52937
L26348 52956
L26442 52956
L26479 52937
L26498 52918
L26517 52881
L26517 52806
L26498 52768
L26479 52750
L26442 52731
" />
<path d="M28296 52991
L28165 52803
" />
<path d="M28071 52991
L28071 52597
L28221 52597
L28259 52616
L28278 52634
L28296 52672
L28296 52728
L28278 52766
L28259 52784
L28221 52803
L28071 52803
" />
<path d="M28671 52991
L28446 52991
" />
<path d="M28559 52991
L28559 52597
L28521 52653
L28484 52691
L28446 52709
" />
<path d="M28803 52597
L29065 52597
L28896 52991
" />
<path d="M31406 49435
L31275 49247
" />
<path d="M31181 49435
L31181 49041
L31331 49041
L31369 49060
L31388 49078
L31406 49116
L31406 49172
L31388 49210
L31369 49228
L31331 49247
L31181 49247
" />
<path d="M31556 49078
L31575 49060
L31613 49041
L31706 49041
L31744 49060
L31763 49078
L31781 49116
L31781 49153
L31763 49210
L31538 49435
L31781 49435
" />
<path d="M32119 49172
L32119 49435
" />
<path d="M32025 49022
L31931 49303
L32175 49303
" />
<path d="M40211 50767
L40211 50374
L40361 50374
L40399 50393
L40418 50411
L40436 50449
L40436 50505
L40418 50543
L40399 50561
L40361 50580
L40211 50580
" />
<path d="M40811 50767
L40586 50767
" />
<path d="M40699 50767
L40699 50374
L40661 50430
L40624 50468
L40586 50486
" />
<path d="M41055 50374
L41093 50374
L41130 50393
L41149 50411
L41168 50449
L41186 50524
L41186 50617
L41168 50692
L41149 50730
L41130 50749
L41093 50767
L41055 50767
L41018 50749
L40999 50730
L40980 50692
L40961 50617
L40961 50524
L40980 50449
L40999 50411
L41018 50393
L41055 50374
" />
<path d="M29606 50113
L29418 50244
" />
<path d="M29606 50338
L29212 50338
L29212 50188
L29231 50150
L29249 50131
L29287 50113
L29343 50113
L29381 50131
L29399 50150
L29418 50188
L29418 50338
" />
<path d="M29606 49738
L29606 49963
" />
<path d="M29606 49850
L29212 49850
L29268 49888
L29306 49925
L29324 49963
" />
<path d="M29212 49606
L29212 49363
L29362 49494
L29362 49438
L29381 49400
L29399 49381
L29437 49363
L29531 49363
L29568 49381
L29587 49400
L29606 49438
L29606 49550
L29587 49588
L29568 49606
" />
<path d="M8830 53838
L8436 53838
L8436 53688
L8455 53650
L8474 53631
L8511 53613
L8567 53613
L8605 53631
L8624 53650
L8642 53688
L8642 53838
" />
<path d="M8830 53238
L8830 53463
" />
<path d="M8830 53350
L8436 53350
L8492 53388
L8530 53425
L8549 53463
" />
<path d="M8436 53106
L8436 52863
L8586 52994
L8586 52938
L8605 52900
L8624 52881
L8661 52863
L8755 52863
L8792 52881
L8811 52900
L8830 52938
L8830 53050
L8811 53088
L8792 53106
" />
</g>
<g style="fill:#000000; fill-opacity:0.0; 
stroke:#000000; stroke-width:120; stroke-opacity:1; 
stroke-linecap:round; stroke-linejoin:round;">
<path d="M23972 51602
L24458 51602
L24515 51574
L24543 51545
L24572 51488
L24572 51374
L24543 51317
L24515 51288
L24458 51260
L23972 51260
" />
<path d="M24572 50660
L24572 51002
" />
<path d="M24572 50831
L23972 50831
L24058 50888
L24115 50945
L24143 51002
" />
<path d="M23972 50460
L23972 50060
L24572 50317
" />
<path d="M17013 52560
L16613 52560
" />
<path d="M16670 52560
L16642 52531
L16613 52474
L16613 52388
L16642 52331
L16699 52302
L17013 52302
" />
<path d="M16699 52302
L16642 52274
L16613 52217
L16613 52131
L16642 52074
L16699 52045
L17013 52045
" />
<path d="M17013 51760
L16613 51760
" />
<path d="M16413 51760
L16442 51788
L16470 51760
L16442 51731
L16413 51760
L16470 51760
" />
<path d="M16984 51217
L17013 51274
L17013 51388
L16984 51445
L16956 51474
L16899 51502
L16727 51502
L16670 51474
L16642 51445
L16613 51388
L16613 51274
L16642 51217
" />
<path d="M17013 50960
L16613 50960
" />
<path d="M16727 50960
L16670 50931
L16642 50902
L16613 50845
L16613 50788
" />
<path d="M17013 50502
L16984 50559
L16956 50588
L16899 50617
L16727 50617
L16670 50588
L16642 50559
L16613 50502
L16613 50417
L16642 50359
L16670 50331
L16727 50302
L16899 50302
L16956 50331
L16984 50359
L17013 50417
L17013 50502
" />
<path d="M16984 50074
L17013 49988
L17013 49845
L16984 49788
L16956 49760
L16899 49731
L16842 49731
L16784 49760
L16756 49788
L16727 49845
L16699 49960
L16670 50017
L16642 50045
L16584 50074
L16527 50074
L16470 50045
L16442 50017
L16413 49960
L16413 49817
L16442 49731
" />
<path d="M17013 49474
L16413 49474
L16413 49331
L16442 49245
L16499 49188
L16556 49159
L16670 49131
L16756 49131
L16870 49159
L16927 49188
L16984 49245
L17013 49331
L17013 49474
" />
</g>
<g style="fill:#000000; fill-opacity:0.0; 
stroke:#000000; stroke-width:59.0551; stroke-opacity:1; 
stroke-linecap:round; stroke-linejoin:round;">
<path d="M39385 43940
L38991 43940
L38991 43790
L39010 43753
L39029 43734
L39066 43715
L39122 43715
L39160 43734
L39179 43753
L39197 43790
L39197 43940
" />
<path d="M39122 43378
L39385 43378
" />
<path d="M38972 43471
L39253 43565
L39253 43321
" />
<path d="M38044 48320
L38044 47927
L38194 47927
L38231 47946
L38250 47964
L38269 48002
L38269 48058
L38250 48096
L38231 48114
L38194 48133
L38044 48133
" />
<path d="M38606 47927
L38531 47927
L38494 47946
L38475 47964
L38438 48021
L38419 48096
L38419 48245
L38438 48283
L38456 48302
L38494 48320
L38569 48320
L38606 48302
L38625 48283
L38644 48245
L38644 48152
L38625 48114
L38606 48096
L38569 48077
L38494 48077
L38456 48096
L38438 48114
L38419 48152
" />
</g> 
</svg>
