<?xml version="1.0" standalone="no"?>
 <!DOCTYPE svg PUBLIC "-//W3C//DTD SVG 1.1//EN" 
 "http://www.w3.org/Graphics/SVG/1.1/DTD/svg11.dtd"> 
<svg xmlns="http://www.w3.org/2000/svg" version="1.1" 
    width="29.7002cm" height="21.0007cm" viewBox="0 0 116930 82680 ">
<title>SVG Picture created as sch-B.SilkS.svg date 2016/11/03 23:41:14 </title>
  <desc>Picture generated by PCBNEW </desc>
<g style="fill:#000000; fill-opacity:1;stroke:#000000; stroke-opacity:1;
stroke-linecap:round; stroke-linejoin:round; "
 transform="translate(0 0) scale(1 1)">
</g>
<g style="fill:#000000; fill-opacity:0.0; 
stroke:#000000; stroke-width:-0.000393701; stroke-opacity:1; 
stroke-linecap:round; stroke-linejoin:round;">
</g>
<g style="fill:#000000; fill-opacity:0.0; 
stroke:#000000; stroke-width:59.0551; stroke-opacity:1; 
stroke-linecap:round; stroke-linejoin:round;">
<path d="M32743 52979
L33057 52979
" />
<path d="M32743 55971
L33077 55971
" />
<path d="M37468 53029
L37782 53029
" />
<path d="M37468 56021
L37802 56021
" />
<path d="M42721 54268
L42721 54582
" />
<path d="M39729 54268
L39729 54602
" />
</g>
<g style="fill:#000000; fill-opacity:0.0; 
stroke:#000000; stroke-width:19.685; stroke-opacity:1; 
stroke-linecap:round; stroke-linejoin:round;">
<path d="M38356 38565
L38356 37384
" />
<path d="M38356 37384
L42293 37384
" />
<path d="M42293 37384
L42293 38565
" />
<path d="M42293 38565
L38356 38565
" />
</g>
<g style="fill:#000000; fill-opacity:0.0; 
stroke:#000000; stroke-width:59.0551; stroke-opacity:1; 
stroke-linecap:round; stroke-linejoin:round;">
<path d="M25341 54846
L27308 54846
" />
<path d="M25344 54901
L27305 54901
" />
<path d="M25350 54956
L26287 54956
" />
<path d="M26362 54956
L27299 54956
" />
<path d="M25360 55012
L26132 55012
" />
<path d="M26517 55012
L27289 55012
" />
<path d="M25373 55067
L26066 55067
" />
<path d="M26583 55067
L27276 55067
" />
<path d="M25389 55122
L26024 55122
" />
<path d="M26625 55122
L27260 55122
" />
<path d="M25408 55177
L25996 55177
" />
<path d="M26653 55177
L27241 55177
" />
<path d="M25432 55232
L25978 55232
" />
<path d="M26671 55232
L27217 55232
" />
<path d="M25460 55287
L25971 55287
" />
<path d="M26678 55287
L27189 55287
" />
<path d="M25492 55342
L25972 55342
" />
<path d="M26677 55342
L27157 55342
" />
<path d="M25530 55397
L25982 55397
" />
<path d="M26667 55397
L27119 55397
" />
<path d="M25573 55452
L26000 55452
" />
<path d="M26649 55452
L27076 55452
" />
<path d="M25624 55508
L26031 55508
" />
<path d="M26618 55508
L27025 55508
" />
<path d="M25682 55563
L26077 55563
" />
<path d="M26572 55563
L26967 55563
" />
<path d="M25753 55618
L26151 55618
" />
<path d="M26498 55618
L26896 55618
" />
<path d="M25839 55673
L26810 55673
" />
<path d="M25953 55728
L26696 55728
" />
<path d="M26139 55783
L26510 55783
" />
<circle cx="26325" cy="55309.3" r="354.331" /> 
<circle cx="26325" cy="54817.1" r="999.016" /> 
<path d="M41025 50464
L40414 50464
" />
<path d="M40414 51075
L40414 50464
" />
<path d="M41525 50575
L41525 51575
" />
<path d="M41525 51575
L40525 51575
" />
<path d="M40525 51575
L40525 52575
" />
<path d="M40525 52575
L42525 52575
" />
<path d="M42525 52575
L42525 50575
" />
<path d="M42525 50575
L41525 50575
" />
<path d="M32965 56653
L33153 56653
L33153 56259
" />
<path d="M32628 56653
L32853 56653
" />
<path d="M32740 56653
L32740 56259
L32778 56315
L32815 56353
L32853 56371
" />
<path d="M37690 56703
L37878 56703
L37878 56309
" />
<path d="M37578 56346
L37559 56328
L37521 56309
L37428 56309
L37390 56328
L37371 56346
L37353 56384
L37353 56421
L37371 56478
L37596 56703
L37353 56703
" />
<path d="M39403 54359
L39403 54171
L39009 54171
" />
<path d="M39009 54453
L39009 54696
L39159 54565
L39159 54621
L39178 54659
L39196 54678
L39234 54696
L39328 54696
L39365 54678
L39384 54659
L39403 54621
L39403 54509
L39384 54471
L39365 54453
" />
<path d="M40624 36735
L40624 37054
L40606 37091
L40587 37110
L40549 37129
L40474 37129
L40437 37110
L40418 37091
L40399 37054
L40399 36735
" />
<path d="M40043 36735
L40118 36735
L40156 36754
L40175 36773
L40212 36829
L40231 36904
L40231 37054
L40212 37091
L40193 37110
L40156 37129
L40081 37129
L40043 37110
L40025 37091
L40006 37054
L40006 36960
L40025 36923
L40043 36904
L40081 36885
L40156 36885
L40193 36904
L40212 36923
L40231 36960
" />
<path d="M24969 54564
L24988 54545
L25007 54489
L25007 54451
L24988 54395
L24950 54357
L24913 54339
L24838 54320
L24782 54320
L24707 54339
L24669 54357
L24632 54395
L24613 54451
L24613 54489
L24632 54545
L24650 54564
" />
<path d="M24613 54695
L24613 54938
L24763 54807
L24763 54863
L24782 54901
L24800 54920
L24838 54938
L24932 54938
L24969 54920
L24988 54901
L25007 54863
L25007 54751
L24988 54714
L24969 54695
" />
<path d="M24613 55276
L24613 55201
L24632 55163
L24650 55145
L24707 55107
L24782 55088
L24932 55088
L24969 55107
L24988 55126
L25007 55163
L25007 55238
L24988 55276
L24969 55295
L24932 55313
L24838 55313
L24800 55295
L24782 55276
L24763 55238
L24763 55163
L24782 55126
L24800 55107
L24838 55088
" />
<path d="M39195 50596
L38801 50596
L38801 50746
L38820 50784
L38839 50803
L38876 50821
L38932 50821
L38970 50803
L38989 50784
L39007 50746
L39007 50596
" />
<path d="M39195 51196
L39195 50971
" />
<path d="M39195 51084
L38801 51084
L38857 51046
L38895 51009
L38914 50971
" />
<path d="M38839 51346
L38820 51365
L38801 51403
L38801 51496
L38820 51534
L38839 51553
L38876 51571
L38914 51571
L38970 51553
L39195 51328
L39195 51571
" />
</g> 
</svg>
