<?xml version="1.0" encoding="UTF-8" standalone="no"?>
<svg
   xmlns:dc="http://purl.org/dc/elements/1.1/"
   xmlns:cc="http://creativecommons.org/ns#"
   xmlns:rdf="http://www.w3.org/1999/02/22-rdf-syntax-ns#"
   xmlns:svg="http://www.w3.org/2000/svg"
   xmlns="http://www.w3.org/2000/svg"
   xmlns:sodipodi="http://sodipodi.sourceforge.net/DTD/sodipodi-0.dtd"
   xmlns:inkscape="http://www.inkscape.org/namespaces/inkscape"
   version="1.1"
   width="29.7002cm"
   height="21.0007cm"
   viewBox="0 0 116930 82680 "
   id="svg2"
   inkscape:version="0.91 r13725"
   sodipodi:docname="lcddc-F.Cu.svg">
  <metadata
     id="metadata320">
    <rdf:RDF>
      <cc:Work
         rdf:about="">
        <dc:format>image/svg+xml</dc:format>
        <dc:type
           rdf:resource="http://purl.org/dc/dcmitype/StillImage" />
      </cc:Work>
    </rdf:RDF>
  </metadata>
  <defs
     id="defs318" />
  <sodipodi:namedview
     pagecolor="#ffffff"
     bordercolor="#666666"
     borderopacity="1"
     objecttolerance="10"
     gridtolerance="10"
     guidetolerance="10"
     inkscape:pageopacity="0"
     inkscape:pageshadow="2"
     inkscape:window-width="1280"
     inkscape:window-height="961"
     id="namedview316"
     showgrid="false"
     inkscape:zoom="0.44852271"
     inkscape:cx="576.37478"
     inkscape:cy="-4.4868345"
     inkscape:window-x="-8"
     inkscape:window-y="32"
     inkscape:window-maximized="1"
     inkscape:current-layer="svg2" />
  <title
     id="title4">SVG Picture created as lcddc-F.Cu.svg date 2016/11/29 21:01:14 </title>
  <desc
     id="desc6">Picture generated by PCBNEW </desc>
  <g
     style="fill:#000000; fill-opacity:1;stroke:#000000; stroke-opacity:1; stroke-linecap:round; stroke-linejoin:round; "
     transform="translate(0 0) scale(1 1)"
     id="g8" />
  <g
     style="fill:#000000; fill-opacity:0.0;  stroke:#000000; stroke-width:-0.000393701; stroke-opacity:1;  stroke-linecap:round; stroke-linejoin:round;"
     id="g10" />
  <g
     style="fill:#000000;fill-opacity:1;stroke:#000000;stroke-width:39.37009811;stroke-linecap:round;stroke-linejoin:round;stroke-opacity:1"
     id="g12"
     transform="translate(54716.643,49295.186)">
    <rect
       x="46987.633"
       y="23202.066"
       width="10531.752"
       height="5854.1187"
       rx="0"
       id="rect14"
       style="stroke-width:21.29874802" />
  </g>
  <g
     style="fill:#FFFFFF; fill-opacity:1.0;  stroke:#FFFFFF; stroke-width:39.3701; stroke-opacity:1;  stroke-linecap:round; stroke-linejoin:round;"
     id="g16" />
  <g
     style="fill:#ffffff;fill-opacity:1;stroke:#ffffff;stroke-width:0;stroke-linecap:round;stroke-linejoin:round;stroke-opacity:1"
     id="g18"
     transform="translate(54716.643,49295.186)">
    <polyline
       style="fill-rule:evenodd"
       points="50801,26462 50308,26462 50308,27053 50801,27053 50801,26462 "
       id="polyline20" />
    <polyline
       style="fill-rule:evenodd"
       points="50801,27446 50308,27446 50308,28037 50801,28037 50801,27446 "
       id="polyline22" />
    <polyline
       style="fill-rule:evenodd"
       points="53308,26762 53801,26762 53801,26171 53308,26171 53308,26762 "
       id="polyline24" />
    <polyline
       style="fill-rule:evenodd"
       points="53308,25778 53801,25778 53801,25187 53308,25187 53308,25778 "
       id="polyline26" />
    <polyline
       style="fill-rule:evenodd"
       points="50308,26162 50801,26162 50801,25571 50308,25571 50308,26162 "
       id="polyline28" />
    <polyline
       style="fill-rule:evenodd"
       points="50308,25178 50801,25178 50801,24587 50308,24587 50308,25178 "
       id="polyline30" />
    <polyline
       style="fill-rule:evenodd"
       points="52313,24880 51951,25241 52313,25603 52674,25241 52313,24880 "
       id="polyline32" />
    <polyline
       style="fill-rule:evenodd"
       points="51466,25746 51104,26108 51466,26469 51828,26108 51466,25746 "
       id="polyline34" />
    <polyline
       style="fill-rule:evenodd"
       points="56705,25015 56705,24335 55905,24335 55905,25015 56705,25015 "
       id="polyline36" />
  </g>
  <g
     style="fill:#FFFFFF; fill-opacity:1.0;  stroke:#FFFFFF; stroke-width:680; stroke-opacity:1;  stroke-linecap:round; stroke-linejoin:round;"
     id="g38" />
  <g
     style="fill:#ffffff;fill-opacity:0;stroke:#ffffff;stroke-width:680;stroke-linecap:round;stroke-linejoin:round;stroke-opacity:1"
     id="g40"
     transform="translate(54716.643,49295.186)">
    <path
       d="m 56365,25675 -120,0"
       id="path42"
       inkscape:connector-curvature="0" />
    <path
       d="m 56365,26675 -120,0"
       id="path44"
       inkscape:connector-curvature="0" />
    <path
       d="m 56365,27675 -120,0"
       id="path46"
       inkscape:connector-curvature="0" />
  </g>
  <g
     style="fill:#FFFFFF; fill-opacity:0.0;  stroke:#FFFFFF; stroke-width:0; stroke-opacity:1;  stroke-linecap:round; stroke-linejoin:round;"
     id="g48" />
  <g
     style="fill:#ffffff;fill-opacity:1;stroke:#ffffff;stroke-width:0;stroke-linecap:round;stroke-linejoin:round;stroke-opacity:1"
     id="g50"
     transform="translate(54716.643,49295.186)">
    <polyline
       style="fill-rule:evenodd"
       points="48880,25900 49680,25900 49680,25100 48880,25100 48880,25900 "
       id="polyline52" />
  </g>
  <g
     style="fill:#FFFFFF; fill-opacity:1.0;  stroke:#FFFFFF; stroke-width:800; stroke-opacity:1;  stroke-linecap:round; stroke-linejoin:round;"
     id="g54" />
  <g
     style="fill:#ffffff;fill-opacity:0;stroke:#ffffff;stroke-width:800;stroke-linecap:round;stroke-linejoin:round;stroke-opacity:1"
     id="g56"
     transform="translate(54716.643,49295.186)">
    <path
       d="m 48280,25500 0,0"
       id="path58"
       inkscape:connector-curvature="0" />
  </g>
  <g
     style="fill:#FFFFFF; fill-opacity:0.0;  stroke:#FFFFFF; stroke-width:0; stroke-opacity:1;  stroke-linecap:round; stroke-linejoin:round;"
     id="g60" />
  <g
     style="fill:#ffffff;fill-opacity:1;stroke:#ffffff;stroke-width:0;stroke-linecap:round;stroke-linejoin:round;stroke-opacity:1"
     id="g62"
     transform="translate(54716.643,49295.186)">
    <polyline
       style="fill-rule:evenodd"
       points="55261,27026 55261,26711 54946,26711 54946,27026 55261,27026 "
       id="polyline64" />
    <polyline
       style="fill-rule:evenodd"
       points="54513,27026 54513,26711 54198,26711 54198,27026 54513,27026 "
       id="polyline66" />
    <polyline
       style="fill-rule:evenodd"
       points="54887,26239 54887,25924 54572,25924 54572,26239 54887,26239 "
       id="polyline68" />
    <polyline
       style="fill-rule:evenodd"
       points="55399,27677 55399,27322 54926,27322 54926,27677 55399,27677 "
       id="polyline70" />
    <polyline
       style="fill-rule:evenodd"
       points="54533,27677 54533,27322 54060,27322 54060,27677 54533,27677 "
       id="polyline72" />
    <polyline
       style="fill-rule:evenodd"
       points="49132,26580 48777,26580 48777,27053 49132,27053 49132,26580 "
       id="polyline74" />
    <polyline
       style="fill-rule:evenodd"
       points="49132,27446 48777,27446 48777,27919 49132,27919 49132,27446 "
       id="polyline76" />
    <polyline
       style="fill-rule:evenodd"
       points="49527,27919 49882,27919 49882,27446 49527,27446 49527,27919 "
       id="polyline78" />
    <polyline
       style="fill-rule:evenodd"
       points="49527,27053 49882,27053 49882,26580 49527,26580 49527,27053 "
       id="polyline80" />
    <polyline
       style="fill-rule:evenodd"
       points="51263,27496 51263,27751 51680,27751 51680,27496 51263,27496 "
       id="polyline82" />
    <polyline
       style="fill-rule:evenodd"
       points="51263,27122 51263,27377 51680,27377 51680,27122 51263,27122 "
       id="polyline84" />
    <polyline
       style="fill-rule:evenodd"
       points="51263,26748 51263,27003 51680,27003 51680,26748 51263,26748 "
       id="polyline86" />
    <polyline
       style="fill-rule:evenodd"
       points="52129,26748 52129,27003 52546,27003 52546,26748 52129,26748 "
       id="polyline88" />
    <polyline
       style="fill-rule:evenodd"
       points="52129,27496 52129,27751 52546,27751 52546,27496 52129,27496 "
       id="polyline90" />
  </g>
  <g
     style="fill:#FFFFFF; fill-opacity:1.0;  stroke:#FFFFFF; stroke-width:98.4252; stroke-opacity:1;  stroke-linecap:round; stroke-linejoin:round;"
     id="g92" />
  <g
     style="fill:#ffffff;fill-opacity:0;stroke:#ffffff;stroke-width:98.42520142;stroke-linecap:round;stroke-linejoin:round;stroke-opacity:1"
     id="g94"
     transform="translate(54716.643,49295.186)">
    <path
       d="m 56305,24675 -850,0"
       id="path96"
       inkscape:connector-curvature="0" />
    <path
       d="m 55180,24950 0,775"
       id="path98"
       inkscape:connector-curvature="0" />
    <path
       d="m 55455,24675 -275,275"
       id="path100"
       inkscape:connector-curvature="0" />
    <path
       d="m 56305,24675 -125,0"
       id="path102"
       inkscape:connector-curvature="0" />
    <path
       d="m 55055,26500 -1468,0"
       id="path104"
       inkscape:connector-curvature="0" />
    <path
       d="m 55180,25725 0,650"
       id="path106"
       inkscape:connector-curvature="0" />
    <path
       d="m 55180,26375 -125,125"
       id="path108"
       inkscape:connector-curvature="0" />
    <path
       d="m 53587,26500 -32,-33"
       id="path110"
       inkscape:connector-curvature="0" />
    <path
       d="m 53555,26467 -293,0"
       id="path112"
       inkscape:connector-curvature="0" />
    <path
       d="m 52855,26875 -516,0"
       id="path114"
       inkscape:connector-curvature="0" />
    <path
       d="m 53262,26467 -407,408"
       id="path116"
       inkscape:connector-curvature="0" />
    <path
       d="m 52339,26875 -1,0"
       id="path118"
       inkscape:connector-curvature="0" />
    <path
       d="m 52255,24637 -138,0"
       id="path120"
       inkscape:connector-curvature="0" />
    <path
       d="m 52117,24637 -245,245"
       id="path122"
       inkscape:connector-curvature="0" />
    <path
       d="m 52280,24637 -25,0"
       id="path124"
       inkscape:connector-curvature="0" />
    <path
       d="m 52442,24637 845,845"
       id="path126"
       inkscape:connector-curvature="0" />
    <path
       d="m 53287,25482 268,0"
       id="path128"
       inkscape:connector-curvature="0" />
    <path
       d="m 52442,24637 -162,0"
       id="path130"
       inkscape:connector-curvature="0" />
    <path
       d="m 52117,24637 -62,63"
       id="path132"
       inkscape:connector-curvature="0" />
    <path
       d="m 50555,24882 1317,0"
       id="path134"
       inkscape:connector-curvature="0" />
    <path
       d="m 51872,24882 183,-182"
       id="path136"
       inkscape:connector-curvature="0" />
    <path
       d="m 54730,26082 0,-357"
       id="path138"
       inkscape:connector-curvature="0" />
    <path
       d="m 54730,25725 -243,-243"
       id="path140"
       inkscape:connector-curvature="0" />
    <path
       d="m 54487,25482 -932,0"
       id="path142"
       inkscape:connector-curvature="0" />
    <path
       d="m 53555,25482 -18,0"
       id="path144"
       inkscape:connector-curvature="0" />
    <path
       d="m 48280,25500 0,-750"
       id="path146"
       inkscape:connector-curvature="0" />
    <path
       d="m 48330,24700 2042,0"
       id="path148"
       inkscape:connector-curvature="0" />
    <path
       d="m 48280,24750 50,-50"
       id="path150"
       inkscape:connector-curvature="0" />
    <path
       d="m 50372,24700 183,182"
       id="path152"
       inkscape:connector-curvature="0" />
    <path
       d="m 49755,27250 -1425,0"
       id="path154"
       inkscape:connector-curvature="0" />
    <path
       d="m 48280,27200 0,-1700"
       id="path156"
       inkscape:connector-curvature="0" />
    <path
       d="m 48330,27250 -50,-50"
       id="path158"
       inkscape:connector-curvature="0" />
    <path
       d="m 51471,27250 -1716,0"
       id="path160"
       inkscape:connector-curvature="0" />
    <path
       d="m 49755,27250 -50,0"
       id="path162"
       inkscape:connector-curvature="0" />
    <path
       d="m 49705,27250 0,-434"
       id="path164"
       inkscape:connector-curvature="0" />
    <path
       d="m 49280,25500 575,0"
       id="path166"
       inkscape:connector-curvature="0" />
    <path
       d="m 49855,25500 367,367"
       id="path168"
       inkscape:connector-curvature="0" />
    <path
       d="m 52313,25241 -875,0"
       id="path170"
       inkscape:connector-curvature="0" />
    <path
       d="m 50812,25867 -257,0"
       id="path172"
       inkscape:connector-curvature="0" />
    <path
       d="m 51438,25241 -626,626"
       id="path174"
       inkscape:connector-curvature="0" />
    <path
       d="m 48955,26816 0,-591"
       id="path176"
       inkscape:connector-curvature="0" />
    <path
       d="m 48955,26225 325,-325"
       id="path178"
       inkscape:connector-curvature="0" />
    <path
       d="m 49280,25900 0,-400"
       id="path180"
       inkscape:connector-curvature="0" />
    <path
       d="m 50555,25867 -333,0"
       id="path182"
       inkscape:connector-curvature="0" />
    <path
       d="m 50555,25867 0,890"
       id="path184"
       inkscape:connector-curvature="0" />
    <path
       d="m 50555,27742 0,58"
       id="path186"
       inkscape:connector-curvature="0" />
    <path
       d="m 50555,27800 275,275"
       id="path188"
       inkscape:connector-curvature="0" />
    <path
       d="m 52338,27916 0,-292"
       id="path190"
       inkscape:connector-curvature="0" />
    <path
       d="m 52180,28075 158,-159"
       id="path192"
       inkscape:connector-curvature="0" />
    <path
       d="m 50830,28075 1350,0"
       id="path194"
       inkscape:connector-curvature="0" />
    <path
       d="m 49705,27683 790,0"
       id="path196"
       inkscape:connector-curvature="0" />
    <path
       d="m 50495,27683 60,59"
       id="path198"
       inkscape:connector-curvature="0" />
    <path
       d="m 48955,27683 750,0"
       id="path200"
       inkscape:connector-curvature="0" />
    <path
       d="m 51471,26875 0,-762"
       id="path202"
       inkscape:connector-curvature="0" />
    <path
       d="m 51471,26113 -5,-5"
       id="path204"
       inkscape:connector-curvature="0" />
    <path
       d="m 51431,25895 31,-30"
       id="path206"
       inkscape:connector-curvature="0" />
    <path
       d="m 56305,25675 -700,0"
       id="path208"
       inkscape:connector-curvature="0" />
    <path
       d="m 55505,25775 0,575"
       id="path210"
       inkscape:connector-curvature="0" />
    <path
       d="m 55605,25675 -100,100"
       id="path212"
       inkscape:connector-curvature="0" />
    <path
       d="m 55104,26869 32,0"
       id="path214"
       inkscape:connector-curvature="0" />
    <path
       d="m 55136,26869 369,-369"
       id="path216"
       inkscape:connector-curvature="0" />
    <path
       d="m 55505,26500 0,-150"
       id="path218"
       inkscape:connector-curvature="0" />
    <path
       d="m 55905,25675 400,0"
       id="path220"
       inkscape:connector-curvature="0" />
    <path
       d="m 55104,26869 0,571"
       id="path222"
       inkscape:connector-curvature="0" />
    <path
       d="m 55104,27440 59,60"
       id="path224"
       inkscape:connector-curvature="0" />
    <path
       d="m 53780,28262 0,-612"
       id="path226"
       inkscape:connector-curvature="0" />
    <path
       d="m 53380,27250 -900,0"
       id="path228"
       inkscape:connector-curvature="0" />
    <path
       d="m 53780,27650 -400,-400"
       id="path230"
       inkscape:connector-curvature="0" />
    <path
       d="m 53780,28262 2337,0"
       id="path232"
       inkscape:connector-curvature="0" />
    <path
       d="m 56117,28262 188,-187"
       id="path234"
       inkscape:connector-curvature="0" />
    <path
       d="m 56305,27675 0,400"
       id="path236"
       inkscape:connector-curvature="0" />
    <path
       d="m 51471,27624 334,0"
       id="path238"
       inkscape:connector-curvature="0" />
    <path
       d="m 51955,27250 525,0"
       id="path240"
       inkscape:connector-curvature="0" />
    <path
       d="m 51905,27300 50,-50"
       id="path242"
       inkscape:connector-curvature="0" />
    <path
       d="m 51905,27525 0,-225"
       id="path244"
       inkscape:connector-curvature="0" />
    <path
       d="m 51805,27624 100,-99"
       id="path246"
       inkscape:connector-curvature="0" />
    <path
       d="m 56305,27775 0,-100"
       id="path248"
       inkscape:connector-curvature="0" />
    <path
       d="m 56305,26675 -525,0"
       id="path250"
       inkscape:connector-curvature="0" />
    <path
       d="m 55680,26775 0,325"
       id="path252"
       inkscape:connector-curvature="0" />
    <path
       d="m 55780,26675 -100,100"
       id="path254"
       inkscape:connector-curvature="0" />
    <path
       d="m 54296,27500 0,516"
       id="path256"
       inkscape:connector-curvature="0" />
    <path
       d="m 54296,28016 34,34"
       id="path258"
       inkscape:connector-curvature="0" />
    <path
       d="m 54330,28050 1150,0"
       id="path260"
       inkscape:connector-curvature="0" />
    <path
       d="m 55480,28050 200,-200"
       id="path262"
       inkscape:connector-curvature="0" />
    <path
       d="m 55680,27850 0,-750"
       id="path264"
       inkscape:connector-curvature="0" />
    <path
       d="m 55980,26675 325,0"
       id="path266"
       inkscape:connector-curvature="0" />
    <path
       d="m 54355,26869 0,571"
       id="path268"
       inkscape:connector-curvature="0" />
    <path
       d="m 54355,27440 -59,60"
       id="path270"
       inkscape:connector-curvature="0" />
  </g>
  <g
     style="fill:#ffffff;fill-opacity:1;stroke:#ffffff;stroke-width:78.74019623;stroke-linecap:round;stroke-linejoin:round;stroke-opacity:1"
     id="g272"
     transform="translate(54716.643,49295.186)">
    <polyline
       style="fill-rule:evenodd"
       points="47769,25115 47954,24949 48120,24880 48219,24923 48219,25439 48211,25439 48211,25560 48219,25560 48219,26076 48120,26119 47954,26050 47769,25884 47769,28435 56965,28435 56965,25675 56833,25675 56798,25850 56699,25998 56550,26098 56375,26133 56234,26133 56059,26098 55910,25998 55811,25850 55810,25842 55674,25842 55672,25844 55672,26500 55663,26542 55660,26557 55661,26556 55715,26520 55731,26517 55780,26507 55810,26507 55811,26499 55910,26351 56059,26251 56234,26216 56375,26216 56550,26251 56699,26351 56798,26499 56833,26675 56798,26850 56699,26998 56550,27098 56375,27133 56234,27133 56059,27098 55910,26998 55847,26903 55847,27446 55910,27351 56059,27251 56234,27216 56375,27216 56550,27251 56699,27351 56798,27499 56833,27675 56798,27850 56699,27998 56550,28098 56464,28115 56463,28121 56459,28139 56423,28193 56235,28380 56199,28405 56181,28417 56117,28429 53780,28429 53715,28417 53661,28380 53625,28326 53612,28262 53612,27719 53310,27417 52635,27417 52657,27449 52667,27496 52667,27751 52658,27795 52633,27835 52593,27862 52546,27872 52505,27872 52505,27916 52497,27954 52492,27980 52456,28035 52298,28193 52244,28229 52180,28242 50830,28242 50776,28231 50765,28229 50711,28193 50676,28157 50308,28157 50265,28149 50224,28123 50198,28084 50188,28037 50188,27850 50002,27850 50002,27919 49994,27963 49968,28003 49929,28030 49882,28039 49527,28039 49484,28031 49443,28005 49416,27966 49407,27919 49407,27850 49252,27850 49252,27919 49244,27963 49218,28003 49179,28030 49132,28039 48777,28039 48734,28031 48693,28005 48666,27966 48657,27919 48657,27446 48665,27403 48691,27362 48730,27335 48777,27326 49132,27326 49175,27334 49216,27360 49243,27399 49252,27446 49252,27515 49407,27515 49407,27446 49415,27403 49441,27362 49480,27335 49527,27326 49882,27326 49925,27334 49966,27360 49993,27399 50002,27446 50002,27515 50188,27515 50188,27446 50196,27403 50222,27362 50262,27335 50308,27326 50801,27326 50844,27334 50885,27360 50911,27399 50921,27446 50921,27907 52110,27907 52145,27872 52129,27872 52085,27864 52045,27838 52018,27798 52008,27751 52008,27657 51924,27742 51870,27778 51805,27791 51793,27791 51792,27795 51766,27835 51727,27862 51680,27872 51263,27872 51219,27864 51179,27838 51152,27798 51142,27751 51142,27587 51127,27580 51060,27513 51023,27425 51023,27370 51083,27310 51411,27310 51411,27318 51532,27318 51532,27310 51540,27310 51540,27189 51532,27189 51532,27181 51411,27181 51411,27189 51083,27189 51023,27129 51023,27074 51060,26986 51127,26919 51142,26912 51142,26748 51151,26704 51176,26664 51216,26637 51263,26627 51304,26627 51304,26478 51019,26193 50994,26156 50984,26109 50993,26062 51019,26022 51381,25661 51418,25635 51464,25625 51511,25634 51551,25661 51913,26022 51938,26059 51948,26106 51940,26153 51913,26193 51639,26467 51639,26627 51680,26627 51724,26635 51764,26661 51791,26701 51801,26748 51801,26912 51816,26919 51883,26986 51919,27074 51919,27089 51955,27082 52040,27082 52018,27050 52008,27003 52008,26748 52017,26704 52043,26664 52082,26637 52129,26627 52546,26627 52590,26635 52630,26661 52657,26701 52658,26707 52785,26707 53144,26348 53188,26319 53188,26171 53196,26128 53222,26087 53262,26060 53308,26051 53801,26051 53844,26059 53885,26085 53911,26124 53921,26171 53921,26332 54352,26332 54333,26287 54333,26202 54392,26142 54669,26142 54669,26150 54790,26150 54790,26142 54798,26142 54798,26021 54790,26021 54790,25744 54669,25744 54669,26021 54392,26021 54333,25961 54333,25876 54369,25788 54436,25721 54524,25685 54609,25685 54669,25744 54790,25744 54850,25685 54935,25685 55012,25717 55012,25603 54040,25603 54040,25825 54003,25913 53936,25981 53848,26017 53675,26017 53615,25957 53615,25543 53494,25543 53494,25957 53434,26017 53261,26017 53173,25981 53106,25913 53069,25825 53069,25603 53129,25543 53494,25543 53615,25543 53980,25543 54040,25603 55012,25603 55012,25139 54040,25139 54040,25362 53980,25422 53615,25422 53615,25008 53494,25008 53494,25422 53129,25422 53069,25362 53069,25240 52795,25240 52786,25287 52760,25327 52398,25688 52361,25714 52314,25724 52267,25715 52227,25688 51948,25409 51507,25409 50931,25985 50921,25991 50921,26162 50913,26206 50887,26246 50847,26273 50801,26282 50722,26282 50722,26342 50801,26342 50844,26350 50885,26376 50911,26415 50921,26462 50921,27053 50913,27096 50887,27137 50847,27164 50801,27173 50308,27173 50265,27165 50224,27139 50198,27100 50188,27053 50188,26937 50121,26937 50121,27100 50085,27188 50017,27256 49929,27292 49825,27292 49765,27232 49765,26877 49644,26877 49644,27232 49584,27292 49480,27292 49392,27256 49324,27188 49288,27100 49288,26937 49348,26877 49644,26877 49765,26877 50061,26877 50121,26937 50188,26937 50188,26533 50121,26533 50121,26696 50061,26756 49765,26756 49765,26401 49644,26401 49644,26756 49348,26756 49288,26696 49288,26533 49324,26445 49392,26377 49480,26341 49584,26341 49644,26401 49765,26401 49825,26341 49929,26341 50017,26377 50085,26445 50121,26533 50188,26533 50188,26462 50196,26418 50222,26378 50262,26351 50308,26342 50387,26342 50387,26282 50308,26282 50265,26274 50224,26248 50198,26209 50188,26162 50188,26027 50168,26023 50158,26021 50103,25985 49800,25682 49800,25900 49792,25943 49766,25983 49726,26010 49680,26020 49396,26020 49122,26294 49122,26460 49132,26460 49175,26468 49216,26494 49243,26533 49252,26580 49252,27053 49244,27096 49218,27137 49179,27164 49132,27173 48777,27173 48734,27165 48693,27139 48666,27100 48657,27053 48657,26580 48665,26536 48691,26496 48730,26469 48777,26460 48787,26460 48787,26225 48800,26160 48812,26142 48836,26106 48922,26020 48880,26020 48836,26012 48796,25986 48769,25946 48761,25910 48605,26050 48439,26119 48340,26076 48340,25560 48348,25560 48348,25439 48340,25439 48340,24923 48439,24880 48605,24949 48761,25089 48767,25056 48793,25016 48833,24989 48880,24979 49680,24979 49723,24987 49763,25013 49790,25053 49800,25100 49800,25332 49855,25332 49908,25343 49919,25345 49973,25381 50188,25596 50188,25571 50196,25528 50222,25487 50262,25460 50308,25451 50801,25451 50844,25459 50885,25485 50911,25524 50913,25530 51319,25123 51374,25087 51384,25085 51438,25074 51948,25074 52019,25003 51040,25003 51040,25225 51003,25313 50936,25381 50848,25417 50675,25417 50615,25357 50615,24943 50494,24943 50494,25357 50434,25417 50261,25417 50173,25381 50106,25313 50069,25225 50069,25003 50129,24943 50494,24943 50615,24943 50980,24943 51040,25003 52019,25003 52227,24794 52264,24769 52311,24759 52358,24768 52398,24794 52760,25156 52785,25193 52795,25240 53069,25240 53069,25139 53106,25052 53173,24984 53261,24948 53434,24948 53494,25008 53615,25008 53675,24948 53848,24948 53936,24984 54003,25052 54040,25139 55012,25139 55012,24950 55025,24885 55037,24867 55061,24831 55336,24556 55361,24539 51040,24539 51040,24762 50980,24822 50615,24822 50615,24408 50494,24408 50494,24822 50129,24822 50069,24762 50069,24539 50106,24452 50173,24384 50261,24348 50434,24348 50494,24408 50615,24408 50675,24348 50848,24348 50936,24384 51003,24452 51040,24539 55361,24539 55390,24520 55401,24518 55455,24507 55784,24507 55784,24335 55792,24291 55818,24251 55858,24224 55905,24214 56705,24214 56748,24222 56788,24248 56815,24288 56825,24335 56825,25015 56817,25058 56791,25098 56751,25125 56705,25135 55905,25135 55861,25127 55821,25101 55794,25061 55784,25015 55784,24842 55524,24842 55347,25019 55347,25726 55350,25710 55374,25675 55386,25656 55486,25556 55540,25520 55551,25518 55605,25507 55810,25507 55811,25499 55910,25351 56059,25251 56234,25216 56375,25216 56550,25251 56699,25351 56798,25499 56833,25675 56965,25675 56965,24014 47769,24014 47769,25115 "
       id="polyline274" />
  </g>
  <g
     style="fill:#000000; fill-opacity:1.0;  stroke:#000000; stroke-width:78.7402; stroke-opacity:1;  stroke-linecap:round; stroke-linejoin:round;"
     id="g276" />
  <g
     style="fill:#000000;fill-opacity:1;stroke:#000000;stroke-width:0;stroke-linecap:round;stroke-linejoin:round;stroke-opacity:1"
     id="g278"
     transform="translate(54716.643,49295.186)">
    <circle
       cx="56305"
       cy="24675"
       r="68.897598"
       id="circle280" />
  </g>
  <g
     style="fill:#000000; fill-opacity:1.0;  stroke:#000000; stroke-width:39.3701; stroke-opacity:1;  stroke-linecap:round; stroke-linejoin:round;"
     id="g282" />
  <g
     style="fill:#000000;fill-opacity:1;stroke:#000000;stroke-width:0;stroke-linecap:round;stroke-linejoin:round;stroke-opacity:1"
     id="g284"
     transform="translate(54716.643,49295.186)">
    <circle
       cx="56305"
       cy="25675"
       r="68.897598"
       id="circle286" />
  </g>
  <g
     style="fill:#000000; fill-opacity:1.0;  stroke:#000000; stroke-width:39.3701; stroke-opacity:1;  stroke-linecap:round; stroke-linejoin:round;"
     id="g288" />
  <g
     style="fill:#000000;fill-opacity:1;stroke:#000000;stroke-width:0;stroke-linecap:round;stroke-linejoin:round;stroke-opacity:1"
     id="g290"
     transform="translate(54716.643,49295.186)">
    <circle
       cx="56305"
       cy="26675"
       r="68.897598"
       id="circle292" />
  </g>
  <g
     style="fill:#000000; fill-opacity:1.0;  stroke:#000000; stroke-width:39.3701; stroke-opacity:1;  stroke-linecap:round; stroke-linejoin:round;"
     id="g294" />
  <g
     style="fill:#000000;fill-opacity:1;stroke:#000000;stroke-width:0;stroke-linecap:round;stroke-linejoin:round;stroke-opacity:1"
     id="g296"
     transform="translate(54716.643,49295.186)">
    <circle
       cx="56305"
       cy="27675"
       r="68.897598"
       id="circle298" />
  </g>
  <g
     style="fill:#000000; fill-opacity:1.0;  stroke:#000000; stroke-width:39.3701; stroke-opacity:1;  stroke-linecap:round; stroke-linejoin:round;"
     id="g300" />
  <g
     style="fill:#000000;fill-opacity:1;stroke:#000000;stroke-width:0;stroke-linecap:round;stroke-linejoin:round;stroke-opacity:1"
     id="g302"
     transform="translate(54716.643,49295.186)">
    <circle
       cx="49280"
       cy="25500"
       r="68.897598"
       id="circle304" />
  </g>
  <g
     style="fill:#000000; fill-opacity:1.0;  stroke:#000000; stroke-width:39.3701; stroke-opacity:1;  stroke-linecap:round; stroke-linejoin:round;"
     id="g306" />
  <g
     style="fill:#000000;fill-opacity:1;stroke:#000000;stroke-width:0;stroke-linecap:round;stroke-linejoin:round;stroke-opacity:1"
     id="g308"
     transform="translate(54716.643,49295.186)">
    <circle
       cx="48280"
       cy="25500"
       r="68.897598"
       id="circle310" />
  </g>
  <g
     style="fill:#000000; fill-opacity:1.0;  stroke:#000000; stroke-width:39.3701; stroke-opacity:1;  stroke-linecap:round; stroke-linejoin:round;"
     id="g312" />
  <g
     style="fill:#FFFFFF; fill-opacity:1.0;  stroke:#FFFFFF; stroke-width:39.3701; stroke-opacity:1;  stroke-linecap:round; stroke-linejoin:round;"
     id="g314" />
</svg>
