<?xml version="1.0" standalone="no"?>
 <!DOCTYPE svg PUBLIC "-//W3C//DTD SVG 1.1//EN" 
 "http://www.w3.org/Graphics/SVG/1.1/DTD/svg11.dtd"> 
<svg xmlns="http://www.w3.org/2000/svg" version="1.1" 
    width="29.7002cm" height="21.0007cm" viewBox="0 0 116930 82680 ">
<title>SVG Picture created as lcddc-F.Cu.svg date 2016/11/29 00:20:09 </title>
  <desc>Picture generated by PCBNEW </desc>
<g style="fill:#000000; fill-opacity:1;stroke:#000000; stroke-opacity:1;
stroke-linecap:round; stroke-linejoin:round; "
 transform="translate(0 0) scale(1 1)">
</g>
<g style="fill:#000000; fill-opacity:0.0; 
stroke:#000000; stroke-width:-0.000393701; stroke-opacity:1; 
stroke-linecap:round; stroke-linejoin:round;">
</g>
<g style="fill:#000000; fill-opacity:0.0; 
stroke:#000000; stroke-width:0; stroke-opacity:1; 
stroke-linecap:round; stroke-linejoin:round;">
</g>
<g style="fill:#000000; fill-opacity:1.0; 
stroke:#000000; stroke-width:0; stroke-opacity:1; 
stroke-linecap:round; stroke-linejoin:round;">
<polyline style="fill-rule:evenodd;"
points="66128,26462
66621,26462
66621,27053
66128,27053
66128,26462
" /> 
<polyline style="fill-rule:evenodd;"
points="66128,27446
66621,27446
66621,28037
66128,28037
66128,27446
" /> 
<polyline style="fill-rule:evenodd;"
points="63621,26762
63128,26762
63128,26171
63621,26171
63621,26762
" /> 
<polyline style="fill-rule:evenodd;"
points="63621,25778
63128,25778
63128,25187
63621,25187
63621,25778
" /> 
<polyline style="fill-rule:evenodd;"
points="66621,26162
66128,26162
66128,25571
66621,25571
66621,26162
" /> 
<polyline style="fill-rule:evenodd;"
points="66621,25178
66128,25178
66128,24587
66621,24587
66621,25178
" /> 
<polyline style="fill-rule:evenodd;"
points="64616,24880
64978,25241
64616,25603
64255,25241
64616,24880
" /> 
<polyline style="fill-rule:evenodd;"
points="65463,25746
65825,26108
65463,26469
65101,26108
65463,25746
" /> 
<polyline style="fill-rule:evenodd;"
points="60225,25015
60225,24335
61025,24335
61025,25015
60225,25015
" /> 
</g>
<g style="fill:#000000; fill-opacity:1.0; 
stroke:#000000; stroke-width:680; stroke-opacity:1; 
stroke-linecap:round; stroke-linejoin:round;">
</g>
<g style="fill:#000000; fill-opacity:0.0; 
stroke:#000000; stroke-width:680; stroke-opacity:1; 
stroke-linecap:round; stroke-linejoin:round;">
<path d="M60565 25675
L60685 25675
" />
<path d="M60565 26675
L60685 26675
" />
<path d="M60565 27675
L60685 27675
" />
</g>
<g style="fill:#000000; fill-opacity:0.0; 
stroke:#000000; stroke-width:0; stroke-opacity:1; 
stroke-linecap:round; stroke-linejoin:round;">
</g>
<g style="fill:#000000; fill-opacity:1.0; 
stroke:#000000; stroke-width:0; stroke-opacity:1; 
stroke-linecap:round; stroke-linejoin:round;">
<polyline style="fill-rule:evenodd;"
points="68050,25900
67250,25900
67250,25100
68050,25100
68050,25900
" /> 
</g>
<g style="fill:#000000; fill-opacity:1.0; 
stroke:#000000; stroke-width:800; stroke-opacity:1; 
stroke-linecap:round; stroke-linejoin:round;">
</g>
<g style="fill:#000000; fill-opacity:0.0; 
stroke:#000000; stroke-width:800; stroke-opacity:1; 
stroke-linecap:round; stroke-linejoin:round;">
<path d="M68650 25500
L68650 25500
" />
</g>
<g style="fill:#000000; fill-opacity:0.0; 
stroke:#000000; stroke-width:0; stroke-opacity:1; 
stroke-linecap:round; stroke-linejoin:round;">
</g>
<g style="fill:#000000; fill-opacity:1.0; 
stroke:#000000; stroke-width:0; stroke-opacity:1; 
stroke-linecap:round; stroke-linejoin:round;">
<polyline style="fill-rule:evenodd;"
points="61668,27026
61668,26711
61983,26711
61983,27026
61668,27026
" /> 
<polyline style="fill-rule:evenodd;"
points="62416,27026
62416,26711
62731,26711
62731,27026
62416,27026
" /> 
<polyline style="fill-rule:evenodd;"
points="62042,26239
62042,25924
62357,25924
62357,26239
62042,26239
" /> 
<polyline style="fill-rule:evenodd;"
points="61530,27677
61530,27322
62003,27322
62003,27677
61530,27677
" /> 
<polyline style="fill-rule:evenodd;"
points="62396,27677
62396,27322
62869,27322
62869,27677
62396,27677
" /> 
<polyline style="fill-rule:evenodd;"
points="67797,26580
68152,26580
68152,27053
67797,27053
67797,26580
" /> 
<polyline style="fill-rule:evenodd;"
points="67797,27446
68152,27446
68152,27919
67797,27919
67797,27446
" /> 
<polyline style="fill-rule:evenodd;"
points="67402,27919
67047,27919
67047,27446
67402,27446
67402,27919
" /> 
<polyline style="fill-rule:evenodd;"
points="67402,27053
67047,27053
67047,26580
67402,26580
67402,27053
" /> 
<polyline style="fill-rule:evenodd;"
points="65666,27496
65666,27751
65249,27751
65249,27496
65666,27496
" /> 
<polyline style="fill-rule:evenodd;"
points="65666,27122
65666,27377
65249,27377
65249,27122
65666,27122
" /> 
<polyline style="fill-rule:evenodd;"
points="65666,26748
65666,27003
65249,27003
65249,26748
65666,26748
" /> 
<polyline style="fill-rule:evenodd;"
points="64800,26748
64800,27003
64383,27003
64383,26748
64800,26748
" /> 
<polyline style="fill-rule:evenodd;"
points="64800,27496
64800,27751
64383,27751
64383,27496
64800,27496
" /> 
</g>
<g style="fill:#000000; fill-opacity:1.0; 
stroke:#000000; stroke-width:98.4252; stroke-opacity:1; 
stroke-linecap:round; stroke-linejoin:round;">
</g>
<g style="fill:#000000; fill-opacity:0.0; 
stroke:#000000; stroke-width:98.4252; stroke-opacity:1; 
stroke-linecap:round; stroke-linejoin:round;">
<path d="M60625 24675
L61475 24675
" />
<path d="M61750 24950
L61750 25725
" />
<path d="M61475 24675
L61750 24950
" />
<path d="M60625 24675
L60750 24675
" />
<path d="M61875 26500
L63342 26500
" />
<path d="M61750 25725
L61750 26375
" />
<path d="M61750 26375
L61875 26500
" />
<path d="M63342 26500
L63375 26467
" />
<path d="M63375 26467
L63667 26467
" />
<path d="M64075 26875
L64590 26875
" />
<path d="M63667 26467
L64075 26875
" />
<path d="M64590 26875
L64591 26875
" />
<path d="M64675 24637
L64812 24637
" />
<path d="M64812 24637
L65057 24882
" />
<path d="M64650 24637
L64675 24637
" />
<path d="M64487 24637
L63642 25482
" />
<path d="M63642 25482
L63375 25482
" />
<path d="M64487 24637
L64650 24637
" />
<path d="M64812 24637
L64875 24700
" />
<path d="M66375 24882
L65057 24882
" />
<path d="M65057 24882
L64875 24700
" />
<path d="M62200 26082
L62200 25725
" />
<path d="M62200 25725
L62442 25482
" />
<path d="M62442 25482
L63375 25482
" />
<path d="M63375 25482
L63392 25482
" />
<path d="M68650 25500
L68650 24750
" />
<path d="M68600 24700
L66557 24700
" />
<path d="M68650 24750
L68600 24700
" />
<path d="M66557 24700
L66375 24882
" />
<path d="M67175 27250
L68600 27250
" />
<path d="M68650 27200
L68650 25500
" />
<path d="M68600 27250
L68650 27200
" />
<path d="M65458 27250
L67175 27250
" />
<path d="M67175 27250
L67225 27250
" />
<path d="M67225 27250
L67225 26816
" />
<path d="M67650 25500
L67075 25500
" />
<path d="M67075 25500
L66707 25867
" />
<path d="M64616 25241
L65491 25241
" />
<path d="M66117 25867
L66375 25867
" />
<path d="M65491 25241
L66117 25867
" />
<path d="M67975 26816
L67975 26225
" />
<path d="M67975 26225
L67650 25900
" />
<path d="M67650 25900
L67650 25500
" />
<path d="M66375 25867
L66707 25867
" />
<path d="M66375 25867
L66375 26757
" />
<path d="M66375 27742
L66375 27800
" />
<path d="M66375 27800
L66100 28075
" />
<path d="M64591 27916
L64591 27624
" />
<path d="M64750 28075
L64591 27916
" />
<path d="M66100 28075
L64750 28075
" />
<path d="M67225 27683
L66434 27683
" />
<path d="M66434 27683
L66375 27742
" />
<path d="M67975 27683
L67225 27683
" />
<path d="M65458 26875
L65458 26113
" />
<path d="M65458 26113
L65463 26108
" />
<path d="M65498 25895
L65467 25865
" />
<path d="M60625 25675
L61325 25675
" />
<path d="M61425 25775
L61425 26350
" />
<path d="M61325 25675
L61425 25775
" />
<path d="M61825 26869
L61794 26869
" />
<path d="M61794 26869
L61425 26500
" />
<path d="M61425 26500
L61425 26350
" />
<path d="M61025 25675
L60625 25675
" />
<path d="M61825 26869
L61825 27440
" />
<path d="M61825 27440
L61766 27500
" />
<path d="M63150 28262
L63150 27650
" />
<path d="M63550 27250
L64450 27250
" />
<path d="M63150 27650
L63550 27250
" />
<path d="M63150 28262
L60812 28262
" />
<path d="M60812 28262
L60625 28075
" />
<path d="M60625 27675
L60625 28075
" />
<path d="M65458 27624
L65124 27624
" />
<path d="M64975 27250
L64450 27250
" />
<path d="M65025 27300
L64975 27250
" />
<path d="M65025 27525
L65025 27300
" />
<path d="M65124 27624
L65025 27525
" />
<path d="M60625 27775
L60625 27675
" />
<path d="M60625 26675
L61150 26675
" />
<path d="M61250 26775
L61250 27100
" />
<path d="M61150 26675
L61250 26775
" />
<path d="M62633 27500
L62633 28016
" />
<path d="M62633 28016
L62600 28050
" />
<path d="M62600 28050
L61450 28050
" />
<path d="M61450 28050
L61250 27850
" />
<path d="M61250 27850
L61250 27100
" />
<path d="M60950 26675
L60625 26675
" />
<path d="M62574 26869
L62574 27440
" />
<path d="M62574 27440
L62633 27500
" />
</g>
<g style="fill:#000000; fill-opacity:1.0; 
stroke:#000000; stroke-width:78.7402; stroke-opacity:1; 
stroke-linecap:round; stroke-linejoin:round;">
<polyline style="fill-rule:evenodd;"
points="69160,25115
68975,24949
68809,24880
68710,24923
68710,25439
68718,25439
68718,25560
68710,25560
68710,26076
68809,26119
68975,26050
69160,25884
69160,28435
59964,28435
59964,25675
60096,25675
60131,25850
60230,25998
60379,26098
60554,26133
60695,26133
60870,26098
61019,25998
61118,25850
61119,25842
61255,25842
61257,25844
61257,26500
61266,26542
61269,26557
61268,26556
61214,26520
61198,26517
61150,26507
61119,26507
61118,26499
61019,26351
60870,26251
60695,26216
60554,26216
60379,26251
60230,26351
60131,26499
60096,26675
60131,26850
60230,26998
60379,27098
60554,27133
60695,27133
60870,27098
61019,26998
61082,26903
61082,27446
61019,27351
60870,27251
60695,27216
60554,27216
60379,27251
60230,27351
60131,27499
60096,27675
60131,27850
60230,27998
60379,28098
60465,28115
60466,28121
60470,28139
60506,28193
60694,28380
60730,28405
60748,28417
60812,28429
63150,28429
63214,28417
63268,28380
63304,28326
63317,28262
63317,27719
63619,27417
64294,27417
64272,27449
64262,27496
64262,27751
64271,27795
64296,27835
64336,27862
64383,27872
64424,27872
64424,27916
64432,27954
64437,27980
64473,28035
64631,28193
64685,28229
64750,28242
66100,28242
66153,28231
66164,28229
66218,28193
66253,28157
66621,28157
66664,28149
66705,28123
66731,28084
66741,28037
66741,27850
66927,27850
66927,27919
66935,27963
66961,28003
67000,28030
67047,28039
67402,28039
67445,28031
67486,28005
67513,27966
67522,27919
67522,27850
67677,27850
67677,27919
67685,27963
67711,28003
67750,28030
67797,28039
68152,28039
68195,28031
68236,28005
68263,27966
68272,27919
68272,27446
68264,27403
68238,27362
68199,27335
68152,27326
67797,27326
67754,27334
67713,27360
67686,27399
67677,27446
67677,27515
67522,27515
67522,27446
67514,27403
67488,27362
67449,27335
67402,27326
67047,27326
67004,27334
66963,27360
66936,27399
66927,27446
66927,27515
66741,27515
66741,27446
66733,27403
66707,27362
66667,27335
66621,27326
66128,27326
66085,27334
66044,27360
66018,27399
66008,27446
66008,27907
64819,27907
64784,27872
64800,27872
64844,27864
64884,27838
64911,27798
64921,27751
64921,27657
65005,27742
65059,27778
65124,27791
65136,27791
65137,27795
65163,27835
65202,27862
65249,27872
65666,27872
65710,27864
65750,27838
65777,27798
65787,27751
65787,27587
65802,27580
65869,27513
65906,27425
65906,27370
65846,27310
65518,27310
65518,27318
65397,27318
65397,27310
65389,27310
65389,27189
65397,27189
65397,27181
65518,27181
65518,27189
65846,27189
65906,27129
65906,27074
65869,26986
65802,26919
65787,26912
65787,26748
65778,26704
65753,26664
65713,26637
65666,26627
65625,26627
65625,26478
65910,26193
65935,26156
65945,26109
65936,26062
65910,26022
65548,25661
65511,25635
65465,25625
65418,25634
65378,25661
65016,26022
64991,26059
64981,26106
64989,26153
65016,26193
65290,26467
65290,26627
65249,26627
65205,26635
65165,26661
65138,26701
65128,26748
65128,26912
65113,26919
65046,26986
65010,27074
65010,27089
64975,27082
64889,27082
64911,27050
64921,27003
64921,26748
64912,26704
64886,26664
64847,26637
64800,26627
64383,26627
64339,26635
64299,26661
64272,26701
64271,26707
64144,26707
63785,26348
63741,26319
63741,26171
63733,26128
63707,26087
63667,26060
63621,26051
63128,26051
63085,26059
63044,26085
63018,26124
63008,26171
63008,26332
62577,26332
62596,26287
62596,26202
62537,26142
62260,26142
62260,26150
62139,26150
62139,26142
62131,26142
62131,26021
62139,26021
62139,25744
62260,25744
62260,26021
62537,26021
62596,25961
62596,25876
62560,25788
62493,25721
62405,25685
62320,25685
62260,25744
62139,25744
62079,25685
61994,25685
61917,25717
61917,25603
62889,25603
62889,25825
62926,25913
62993,25981
63081,26017
63254,26017
63314,25957
63314,25543
63435,25543
63435,25957
63495,26017
63668,26017
63756,25981
63823,25913
63860,25825
63860,25603
63800,25543
63435,25543
63314,25543
62949,25543
62889,25603
61917,25603
61917,25139
62889,25139
62889,25362
62949,25422
63314,25422
63314,25008
63435,25008
63435,25422
63800,25422
63860,25362
63860,25240
64134,25240
64143,25287
64169,25327
64531,25688
64568,25714
64615,25724
64662,25715
64702,25688
64981,25409
65422,25409
65998,25985
66008,25991
66008,26162
66016,26206
66042,26246
66082,26273
66128,26282
66207,26282
66207,26342
66128,26342
66085,26350
66044,26376
66018,26415
66008,26462
66008,27053
66016,27096
66042,27137
66082,27164
66128,27173
66621,27173
66664,27165
66705,27139
66731,27100
66741,27053
66741,26937
66808,26937
66808,27100
66844,27188
66912,27256
67000,27292
67104,27292
67164,27232
67164,26877
67285,26877
67285,27232
67345,27292
67449,27292
67537,27256
67605,27188
67641,27100
67641,26937
67581,26877
67285,26877
67164,26877
66868,26877
66808,26937
66741,26937
66741,26533
66808,26533
66808,26696
66868,26756
67164,26756
67164,26401
67285,26401
67285,26756
67581,26756
67641,26696
67641,26533
67605,26445
67537,26377
67449,26341
67345,26341
67285,26401
67164,26401
67104,26341
67000,26341
66912,26377
66844,26445
66808,26533
66741,26533
66741,26462
66733,26418
66707,26378
66667,26351
66621,26342
66542,26342
66542,26282
66621,26282
66664,26274
66705,26248
66731,26209
66741,26162
66741,26027
66761,26023
66771,26021
66826,25985
67129,25682
67129,25900
67137,25943
67163,25983
67203,26010
67250,26020
67533,26020
67807,26294
67807,26460
67797,26460
67754,26468
67713,26494
67686,26533
67677,26580
67677,27053
67685,27096
67711,27137
67750,27164
67797,27173
68152,27173
68195,27165
68236,27139
68263,27100
68272,27053
68272,26580
68264,26536
68238,26496
68199,26469
68152,26460
68142,26460
68142,26225
68129,26160
68117,26142
68093,26106
68007,26020
68050,26020
68093,26012
68133,25986
68160,25946
68168,25910
68324,26050
68490,26119
68589,26076
68589,25560
68581,25560
68581,25439
68589,25439
68589,24923
68490,24880
68324,24949
68168,25089
68162,25056
68136,25016
68096,24989
68050,24979
67250,24979
67206,24987
67166,25013
67139,25053
67129,25100
67129,25332
67075,25332
67021,25343
67010,25345
66956,25381
66741,25596
66741,25571
66733,25528
66707,25487
66667,25460
66621,25451
66128,25451
66085,25459
66044,25485
66018,25524
66016,25530
65610,25123
65555,25087
65545,25085
65491,25074
64981,25074
64910,25003
65889,25003
65889,25225
65926,25313
65993,25381
66081,25417
66254,25417
66314,25357
66314,24943
66435,24943
66435,25357
66495,25417
66668,25417
66756,25381
66823,25313
66860,25225
66860,25003
66800,24943
66435,24943
66314,24943
65949,24943
65889,25003
64910,25003
64702,24794
64665,24769
64618,24759
64571,24768
64531,24794
64169,25156
64144,25193
64134,25240
63860,25240
63860,25139
63823,25052
63756,24984
63668,24948
63495,24948
63435,25008
63314,25008
63254,24948
63081,24948
62993,24984
62926,25052
62889,25139
61917,25139
61917,24950
61904,24885
61892,24867
61868,24831
61593,24556
61568,24539
65889,24539
65889,24762
65949,24822
66314,24822
66314,24408
66435,24408
66435,24822
66800,24822
66860,24762
66860,24539
66823,24452
66756,24384
66668,24348
66495,24348
66435,24408
66314,24408
66254,24348
66081,24348
65993,24384
65926,24452
65889,24539
61568,24539
61539,24520
61528,24518
61475,24507
61145,24507
61145,24335
61137,24291
61111,24251
61071,24224
61025,24214
60225,24214
60181,24222
60141,24248
60114,24288
60104,24335
60104,25015
60112,25058
60138,25098
60178,25125
60225,25135
61025,25135
61068,25127
61108,25101
61135,25061
61145,25015
61145,24842
61405,24842
61582,25019
61582,25726
61579,25710
61555,25675
61543,25656
61443,25556
61389,25520
61378,25518
61325,25507
61119,25507
61118,25499
61019,25351
60870,25251
60695,25216
60554,25216
60379,25251
60230,25351
60131,25499
60096,25675
59964,25675
59964,24014
69160,24014
69160,25115
" /> 
</g>
<g style="fill:#FFFFFF; fill-opacity:1.0; 
stroke:#FFFFFF; stroke-width:78.7402; stroke-opacity:1; 
stroke-linecap:round; stroke-linejoin:round;">
</g>
<g style="fill:#FFFFFF; fill-opacity:1.0; 
stroke:#FFFFFF; stroke-width:0; stroke-opacity:1; 
stroke-linecap:round; stroke-linejoin:round;">
<circle cx="60625" cy="24675" r="68.8976" /> 
</g>
<g style="fill:#FFFFFF; fill-opacity:1.0; 
stroke:#FFFFFF; stroke-width:39.3701; stroke-opacity:1; 
stroke-linecap:round; stroke-linejoin:round;">
</g>
<g style="fill:#FFFFFF; fill-opacity:1.0; 
stroke:#FFFFFF; stroke-width:0; stroke-opacity:1; 
stroke-linecap:round; stroke-linejoin:round;">
<circle cx="60625" cy="25675" r="68.8976" /> 
</g>
<g style="fill:#FFFFFF; fill-opacity:1.0; 
stroke:#FFFFFF; stroke-width:39.3701; stroke-opacity:1; 
stroke-linecap:round; stroke-linejoin:round;">
</g>
<g style="fill:#FFFFFF; fill-opacity:1.0; 
stroke:#FFFFFF; stroke-width:0; stroke-opacity:1; 
stroke-linecap:round; stroke-linejoin:round;">
<circle cx="60625" cy="26675" r="68.8976" /> 
</g>
<g style="fill:#FFFFFF; fill-opacity:1.0; 
stroke:#FFFFFF; stroke-width:39.3701; stroke-opacity:1; 
stroke-linecap:round; stroke-linejoin:round;">
</g>
<g style="fill:#FFFFFF; fill-opacity:1.0; 
stroke:#FFFFFF; stroke-width:0; stroke-opacity:1; 
stroke-linecap:round; stroke-linejoin:round;">
<circle cx="60625" cy="27675" r="68.8976" /> 
</g>
<g style="fill:#FFFFFF; fill-opacity:1.0; 
stroke:#FFFFFF; stroke-width:39.3701; stroke-opacity:1; 
stroke-linecap:round; stroke-linejoin:round;">
</g>
<g style="fill:#FFFFFF; fill-opacity:1.0; 
stroke:#FFFFFF; stroke-width:0; stroke-opacity:1; 
stroke-linecap:round; stroke-linejoin:round;">
<circle cx="67650" cy="25500" r="68.8976" /> 
</g>
<g style="fill:#FFFFFF; fill-opacity:1.0; 
stroke:#FFFFFF; stroke-width:39.3701; stroke-opacity:1; 
stroke-linecap:round; stroke-linejoin:round;">
</g>
<g style="fill:#FFFFFF; fill-opacity:1.0; 
stroke:#FFFFFF; stroke-width:0; stroke-opacity:1; 
stroke-linecap:round; stroke-linejoin:round;">
<circle cx="68650" cy="25500" r="68.8976" /> 
</g>
<g style="fill:#FFFFFF; fill-opacity:1.0; 
stroke:#FFFFFF; stroke-width:39.3701; stroke-opacity:1; 
stroke-linecap:round; stroke-linejoin:round;">
</g>
<g style="fill:#000000; fill-opacity:1.0; 
stroke:#000000; stroke-width:39.3701; stroke-opacity:1; 
stroke-linecap:round; stroke-linejoin:round;">
</g> 
</svg>
