G04 #@! TF.FileFunction,Legend,Top*
%FSLAX46Y46*%
G04 Gerber Fmt 4.6, Leading zero omitted, Abs format (unit mm)*
G04 Created by KiCad (PCBNEW 4.0.2-stable) date 08/11/2016 15:47:43*
%MOMM*%
G01*
G04 APERTURE LIST*
%ADD10C,0.100000*%
%ADD11C,0.150000*%
%ADD12C,0.200000*%
%ADD13C,0.050000*%
%ADD14C,0.127000*%
%ADD15C,0.381000*%
%ADD16C,0.097500*%
%ADD17C,0.119380*%
%ADD18C,0.066040*%
%ADD19C,0.304800*%
%ADD20R,1.400000X1.400000*%
%ADD21C,1.400000*%
%ADD22R,2.127200X2.432000*%
%ADD23O,2.127200X2.432000*%
%ADD24O,1.700000X0.750000*%
%ADD25R,1.700000X1.700000*%
%ADD26C,1.700000*%
%ADD27C,4.464000*%
%ADD28R,4.050000X2.300000*%
%ADD29R,1.900000X1.200000*%
%ADD30R,2.432000X2.127200*%
%ADD31O,2.432000X2.127200*%
%ADD32R,1.400000X1.650000*%
%ADD33R,0.900000X1.000000*%
%ADD34R,1.650000X1.400000*%
%ADD35R,1.000000X0.900000*%
%ADD36R,2.000200X2.599640*%
%ADD37R,2.432000X2.432000*%
%ADD38O,2.432000X2.432000*%
%ADD39R,2.127200X2.127200*%
%ADD40O,2.127200X2.127200*%
%ADD41R,1.200100X1.200100*%
%ADD42R,1.300000X0.900000*%
%ADD43R,0.900000X1.300000*%
%ADD44R,1.700000X1.100000*%
%ADD45R,1.950000X1.700000*%
%ADD46R,1.543000X0.908000*%
%ADD47R,1.000000X1.900000*%
%ADD48R,1.250000X0.650000*%
%ADD49R,0.650000X1.250000*%
%ADD50R,1.600000X3.900000*%
%ADD51R,1.460000X1.050000*%
%ADD52R,1.050000X1.460000*%
%ADD53R,1.050000X0.700000*%
%ADD54R,1.175000X1.640000*%
%ADD55R,0.908000X0.704800*%
%ADD56R,2.400000X1.700000*%
%ADD57C,1.400760*%
%ADD58R,0.650000X1.400000*%
%ADD59R,1.400000X0.650000*%
%ADD60R,1.400000X2.900000*%
G04 APERTURE END LIST*
D10*
D11*
X58039000Y-141795500D02*
X63119000Y-141795500D01*
X63119000Y-141795500D02*
X63119000Y-139255500D01*
X63119000Y-139255500D02*
X58039000Y-139255500D01*
X55219000Y-138975500D02*
X56769000Y-138975500D01*
X58039000Y-139255500D02*
X58039000Y-141795500D01*
X56769000Y-142075500D02*
X55219000Y-142075500D01*
X55219000Y-142075500D02*
X55219000Y-138975500D01*
D12*
X85417250Y-130548250D02*
X89017250Y-130548250D01*
X89017250Y-130548250D02*
X89017250Y-133548250D01*
X89017250Y-133548250D02*
X85417250Y-133548250D01*
X85417250Y-133548250D02*
X85417250Y-130548250D01*
X86667250Y-131298250D02*
G75*
G03X86667250Y-131298250I-500000J0D01*
G01*
D11*
X98370000Y-134007500D02*
X98370000Y-129009500D01*
X98230000Y-133999500D02*
X98230000Y-129017500D01*
X98090000Y-133983500D02*
X98090000Y-131603500D01*
X98090000Y-131413500D02*
X98090000Y-129033500D01*
X97950000Y-133959500D02*
X97950000Y-131998500D01*
X97950000Y-131018500D02*
X97950000Y-129057500D01*
X97810000Y-133926500D02*
X97810000Y-132165500D01*
X97810000Y-130851500D02*
X97810000Y-129090500D01*
X97670000Y-133885500D02*
X97670000Y-132272500D01*
X97670000Y-130744500D02*
X97670000Y-129131500D01*
X97530000Y-133835500D02*
X97530000Y-132343500D01*
X97530000Y-130673500D02*
X97530000Y-129181500D01*
X97390000Y-133774500D02*
X97390000Y-132387500D01*
X97390000Y-130629500D02*
X97390000Y-129242500D01*
X97250000Y-133704500D02*
X97250000Y-132406500D01*
X97250000Y-130610500D02*
X97250000Y-129312500D01*
X97110000Y-133622500D02*
X97110000Y-132404500D01*
X97110000Y-130612500D02*
X97110000Y-129394500D01*
X96970000Y-133527500D02*
X96970000Y-132379500D01*
X96970000Y-130637500D02*
X96970000Y-129489500D01*
X96830000Y-133416500D02*
X96830000Y-132331500D01*
X96830000Y-130685500D02*
X96830000Y-129600500D01*
X96690000Y-133288500D02*
X96690000Y-132253500D01*
X96690000Y-130763500D02*
X96690000Y-129728500D01*
X96550000Y-133139500D02*
X96550000Y-132136500D01*
X96550000Y-130880500D02*
X96550000Y-129877500D01*
X96410000Y-132960500D02*
X96410000Y-131948500D01*
X96410000Y-131068500D02*
X96410000Y-130056500D01*
X96270000Y-132741500D02*
X96270000Y-130275500D01*
X96130000Y-132452500D02*
X96130000Y-130564500D01*
X95990000Y-131980500D02*
X95990000Y-131036500D01*
X98095000Y-131508500D02*
G75*
G03X98095000Y-131508500I-900000J0D01*
G01*
X100982500Y-131508500D02*
G75*
G03X100982500Y-131508500I-2537500J0D01*
G01*
X114490500Y-140652500D02*
G75*
G03X114490500Y-140652500I-2286000J0D01*
G01*
X114490500Y-96075500D02*
G75*
G03X114490500Y-96075500I-2286000J0D01*
G01*
X29718000Y-96012000D02*
G75*
G03X29718000Y-96012000I-2286000J0D01*
G01*
D13*
X78856700Y-94665800D02*
X78856700Y-109665800D01*
X78856700Y-109665800D02*
X91856700Y-109665800D01*
X91856700Y-109665800D02*
X91856700Y-94665800D01*
X85356700Y-94665800D02*
X78856700Y-94665800D01*
X91856700Y-94665800D02*
X85356700Y-94665800D01*
X25146000Y-133538000D02*
X30146000Y-133538000D01*
X25146000Y-93538000D02*
X30146000Y-93538000D01*
X30146000Y-133538000D02*
X30146000Y-93538000D01*
X25146000Y-93538000D02*
X25146000Y-133538000D01*
D11*
X28416000Y-104808000D02*
X28416000Y-125128000D01*
X28416000Y-125128000D02*
X25876000Y-125128000D01*
X25876000Y-125128000D02*
X25876000Y-104808000D01*
X28696000Y-101988000D02*
X28696000Y-103538000D01*
X28416000Y-104808000D02*
X25876000Y-104808000D01*
X25596000Y-103538000D02*
X25596000Y-101988000D01*
X25596000Y-101988000D02*
X28696000Y-101988000D01*
X49195100Y-119429900D02*
X50195100Y-119429900D01*
X50195100Y-117729900D02*
X49195100Y-117729900D01*
X70660280Y-120869520D02*
X70660280Y-120369520D01*
X69710280Y-120369520D02*
X69710280Y-120869520D01*
X51544200Y-114100800D02*
X51544200Y-114600800D01*
X52494200Y-114600800D02*
X52494200Y-114100800D01*
X54812300Y-105135300D02*
X54812300Y-104135300D01*
X53112300Y-104135300D02*
X53112300Y-105135300D01*
X48721200Y-117365800D02*
X49221200Y-117365800D01*
X49221200Y-116415800D02*
X48721200Y-116415800D01*
X52443400Y-105507600D02*
X52443400Y-105007600D01*
X51493400Y-105007600D02*
X51493400Y-105507600D01*
X36964600Y-113542000D02*
X36964600Y-114042000D01*
X37914600Y-114042000D02*
X37914600Y-113542000D01*
X41956800Y-100515400D02*
X41456800Y-100515400D01*
X41456800Y-101465400D02*
X41956800Y-101465400D01*
X35897800Y-105515600D02*
X35897800Y-106015600D01*
X36847800Y-106015600D02*
X36847800Y-105515600D01*
X81757500Y-116272500D02*
X81757500Y-116772500D01*
X82707500Y-116772500D02*
X82707500Y-116272500D01*
X53296800Y-96955800D02*
X53296800Y-97455800D01*
X54246800Y-97455800D02*
X54246800Y-96955800D01*
X45909600Y-96715200D02*
X45909600Y-95715200D01*
X44209600Y-95715200D02*
X44209600Y-96715200D01*
X34151200Y-96477200D02*
X34151200Y-97477200D01*
X35851200Y-97477200D02*
X35851200Y-96477200D01*
X35495600Y-113428400D02*
X35495600Y-112428400D01*
X33795600Y-112428400D02*
X33795600Y-113428400D01*
X49941100Y-97981400D02*
X48941100Y-97981400D01*
X48941100Y-99681400D02*
X49941100Y-99681400D01*
X51388900Y-95822400D02*
X50388900Y-95822400D01*
X50388900Y-97522400D02*
X51388900Y-97522400D01*
X60287800Y-107208700D02*
X60287800Y-108208700D01*
X61987800Y-108208700D02*
X61987800Y-107208700D01*
X94076500Y-104664700D02*
X94076500Y-105164700D01*
X95026500Y-105164700D02*
X95026500Y-104664700D01*
X66200400Y-105383700D02*
X67200400Y-105383700D01*
X67200400Y-103683700D02*
X66200400Y-103683700D01*
X93987600Y-107725400D02*
X93987600Y-108225400D01*
X94937600Y-108225400D02*
X94937600Y-107725400D01*
X70407900Y-105833800D02*
X70407900Y-104833800D01*
X68707900Y-104833800D02*
X68707900Y-105833800D01*
X68880800Y-110256300D02*
X68380800Y-110256300D01*
X68380800Y-111206300D02*
X68880800Y-111206300D01*
X82355500Y-120683000D02*
X81855500Y-120683000D01*
X81855500Y-121633000D02*
X82355500Y-121633000D01*
X102583000Y-131212400D02*
X102583000Y-130712400D01*
X101633000Y-130712400D02*
X101633000Y-131212400D01*
X76732500Y-141089000D02*
X76732500Y-140089000D01*
X75032500Y-140089000D02*
X75032500Y-141089000D01*
X102399200Y-127754000D02*
X102399200Y-126754000D01*
X100699200Y-126754000D02*
X100699200Y-127754000D01*
X111668200Y-124972200D02*
X106670200Y-124972200D01*
X111660200Y-125112200D02*
X106678200Y-125112200D01*
X111644200Y-125252200D02*
X109264200Y-125252200D01*
X109074200Y-125252200D02*
X106694200Y-125252200D01*
X111620200Y-125392200D02*
X109659200Y-125392200D01*
X108679200Y-125392200D02*
X106718200Y-125392200D01*
X111587200Y-125532200D02*
X109826200Y-125532200D01*
X108512200Y-125532200D02*
X106751200Y-125532200D01*
X111546200Y-125672200D02*
X109933200Y-125672200D01*
X108405200Y-125672200D02*
X106792200Y-125672200D01*
X111496200Y-125812200D02*
X110004200Y-125812200D01*
X108334200Y-125812200D02*
X106842200Y-125812200D01*
X111435200Y-125952200D02*
X110048200Y-125952200D01*
X108290200Y-125952200D02*
X106903200Y-125952200D01*
X111365200Y-126092200D02*
X110067200Y-126092200D01*
X108271200Y-126092200D02*
X106973200Y-126092200D01*
X111283200Y-126232200D02*
X110065200Y-126232200D01*
X108273200Y-126232200D02*
X107055200Y-126232200D01*
X111188200Y-126372200D02*
X110040200Y-126372200D01*
X108298200Y-126372200D02*
X107150200Y-126372200D01*
X111077200Y-126512200D02*
X109992200Y-126512200D01*
X108346200Y-126512200D02*
X107261200Y-126512200D01*
X110949200Y-126652200D02*
X109914200Y-126652200D01*
X108424200Y-126652200D02*
X107389200Y-126652200D01*
X110800200Y-126792200D02*
X109797200Y-126792200D01*
X108541200Y-126792200D02*
X107538200Y-126792200D01*
X110621200Y-126932200D02*
X109609200Y-126932200D01*
X108729200Y-126932200D02*
X107717200Y-126932200D01*
X110402200Y-127072200D02*
X107936200Y-127072200D01*
X110113200Y-127212200D02*
X108225200Y-127212200D01*
X109641200Y-127352200D02*
X108697200Y-127352200D01*
X110069200Y-126147200D02*
G75*
G03X110069200Y-126147200I-900000J0D01*
G01*
X111706700Y-124897200D02*
G75*
G03X111706700Y-124897200I-2537500J0D01*
G01*
X88289500Y-141025500D02*
X88289500Y-140025500D01*
X86589500Y-140025500D02*
X86589500Y-141025500D01*
X114322500Y-134230500D02*
X109324500Y-134230500D01*
X114314500Y-134370500D02*
X109332500Y-134370500D01*
X114298500Y-134510500D02*
X111918500Y-134510500D01*
X111728500Y-134510500D02*
X109348500Y-134510500D01*
X114274500Y-134650500D02*
X112313500Y-134650500D01*
X111333500Y-134650500D02*
X109372500Y-134650500D01*
X114241500Y-134790500D02*
X112480500Y-134790500D01*
X111166500Y-134790500D02*
X109405500Y-134790500D01*
X114200500Y-134930500D02*
X112587500Y-134930500D01*
X111059500Y-134930500D02*
X109446500Y-134930500D01*
X114150500Y-135070500D02*
X112658500Y-135070500D01*
X110988500Y-135070500D02*
X109496500Y-135070500D01*
X114089500Y-135210500D02*
X112702500Y-135210500D01*
X110944500Y-135210500D02*
X109557500Y-135210500D01*
X114019500Y-135350500D02*
X112721500Y-135350500D01*
X110925500Y-135350500D02*
X109627500Y-135350500D01*
X113937500Y-135490500D02*
X112719500Y-135490500D01*
X110927500Y-135490500D02*
X109709500Y-135490500D01*
X113842500Y-135630500D02*
X112694500Y-135630500D01*
X110952500Y-135630500D02*
X109804500Y-135630500D01*
X113731500Y-135770500D02*
X112646500Y-135770500D01*
X111000500Y-135770500D02*
X109915500Y-135770500D01*
X113603500Y-135910500D02*
X112568500Y-135910500D01*
X111078500Y-135910500D02*
X110043500Y-135910500D01*
X113454500Y-136050500D02*
X112451500Y-136050500D01*
X111195500Y-136050500D02*
X110192500Y-136050500D01*
X113275500Y-136190500D02*
X112263500Y-136190500D01*
X111383500Y-136190500D02*
X110371500Y-136190500D01*
X113056500Y-136330500D02*
X110590500Y-136330500D01*
X112767500Y-136470500D02*
X110879500Y-136470500D01*
X112295500Y-136610500D02*
X111351500Y-136610500D01*
X112723500Y-135405500D02*
G75*
G03X112723500Y-135405500I-900000J0D01*
G01*
X114361000Y-134155500D02*
G75*
G03X114361000Y-134155500I-2537500J0D01*
G01*
X91542500Y-138247500D02*
X91542500Y-139247500D01*
X93242500Y-139247500D02*
X93242500Y-138247500D01*
X98623500Y-136549500D02*
X99623500Y-136549500D01*
X99623500Y-134849500D02*
X98623500Y-134849500D01*
X110070000Y-131513200D02*
X110070000Y-130513200D01*
X108370000Y-130513200D02*
X108370000Y-131513200D01*
D14*
X78422500Y-135826500D02*
X78219300Y-135826500D01*
X76898500Y-133921500D02*
X81470500Y-133921500D01*
X81470500Y-133921500D02*
X81470500Y-134556500D01*
X79844900Y-137731500D02*
X79844900Y-133921500D01*
X80175100Y-137731500D02*
X80175100Y-133921500D01*
X76898500Y-137096500D02*
X76898500Y-137731500D01*
X76898500Y-137731500D02*
X81470500Y-137731500D01*
X81470500Y-137731500D02*
X81470500Y-137096500D01*
X76898500Y-134556500D02*
X76898500Y-133921500D01*
X79057500Y-135826500D02*
X78422500Y-135351520D01*
X78422500Y-135351520D02*
X78422500Y-135826500D01*
X78422500Y-135826500D02*
X78422500Y-136301480D01*
X78422500Y-136301480D02*
X79057500Y-135826500D01*
X79057500Y-135826500D02*
X79057500Y-135509000D01*
X79057500Y-135509000D02*
X78900020Y-135351520D01*
X79057500Y-135826500D02*
X79057500Y-136144000D01*
X79057500Y-136144000D02*
X79214980Y-136301480D01*
X79057500Y-135826500D02*
X80167480Y-135826500D01*
X106108500Y-137350500D02*
X106311700Y-137350500D01*
X107632500Y-139255500D02*
X103060500Y-139255500D01*
X103060500Y-139255500D02*
X103060500Y-138620500D01*
X104686100Y-135445500D02*
X104686100Y-139255500D01*
X104355900Y-135445500D02*
X104355900Y-139255500D01*
X107632500Y-136080500D02*
X107632500Y-135445500D01*
X107632500Y-135445500D02*
X103060500Y-135445500D01*
X103060500Y-135445500D02*
X103060500Y-136080500D01*
X107632500Y-138620500D02*
X107632500Y-139255500D01*
X105473500Y-137350500D02*
X106108500Y-137825480D01*
X106108500Y-137825480D02*
X106108500Y-137350500D01*
X106108500Y-137350500D02*
X106108500Y-136875520D01*
X106108500Y-136875520D02*
X105473500Y-137350500D01*
X105473500Y-137350500D02*
X105473500Y-137668000D01*
X105473500Y-137668000D02*
X105630980Y-137825480D01*
X105473500Y-137350500D02*
X105473500Y-137033000D01*
X105473500Y-137033000D02*
X105316020Y-136875520D01*
X105473500Y-137350500D02*
X104363520Y-137350500D01*
D11*
X51562000Y-139192000D02*
X46482000Y-139192000D01*
X46482000Y-139192000D02*
X46482000Y-141732000D01*
X46482000Y-141732000D02*
X51562000Y-141732000D01*
X54382000Y-142012000D02*
X52832000Y-142012000D01*
X51562000Y-141732000D02*
X51562000Y-139192000D01*
X52832000Y-138912000D02*
X54382000Y-138912000D01*
X54382000Y-138912000D02*
X54382000Y-142012000D01*
X45492000Y-138908000D02*
X43942000Y-138908000D01*
X45492000Y-140208000D02*
X45492000Y-138908000D01*
X44069000Y-144399000D02*
X44069000Y-150241000D01*
X44069000Y-150241000D02*
X43815000Y-150241000D01*
X43815000Y-150241000D02*
X43815000Y-144399000D01*
X43815000Y-144399000D02*
X43942000Y-144399000D01*
X43942000Y-144399000D02*
X43942000Y-150241000D01*
X44196000Y-141732000D02*
X44196000Y-141351000D01*
X43688000Y-141732000D02*
X43688000Y-141351000D01*
X41656000Y-141732000D02*
X41656000Y-141351000D01*
X41148000Y-141732000D02*
X41148000Y-141351000D01*
X39116000Y-141732000D02*
X39116000Y-141351000D01*
X38608000Y-141732000D02*
X38608000Y-141351000D01*
X36576000Y-141732000D02*
X36576000Y-141351000D01*
X36068000Y-141732000D02*
X36068000Y-141351000D01*
X33528000Y-141732000D02*
X33528000Y-141351000D01*
X34036000Y-141732000D02*
X34036000Y-141351000D01*
X42672000Y-144272000D02*
X45212000Y-144272000D01*
X43688000Y-150368000D02*
X43688000Y-144272000D01*
X44196000Y-150368000D02*
X43688000Y-150368000D01*
X44196000Y-144272000D02*
X44196000Y-150368000D01*
X42672000Y-141732000D02*
X42672000Y-144272000D01*
X45212000Y-141732000D02*
X42672000Y-141732000D01*
X45212000Y-141732000D02*
X45212000Y-144272000D01*
X40132000Y-141732000D02*
X40132000Y-144272000D01*
X40132000Y-141732000D02*
X37592000Y-141732000D01*
X37592000Y-141732000D02*
X37592000Y-144272000D01*
X39116000Y-144272000D02*
X39116000Y-150368000D01*
X39116000Y-150368000D02*
X38608000Y-150368000D01*
X38608000Y-150368000D02*
X38608000Y-144272000D01*
X37592000Y-144272000D02*
X40132000Y-144272000D01*
X40132000Y-144272000D02*
X42672000Y-144272000D01*
X41148000Y-150368000D02*
X41148000Y-144272000D01*
X41656000Y-150368000D02*
X41148000Y-150368000D01*
X41656000Y-144272000D02*
X41656000Y-150368000D01*
X40132000Y-141732000D02*
X40132000Y-144272000D01*
X42672000Y-141732000D02*
X40132000Y-141732000D01*
X42672000Y-141732000D02*
X42672000Y-144272000D01*
X35052000Y-141732000D02*
X35052000Y-144272000D01*
X35052000Y-141732000D02*
X32512000Y-141732000D01*
X32512000Y-141732000D02*
X32512000Y-144272000D01*
X34036000Y-144272000D02*
X34036000Y-150368000D01*
X34036000Y-150368000D02*
X33528000Y-150368000D01*
X33528000Y-150368000D02*
X33528000Y-144272000D01*
X32512000Y-144272000D02*
X35052000Y-144272000D01*
X35052000Y-144272000D02*
X37592000Y-144272000D01*
X36068000Y-150368000D02*
X36068000Y-144272000D01*
X36576000Y-150368000D02*
X36068000Y-150368000D01*
X36576000Y-144272000D02*
X36576000Y-150368000D01*
X35052000Y-141732000D02*
X35052000Y-144272000D01*
X37592000Y-141732000D02*
X35052000Y-141732000D01*
X37592000Y-141732000D02*
X37592000Y-144272000D01*
X105943400Y-113372900D02*
X108483400Y-113372900D01*
X103123400Y-113092900D02*
X104673400Y-113092900D01*
X105943400Y-113372900D02*
X105943400Y-115912900D01*
X104673400Y-116192900D02*
X103123400Y-116192900D01*
X103123400Y-116192900D02*
X103123400Y-113092900D01*
X105943400Y-115912900D02*
X108483400Y-115912900D01*
X108483400Y-115912900D02*
X108483400Y-113372900D01*
X102285800Y-115912900D02*
X102285800Y-108292900D01*
X99745800Y-115912900D02*
X99745800Y-108292900D01*
X99465800Y-118732900D02*
X99465800Y-117182900D01*
X102285800Y-108292900D02*
X99745800Y-108292900D01*
X99745800Y-115912900D02*
X102285800Y-115912900D01*
X102565800Y-117182900D02*
X102565800Y-118732900D01*
X102565800Y-118732900D02*
X99465800Y-118732900D01*
X113614200Y-107099100D02*
X113614200Y-109639100D01*
X113894200Y-104279100D02*
X113894200Y-105829100D01*
X113614200Y-107099100D02*
X111074200Y-107099100D01*
X110794200Y-105829100D02*
X110794200Y-104279100D01*
X110794200Y-104279100D02*
X113894200Y-104279100D01*
X111074200Y-107099100D02*
X111074200Y-109639100D01*
X111074200Y-109639100D02*
X113614200Y-109639100D01*
X95541500Y-120840500D02*
X95541500Y-119290500D01*
X97091500Y-119290500D02*
X95541500Y-119290500D01*
X95821500Y-122110500D02*
X98361500Y-122110500D01*
X98361500Y-122110500D02*
X98361500Y-119570500D01*
X98361500Y-119570500D02*
X100901500Y-119570500D01*
X100901500Y-119570500D02*
X100901500Y-124650500D01*
X100901500Y-124650500D02*
X95821500Y-124650500D01*
X95821500Y-124650500D02*
X95821500Y-122110500D01*
X69693840Y-135524240D02*
X69742100Y-135524240D01*
X72492820Y-134823200D02*
X72492820Y-135524240D01*
X72492820Y-135524240D02*
X72243900Y-135524240D01*
X69693840Y-135524240D02*
X69493180Y-135524240D01*
X69493180Y-135524240D02*
X69493180Y-134823200D01*
X87924640Y-130178760D02*
X87924640Y-130130500D01*
X87223600Y-127379780D02*
X87924640Y-127379780D01*
X87924640Y-127379780D02*
X87924640Y-127628700D01*
X87924640Y-130178760D02*
X87924640Y-130379420D01*
X87924640Y-130379420D02*
X87223600Y-130379420D01*
X101043740Y-141062660D02*
X101043740Y-141014400D01*
X100342700Y-138263680D02*
X101043740Y-138263680D01*
X101043740Y-138263680D02*
X101043740Y-138512600D01*
X101043740Y-141062660D02*
X101043740Y-141263320D01*
X101043740Y-141263320D02*
X100342700Y-141263320D01*
X103973000Y-108196000D02*
X103973000Y-107196000D01*
X105323000Y-107196000D02*
X105323000Y-108196000D01*
X106576500Y-108196000D02*
X106576500Y-107196000D01*
X107926500Y-107196000D02*
X107926500Y-108196000D01*
X72697720Y-121300880D02*
X73697720Y-121300880D01*
X73697720Y-122650880D02*
X72697720Y-122650880D01*
X70035800Y-123144920D02*
X71035800Y-123144920D01*
X71035800Y-124494920D02*
X70035800Y-124494920D01*
X104940480Y-116779680D02*
X105940480Y-116779680D01*
X105940480Y-118129680D02*
X104940480Y-118129680D01*
X108561500Y-117292500D02*
X108561500Y-118292500D01*
X107211500Y-118292500D02*
X107211500Y-117292500D01*
X75372600Y-124147200D02*
X75372600Y-123147200D01*
X76722600Y-123147200D02*
X76722600Y-124147200D01*
X70191000Y-128770000D02*
X70191000Y-127770000D01*
X71541000Y-127770000D02*
X71541000Y-128770000D01*
X65397000Y-133199500D02*
X64397000Y-133199500D01*
X64397000Y-131849500D02*
X65397000Y-131849500D01*
X63891800Y-130192400D02*
X63891800Y-129192400D01*
X65241800Y-129192400D02*
X65241800Y-130192400D01*
X64683000Y-135263000D02*
X64683000Y-136263000D01*
X63333000Y-136263000D02*
X63333000Y-135263000D01*
X77620500Y-141216000D02*
X77620500Y-140216000D01*
X78970500Y-140216000D02*
X78970500Y-141216000D01*
X81202500Y-139862000D02*
X81202500Y-141062000D01*
X79452500Y-141062000D02*
X79452500Y-139862000D01*
X87771600Y-123871100D02*
X87771600Y-124871100D01*
X86421600Y-124871100D02*
X86421600Y-123871100D01*
X98994600Y-127550800D02*
X98994600Y-126550800D01*
X100344600Y-126550800D02*
X100344600Y-127550800D01*
X75575800Y-128922400D02*
X75575800Y-127922400D01*
X76925800Y-127922400D02*
X76925800Y-128922400D01*
X75988800Y-126862200D02*
X74988800Y-126862200D01*
X74988800Y-125512200D02*
X75988800Y-125512200D01*
X95010600Y-128582800D02*
X95010600Y-129582800D01*
X93660600Y-129582800D02*
X93660600Y-128582800D01*
X59904014Y-97193100D02*
G75*
G03X59904014Y-97193100I-1750714J0D01*
G01*
X61378300Y-93968100D02*
X61378300Y-93993100D01*
X61378300Y-100418100D02*
X61378300Y-100393100D01*
X54928300Y-100418100D02*
X54928300Y-100393100D01*
X54928300Y-93993100D02*
X54928300Y-93968100D01*
X61378300Y-95893100D02*
X61378300Y-98493100D01*
X54928300Y-93968100D02*
X61378300Y-93968100D01*
X54928300Y-95893100D02*
X54928300Y-98493100D01*
X54928300Y-100418100D02*
X61378300Y-100418100D01*
X67005200Y-119380000D02*
X67005200Y-124460000D01*
X67005200Y-124460000D02*
X62433200Y-124460000D01*
X62433200Y-124460000D02*
X62433200Y-119380000D01*
X62433200Y-119380000D02*
X67005200Y-119380000D01*
X65481200Y-119380000D02*
X65481200Y-119888000D01*
X65481200Y-119888000D02*
X64211200Y-119888000D01*
X64211200Y-119888000D02*
X64211200Y-119380000D01*
X93619400Y-114599900D02*
X93594400Y-114599900D01*
X93619400Y-118749900D02*
X93514400Y-118749900D01*
X83469400Y-118749900D02*
X83574400Y-118749900D01*
X83469400Y-114599900D02*
X83574400Y-114599900D01*
X93619400Y-114599900D02*
X93619400Y-118749900D01*
X83469400Y-114599900D02*
X83469400Y-118749900D01*
X93594400Y-114599900D02*
X93594400Y-113224900D01*
D13*
X65610021Y-107062700D02*
G75*
G03X65610021Y-107062700I-141421J0D01*
G01*
X64768600Y-106462700D02*
X67768600Y-106462700D01*
X67768600Y-106462700D02*
X67768600Y-109462700D01*
X67768600Y-109462700D02*
X64768600Y-109462700D01*
X64768600Y-109462700D02*
X64768600Y-106462700D01*
X96193600Y-94029400D02*
X96193600Y-97029400D01*
X96193600Y-97029400D02*
X106193600Y-97029400D01*
X106193600Y-97029400D02*
X106193600Y-94029400D01*
X106193600Y-94029400D02*
X96193600Y-94029400D01*
D11*
X80267200Y-122252000D02*
G75*
G03X80267200Y-122252000I-100000J0D01*
G01*
X80717200Y-122502000D02*
X80217200Y-122502000D01*
X80717200Y-125402000D02*
X80717200Y-122502000D01*
X80217200Y-125402000D02*
X80717200Y-125402000D01*
X80217200Y-122502000D02*
X80217200Y-125402000D01*
X65773500Y-129205000D02*
G75*
G03X65773500Y-129205000I-100000J0D01*
G01*
X65923500Y-128655000D02*
X65923500Y-129155000D01*
X68823500Y-128655000D02*
X65923500Y-128655000D01*
X68823500Y-129155000D02*
X68823500Y-128655000D01*
X65923500Y-129155000D02*
X68823500Y-129155000D01*
X71872500Y-137301500D02*
G75*
G03X71872500Y-137301500I-100000J0D01*
G01*
X72322500Y-137551500D02*
X71822500Y-137551500D01*
X72322500Y-140451500D02*
X72322500Y-137551500D01*
X71822500Y-140451500D02*
X72322500Y-140451500D01*
X71822500Y-137551500D02*
X71822500Y-140451500D01*
X91877600Y-121451100D02*
X89427600Y-121451100D01*
X92602600Y-124751100D02*
X89427600Y-124751100D01*
X83366000Y-137619000D02*
G75*
G03X83366000Y-137619000I-100000J0D01*
G01*
X83816000Y-137869000D02*
X83316000Y-137869000D01*
X83816000Y-140769000D02*
X83816000Y-137869000D01*
X83316000Y-140769000D02*
X83816000Y-140769000D01*
X83316000Y-137869000D02*
X83316000Y-140769000D01*
X82327750Y-132746750D02*
X82327750Y-130714750D01*
X82327750Y-130714750D02*
X81057750Y-130714750D01*
X81057750Y-130714750D02*
X81057750Y-132746750D01*
X81057750Y-132746750D02*
X82327750Y-132746750D01*
X92986250Y-130284750D02*
G75*
G03X92986250Y-130284750I-100000J0D01*
G01*
X93436250Y-130534750D02*
X92936250Y-130534750D01*
X93436250Y-133434750D02*
X93436250Y-130534750D01*
X92936250Y-133434750D02*
X93436250Y-133434750D01*
X92936250Y-130534750D02*
X92936250Y-133434750D01*
X95621500Y-138063500D02*
G75*
G03X95621500Y-138063500I-100000J0D01*
G01*
X96071500Y-138313500D02*
X95571500Y-138313500D01*
X96071500Y-141213500D02*
X96071500Y-138313500D01*
X95571500Y-141213500D02*
X96071500Y-141213500D01*
X95571500Y-138313500D02*
X95571500Y-141213500D01*
X42579600Y-96193000D02*
X43279600Y-96193000D01*
X40679600Y-94693000D02*
X40679600Y-94193000D01*
X39277520Y-94693000D02*
X40679600Y-94693000D01*
X40680640Y-98093000D02*
X39278560Y-98093000D01*
X37379600Y-96193000D02*
X37379600Y-96593000D01*
X42579600Y-96193000D02*
X42579600Y-96593000D01*
X46832520Y-96616520D02*
X47132240Y-96715580D01*
X46832520Y-96017080D02*
X47132240Y-95918020D01*
X46832520Y-95417640D02*
X41783000Y-95417640D01*
X41783000Y-95417640D02*
X41783000Y-97215960D01*
X41783000Y-97215960D02*
X46832520Y-97215960D01*
X46832520Y-95417640D02*
X46832520Y-97215960D01*
X49828200Y-104349800D02*
X48828200Y-104349800D01*
X49828200Y-114699800D02*
X48753200Y-114699800D01*
X39478200Y-114699800D02*
X40553200Y-114699800D01*
X39478200Y-104349800D02*
X40553200Y-104349800D01*
X49828200Y-104349800D02*
X49828200Y-105424800D01*
X39478200Y-104349800D02*
X39478200Y-105424800D01*
X39478200Y-114699800D02*
X39478200Y-113624800D01*
X49828200Y-114699800D02*
X49828200Y-113624800D01*
X48828200Y-104349800D02*
X48828200Y-103324800D01*
X98029400Y-101109400D02*
X98029400Y-100109400D01*
X99379400Y-100109400D02*
X99379400Y-101109400D01*
X29718000Y-140716000D02*
G75*
G03X29718000Y-140716000I-2286000J0D01*
G01*
X67818000Y-135763000D02*
X67818000Y-133731000D01*
X67818000Y-133731000D02*
X66548000Y-133731000D01*
X66548000Y-133731000D02*
X66548000Y-135763000D01*
X66548000Y-135763000D02*
X67818000Y-135763000D01*
X70567000Y-129970000D02*
X74467000Y-129970000D01*
X74467000Y-132920000D02*
X70567000Y-132920000D01*
X82366400Y-129287800D02*
X78466400Y-129287800D01*
X78466400Y-126337800D02*
X82366400Y-126337800D01*
X102082600Y-122128280D02*
X102082600Y-119588280D01*
X101802600Y-124948280D02*
X101802600Y-123398280D01*
X102082600Y-122128280D02*
X104622600Y-122128280D01*
X104902600Y-123398280D02*
X104902600Y-124948280D01*
X104902600Y-124948280D02*
X101802600Y-124948280D01*
X104622600Y-122128280D02*
X104622600Y-119588280D01*
X104622600Y-119588280D02*
X102082600Y-119588280D01*
X72172200Y-127144400D02*
X72172200Y-126144400D01*
X73522200Y-126144400D02*
X73522200Y-127144400D01*
X28346400Y-134264400D02*
X30886400Y-134264400D01*
X25526400Y-133984400D02*
X27076400Y-133984400D01*
X28346400Y-134264400D02*
X28346400Y-136804400D01*
X27076400Y-137084400D02*
X25526400Y-137084400D01*
X25526400Y-137084400D02*
X25526400Y-133984400D01*
X28346400Y-136804400D02*
X30886400Y-136804400D01*
X30886400Y-136804400D02*
X30886400Y-134264400D01*
D15*
X48524160Y-123786900D02*
X44422060Y-123786900D01*
X44422060Y-123784360D02*
X44422060Y-134884160D01*
X44422060Y-134884160D02*
X48524160Y-134884160D01*
X48524160Y-122984260D02*
X60223400Y-122984260D01*
X60223400Y-122984260D02*
X60223400Y-135785860D01*
X60223400Y-135785860D02*
X48524160Y-135785860D01*
X48524160Y-135785860D02*
X48524160Y-122984260D01*
D11*
X105956100Y-109601000D02*
X108496100Y-109601000D01*
X103136100Y-109321000D02*
X104686100Y-109321000D01*
X105956100Y-109601000D02*
X105956100Y-112141000D01*
X104686100Y-112421000D02*
X103136100Y-112421000D01*
X103136100Y-112421000D02*
X103136100Y-109321000D01*
X105956100Y-112141000D02*
X108496100Y-112141000D01*
X108496100Y-112141000D02*
X108496100Y-109601000D01*
X98640900Y-115912900D02*
X98640900Y-108292900D01*
X96100900Y-115912900D02*
X96100900Y-108292900D01*
X95820900Y-118732900D02*
X95820900Y-117182900D01*
X98640900Y-108292900D02*
X96100900Y-108292900D01*
X96100900Y-115912900D02*
X98640900Y-115912900D01*
X98920900Y-117182900D02*
X98920900Y-118732900D01*
X98920900Y-118732900D02*
X95820900Y-118732900D01*
X94327600Y-109335200D02*
X93327600Y-109335200D01*
X93327600Y-111035200D02*
X94327600Y-111035200D01*
X46685781Y-102611086D02*
X45685781Y-102611086D01*
X45685781Y-102230133D01*
X45733400Y-102134895D01*
X45781019Y-102087276D01*
X45876257Y-102039657D01*
X46019114Y-102039657D01*
X46114352Y-102087276D01*
X46161971Y-102134895D01*
X46209590Y-102230133D01*
X46209590Y-102611086D01*
X46685781Y-101087276D02*
X46685781Y-101658705D01*
X46685781Y-101372991D02*
X45685781Y-101372991D01*
X45828638Y-101468229D01*
X45923876Y-101563467D01*
X45971495Y-101658705D01*
X46019114Y-100230133D02*
X46685781Y-100230133D01*
X45638162Y-100468229D02*
X46352448Y-100706324D01*
X46352448Y-100087276D01*
X52121381Y-141263595D02*
X51121381Y-141263595D01*
X51121381Y-140882642D01*
X51169000Y-140787404D01*
X51216619Y-140739785D01*
X51311857Y-140692166D01*
X51454714Y-140692166D01*
X51549952Y-140739785D01*
X51597571Y-140787404D01*
X51645190Y-140882642D01*
X51645190Y-141263595D01*
X51216619Y-140311214D02*
X51169000Y-140263595D01*
X51121381Y-140168357D01*
X51121381Y-139930261D01*
X51169000Y-139835023D01*
X51216619Y-139787404D01*
X51311857Y-139739785D01*
X51407095Y-139739785D01*
X51549952Y-139787404D01*
X52121381Y-140358833D01*
X52121381Y-139739785D01*
D16*
X86412488Y-129342298D02*
X86412488Y-129868488D01*
X86443440Y-129930393D01*
X86474393Y-129961345D01*
X86536297Y-129992298D01*
X86660107Y-129992298D01*
X86722012Y-129961345D01*
X86752964Y-129930393D01*
X86783916Y-129868488D01*
X86783916Y-129342298D01*
X87433916Y-129992298D02*
X87062488Y-129992298D01*
X87248202Y-129992298D02*
X87248202Y-129342298D01*
X87186297Y-129435155D01*
X87124392Y-129497060D01*
X87062488Y-129528012D01*
X87991059Y-129558964D02*
X87991059Y-129992298D01*
X87836297Y-129311345D02*
X87681536Y-129775631D01*
X88083916Y-129775631D01*
X84570821Y-133842298D02*
X85004154Y-133842298D01*
X84725583Y-134492298D01*
X85530345Y-134058964D02*
X85530345Y-134492298D01*
X85375583Y-133811345D02*
X85220822Y-134275631D01*
X85623202Y-134275631D01*
X86180346Y-134492298D02*
X85870822Y-134492298D01*
X85870822Y-133842298D01*
X86304155Y-133842298D02*
X86520821Y-134492298D01*
X86737488Y-133842298D01*
X87325583Y-134430393D02*
X87294631Y-134461345D01*
X87201774Y-134492298D01*
X87139869Y-134492298D01*
X87047012Y-134461345D01*
X86985107Y-134399440D01*
X86954155Y-134337536D01*
X86923203Y-134213726D01*
X86923203Y-134120869D01*
X86954155Y-133997060D01*
X86985107Y-133935155D01*
X87047012Y-133873250D01*
X87139869Y-133842298D01*
X87201774Y-133842298D01*
X87294631Y-133873250D01*
X87325583Y-133904202D01*
X87573203Y-133904202D02*
X87604155Y-133873250D01*
X87666060Y-133842298D01*
X87820822Y-133842298D01*
X87882726Y-133873250D01*
X87913679Y-133904202D01*
X87944631Y-133966107D01*
X87944631Y-134028012D01*
X87913679Y-134120869D01*
X87542250Y-134492298D01*
X87944631Y-134492298D01*
X88563679Y-133873250D02*
X88501774Y-133842298D01*
X88408917Y-133842298D01*
X88316060Y-133873250D01*
X88254155Y-133935155D01*
X88223203Y-133997060D01*
X88192251Y-134120869D01*
X88192251Y-134213726D01*
X88223203Y-134337536D01*
X88254155Y-134399440D01*
X88316060Y-134461345D01*
X88408917Y-134492298D01*
X88470822Y-134492298D01*
X88563679Y-134461345D01*
X88594631Y-134430393D01*
X88594631Y-134213726D01*
X88470822Y-134213726D01*
X88811298Y-133842298D02*
X89244631Y-133842298D01*
X88966060Y-134492298D01*
X89770822Y-134058964D02*
X89770822Y-134492298D01*
X89616060Y-133811345D02*
X89461299Y-134275631D01*
X89863679Y-134275631D01*
D10*
X84979155Y-130321940D02*
X85055345Y-130321940D01*
X85131536Y-130360036D01*
X85169631Y-130436226D01*
X85169631Y-130512417D01*
X85131536Y-130588607D01*
X85055345Y-130626702D01*
X84979155Y-130626702D01*
X84902964Y-130588607D01*
X84864869Y-130512417D01*
X84864869Y-130436226D01*
X84902964Y-130360036D01*
X84979155Y-130321940D01*
D11*
X97802143Y-135665643D02*
X97754524Y-135713262D01*
X97611667Y-135760881D01*
X97516429Y-135760881D01*
X97373571Y-135713262D01*
X97278333Y-135618024D01*
X97230714Y-135522786D01*
X97183095Y-135332310D01*
X97183095Y-135189452D01*
X97230714Y-134998976D01*
X97278333Y-134903738D01*
X97373571Y-134808500D01*
X97516429Y-134760881D01*
X97611667Y-134760881D01*
X97754524Y-134808500D01*
X97802143Y-134856119D01*
X98754524Y-135760881D02*
X98183095Y-135760881D01*
X98468809Y-135760881D02*
X98468809Y-134760881D01*
X98373571Y-134903738D01*
X98278333Y-134998976D01*
X98183095Y-135046595D01*
X99325952Y-135189452D02*
X99230714Y-135141833D01*
X99183095Y-135094214D01*
X99135476Y-134998976D01*
X99135476Y-134951357D01*
X99183095Y-134856119D01*
X99230714Y-134808500D01*
X99325952Y-134760881D01*
X99516429Y-134760881D01*
X99611667Y-134808500D01*
X99659286Y-134856119D01*
X99706905Y-134951357D01*
X99706905Y-134998976D01*
X99659286Y-135094214D01*
X99611667Y-135141833D01*
X99516429Y-135189452D01*
X99325952Y-135189452D01*
X99230714Y-135237071D01*
X99183095Y-135284690D01*
X99135476Y-135379929D01*
X99135476Y-135570405D01*
X99183095Y-135665643D01*
X99230714Y-135713262D01*
X99325952Y-135760881D01*
X99516429Y-135760881D01*
X99611667Y-135713262D01*
X99659286Y-135665643D01*
X99706905Y-135570405D01*
X99706905Y-135379929D01*
X99659286Y-135284690D01*
X99611667Y-135237071D01*
X99516429Y-135189452D01*
X110871167Y-138056881D02*
X110537833Y-137580690D01*
X110299738Y-138056881D02*
X110299738Y-137056881D01*
X110680691Y-137056881D01*
X110775929Y-137104500D01*
X110823548Y-137152119D01*
X110871167Y-137247357D01*
X110871167Y-137390214D01*
X110823548Y-137485452D01*
X110775929Y-137533071D01*
X110680691Y-137580690D01*
X110299738Y-137580690D01*
X111299738Y-137533071D02*
X111633072Y-137533071D01*
X111775929Y-138056881D02*
X111299738Y-138056881D01*
X111299738Y-137056881D01*
X111775929Y-137056881D01*
X112537834Y-137533071D02*
X112204500Y-137533071D01*
X112204500Y-138056881D02*
X112204500Y-137056881D01*
X112680691Y-137056881D01*
X113204500Y-137056881D02*
X113204500Y-137294976D01*
X112966405Y-137199738D02*
X113204500Y-137294976D01*
X113442596Y-137199738D01*
X113061643Y-137485452D02*
X113204500Y-137294976D01*
X113347358Y-137485452D01*
X113966405Y-137056881D02*
X113966405Y-137294976D01*
X113728310Y-137199738D02*
X113966405Y-137294976D01*
X114204501Y-137199738D01*
X113823548Y-137485452D02*
X113966405Y-137294976D01*
X114109263Y-137485452D01*
X110871167Y-93479881D02*
X110537833Y-93003690D01*
X110299738Y-93479881D02*
X110299738Y-92479881D01*
X110680691Y-92479881D01*
X110775929Y-92527500D01*
X110823548Y-92575119D01*
X110871167Y-92670357D01*
X110871167Y-92813214D01*
X110823548Y-92908452D01*
X110775929Y-92956071D01*
X110680691Y-93003690D01*
X110299738Y-93003690D01*
X111299738Y-92956071D02*
X111633072Y-92956071D01*
X111775929Y-93479881D02*
X111299738Y-93479881D01*
X111299738Y-92479881D01*
X111775929Y-92479881D01*
X112537834Y-92956071D02*
X112204500Y-92956071D01*
X112204500Y-93479881D02*
X112204500Y-92479881D01*
X112680691Y-92479881D01*
X113204500Y-92479881D02*
X113204500Y-92717976D01*
X112966405Y-92622738D02*
X113204500Y-92717976D01*
X113442596Y-92622738D01*
X113061643Y-92908452D02*
X113204500Y-92717976D01*
X113347358Y-92908452D01*
X113966405Y-92479881D02*
X113966405Y-92717976D01*
X113728310Y-92622738D02*
X113966405Y-92717976D01*
X114204501Y-92622738D01*
X113823548Y-92908452D02*
X113966405Y-92717976D01*
X114109263Y-92908452D01*
X26098667Y-93416381D02*
X25765333Y-92940190D01*
X25527238Y-93416381D02*
X25527238Y-92416381D01*
X25908191Y-92416381D01*
X26003429Y-92464000D01*
X26051048Y-92511619D01*
X26098667Y-92606857D01*
X26098667Y-92749714D01*
X26051048Y-92844952D01*
X26003429Y-92892571D01*
X25908191Y-92940190D01*
X25527238Y-92940190D01*
X26527238Y-92892571D02*
X26860572Y-92892571D01*
X27003429Y-93416381D02*
X26527238Y-93416381D01*
X26527238Y-92416381D01*
X27003429Y-92416381D01*
X27765334Y-92892571D02*
X27432000Y-92892571D01*
X27432000Y-93416381D02*
X27432000Y-92416381D01*
X27908191Y-92416381D01*
X28432000Y-92416381D02*
X28432000Y-92654476D01*
X28193905Y-92559238D02*
X28432000Y-92654476D01*
X28670096Y-92559238D01*
X28289143Y-92844952D02*
X28432000Y-92654476D01*
X28574858Y-92844952D01*
X29193905Y-92416381D02*
X29193905Y-92654476D01*
X28955810Y-92559238D02*
X29193905Y-92654476D01*
X29432001Y-92559238D01*
X29051048Y-92844952D02*
X29193905Y-92654476D01*
X29336763Y-92844952D01*
X84594795Y-97218181D02*
X84594795Y-98027705D01*
X84642414Y-98122943D01*
X84690033Y-98170562D01*
X84785271Y-98218181D01*
X84975748Y-98218181D01*
X85070986Y-98170562D01*
X85118605Y-98122943D01*
X85166224Y-98027705D01*
X85166224Y-97218181D01*
X86118605Y-97218181D02*
X85642414Y-97218181D01*
X85594795Y-97694371D01*
X85642414Y-97646752D01*
X85737652Y-97599133D01*
X85975748Y-97599133D01*
X86070986Y-97646752D01*
X86118605Y-97694371D01*
X86166224Y-97789610D01*
X86166224Y-98027705D01*
X86118605Y-98122943D01*
X86070986Y-98170562D01*
X85975748Y-98218181D01*
X85737652Y-98218181D01*
X85642414Y-98170562D01*
X85594795Y-98122943D01*
X26407905Y-98890381D02*
X26407905Y-97890381D01*
X26788858Y-97890381D01*
X26884096Y-97938000D01*
X26931715Y-97985619D01*
X26979334Y-98080857D01*
X26979334Y-98223714D01*
X26931715Y-98318952D01*
X26884096Y-98366571D01*
X26788858Y-98414190D01*
X26407905Y-98414190D01*
X27455524Y-98890381D02*
X27646000Y-98890381D01*
X27741239Y-98842762D01*
X27788858Y-98795143D01*
X27884096Y-98652286D01*
X27931715Y-98461810D01*
X27931715Y-98080857D01*
X27884096Y-97985619D01*
X27836477Y-97938000D01*
X27741239Y-97890381D01*
X27550762Y-97890381D01*
X27455524Y-97938000D01*
X27407905Y-97985619D01*
X27360286Y-98080857D01*
X27360286Y-98318952D01*
X27407905Y-98414190D01*
X27455524Y-98461810D01*
X27550762Y-98509429D01*
X27741239Y-98509429D01*
X27836477Y-98461810D01*
X27884096Y-98414190D01*
X27931715Y-98318952D01*
X49528434Y-121037043D02*
X49480815Y-121084662D01*
X49337958Y-121132281D01*
X49242720Y-121132281D01*
X49099862Y-121084662D01*
X49004624Y-120989424D01*
X48957005Y-120894186D01*
X48909386Y-120703710D01*
X48909386Y-120560852D01*
X48957005Y-120370376D01*
X49004624Y-120275138D01*
X49099862Y-120179900D01*
X49242720Y-120132281D01*
X49337958Y-120132281D01*
X49480815Y-120179900D01*
X49528434Y-120227519D01*
X50480815Y-121132281D02*
X49909386Y-121132281D01*
X50195100Y-121132281D02*
X50195100Y-120132281D01*
X50099862Y-120275138D01*
X50004624Y-120370376D01*
X49909386Y-120417995D01*
X72242423Y-120786186D02*
X72290042Y-120833805D01*
X72337661Y-120976662D01*
X72337661Y-121071900D01*
X72290042Y-121214758D01*
X72194804Y-121309996D01*
X72099566Y-121357615D01*
X71909090Y-121405234D01*
X71766232Y-121405234D01*
X71575756Y-121357615D01*
X71480518Y-121309996D01*
X71385280Y-121214758D01*
X71337661Y-121071900D01*
X71337661Y-120976662D01*
X71385280Y-120833805D01*
X71432899Y-120786186D01*
X71432899Y-120405234D02*
X71385280Y-120357615D01*
X71337661Y-120262377D01*
X71337661Y-120024281D01*
X71385280Y-119929043D01*
X71432899Y-119881424D01*
X71528137Y-119833805D01*
X71623375Y-119833805D01*
X71766232Y-119881424D01*
X72337661Y-120452853D01*
X72337661Y-119833805D01*
X50676343Y-114517466D02*
X50723962Y-114565085D01*
X50771581Y-114707942D01*
X50771581Y-114803180D01*
X50723962Y-114946038D01*
X50628724Y-115041276D01*
X50533486Y-115088895D01*
X50343010Y-115136514D01*
X50200152Y-115136514D01*
X50009676Y-115088895D01*
X49914438Y-115041276D01*
X49819200Y-114946038D01*
X49771581Y-114803180D01*
X49771581Y-114707942D01*
X49819200Y-114565085D01*
X49866819Y-114517466D01*
X49771581Y-114184133D02*
X49771581Y-113565085D01*
X50152533Y-113898419D01*
X50152533Y-113755561D01*
X50200152Y-113660323D01*
X50247771Y-113612704D01*
X50343010Y-113565085D01*
X50581105Y-113565085D01*
X50676343Y-113612704D01*
X50723962Y-113660323D01*
X50771581Y-113755561D01*
X50771581Y-114041276D01*
X50723962Y-114136514D01*
X50676343Y-114184133D01*
X56419443Y-104801966D02*
X56467062Y-104849585D01*
X56514681Y-104992442D01*
X56514681Y-105087680D01*
X56467062Y-105230538D01*
X56371824Y-105325776D01*
X56276586Y-105373395D01*
X56086110Y-105421014D01*
X55943252Y-105421014D01*
X55752776Y-105373395D01*
X55657538Y-105325776D01*
X55562300Y-105230538D01*
X55514681Y-105087680D01*
X55514681Y-104992442D01*
X55562300Y-104849585D01*
X55609919Y-104801966D01*
X55848014Y-103944823D02*
X56514681Y-103944823D01*
X55467062Y-104182919D02*
X56181348Y-104421014D01*
X56181348Y-103801966D01*
X48804534Y-118947943D02*
X48756915Y-118995562D01*
X48614058Y-119043181D01*
X48518820Y-119043181D01*
X48375962Y-118995562D01*
X48280724Y-118900324D01*
X48233105Y-118805086D01*
X48185486Y-118614610D01*
X48185486Y-118471752D01*
X48233105Y-118281276D01*
X48280724Y-118186038D01*
X48375962Y-118090800D01*
X48518820Y-118043181D01*
X48614058Y-118043181D01*
X48756915Y-118090800D01*
X48804534Y-118138419D01*
X49709296Y-118043181D02*
X49233105Y-118043181D01*
X49185486Y-118519371D01*
X49233105Y-118471752D01*
X49328343Y-118424133D01*
X49566439Y-118424133D01*
X49661677Y-118471752D01*
X49709296Y-118519371D01*
X49756915Y-118614610D01*
X49756915Y-118852705D01*
X49709296Y-118947943D01*
X49661677Y-118995562D01*
X49566439Y-119043181D01*
X49328343Y-119043181D01*
X49233105Y-118995562D01*
X49185486Y-118947943D01*
X54025543Y-105424266D02*
X54073162Y-105471885D01*
X54120781Y-105614742D01*
X54120781Y-105709980D01*
X54073162Y-105852838D01*
X53977924Y-105948076D01*
X53882686Y-105995695D01*
X53692210Y-106043314D01*
X53549352Y-106043314D01*
X53358876Y-105995695D01*
X53263638Y-105948076D01*
X53168400Y-105852838D01*
X53120781Y-105709980D01*
X53120781Y-105614742D01*
X53168400Y-105471885D01*
X53216019Y-105424266D01*
X53120781Y-104567123D02*
X53120781Y-104757600D01*
X53168400Y-104852838D01*
X53216019Y-104900457D01*
X53358876Y-104995695D01*
X53549352Y-105043314D01*
X53930305Y-105043314D01*
X54025543Y-104995695D01*
X54073162Y-104948076D01*
X54120781Y-104852838D01*
X54120781Y-104662361D01*
X54073162Y-104567123D01*
X54025543Y-104519504D01*
X53930305Y-104471885D01*
X53692210Y-104471885D01*
X53596971Y-104519504D01*
X53549352Y-104567123D01*
X53501733Y-104662361D01*
X53501733Y-104852838D01*
X53549352Y-104948076D01*
X53596971Y-104995695D01*
X53692210Y-105043314D01*
X36096743Y-113958666D02*
X36144362Y-114006285D01*
X36191981Y-114149142D01*
X36191981Y-114244380D01*
X36144362Y-114387238D01*
X36049124Y-114482476D01*
X35953886Y-114530095D01*
X35763410Y-114577714D01*
X35620552Y-114577714D01*
X35430076Y-114530095D01*
X35334838Y-114482476D01*
X35239600Y-114387238D01*
X35191981Y-114244380D01*
X35191981Y-114149142D01*
X35239600Y-114006285D01*
X35287219Y-113958666D01*
X35191981Y-113625333D02*
X35191981Y-112958666D01*
X36191981Y-113387238D01*
X41540134Y-99647543D02*
X41492515Y-99695162D01*
X41349658Y-99742781D01*
X41254420Y-99742781D01*
X41111562Y-99695162D01*
X41016324Y-99599924D01*
X40968705Y-99504686D01*
X40921086Y-99314210D01*
X40921086Y-99171352D01*
X40968705Y-98980876D01*
X41016324Y-98885638D01*
X41111562Y-98790400D01*
X41254420Y-98742781D01*
X41349658Y-98742781D01*
X41492515Y-98790400D01*
X41540134Y-98838019D01*
X42111562Y-99171352D02*
X42016324Y-99123733D01*
X41968705Y-99076114D01*
X41921086Y-98980876D01*
X41921086Y-98933257D01*
X41968705Y-98838019D01*
X42016324Y-98790400D01*
X42111562Y-98742781D01*
X42302039Y-98742781D01*
X42397277Y-98790400D01*
X42444896Y-98838019D01*
X42492515Y-98933257D01*
X42492515Y-98980876D01*
X42444896Y-99076114D01*
X42397277Y-99123733D01*
X42302039Y-99171352D01*
X42111562Y-99171352D01*
X42016324Y-99218971D01*
X41968705Y-99266590D01*
X41921086Y-99361829D01*
X41921086Y-99552305D01*
X41968705Y-99647543D01*
X42016324Y-99695162D01*
X42111562Y-99742781D01*
X42302039Y-99742781D01*
X42397277Y-99695162D01*
X42444896Y-99647543D01*
X42492515Y-99552305D01*
X42492515Y-99361829D01*
X42444896Y-99266590D01*
X42397277Y-99218971D01*
X42302039Y-99171352D01*
X35029943Y-105932266D02*
X35077562Y-105979885D01*
X35125181Y-106122742D01*
X35125181Y-106217980D01*
X35077562Y-106360838D01*
X34982324Y-106456076D01*
X34887086Y-106503695D01*
X34696610Y-106551314D01*
X34553752Y-106551314D01*
X34363276Y-106503695D01*
X34268038Y-106456076D01*
X34172800Y-106360838D01*
X34125181Y-106217980D01*
X34125181Y-106122742D01*
X34172800Y-105979885D01*
X34220419Y-105932266D01*
X35125181Y-105456076D02*
X35125181Y-105265600D01*
X35077562Y-105170361D01*
X35029943Y-105122742D01*
X34887086Y-105027504D01*
X34696610Y-104979885D01*
X34315657Y-104979885D01*
X34220419Y-105027504D01*
X34172800Y-105075123D01*
X34125181Y-105170361D01*
X34125181Y-105360838D01*
X34172800Y-105456076D01*
X34220419Y-105503695D01*
X34315657Y-105551314D01*
X34553752Y-105551314D01*
X34648990Y-105503695D01*
X34696610Y-105456076D01*
X34744229Y-105360838D01*
X34744229Y-105170361D01*
X34696610Y-105075123D01*
X34648990Y-105027504D01*
X34553752Y-104979885D01*
X80889643Y-117165357D02*
X80937262Y-117212976D01*
X80984881Y-117355833D01*
X80984881Y-117451071D01*
X80937262Y-117593929D01*
X80842024Y-117689167D01*
X80746786Y-117736786D01*
X80556310Y-117784405D01*
X80413452Y-117784405D01*
X80222976Y-117736786D01*
X80127738Y-117689167D01*
X80032500Y-117593929D01*
X79984881Y-117451071D01*
X79984881Y-117355833D01*
X80032500Y-117212976D01*
X80080119Y-117165357D01*
X80984881Y-116212976D02*
X80984881Y-116784405D01*
X80984881Y-116498691D02*
X79984881Y-116498691D01*
X80127738Y-116593929D01*
X80222976Y-116689167D01*
X80270595Y-116784405D01*
X79984881Y-115593929D02*
X79984881Y-115498690D01*
X80032500Y-115403452D01*
X80080119Y-115355833D01*
X80175357Y-115308214D01*
X80365833Y-115260595D01*
X80603929Y-115260595D01*
X80794405Y-115308214D01*
X80889643Y-115355833D01*
X80937262Y-115403452D01*
X80984881Y-115498690D01*
X80984881Y-115593929D01*
X80937262Y-115689167D01*
X80889643Y-115736786D01*
X80794405Y-115784405D01*
X80603929Y-115832024D01*
X80365833Y-115832024D01*
X80175357Y-115784405D01*
X80080119Y-115736786D01*
X80032500Y-115689167D01*
X79984881Y-115593929D01*
X52428943Y-97848657D02*
X52476562Y-97896276D01*
X52524181Y-98039133D01*
X52524181Y-98134371D01*
X52476562Y-98277229D01*
X52381324Y-98372467D01*
X52286086Y-98420086D01*
X52095610Y-98467705D01*
X51952752Y-98467705D01*
X51762276Y-98420086D01*
X51667038Y-98372467D01*
X51571800Y-98277229D01*
X51524181Y-98134371D01*
X51524181Y-98039133D01*
X51571800Y-97896276D01*
X51619419Y-97848657D01*
X52524181Y-96896276D02*
X52524181Y-97467705D01*
X52524181Y-97181991D02*
X51524181Y-97181991D01*
X51667038Y-97277229D01*
X51762276Y-97372467D01*
X51809895Y-97467705D01*
X51619419Y-96515324D02*
X51571800Y-96467705D01*
X51524181Y-96372467D01*
X51524181Y-96134371D01*
X51571800Y-96039133D01*
X51619419Y-95991514D01*
X51714657Y-95943895D01*
X51809895Y-95943895D01*
X51952752Y-95991514D01*
X52524181Y-96562943D01*
X52524181Y-95943895D01*
X47516743Y-96858057D02*
X47564362Y-96905676D01*
X47611981Y-97048533D01*
X47611981Y-97143771D01*
X47564362Y-97286629D01*
X47469124Y-97381867D01*
X47373886Y-97429486D01*
X47183410Y-97477105D01*
X47040552Y-97477105D01*
X46850076Y-97429486D01*
X46754838Y-97381867D01*
X46659600Y-97286629D01*
X46611981Y-97143771D01*
X46611981Y-97048533D01*
X46659600Y-96905676D01*
X46707219Y-96858057D01*
X47611981Y-95905676D02*
X47611981Y-96477105D01*
X47611981Y-96191391D02*
X46611981Y-96191391D01*
X46754838Y-96286629D01*
X46850076Y-96381867D01*
X46897695Y-96477105D01*
X46611981Y-95572343D02*
X46611981Y-94953295D01*
X46992933Y-95286629D01*
X46992933Y-95143771D01*
X47040552Y-95048533D01*
X47088171Y-95000914D01*
X47183410Y-94953295D01*
X47421505Y-94953295D01*
X47516743Y-95000914D01*
X47564362Y-95048533D01*
X47611981Y-95143771D01*
X47611981Y-95429486D01*
X47564362Y-95524724D01*
X47516743Y-95572343D01*
X33258343Y-97620057D02*
X33305962Y-97667676D01*
X33353581Y-97810533D01*
X33353581Y-97905771D01*
X33305962Y-98048629D01*
X33210724Y-98143867D01*
X33115486Y-98191486D01*
X32925010Y-98239105D01*
X32782152Y-98239105D01*
X32591676Y-98191486D01*
X32496438Y-98143867D01*
X32401200Y-98048629D01*
X32353581Y-97905771D01*
X32353581Y-97810533D01*
X32401200Y-97667676D01*
X32448819Y-97620057D01*
X33353581Y-96667676D02*
X33353581Y-97239105D01*
X33353581Y-96953391D02*
X32353581Y-96953391D01*
X32496438Y-97048629D01*
X32591676Y-97143867D01*
X32639295Y-97239105D01*
X32686914Y-95810533D02*
X33353581Y-95810533D01*
X32305962Y-96048629D02*
X33020248Y-96286724D01*
X33020248Y-95667676D01*
X37102743Y-113571257D02*
X37150362Y-113618876D01*
X37197981Y-113761733D01*
X37197981Y-113856971D01*
X37150362Y-113999829D01*
X37055124Y-114095067D01*
X36959886Y-114142686D01*
X36769410Y-114190305D01*
X36626552Y-114190305D01*
X36436076Y-114142686D01*
X36340838Y-114095067D01*
X36245600Y-113999829D01*
X36197981Y-113856971D01*
X36197981Y-113761733D01*
X36245600Y-113618876D01*
X36293219Y-113571257D01*
X37197981Y-112618876D02*
X37197981Y-113190305D01*
X37197981Y-112904591D02*
X36197981Y-112904591D01*
X36340838Y-112999829D01*
X36436076Y-113095067D01*
X36483695Y-113190305D01*
X36197981Y-111714114D02*
X36197981Y-112190305D01*
X36674171Y-112237924D01*
X36626552Y-112190305D01*
X36578933Y-112095067D01*
X36578933Y-111856971D01*
X36626552Y-111761733D01*
X36674171Y-111714114D01*
X36769410Y-111666495D01*
X37007505Y-111666495D01*
X37102743Y-111714114D01*
X37150362Y-111761733D01*
X37197981Y-111856971D01*
X37197981Y-112095067D01*
X37150362Y-112190305D01*
X37102743Y-112237924D01*
X48798243Y-97088543D02*
X48750624Y-97136162D01*
X48607767Y-97183781D01*
X48512529Y-97183781D01*
X48369671Y-97136162D01*
X48274433Y-97040924D01*
X48226814Y-96945686D01*
X48179195Y-96755210D01*
X48179195Y-96612352D01*
X48226814Y-96421876D01*
X48274433Y-96326638D01*
X48369671Y-96231400D01*
X48512529Y-96183781D01*
X48607767Y-96183781D01*
X48750624Y-96231400D01*
X48798243Y-96279019D01*
X49750624Y-97183781D02*
X49179195Y-97183781D01*
X49464909Y-97183781D02*
X49464909Y-96183781D01*
X49369671Y-96326638D01*
X49274433Y-96421876D01*
X49179195Y-96469495D01*
X50607767Y-96183781D02*
X50417290Y-96183781D01*
X50322052Y-96231400D01*
X50274433Y-96279019D01*
X50179195Y-96421876D01*
X50131576Y-96612352D01*
X50131576Y-96993305D01*
X50179195Y-97088543D01*
X50226814Y-97136162D01*
X50322052Y-97183781D01*
X50512529Y-97183781D01*
X50607767Y-97136162D01*
X50655386Y-97088543D01*
X50703005Y-96993305D01*
X50703005Y-96755210D01*
X50655386Y-96659971D01*
X50607767Y-96612352D01*
X50512529Y-96564733D01*
X50322052Y-96564733D01*
X50226814Y-96612352D01*
X50179195Y-96659971D01*
X50131576Y-96755210D01*
X50246043Y-94929543D02*
X50198424Y-94977162D01*
X50055567Y-95024781D01*
X49960329Y-95024781D01*
X49817471Y-94977162D01*
X49722233Y-94881924D01*
X49674614Y-94786686D01*
X49626995Y-94596210D01*
X49626995Y-94453352D01*
X49674614Y-94262876D01*
X49722233Y-94167638D01*
X49817471Y-94072400D01*
X49960329Y-94024781D01*
X50055567Y-94024781D01*
X50198424Y-94072400D01*
X50246043Y-94120019D01*
X51198424Y-95024781D02*
X50626995Y-95024781D01*
X50912709Y-95024781D02*
X50912709Y-94024781D01*
X50817471Y-94167638D01*
X50722233Y-94262876D01*
X50626995Y-94310495D01*
X51531757Y-94024781D02*
X52198424Y-94024781D01*
X51769852Y-95024781D01*
X59394943Y-108351557D02*
X59442562Y-108399176D01*
X59490181Y-108542033D01*
X59490181Y-108637271D01*
X59442562Y-108780129D01*
X59347324Y-108875367D01*
X59252086Y-108922986D01*
X59061610Y-108970605D01*
X58918752Y-108970605D01*
X58728276Y-108922986D01*
X58633038Y-108875367D01*
X58537800Y-108780129D01*
X58490181Y-108637271D01*
X58490181Y-108542033D01*
X58537800Y-108399176D01*
X58585419Y-108351557D01*
X58585419Y-107970605D02*
X58537800Y-107922986D01*
X58490181Y-107827748D01*
X58490181Y-107589652D01*
X58537800Y-107494414D01*
X58585419Y-107446795D01*
X58680657Y-107399176D01*
X58775895Y-107399176D01*
X58918752Y-107446795D01*
X59490181Y-108018224D01*
X59490181Y-107399176D01*
X58490181Y-106780129D02*
X58490181Y-106684890D01*
X58537800Y-106589652D01*
X58585419Y-106542033D01*
X58680657Y-106494414D01*
X58871133Y-106446795D01*
X59109229Y-106446795D01*
X59299705Y-106494414D01*
X59394943Y-106542033D01*
X59442562Y-106589652D01*
X59490181Y-106684890D01*
X59490181Y-106780129D01*
X59442562Y-106875367D01*
X59394943Y-106922986D01*
X59299705Y-106970605D01*
X59109229Y-107018224D01*
X58871133Y-107018224D01*
X58680657Y-106970605D01*
X58585419Y-106922986D01*
X58537800Y-106875367D01*
X58490181Y-106780129D01*
X93208643Y-105557557D02*
X93256262Y-105605176D01*
X93303881Y-105748033D01*
X93303881Y-105843271D01*
X93256262Y-105986129D01*
X93161024Y-106081367D01*
X93065786Y-106128986D01*
X92875310Y-106176605D01*
X92732452Y-106176605D01*
X92541976Y-106128986D01*
X92446738Y-106081367D01*
X92351500Y-105986129D01*
X92303881Y-105843271D01*
X92303881Y-105748033D01*
X92351500Y-105605176D01*
X92399119Y-105557557D01*
X92399119Y-105176605D02*
X92351500Y-105128986D01*
X92303881Y-105033748D01*
X92303881Y-104795652D01*
X92351500Y-104700414D01*
X92399119Y-104652795D01*
X92494357Y-104605176D01*
X92589595Y-104605176D01*
X92732452Y-104652795D01*
X93303881Y-105224224D01*
X93303881Y-104605176D01*
X93303881Y-103652795D02*
X93303881Y-104224224D01*
X93303881Y-103938510D02*
X92303881Y-103938510D01*
X92446738Y-104033748D01*
X92541976Y-104128986D01*
X92589595Y-104224224D01*
X66057543Y-106990843D02*
X66009924Y-107038462D01*
X65867067Y-107086081D01*
X65771829Y-107086081D01*
X65628971Y-107038462D01*
X65533733Y-106943224D01*
X65486114Y-106847986D01*
X65438495Y-106657510D01*
X65438495Y-106514652D01*
X65486114Y-106324176D01*
X65533733Y-106228938D01*
X65628971Y-106133700D01*
X65771829Y-106086081D01*
X65867067Y-106086081D01*
X66009924Y-106133700D01*
X66057543Y-106181319D01*
X66438495Y-106181319D02*
X66486114Y-106133700D01*
X66581352Y-106086081D01*
X66819448Y-106086081D01*
X66914686Y-106133700D01*
X66962305Y-106181319D01*
X67009924Y-106276557D01*
X67009924Y-106371795D01*
X66962305Y-106514652D01*
X66390876Y-107086081D01*
X67009924Y-107086081D01*
X67390876Y-106181319D02*
X67438495Y-106133700D01*
X67533733Y-106086081D01*
X67771829Y-106086081D01*
X67867067Y-106133700D01*
X67914686Y-106181319D01*
X67962305Y-106276557D01*
X67962305Y-106371795D01*
X67914686Y-106514652D01*
X67343257Y-107086081D01*
X67962305Y-107086081D01*
X93119743Y-108618257D02*
X93167362Y-108665876D01*
X93214981Y-108808733D01*
X93214981Y-108903971D01*
X93167362Y-109046829D01*
X93072124Y-109142067D01*
X92976886Y-109189686D01*
X92786410Y-109237305D01*
X92643552Y-109237305D01*
X92453076Y-109189686D01*
X92357838Y-109142067D01*
X92262600Y-109046829D01*
X92214981Y-108903971D01*
X92214981Y-108808733D01*
X92262600Y-108665876D01*
X92310219Y-108618257D01*
X92310219Y-108237305D02*
X92262600Y-108189686D01*
X92214981Y-108094448D01*
X92214981Y-107856352D01*
X92262600Y-107761114D01*
X92310219Y-107713495D01*
X92405457Y-107665876D01*
X92500695Y-107665876D01*
X92643552Y-107713495D01*
X93214981Y-108284924D01*
X93214981Y-107665876D01*
X92214981Y-107332543D02*
X92214981Y-106713495D01*
X92595933Y-107046829D01*
X92595933Y-106903971D01*
X92643552Y-106808733D01*
X92691171Y-106761114D01*
X92786410Y-106713495D01*
X93024505Y-106713495D01*
X93119743Y-106761114D01*
X93167362Y-106808733D01*
X93214981Y-106903971D01*
X93214981Y-107189686D01*
X93167362Y-107284924D01*
X93119743Y-107332543D01*
X72015043Y-105976657D02*
X72062662Y-106024276D01*
X72110281Y-106167133D01*
X72110281Y-106262371D01*
X72062662Y-106405229D01*
X71967424Y-106500467D01*
X71872186Y-106548086D01*
X71681710Y-106595705D01*
X71538852Y-106595705D01*
X71348376Y-106548086D01*
X71253138Y-106500467D01*
X71157900Y-106405229D01*
X71110281Y-106262371D01*
X71110281Y-106167133D01*
X71157900Y-106024276D01*
X71205519Y-105976657D01*
X71205519Y-105595705D02*
X71157900Y-105548086D01*
X71110281Y-105452848D01*
X71110281Y-105214752D01*
X71157900Y-105119514D01*
X71205519Y-105071895D01*
X71300757Y-105024276D01*
X71395995Y-105024276D01*
X71538852Y-105071895D01*
X72110281Y-105643324D01*
X72110281Y-105024276D01*
X71443614Y-104167133D02*
X72110281Y-104167133D01*
X71062662Y-104405229D02*
X71776948Y-104643324D01*
X71776948Y-104024276D01*
X67987943Y-109388443D02*
X67940324Y-109436062D01*
X67797467Y-109483681D01*
X67702229Y-109483681D01*
X67559371Y-109436062D01*
X67464133Y-109340824D01*
X67416514Y-109245586D01*
X67368895Y-109055110D01*
X67368895Y-108912252D01*
X67416514Y-108721776D01*
X67464133Y-108626538D01*
X67559371Y-108531300D01*
X67702229Y-108483681D01*
X67797467Y-108483681D01*
X67940324Y-108531300D01*
X67987943Y-108578919D01*
X68368895Y-108578919D02*
X68416514Y-108531300D01*
X68511752Y-108483681D01*
X68749848Y-108483681D01*
X68845086Y-108531300D01*
X68892705Y-108578919D01*
X68940324Y-108674157D01*
X68940324Y-108769395D01*
X68892705Y-108912252D01*
X68321276Y-109483681D01*
X68940324Y-109483681D01*
X69845086Y-108483681D02*
X69368895Y-108483681D01*
X69321276Y-108959871D01*
X69368895Y-108912252D01*
X69464133Y-108864633D01*
X69702229Y-108864633D01*
X69797467Y-108912252D01*
X69845086Y-108959871D01*
X69892705Y-109055110D01*
X69892705Y-109293205D01*
X69845086Y-109388443D01*
X69797467Y-109436062D01*
X69702229Y-109483681D01*
X69464133Y-109483681D01*
X69368895Y-109436062D01*
X69321276Y-109388443D01*
X81462643Y-119815143D02*
X81415024Y-119862762D01*
X81272167Y-119910381D01*
X81176929Y-119910381D01*
X81034071Y-119862762D01*
X80938833Y-119767524D01*
X80891214Y-119672286D01*
X80843595Y-119481810D01*
X80843595Y-119338952D01*
X80891214Y-119148476D01*
X80938833Y-119053238D01*
X81034071Y-118958000D01*
X81176929Y-118910381D01*
X81272167Y-118910381D01*
X81415024Y-118958000D01*
X81462643Y-119005619D01*
X81843595Y-119005619D02*
X81891214Y-118958000D01*
X81986452Y-118910381D01*
X82224548Y-118910381D01*
X82319786Y-118958000D01*
X82367405Y-119005619D01*
X82415024Y-119100857D01*
X82415024Y-119196095D01*
X82367405Y-119338952D01*
X81795976Y-119910381D01*
X82415024Y-119910381D01*
X83272167Y-118910381D02*
X83081690Y-118910381D01*
X82986452Y-118958000D01*
X82938833Y-119005619D01*
X82843595Y-119148476D01*
X82795976Y-119338952D01*
X82795976Y-119719905D01*
X82843595Y-119815143D01*
X82891214Y-119862762D01*
X82986452Y-119910381D01*
X83176929Y-119910381D01*
X83272167Y-119862762D01*
X83319786Y-119815143D01*
X83367405Y-119719905D01*
X83367405Y-119481810D01*
X83319786Y-119386571D01*
X83272167Y-119338952D01*
X83176929Y-119291333D01*
X82986452Y-119291333D01*
X82891214Y-119338952D01*
X82843595Y-119386571D01*
X82795976Y-119481810D01*
X104165143Y-131605257D02*
X104212762Y-131652876D01*
X104260381Y-131795733D01*
X104260381Y-131890971D01*
X104212762Y-132033829D01*
X104117524Y-132129067D01*
X104022286Y-132176686D01*
X103831810Y-132224305D01*
X103688952Y-132224305D01*
X103498476Y-132176686D01*
X103403238Y-132129067D01*
X103308000Y-132033829D01*
X103260381Y-131890971D01*
X103260381Y-131795733D01*
X103308000Y-131652876D01*
X103355619Y-131605257D01*
X103355619Y-131224305D02*
X103308000Y-131176686D01*
X103260381Y-131081448D01*
X103260381Y-130843352D01*
X103308000Y-130748114D01*
X103355619Y-130700495D01*
X103450857Y-130652876D01*
X103546095Y-130652876D01*
X103688952Y-130700495D01*
X104260381Y-131271924D01*
X104260381Y-130652876D01*
X103260381Y-130319543D02*
X103260381Y-129652876D01*
X104260381Y-130081448D01*
X78339643Y-141231857D02*
X78387262Y-141279476D01*
X78434881Y-141422333D01*
X78434881Y-141517571D01*
X78387262Y-141660429D01*
X78292024Y-141755667D01*
X78196786Y-141803286D01*
X78006310Y-141850905D01*
X77863452Y-141850905D01*
X77672976Y-141803286D01*
X77577738Y-141755667D01*
X77482500Y-141660429D01*
X77434881Y-141517571D01*
X77434881Y-141422333D01*
X77482500Y-141279476D01*
X77530119Y-141231857D01*
X77530119Y-140850905D02*
X77482500Y-140803286D01*
X77434881Y-140708048D01*
X77434881Y-140469952D01*
X77482500Y-140374714D01*
X77530119Y-140327095D01*
X77625357Y-140279476D01*
X77720595Y-140279476D01*
X77863452Y-140327095D01*
X78434881Y-140898524D01*
X78434881Y-140279476D01*
X77863452Y-139708048D02*
X77815833Y-139803286D01*
X77768214Y-139850905D01*
X77672976Y-139898524D01*
X77625357Y-139898524D01*
X77530119Y-139850905D01*
X77482500Y-139803286D01*
X77434881Y-139708048D01*
X77434881Y-139517571D01*
X77482500Y-139422333D01*
X77530119Y-139374714D01*
X77625357Y-139327095D01*
X77672976Y-139327095D01*
X77768214Y-139374714D01*
X77815833Y-139422333D01*
X77863452Y-139517571D01*
X77863452Y-139708048D01*
X77911071Y-139803286D01*
X77958690Y-139850905D01*
X78053929Y-139898524D01*
X78244405Y-139898524D01*
X78339643Y-139850905D01*
X78387262Y-139803286D01*
X78434881Y-139708048D01*
X78434881Y-139517571D01*
X78387262Y-139422333D01*
X78339643Y-139374714D01*
X78244405Y-139327095D01*
X78053929Y-139327095D01*
X77958690Y-139374714D01*
X77911071Y-139422333D01*
X77863452Y-139517571D01*
X104006343Y-127896857D02*
X104053962Y-127944476D01*
X104101581Y-128087333D01*
X104101581Y-128182571D01*
X104053962Y-128325429D01*
X103958724Y-128420667D01*
X103863486Y-128468286D01*
X103673010Y-128515905D01*
X103530152Y-128515905D01*
X103339676Y-128468286D01*
X103244438Y-128420667D01*
X103149200Y-128325429D01*
X103101581Y-128182571D01*
X103101581Y-128087333D01*
X103149200Y-127944476D01*
X103196819Y-127896857D01*
X103196819Y-127515905D02*
X103149200Y-127468286D01*
X103101581Y-127373048D01*
X103101581Y-127134952D01*
X103149200Y-127039714D01*
X103196819Y-126992095D01*
X103292057Y-126944476D01*
X103387295Y-126944476D01*
X103530152Y-126992095D01*
X104101581Y-127563524D01*
X104101581Y-126944476D01*
X104101581Y-126468286D02*
X104101581Y-126277810D01*
X104053962Y-126182571D01*
X104006343Y-126134952D01*
X103863486Y-126039714D01*
X103673010Y-125992095D01*
X103292057Y-125992095D01*
X103196819Y-126039714D01*
X103149200Y-126087333D01*
X103101581Y-126182571D01*
X103101581Y-126373048D01*
X103149200Y-126468286D01*
X103196819Y-126515905D01*
X103292057Y-126563524D01*
X103530152Y-126563524D01*
X103625390Y-126515905D01*
X103673010Y-126468286D01*
X103720629Y-126373048D01*
X103720629Y-126182571D01*
X103673010Y-126087333D01*
X103625390Y-126039714D01*
X103530152Y-125992095D01*
X113326343Y-125540057D02*
X113373962Y-125587676D01*
X113421581Y-125730533D01*
X113421581Y-125825771D01*
X113373962Y-125968629D01*
X113278724Y-126063867D01*
X113183486Y-126111486D01*
X112993010Y-126159105D01*
X112850152Y-126159105D01*
X112659676Y-126111486D01*
X112564438Y-126063867D01*
X112469200Y-125968629D01*
X112421581Y-125825771D01*
X112421581Y-125730533D01*
X112469200Y-125587676D01*
X112516819Y-125540057D01*
X112421581Y-125206724D02*
X112421581Y-124587676D01*
X112802533Y-124921010D01*
X112802533Y-124778152D01*
X112850152Y-124682914D01*
X112897771Y-124635295D01*
X112993010Y-124587676D01*
X113231105Y-124587676D01*
X113326343Y-124635295D01*
X113373962Y-124682914D01*
X113421581Y-124778152D01*
X113421581Y-125063867D01*
X113373962Y-125159105D01*
X113326343Y-125206724D01*
X112421581Y-123968629D02*
X112421581Y-123873390D01*
X112469200Y-123778152D01*
X112516819Y-123730533D01*
X112612057Y-123682914D01*
X112802533Y-123635295D01*
X113040629Y-123635295D01*
X113231105Y-123682914D01*
X113326343Y-123730533D01*
X113373962Y-123778152D01*
X113421581Y-123873390D01*
X113421581Y-123968629D01*
X113373962Y-124063867D01*
X113326343Y-124111486D01*
X113231105Y-124159105D01*
X113040629Y-124206724D01*
X112802533Y-124206724D01*
X112612057Y-124159105D01*
X112516819Y-124111486D01*
X112469200Y-124063867D01*
X112421581Y-123968629D01*
X89896643Y-141168357D02*
X89944262Y-141215976D01*
X89991881Y-141358833D01*
X89991881Y-141454071D01*
X89944262Y-141596929D01*
X89849024Y-141692167D01*
X89753786Y-141739786D01*
X89563310Y-141787405D01*
X89420452Y-141787405D01*
X89229976Y-141739786D01*
X89134738Y-141692167D01*
X89039500Y-141596929D01*
X88991881Y-141454071D01*
X88991881Y-141358833D01*
X89039500Y-141215976D01*
X89087119Y-141168357D01*
X88991881Y-140835024D02*
X88991881Y-140215976D01*
X89372833Y-140549310D01*
X89372833Y-140406452D01*
X89420452Y-140311214D01*
X89468071Y-140263595D01*
X89563310Y-140215976D01*
X89801405Y-140215976D01*
X89896643Y-140263595D01*
X89944262Y-140311214D01*
X89991881Y-140406452D01*
X89991881Y-140692167D01*
X89944262Y-140787405D01*
X89896643Y-140835024D01*
X89991881Y-139263595D02*
X89991881Y-139835024D01*
X89991881Y-139549310D02*
X88991881Y-139549310D01*
X89134738Y-139644548D01*
X89229976Y-139739786D01*
X89277595Y-139835024D01*
X115980643Y-134798357D02*
X116028262Y-134845976D01*
X116075881Y-134988833D01*
X116075881Y-135084071D01*
X116028262Y-135226929D01*
X115933024Y-135322167D01*
X115837786Y-135369786D01*
X115647310Y-135417405D01*
X115504452Y-135417405D01*
X115313976Y-135369786D01*
X115218738Y-135322167D01*
X115123500Y-135226929D01*
X115075881Y-135084071D01*
X115075881Y-134988833D01*
X115123500Y-134845976D01*
X115171119Y-134798357D01*
X115075881Y-134465024D02*
X115075881Y-133845976D01*
X115456833Y-134179310D01*
X115456833Y-134036452D01*
X115504452Y-133941214D01*
X115552071Y-133893595D01*
X115647310Y-133845976D01*
X115885405Y-133845976D01*
X115980643Y-133893595D01*
X116028262Y-133941214D01*
X116075881Y-134036452D01*
X116075881Y-134322167D01*
X116028262Y-134417405D01*
X115980643Y-134465024D01*
X115171119Y-133465024D02*
X115123500Y-133417405D01*
X115075881Y-133322167D01*
X115075881Y-133084071D01*
X115123500Y-132988833D01*
X115171119Y-132941214D01*
X115266357Y-132893595D01*
X115361595Y-132893595D01*
X115504452Y-132941214D01*
X116075881Y-133512643D01*
X116075881Y-132893595D01*
X90649643Y-139390357D02*
X90697262Y-139437976D01*
X90744881Y-139580833D01*
X90744881Y-139676071D01*
X90697262Y-139818929D01*
X90602024Y-139914167D01*
X90506786Y-139961786D01*
X90316310Y-140009405D01*
X90173452Y-140009405D01*
X89982976Y-139961786D01*
X89887738Y-139914167D01*
X89792500Y-139818929D01*
X89744881Y-139676071D01*
X89744881Y-139580833D01*
X89792500Y-139437976D01*
X89840119Y-139390357D01*
X89744881Y-139057024D02*
X89744881Y-138437976D01*
X90125833Y-138771310D01*
X90125833Y-138628452D01*
X90173452Y-138533214D01*
X90221071Y-138485595D01*
X90316310Y-138437976D01*
X90554405Y-138437976D01*
X90649643Y-138485595D01*
X90697262Y-138533214D01*
X90744881Y-138628452D01*
X90744881Y-138914167D01*
X90697262Y-139009405D01*
X90649643Y-139057024D01*
X89744881Y-138104643D02*
X89744881Y-137485595D01*
X90125833Y-137818929D01*
X90125833Y-137676071D01*
X90173452Y-137580833D01*
X90221071Y-137533214D01*
X90316310Y-137485595D01*
X90554405Y-137485595D01*
X90649643Y-137533214D01*
X90697262Y-137580833D01*
X90744881Y-137676071D01*
X90744881Y-137961786D01*
X90697262Y-138057024D01*
X90649643Y-138104643D01*
X98480643Y-138156643D02*
X98433024Y-138204262D01*
X98290167Y-138251881D01*
X98194929Y-138251881D01*
X98052071Y-138204262D01*
X97956833Y-138109024D01*
X97909214Y-138013786D01*
X97861595Y-137823310D01*
X97861595Y-137680452D01*
X97909214Y-137489976D01*
X97956833Y-137394738D01*
X98052071Y-137299500D01*
X98194929Y-137251881D01*
X98290167Y-137251881D01*
X98433024Y-137299500D01*
X98480643Y-137347119D01*
X98813976Y-137251881D02*
X99433024Y-137251881D01*
X99099690Y-137632833D01*
X99242548Y-137632833D01*
X99337786Y-137680452D01*
X99385405Y-137728071D01*
X99433024Y-137823310D01*
X99433024Y-138061405D01*
X99385405Y-138156643D01*
X99337786Y-138204262D01*
X99242548Y-138251881D01*
X98956833Y-138251881D01*
X98861595Y-138204262D01*
X98813976Y-138156643D01*
X100290167Y-137585214D02*
X100290167Y-138251881D01*
X100052071Y-137204262D02*
X99813976Y-137918548D01*
X100433024Y-137918548D01*
X111677143Y-131656057D02*
X111724762Y-131703676D01*
X111772381Y-131846533D01*
X111772381Y-131941771D01*
X111724762Y-132084629D01*
X111629524Y-132179867D01*
X111534286Y-132227486D01*
X111343810Y-132275105D01*
X111200952Y-132275105D01*
X111010476Y-132227486D01*
X110915238Y-132179867D01*
X110820000Y-132084629D01*
X110772381Y-131941771D01*
X110772381Y-131846533D01*
X110820000Y-131703676D01*
X110867619Y-131656057D01*
X110772381Y-131322724D02*
X110772381Y-130703676D01*
X111153333Y-131037010D01*
X111153333Y-130894152D01*
X111200952Y-130798914D01*
X111248571Y-130751295D01*
X111343810Y-130703676D01*
X111581905Y-130703676D01*
X111677143Y-130751295D01*
X111724762Y-130798914D01*
X111772381Y-130894152D01*
X111772381Y-131179867D01*
X111724762Y-131275105D01*
X111677143Y-131322724D01*
X110772381Y-129798914D02*
X110772381Y-130275105D01*
X111248571Y-130322724D01*
X111200952Y-130275105D01*
X111153333Y-130179867D01*
X111153333Y-129941771D01*
X111200952Y-129846533D01*
X111248571Y-129798914D01*
X111343810Y-129751295D01*
X111581905Y-129751295D01*
X111677143Y-129798914D01*
X111724762Y-129846533D01*
X111772381Y-129941771D01*
X111772381Y-130179867D01*
X111724762Y-130275105D01*
X111677143Y-130322724D01*
D17*
X78445844Y-133678265D02*
X78445844Y-132677505D01*
X78684120Y-132677505D01*
X78827086Y-132725160D01*
X78922397Y-132820470D01*
X78970052Y-132915781D01*
X79017707Y-133106402D01*
X79017707Y-133249368D01*
X78970052Y-133439989D01*
X78922397Y-133535299D01*
X78827086Y-133630610D01*
X78684120Y-133678265D01*
X78445844Y-133678265D01*
X79970812Y-133678265D02*
X79398949Y-133678265D01*
X79684880Y-133678265D02*
X79684880Y-132677505D01*
X79589570Y-132820470D01*
X79494259Y-132915781D01*
X79398949Y-132963436D01*
X75372080Y-139078305D02*
X75372080Y-138077545D01*
X75610356Y-138077545D01*
X75753322Y-138125200D01*
X75848633Y-138220510D01*
X75896288Y-138315821D01*
X75943943Y-138506442D01*
X75943943Y-138649408D01*
X75896288Y-138840029D01*
X75848633Y-138935339D01*
X75753322Y-139030650D01*
X75610356Y-139078305D01*
X75372080Y-139078305D01*
X76134564Y-139173615D02*
X76897048Y-139173615D01*
X77087669Y-139030650D02*
X77230635Y-139078305D01*
X77468911Y-139078305D01*
X77564221Y-139030650D01*
X77611877Y-138982994D01*
X77659532Y-138887684D01*
X77659532Y-138792373D01*
X77611877Y-138697063D01*
X77564221Y-138649408D01*
X77468911Y-138601752D01*
X77278290Y-138554097D01*
X77182979Y-138506442D01*
X77135324Y-138458787D01*
X77087669Y-138363476D01*
X77087669Y-138268166D01*
X77135324Y-138172855D01*
X77182979Y-138125200D01*
X77278290Y-138077545D01*
X77516566Y-138077545D01*
X77659532Y-138125200D01*
X78517326Y-139030650D02*
X78422016Y-139078305D01*
X78231395Y-139078305D01*
X78136084Y-139030650D01*
X78088429Y-138982994D01*
X78040774Y-138887684D01*
X78040774Y-138601752D01*
X78088429Y-138506442D01*
X78136084Y-138458787D01*
X78231395Y-138411131D01*
X78422016Y-138411131D01*
X78517326Y-138458787D01*
X78946223Y-139078305D02*
X78946223Y-138077545D01*
X79375120Y-139078305D02*
X79375120Y-138554097D01*
X79327465Y-138458787D01*
X79232155Y-138411131D01*
X79089189Y-138411131D01*
X78993878Y-138458787D01*
X78946223Y-138506442D01*
X79994639Y-139078305D02*
X79899328Y-139030650D01*
X79851673Y-138982994D01*
X79804018Y-138887684D01*
X79804018Y-138601752D01*
X79851673Y-138506442D01*
X79899328Y-138458787D01*
X79994639Y-138411131D01*
X80137605Y-138411131D01*
X80232915Y-138458787D01*
X80280570Y-138506442D01*
X80328226Y-138601752D01*
X80328226Y-138887684D01*
X80280570Y-138982994D01*
X80232915Y-139030650D01*
X80137605Y-139078305D01*
X79994639Y-139078305D01*
X80614157Y-138411131D02*
X80995399Y-138411131D01*
X80757123Y-138077545D02*
X80757123Y-138935339D01*
X80804778Y-139030650D01*
X80900089Y-139078305D01*
X80995399Y-139078305D01*
X81186020Y-138411131D02*
X81567262Y-138411131D01*
X81328986Y-138077545D02*
X81328986Y-138935339D01*
X81376641Y-139030650D01*
X81471952Y-139078305D01*
X81567262Y-139078305D01*
X81900849Y-139078305D02*
X81900849Y-138077545D01*
X81996160Y-138697063D02*
X82282091Y-139078305D01*
X82282091Y-138411131D02*
X81900849Y-138792373D01*
X82615678Y-138411131D02*
X82853954Y-139078305D01*
X83092230Y-138411131D02*
X82853954Y-139078305D01*
X82758643Y-139316581D01*
X82710988Y-139364236D01*
X82615678Y-139411891D01*
X104607844Y-140404185D02*
X104607844Y-139403425D01*
X104846120Y-139403425D01*
X104989086Y-139451080D01*
X105084397Y-139546390D01*
X105132052Y-139641701D01*
X105179707Y-139832322D01*
X105179707Y-139975288D01*
X105132052Y-140165909D01*
X105084397Y-140261219D01*
X104989086Y-140356530D01*
X104846120Y-140404185D01*
X104607844Y-140404185D01*
X105560949Y-139498735D02*
X105608604Y-139451080D01*
X105703915Y-139403425D01*
X105942191Y-139403425D01*
X106037501Y-139451080D01*
X106085157Y-139498735D01*
X106132812Y-139594046D01*
X106132812Y-139689356D01*
X106085157Y-139832322D01*
X105513294Y-140404185D01*
X106132812Y-140404185D01*
X101534080Y-135004145D02*
X101534080Y-134003385D01*
X101772356Y-134003385D01*
X101915322Y-134051040D01*
X102010633Y-134146350D01*
X102058288Y-134241661D01*
X102105943Y-134432282D01*
X102105943Y-134575248D01*
X102058288Y-134765869D01*
X102010633Y-134861179D01*
X101915322Y-134956490D01*
X101772356Y-135004145D01*
X101534080Y-135004145D01*
X102296564Y-135099455D02*
X103059048Y-135099455D01*
X103249669Y-134956490D02*
X103392635Y-135004145D01*
X103630911Y-135004145D01*
X103726221Y-134956490D01*
X103773877Y-134908834D01*
X103821532Y-134813524D01*
X103821532Y-134718213D01*
X103773877Y-134622903D01*
X103726221Y-134575248D01*
X103630911Y-134527592D01*
X103440290Y-134479937D01*
X103344979Y-134432282D01*
X103297324Y-134384627D01*
X103249669Y-134289316D01*
X103249669Y-134194006D01*
X103297324Y-134098695D01*
X103344979Y-134051040D01*
X103440290Y-134003385D01*
X103678566Y-134003385D01*
X103821532Y-134051040D01*
X104679326Y-134956490D02*
X104584016Y-135004145D01*
X104393395Y-135004145D01*
X104298084Y-134956490D01*
X104250429Y-134908834D01*
X104202774Y-134813524D01*
X104202774Y-134527592D01*
X104250429Y-134432282D01*
X104298084Y-134384627D01*
X104393395Y-134336971D01*
X104584016Y-134336971D01*
X104679326Y-134384627D01*
X105108223Y-135004145D02*
X105108223Y-134003385D01*
X105537120Y-135004145D02*
X105537120Y-134479937D01*
X105489465Y-134384627D01*
X105394155Y-134336971D01*
X105251189Y-134336971D01*
X105155878Y-134384627D01*
X105108223Y-134432282D01*
X106156639Y-135004145D02*
X106061328Y-134956490D01*
X106013673Y-134908834D01*
X105966018Y-134813524D01*
X105966018Y-134527592D01*
X106013673Y-134432282D01*
X106061328Y-134384627D01*
X106156639Y-134336971D01*
X106299605Y-134336971D01*
X106394915Y-134384627D01*
X106442570Y-134432282D01*
X106490226Y-134527592D01*
X106490226Y-134813524D01*
X106442570Y-134908834D01*
X106394915Y-134956490D01*
X106299605Y-135004145D01*
X106156639Y-135004145D01*
X106776157Y-134336971D02*
X107157399Y-134336971D01*
X106919123Y-134003385D02*
X106919123Y-134861179D01*
X106966778Y-134956490D01*
X107062089Y-135004145D01*
X107157399Y-135004145D01*
X107348020Y-134336971D02*
X107729262Y-134336971D01*
X107490986Y-134003385D02*
X107490986Y-134861179D01*
X107538641Y-134956490D01*
X107633952Y-135004145D01*
X107729262Y-135004145D01*
X108062849Y-135004145D02*
X108062849Y-134003385D01*
X108158160Y-134622903D02*
X108444091Y-135004145D01*
X108444091Y-134336971D02*
X108062849Y-134718213D01*
X108777678Y-134336971D02*
X109015954Y-135004145D01*
X109254230Y-134336971D02*
X109015954Y-135004145D01*
X108920643Y-135242421D01*
X108872988Y-135290076D01*
X108777678Y-135337731D01*
D11*
X58384381Y-141200095D02*
X57384381Y-141200095D01*
X57384381Y-140819142D01*
X57432000Y-140723904D01*
X57479619Y-140676285D01*
X57574857Y-140628666D01*
X57717714Y-140628666D01*
X57812952Y-140676285D01*
X57860571Y-140723904D01*
X57908190Y-140819142D01*
X57908190Y-141200095D01*
X58384381Y-139676285D02*
X58384381Y-140247714D01*
X58384381Y-139962000D02*
X57384381Y-139962000D01*
X57527238Y-140057238D01*
X57622476Y-140152476D01*
X57670095Y-140247714D01*
X49494381Y-140946095D02*
X48494381Y-140946095D01*
X48494381Y-140565142D01*
X48542000Y-140469904D01*
X48589619Y-140422285D01*
X48684857Y-140374666D01*
X48827714Y-140374666D01*
X48922952Y-140422285D01*
X48970571Y-140469904D01*
X49018190Y-140565142D01*
X49018190Y-140946095D01*
X48494381Y-140041333D02*
X48494381Y-139422285D01*
X48875333Y-139755619D01*
X48875333Y-139612761D01*
X48922952Y-139517523D01*
X48970571Y-139469904D01*
X49065810Y-139422285D01*
X49303905Y-139422285D01*
X49399143Y-139469904D01*
X49446762Y-139517523D01*
X49494381Y-139612761D01*
X49494381Y-139898476D01*
X49446762Y-139993714D01*
X49399143Y-140041333D01*
X100025781Y-115380995D02*
X99025781Y-115380995D01*
X99025781Y-115000042D01*
X99073400Y-114904804D01*
X99121019Y-114857185D01*
X99216257Y-114809566D01*
X99359114Y-114809566D01*
X99454352Y-114857185D01*
X99501971Y-114904804D01*
X99549590Y-115000042D01*
X99549590Y-115380995D01*
X99025781Y-113904804D02*
X99025781Y-114380995D01*
X99501971Y-114428614D01*
X99454352Y-114380995D01*
X99406733Y-114285757D01*
X99406733Y-114047661D01*
X99454352Y-113952423D01*
X99501971Y-113904804D01*
X99597210Y-113857185D01*
X99835305Y-113857185D01*
X99930543Y-113904804D01*
X99978162Y-113952423D01*
X100025781Y-114047661D01*
X100025781Y-114285757D01*
X99978162Y-114380995D01*
X99930543Y-114428614D01*
X100277705Y-122735281D02*
X100277705Y-121735281D01*
X100658658Y-121735281D01*
X100753896Y-121782900D01*
X100801515Y-121830519D01*
X100849134Y-121925757D01*
X100849134Y-122068614D01*
X100801515Y-122163852D01*
X100753896Y-122211471D01*
X100658658Y-122259090D01*
X100277705Y-122259090D01*
X101182467Y-121735281D02*
X101849134Y-121735281D01*
X101420562Y-122735281D01*
X111606105Y-101181481D02*
X111606105Y-100181481D01*
X111987058Y-100181481D01*
X112082296Y-100229100D01*
X112129915Y-100276719D01*
X112177534Y-100371957D01*
X112177534Y-100514814D01*
X112129915Y-100610052D01*
X112082296Y-100657671D01*
X111987058Y-100705290D01*
X111606105Y-100705290D01*
X112748962Y-100610052D02*
X112653724Y-100562433D01*
X112606105Y-100514814D01*
X112558486Y-100419576D01*
X112558486Y-100371957D01*
X112606105Y-100276719D01*
X112653724Y-100229100D01*
X112748962Y-100181481D01*
X112939439Y-100181481D01*
X113034677Y-100229100D01*
X113082296Y-100276719D01*
X113129915Y-100371957D01*
X113129915Y-100419576D01*
X113082296Y-100514814D01*
X113034677Y-100562433D01*
X112939439Y-100610052D01*
X112748962Y-100610052D01*
X112653724Y-100657671D01*
X112606105Y-100705290D01*
X112558486Y-100800529D01*
X112558486Y-100991005D01*
X112606105Y-101086243D01*
X112653724Y-101133862D01*
X112748962Y-101181481D01*
X112939439Y-101181481D01*
X113034677Y-101133862D01*
X113082296Y-101086243D01*
X113129915Y-100991005D01*
X113129915Y-100800529D01*
X113082296Y-100705290D01*
X113034677Y-100657671D01*
X112939439Y-100610052D01*
X95877214Y-116192881D02*
X95877214Y-115192881D01*
X96258167Y-115192881D01*
X96353405Y-115240500D01*
X96401024Y-115288119D01*
X96448643Y-115383357D01*
X96448643Y-115526214D01*
X96401024Y-115621452D01*
X96353405Y-115669071D01*
X96258167Y-115716690D01*
X95877214Y-115716690D01*
X97401024Y-116192881D02*
X96829595Y-116192881D01*
X97115309Y-116192881D02*
X97115309Y-115192881D01*
X97020071Y-115335738D01*
X96924833Y-115430976D01*
X96829595Y-115478595D01*
X98353405Y-116192881D02*
X97781976Y-116192881D01*
X98067690Y-116192881D02*
X98067690Y-115192881D01*
X97972452Y-115335738D01*
X97877214Y-115430976D01*
X97781976Y-115478595D01*
X70897762Y-137671619D02*
X70802524Y-137624000D01*
X70707286Y-137528762D01*
X70564429Y-137385905D01*
X70469190Y-137338286D01*
X70373952Y-137338286D01*
X70421571Y-137576381D02*
X70326333Y-137528762D01*
X70231095Y-137433524D01*
X70183476Y-137243048D01*
X70183476Y-136909714D01*
X70231095Y-136719238D01*
X70326333Y-136624000D01*
X70421571Y-136576381D01*
X70612048Y-136576381D01*
X70707286Y-136624000D01*
X70802524Y-136719238D01*
X70850143Y-136909714D01*
X70850143Y-137243048D01*
X70802524Y-137433524D01*
X70707286Y-137528762D01*
X70612048Y-137576381D01*
X70421571Y-137576381D01*
X71802524Y-137576381D02*
X71231095Y-137576381D01*
X71516809Y-137576381D02*
X71516809Y-136576381D01*
X71421571Y-136719238D01*
X71326333Y-136814476D01*
X71231095Y-136862095D01*
X90072019Y-128974838D02*
X90024400Y-129070076D01*
X89929162Y-129165314D01*
X89786305Y-129308171D01*
X89738686Y-129403410D01*
X89738686Y-129498648D01*
X89976781Y-129451029D02*
X89929162Y-129546267D01*
X89833924Y-129641505D01*
X89643448Y-129689124D01*
X89310114Y-129689124D01*
X89119638Y-129641505D01*
X89024400Y-129546267D01*
X88976781Y-129451029D01*
X88976781Y-129260552D01*
X89024400Y-129165314D01*
X89119638Y-129070076D01*
X89310114Y-129022457D01*
X89643448Y-129022457D01*
X89833924Y-129070076D01*
X89929162Y-129165314D01*
X89976781Y-129260552D01*
X89976781Y-129451029D01*
X89072019Y-128641505D02*
X89024400Y-128593886D01*
X88976781Y-128498648D01*
X88976781Y-128260552D01*
X89024400Y-128165314D01*
X89072019Y-128117695D01*
X89167257Y-128070076D01*
X89262495Y-128070076D01*
X89405352Y-128117695D01*
X89976781Y-128689124D01*
X89976781Y-128070076D01*
X103191119Y-139858738D02*
X103143500Y-139953976D01*
X103048262Y-140049214D01*
X102905405Y-140192071D01*
X102857786Y-140287310D01*
X102857786Y-140382548D01*
X103095881Y-140334929D02*
X103048262Y-140430167D01*
X102953024Y-140525405D01*
X102762548Y-140573024D01*
X102429214Y-140573024D01*
X102238738Y-140525405D01*
X102143500Y-140430167D01*
X102095881Y-140334929D01*
X102095881Y-140144452D01*
X102143500Y-140049214D01*
X102238738Y-139953976D01*
X102429214Y-139906357D01*
X102762548Y-139906357D01*
X102953024Y-139953976D01*
X103048262Y-140049214D01*
X103095881Y-140144452D01*
X103095881Y-140334929D01*
X102095881Y-139573024D02*
X102095881Y-138953976D01*
X102476833Y-139287310D01*
X102476833Y-139144452D01*
X102524452Y-139049214D01*
X102572071Y-139001595D01*
X102667310Y-138953976D01*
X102905405Y-138953976D01*
X103000643Y-139001595D01*
X103048262Y-139049214D01*
X103095881Y-139144452D01*
X103095881Y-139430167D01*
X103048262Y-139525405D01*
X103000643Y-139573024D01*
X107000381Y-107862666D02*
X106524190Y-108196000D01*
X107000381Y-108434095D02*
X106000381Y-108434095D01*
X106000381Y-108053142D01*
X106048000Y-107957904D01*
X106095619Y-107910285D01*
X106190857Y-107862666D01*
X106333714Y-107862666D01*
X106428952Y-107910285D01*
X106476571Y-107957904D01*
X106524190Y-108053142D01*
X106524190Y-108434095D01*
X107000381Y-106910285D02*
X107000381Y-107481714D01*
X107000381Y-107196000D02*
X106000381Y-107196000D01*
X106143238Y-107291238D01*
X106238476Y-107386476D01*
X106286095Y-107481714D01*
X109603881Y-107862666D02*
X109127690Y-108196000D01*
X109603881Y-108434095D02*
X108603881Y-108434095D01*
X108603881Y-108053142D01*
X108651500Y-107957904D01*
X108699119Y-107910285D01*
X108794357Y-107862666D01*
X108937214Y-107862666D01*
X109032452Y-107910285D01*
X109080071Y-107957904D01*
X109127690Y-108053142D01*
X109127690Y-108434095D01*
X108699119Y-107481714D02*
X108651500Y-107434095D01*
X108603881Y-107338857D01*
X108603881Y-107100761D01*
X108651500Y-107005523D01*
X108699119Y-106957904D01*
X108794357Y-106910285D01*
X108889595Y-106910285D01*
X109032452Y-106957904D01*
X109603881Y-107529333D01*
X109603881Y-106910285D01*
X73031054Y-124328261D02*
X72697720Y-123852070D01*
X72459625Y-124328261D02*
X72459625Y-123328261D01*
X72840578Y-123328261D01*
X72935816Y-123375880D01*
X72983435Y-123423499D01*
X73031054Y-123518737D01*
X73031054Y-123661594D01*
X72983435Y-123756832D01*
X72935816Y-123804451D01*
X72840578Y-123852070D01*
X72459625Y-123852070D01*
X73364387Y-123328261D02*
X73983435Y-123328261D01*
X73650101Y-123709213D01*
X73792959Y-123709213D01*
X73888197Y-123756832D01*
X73935816Y-123804451D01*
X73983435Y-123899690D01*
X73983435Y-124137785D01*
X73935816Y-124233023D01*
X73888197Y-124280642D01*
X73792959Y-124328261D01*
X73507244Y-124328261D01*
X73412006Y-124280642D01*
X73364387Y-124233023D01*
X70369134Y-126172301D02*
X70035800Y-125696110D01*
X69797705Y-126172301D02*
X69797705Y-125172301D01*
X70178658Y-125172301D01*
X70273896Y-125219920D01*
X70321515Y-125267539D01*
X70369134Y-125362777D01*
X70369134Y-125505634D01*
X70321515Y-125600872D01*
X70273896Y-125648491D01*
X70178658Y-125696110D01*
X69797705Y-125696110D01*
X71226277Y-125505634D02*
X71226277Y-126172301D01*
X70988181Y-125124682D02*
X70750086Y-125838968D01*
X71369134Y-125838968D01*
X105273814Y-119807061D02*
X104940480Y-119330870D01*
X104702385Y-119807061D02*
X104702385Y-118807061D01*
X105083338Y-118807061D01*
X105178576Y-118854680D01*
X105226195Y-118902299D01*
X105273814Y-118997537D01*
X105273814Y-119140394D01*
X105226195Y-119235632D01*
X105178576Y-119283251D01*
X105083338Y-119330870D01*
X104702385Y-119330870D01*
X105607147Y-118807061D02*
X106273814Y-118807061D01*
X105845242Y-119807061D01*
X106438881Y-117959166D02*
X105962690Y-118292500D01*
X106438881Y-118530595D02*
X105438881Y-118530595D01*
X105438881Y-118149642D01*
X105486500Y-118054404D01*
X105534119Y-118006785D01*
X105629357Y-117959166D01*
X105772214Y-117959166D01*
X105867452Y-118006785D01*
X105915071Y-118054404D01*
X105962690Y-118149642D01*
X105962690Y-118530595D01*
X105867452Y-117387738D02*
X105819833Y-117482976D01*
X105772214Y-117530595D01*
X105676976Y-117578214D01*
X105629357Y-117578214D01*
X105534119Y-117530595D01*
X105486500Y-117482976D01*
X105438881Y-117387738D01*
X105438881Y-117197261D01*
X105486500Y-117102023D01*
X105534119Y-117054404D01*
X105629357Y-117006785D01*
X105676976Y-117006785D01*
X105772214Y-117054404D01*
X105819833Y-117102023D01*
X105867452Y-117197261D01*
X105867452Y-117387738D01*
X105915071Y-117482976D01*
X105962690Y-117530595D01*
X106057929Y-117578214D01*
X106248405Y-117578214D01*
X106343643Y-117530595D01*
X106391262Y-117482976D01*
X106438881Y-117387738D01*
X106438881Y-117197261D01*
X106391262Y-117102023D01*
X106343643Y-117054404D01*
X106248405Y-117006785D01*
X106057929Y-117006785D01*
X105962690Y-117054404D01*
X105915071Y-117102023D01*
X105867452Y-117197261D01*
X78399981Y-124290057D02*
X77923790Y-124623391D01*
X78399981Y-124861486D02*
X77399981Y-124861486D01*
X77399981Y-124480533D01*
X77447600Y-124385295D01*
X77495219Y-124337676D01*
X77590457Y-124290057D01*
X77733314Y-124290057D01*
X77828552Y-124337676D01*
X77876171Y-124385295D01*
X77923790Y-124480533D01*
X77923790Y-124861486D01*
X78399981Y-123337676D02*
X78399981Y-123909105D01*
X78399981Y-123623391D02*
X77399981Y-123623391D01*
X77542838Y-123718629D01*
X77638076Y-123813867D01*
X77685695Y-123909105D01*
X78399981Y-122385295D02*
X78399981Y-122956724D01*
X78399981Y-122671010D02*
X77399981Y-122671010D01*
X77542838Y-122766248D01*
X77638076Y-122861486D01*
X77685695Y-122956724D01*
X73218381Y-128912857D02*
X72742190Y-129246191D01*
X73218381Y-129484286D02*
X72218381Y-129484286D01*
X72218381Y-129103333D01*
X72266000Y-129008095D01*
X72313619Y-128960476D01*
X72408857Y-128912857D01*
X72551714Y-128912857D01*
X72646952Y-128960476D01*
X72694571Y-129008095D01*
X72742190Y-129103333D01*
X72742190Y-129484286D01*
X73218381Y-127960476D02*
X73218381Y-128531905D01*
X73218381Y-128246191D02*
X72218381Y-128246191D01*
X72361238Y-128341429D01*
X72456476Y-128436667D01*
X72504095Y-128531905D01*
X72313619Y-127579524D02*
X72266000Y-127531905D01*
X72218381Y-127436667D01*
X72218381Y-127198571D01*
X72266000Y-127103333D01*
X72313619Y-127055714D01*
X72408857Y-127008095D01*
X72504095Y-127008095D01*
X72646952Y-127055714D01*
X73218381Y-127627143D01*
X73218381Y-127008095D01*
X64254143Y-131076881D02*
X63920809Y-130600690D01*
X63682714Y-131076881D02*
X63682714Y-130076881D01*
X64063667Y-130076881D01*
X64158905Y-130124500D01*
X64206524Y-130172119D01*
X64254143Y-130267357D01*
X64254143Y-130410214D01*
X64206524Y-130505452D01*
X64158905Y-130553071D01*
X64063667Y-130600690D01*
X63682714Y-130600690D01*
X65206524Y-131076881D02*
X64635095Y-131076881D01*
X64920809Y-131076881D02*
X64920809Y-130076881D01*
X64825571Y-130219738D01*
X64730333Y-130314976D01*
X64635095Y-130362595D01*
X66063667Y-130410214D02*
X66063667Y-131076881D01*
X65825571Y-130029262D02*
X65587476Y-130743548D01*
X66206524Y-130743548D01*
X66919181Y-130335257D02*
X66442990Y-130668591D01*
X66919181Y-130906686D02*
X65919181Y-130906686D01*
X65919181Y-130525733D01*
X65966800Y-130430495D01*
X66014419Y-130382876D01*
X66109657Y-130335257D01*
X66252514Y-130335257D01*
X66347752Y-130382876D01*
X66395371Y-130430495D01*
X66442990Y-130525733D01*
X66442990Y-130906686D01*
X66919181Y-129382876D02*
X66919181Y-129954305D01*
X66919181Y-129668591D02*
X65919181Y-129668591D01*
X66062038Y-129763829D01*
X66157276Y-129859067D01*
X66204895Y-129954305D01*
X65919181Y-128478114D02*
X65919181Y-128954305D01*
X66395371Y-129001924D01*
X66347752Y-128954305D01*
X66300133Y-128859067D01*
X66300133Y-128620971D01*
X66347752Y-128525733D01*
X66395371Y-128478114D01*
X66490610Y-128430495D01*
X66728705Y-128430495D01*
X66823943Y-128478114D01*
X66871562Y-128525733D01*
X66919181Y-128620971D01*
X66919181Y-128859067D01*
X66871562Y-128954305D01*
X66823943Y-129001924D01*
X62560381Y-136405857D02*
X62084190Y-136739191D01*
X62560381Y-136977286D02*
X61560381Y-136977286D01*
X61560381Y-136596333D01*
X61608000Y-136501095D01*
X61655619Y-136453476D01*
X61750857Y-136405857D01*
X61893714Y-136405857D01*
X61988952Y-136453476D01*
X62036571Y-136501095D01*
X62084190Y-136596333D01*
X62084190Y-136977286D01*
X62560381Y-135453476D02*
X62560381Y-136024905D01*
X62560381Y-135739191D02*
X61560381Y-135739191D01*
X61703238Y-135834429D01*
X61798476Y-135929667D01*
X61846095Y-136024905D01*
X61560381Y-134596333D02*
X61560381Y-134786810D01*
X61608000Y-134882048D01*
X61655619Y-134929667D01*
X61798476Y-135024905D01*
X61988952Y-135072524D01*
X62369905Y-135072524D01*
X62465143Y-135024905D01*
X62512762Y-134977286D01*
X62560381Y-134882048D01*
X62560381Y-134691571D01*
X62512762Y-134596333D01*
X62465143Y-134548714D01*
X62369905Y-134501095D01*
X62131810Y-134501095D01*
X62036571Y-134548714D01*
X61988952Y-134596333D01*
X61941333Y-134691571D01*
X61941333Y-134882048D01*
X61988952Y-134977286D01*
X62036571Y-135024905D01*
X62131810Y-135072524D01*
X80647881Y-141358857D02*
X80171690Y-141692191D01*
X80647881Y-141930286D02*
X79647881Y-141930286D01*
X79647881Y-141549333D01*
X79695500Y-141454095D01*
X79743119Y-141406476D01*
X79838357Y-141358857D01*
X79981214Y-141358857D01*
X80076452Y-141406476D01*
X80124071Y-141454095D01*
X80171690Y-141549333D01*
X80171690Y-141930286D01*
X80647881Y-140406476D02*
X80647881Y-140977905D01*
X80647881Y-140692191D02*
X79647881Y-140692191D01*
X79790738Y-140787429D01*
X79885976Y-140882667D01*
X79933595Y-140977905D01*
X80076452Y-139835048D02*
X80028833Y-139930286D01*
X79981214Y-139977905D01*
X79885976Y-140025524D01*
X79838357Y-140025524D01*
X79743119Y-139977905D01*
X79695500Y-139930286D01*
X79647881Y-139835048D01*
X79647881Y-139644571D01*
X79695500Y-139549333D01*
X79743119Y-139501714D01*
X79838357Y-139454095D01*
X79885976Y-139454095D01*
X79981214Y-139501714D01*
X80028833Y-139549333D01*
X80076452Y-139644571D01*
X80076452Y-139835048D01*
X80124071Y-139930286D01*
X80171690Y-139977905D01*
X80266929Y-140025524D01*
X80457405Y-140025524D01*
X80552643Y-139977905D01*
X80600262Y-139930286D01*
X80647881Y-139835048D01*
X80647881Y-139644571D01*
X80600262Y-139549333D01*
X80552643Y-139501714D01*
X80457405Y-139454095D01*
X80266929Y-139454095D01*
X80171690Y-139501714D01*
X80124071Y-139549333D01*
X80076452Y-139644571D01*
X78679881Y-141104857D02*
X78203690Y-141438191D01*
X78679881Y-141676286D02*
X77679881Y-141676286D01*
X77679881Y-141295333D01*
X77727500Y-141200095D01*
X77775119Y-141152476D01*
X77870357Y-141104857D01*
X78013214Y-141104857D01*
X78108452Y-141152476D01*
X78156071Y-141200095D01*
X78203690Y-141295333D01*
X78203690Y-141676286D01*
X78679881Y-140152476D02*
X78679881Y-140723905D01*
X78679881Y-140438191D02*
X77679881Y-140438191D01*
X77822738Y-140533429D01*
X77917976Y-140628667D01*
X77965595Y-140723905D01*
X78679881Y-139676286D02*
X78679881Y-139485810D01*
X78632262Y-139390571D01*
X78584643Y-139342952D01*
X78441786Y-139247714D01*
X78251310Y-139200095D01*
X77870357Y-139200095D01*
X77775119Y-139247714D01*
X77727500Y-139295333D01*
X77679881Y-139390571D01*
X77679881Y-139581048D01*
X77727500Y-139676286D01*
X77775119Y-139723905D01*
X77870357Y-139771524D01*
X78108452Y-139771524D01*
X78203690Y-139723905D01*
X78251310Y-139676286D01*
X78298929Y-139581048D01*
X78298929Y-139390571D01*
X78251310Y-139295333D01*
X78203690Y-139247714D01*
X78108452Y-139200095D01*
X85648981Y-125013957D02*
X85172790Y-125347291D01*
X85648981Y-125585386D02*
X84648981Y-125585386D01*
X84648981Y-125204433D01*
X84696600Y-125109195D01*
X84744219Y-125061576D01*
X84839457Y-125013957D01*
X84982314Y-125013957D01*
X85077552Y-125061576D01*
X85125171Y-125109195D01*
X85172790Y-125204433D01*
X85172790Y-125585386D01*
X84744219Y-124633005D02*
X84696600Y-124585386D01*
X84648981Y-124490148D01*
X84648981Y-124252052D01*
X84696600Y-124156814D01*
X84744219Y-124109195D01*
X84839457Y-124061576D01*
X84934695Y-124061576D01*
X85077552Y-124109195D01*
X85648981Y-124680624D01*
X85648981Y-124061576D01*
X84648981Y-123442529D02*
X84648981Y-123347290D01*
X84696600Y-123252052D01*
X84744219Y-123204433D01*
X84839457Y-123156814D01*
X85029933Y-123109195D01*
X85268029Y-123109195D01*
X85458505Y-123156814D01*
X85553743Y-123204433D01*
X85601362Y-123252052D01*
X85648981Y-123347290D01*
X85648981Y-123442529D01*
X85601362Y-123537767D01*
X85553743Y-123585386D01*
X85458505Y-123633005D01*
X85268029Y-123680624D01*
X85029933Y-123680624D01*
X84839457Y-123633005D01*
X84744219Y-123585386D01*
X84696600Y-123537767D01*
X84648981Y-123442529D01*
X102021981Y-127693657D02*
X101545790Y-128026991D01*
X102021981Y-128265086D02*
X101021981Y-128265086D01*
X101021981Y-127884133D01*
X101069600Y-127788895D01*
X101117219Y-127741276D01*
X101212457Y-127693657D01*
X101355314Y-127693657D01*
X101450552Y-127741276D01*
X101498171Y-127788895D01*
X101545790Y-127884133D01*
X101545790Y-128265086D01*
X101117219Y-127312705D02*
X101069600Y-127265086D01*
X101021981Y-127169848D01*
X101021981Y-126931752D01*
X101069600Y-126836514D01*
X101117219Y-126788895D01*
X101212457Y-126741276D01*
X101307695Y-126741276D01*
X101450552Y-126788895D01*
X102021981Y-127360324D01*
X102021981Y-126741276D01*
X102021981Y-125788895D02*
X102021981Y-126360324D01*
X102021981Y-126074610D02*
X101021981Y-126074610D01*
X101164838Y-126169848D01*
X101260076Y-126265086D01*
X101307695Y-126360324D01*
X78603181Y-129065257D02*
X78126990Y-129398591D01*
X78603181Y-129636686D02*
X77603181Y-129636686D01*
X77603181Y-129255733D01*
X77650800Y-129160495D01*
X77698419Y-129112876D01*
X77793657Y-129065257D01*
X77936514Y-129065257D01*
X78031752Y-129112876D01*
X78079371Y-129160495D01*
X78126990Y-129255733D01*
X78126990Y-129636686D01*
X77698419Y-128684305D02*
X77650800Y-128636686D01*
X77603181Y-128541448D01*
X77603181Y-128303352D01*
X77650800Y-128208114D01*
X77698419Y-128160495D01*
X77793657Y-128112876D01*
X77888895Y-128112876D01*
X78031752Y-128160495D01*
X78603181Y-128731924D01*
X78603181Y-128112876D01*
X77698419Y-127731924D02*
X77650800Y-127684305D01*
X77603181Y-127589067D01*
X77603181Y-127350971D01*
X77650800Y-127255733D01*
X77698419Y-127208114D01*
X77793657Y-127160495D01*
X77888895Y-127160495D01*
X78031752Y-127208114D01*
X78603181Y-127779543D01*
X78603181Y-127160495D01*
X74845943Y-124739581D02*
X74512609Y-124263390D01*
X74274514Y-124739581D02*
X74274514Y-123739581D01*
X74655467Y-123739581D01*
X74750705Y-123787200D01*
X74798324Y-123834819D01*
X74845943Y-123930057D01*
X74845943Y-124072914D01*
X74798324Y-124168152D01*
X74750705Y-124215771D01*
X74655467Y-124263390D01*
X74274514Y-124263390D01*
X75226895Y-123834819D02*
X75274514Y-123787200D01*
X75369752Y-123739581D01*
X75607848Y-123739581D01*
X75703086Y-123787200D01*
X75750705Y-123834819D01*
X75798324Y-123930057D01*
X75798324Y-124025295D01*
X75750705Y-124168152D01*
X75179276Y-124739581D01*
X75798324Y-124739581D01*
X76131657Y-123739581D02*
X76750705Y-123739581D01*
X76417371Y-124120533D01*
X76560229Y-124120533D01*
X76655467Y-124168152D01*
X76703086Y-124215771D01*
X76750705Y-124311010D01*
X76750705Y-124549105D01*
X76703086Y-124644343D01*
X76655467Y-124691962D01*
X76560229Y-124739581D01*
X76274514Y-124739581D01*
X76179276Y-124691962D01*
X76131657Y-124644343D01*
X92887981Y-129725657D02*
X92411790Y-130058991D01*
X92887981Y-130297086D02*
X91887981Y-130297086D01*
X91887981Y-129916133D01*
X91935600Y-129820895D01*
X91983219Y-129773276D01*
X92078457Y-129725657D01*
X92221314Y-129725657D01*
X92316552Y-129773276D01*
X92364171Y-129820895D01*
X92411790Y-129916133D01*
X92411790Y-130297086D01*
X91983219Y-129344705D02*
X91935600Y-129297086D01*
X91887981Y-129201848D01*
X91887981Y-128963752D01*
X91935600Y-128868514D01*
X91983219Y-128820895D01*
X92078457Y-128773276D01*
X92173695Y-128773276D01*
X92316552Y-128820895D01*
X92887981Y-129392324D01*
X92887981Y-128773276D01*
X91887981Y-127868514D02*
X91887981Y-128344705D01*
X92364171Y-128392324D01*
X92316552Y-128344705D01*
X92268933Y-128249467D01*
X92268933Y-128011371D01*
X92316552Y-127916133D01*
X92364171Y-127868514D01*
X92459410Y-127820895D01*
X92697505Y-127820895D01*
X92792743Y-127868514D01*
X92840362Y-127916133D01*
X92887981Y-128011371D01*
X92887981Y-128249467D01*
X92840362Y-128344705D01*
X92792743Y-128392324D01*
X56819967Y-93547862D02*
X56962824Y-93595481D01*
X57200920Y-93595481D01*
X57296158Y-93547862D01*
X57343777Y-93500243D01*
X57391396Y-93405005D01*
X57391396Y-93309767D01*
X57343777Y-93214529D01*
X57296158Y-93166910D01*
X57200920Y-93119290D01*
X57010443Y-93071671D01*
X56915205Y-93024052D01*
X56867586Y-92976433D01*
X56819967Y-92881195D01*
X56819967Y-92785957D01*
X56867586Y-92690719D01*
X56915205Y-92643100D01*
X57010443Y-92595481D01*
X57248539Y-92595481D01*
X57391396Y-92643100D01*
X57724729Y-92595481D02*
X57962824Y-93595481D01*
X58153301Y-92881195D01*
X58343777Y-93595481D01*
X58581872Y-92595481D01*
X59486634Y-93595481D02*
X58915205Y-93595481D01*
X59200919Y-93595481D02*
X59200919Y-92595481D01*
X59105681Y-92738338D01*
X59010443Y-92833576D01*
X58915205Y-92881195D01*
X65441581Y-122681905D02*
X66251105Y-122681905D01*
X66346343Y-122634286D01*
X66393962Y-122586667D01*
X66441581Y-122491429D01*
X66441581Y-122300952D01*
X66393962Y-122205714D01*
X66346343Y-122158095D01*
X66251105Y-122110476D01*
X65441581Y-122110476D01*
X66441581Y-121110476D02*
X66441581Y-121681905D01*
X66441581Y-121396191D02*
X65441581Y-121396191D01*
X65584438Y-121491429D01*
X65679676Y-121586667D01*
X65727295Y-121681905D01*
X93996781Y-117436805D02*
X94806305Y-117436805D01*
X94901543Y-117389186D01*
X94949162Y-117341567D01*
X94996781Y-117246329D01*
X94996781Y-117055852D01*
X94949162Y-116960614D01*
X94901543Y-116912995D01*
X94806305Y-116865376D01*
X93996781Y-116865376D01*
X93996781Y-116484424D02*
X93996781Y-115865376D01*
X94377733Y-116198710D01*
X94377733Y-116055852D01*
X94425352Y-115960614D01*
X94472971Y-115912995D01*
X94568210Y-115865376D01*
X94806305Y-115865376D01*
X94901543Y-115912995D01*
X94949162Y-115960614D01*
X94996781Y-116055852D01*
X94996781Y-116341567D01*
X94949162Y-116436805D01*
X94901543Y-116484424D01*
D18*
X66040242Y-107097528D02*
X66040242Y-107340158D01*
X66054514Y-107368703D01*
X66068787Y-107382975D01*
X66097331Y-107397248D01*
X66154421Y-107397248D01*
X66182966Y-107382975D01*
X66197238Y-107368703D01*
X66211510Y-107340158D01*
X66211510Y-107097528D01*
X66482685Y-107197434D02*
X66482685Y-107397248D01*
X66411323Y-107083255D02*
X66339962Y-107297341D01*
X66525502Y-107297341D01*
X65469347Y-108398008D02*
X65326623Y-108398008D01*
X65326623Y-108098288D01*
X65554981Y-108383735D02*
X65597798Y-108398008D01*
X65669160Y-108398008D01*
X65697704Y-108383735D01*
X65711977Y-108369463D01*
X65726249Y-108340918D01*
X65726249Y-108312373D01*
X65711977Y-108283829D01*
X65697704Y-108269556D01*
X65669160Y-108255284D01*
X65612070Y-108241011D01*
X65583525Y-108226739D01*
X65569253Y-108212467D01*
X65554981Y-108183922D01*
X65554981Y-108155377D01*
X65569253Y-108126832D01*
X65583525Y-108112560D01*
X65612070Y-108098288D01*
X65683432Y-108098288D01*
X65726249Y-108112560D01*
X65854701Y-108398008D02*
X65854701Y-108098288D01*
X65954608Y-108312373D01*
X66054514Y-108098288D01*
X66054514Y-108398008D01*
X66168693Y-108098288D02*
X66354234Y-108098288D01*
X66254327Y-108212467D01*
X66297145Y-108212467D01*
X66325689Y-108226739D01*
X66339962Y-108241011D01*
X66354234Y-108269556D01*
X66354234Y-108340918D01*
X66339962Y-108369463D01*
X66325689Y-108383735D01*
X66297145Y-108398008D01*
X66211510Y-108398008D01*
X66182966Y-108383735D01*
X66168693Y-108369463D01*
X66539775Y-108098288D02*
X66568320Y-108098288D01*
X66596865Y-108112560D01*
X66611137Y-108126832D01*
X66625410Y-108155377D01*
X66639682Y-108212467D01*
X66639682Y-108283829D01*
X66625410Y-108340918D01*
X66611137Y-108369463D01*
X66596865Y-108383735D01*
X66568320Y-108398008D01*
X66539775Y-108398008D01*
X66511231Y-108383735D01*
X66496958Y-108369463D01*
X66482686Y-108340918D01*
X66468414Y-108283829D01*
X66468414Y-108212467D01*
X66482686Y-108155377D01*
X66496958Y-108126832D01*
X66511231Y-108112560D01*
X66539775Y-108098288D01*
X66739589Y-108098288D02*
X66925130Y-108098288D01*
X66825223Y-108212467D01*
X66868041Y-108212467D01*
X66896585Y-108226739D01*
X66910858Y-108241011D01*
X66925130Y-108269556D01*
X66925130Y-108340918D01*
X66910858Y-108369463D01*
X66896585Y-108383735D01*
X66868041Y-108398008D01*
X66782406Y-108398008D01*
X66753862Y-108383735D01*
X66739589Y-108369463D01*
X67053582Y-108398008D02*
X67053582Y-108098288D01*
X67124944Y-108098288D01*
X67167761Y-108112560D01*
X67196306Y-108141105D01*
X67210578Y-108169650D01*
X67224850Y-108226739D01*
X67224850Y-108269556D01*
X67210578Y-108326646D01*
X67196306Y-108355190D01*
X67167761Y-108383735D01*
X67124944Y-108398008D01*
X67053582Y-108398008D01*
D11*
X100431695Y-97581781D02*
X100431695Y-98391305D01*
X100479314Y-98486543D01*
X100526933Y-98534162D01*
X100622171Y-98581781D01*
X100812648Y-98581781D01*
X100907886Y-98534162D01*
X100955505Y-98486543D01*
X101003124Y-98391305D01*
X101003124Y-97581781D01*
X101907886Y-97581781D02*
X101717409Y-97581781D01*
X101622171Y-97629400D01*
X101574552Y-97677019D01*
X101479314Y-97819876D01*
X101431695Y-98010352D01*
X101431695Y-98391305D01*
X101479314Y-98486543D01*
X101526933Y-98534162D01*
X101622171Y-98581781D01*
X101812648Y-98581781D01*
X101907886Y-98534162D01*
X101955505Y-98486543D01*
X102003124Y-98391305D01*
X102003124Y-98153210D01*
X101955505Y-98057971D01*
X101907886Y-98010352D01*
X101812648Y-97962733D01*
X101622171Y-97962733D01*
X101526933Y-98010352D01*
X101479314Y-98057971D01*
X101431695Y-98153210D01*
X79655295Y-120854381D02*
X79655295Y-121663905D01*
X79702914Y-121759143D01*
X79750533Y-121806762D01*
X79845771Y-121854381D01*
X80036248Y-121854381D01*
X80131486Y-121806762D01*
X80179105Y-121759143D01*
X80226724Y-121663905D01*
X80226724Y-120854381D01*
X80607676Y-120854381D02*
X81274343Y-120854381D01*
X80845771Y-121854381D01*
X64275881Y-129716905D02*
X65085405Y-129716905D01*
X65180643Y-129669286D01*
X65228262Y-129621667D01*
X65275881Y-129526429D01*
X65275881Y-129335952D01*
X65228262Y-129240714D01*
X65180643Y-129193095D01*
X65085405Y-129145476D01*
X64275881Y-129145476D01*
X64704452Y-128526429D02*
X64656833Y-128621667D01*
X64609214Y-128669286D01*
X64513976Y-128716905D01*
X64466357Y-128716905D01*
X64371119Y-128669286D01*
X64323500Y-128621667D01*
X64275881Y-128526429D01*
X64275881Y-128335952D01*
X64323500Y-128240714D01*
X64371119Y-128193095D01*
X64466357Y-128145476D01*
X64513976Y-128145476D01*
X64609214Y-128193095D01*
X64656833Y-128240714D01*
X64704452Y-128335952D01*
X64704452Y-128526429D01*
X64752071Y-128621667D01*
X64799690Y-128669286D01*
X64894929Y-128716905D01*
X65085405Y-128716905D01*
X65180643Y-128669286D01*
X65228262Y-128621667D01*
X65275881Y-128526429D01*
X65275881Y-128335952D01*
X65228262Y-128240714D01*
X65180643Y-128193095D01*
X65085405Y-128145476D01*
X64894929Y-128145476D01*
X64799690Y-128193095D01*
X64752071Y-128240714D01*
X64704452Y-128335952D01*
X70784405Y-135903881D02*
X70784405Y-136713405D01*
X70832024Y-136808643D01*
X70879643Y-136856262D01*
X70974881Y-136903881D01*
X71165358Y-136903881D01*
X71260596Y-136856262D01*
X71308215Y-136808643D01*
X71355834Y-136713405D01*
X71355834Y-135903881D01*
X72355834Y-136903881D02*
X71784405Y-136903881D01*
X72070119Y-136903881D02*
X72070119Y-135903881D01*
X71974881Y-136046738D01*
X71879643Y-136141976D01*
X71784405Y-136189595D01*
X72974881Y-135903881D02*
X73070120Y-135903881D01*
X73165358Y-135951500D01*
X73212977Y-135999119D01*
X73260596Y-136094357D01*
X73308215Y-136284833D01*
X73308215Y-136522929D01*
X73260596Y-136713405D01*
X73212977Y-136808643D01*
X73165358Y-136856262D01*
X73070120Y-136903881D01*
X72974881Y-136903881D01*
X72879643Y-136856262D01*
X72832024Y-136808643D01*
X72784405Y-136713405D01*
X72736786Y-136522929D01*
X72736786Y-136284833D01*
X72784405Y-136094357D01*
X72832024Y-135999119D01*
X72879643Y-135951500D01*
X72974881Y-135903881D01*
X89414505Y-125128481D02*
X89414505Y-125938005D01*
X89462124Y-126033243D01*
X89509743Y-126080862D01*
X89604981Y-126128481D01*
X89795458Y-126128481D01*
X89890696Y-126080862D01*
X89938315Y-126033243D01*
X89985934Y-125938005D01*
X89985934Y-125128481D01*
X90985934Y-126128481D02*
X90414505Y-126128481D01*
X90700219Y-126128481D02*
X90700219Y-125128481D01*
X90604981Y-125271338D01*
X90509743Y-125366576D01*
X90414505Y-125414195D01*
X91938315Y-126128481D02*
X91366886Y-126128481D01*
X91652600Y-126128481D02*
X91652600Y-125128481D01*
X91557362Y-125271338D01*
X91462124Y-125366576D01*
X91366886Y-125414195D01*
X82277905Y-136221381D02*
X82277905Y-137030905D01*
X82325524Y-137126143D01*
X82373143Y-137173762D01*
X82468381Y-137221381D01*
X82658858Y-137221381D01*
X82754096Y-137173762D01*
X82801715Y-137126143D01*
X82849334Y-137030905D01*
X82849334Y-136221381D01*
X83849334Y-137221381D02*
X83277905Y-137221381D01*
X83563619Y-137221381D02*
X83563619Y-136221381D01*
X83468381Y-136364238D01*
X83373143Y-136459476D01*
X83277905Y-136507095D01*
X84230286Y-136316619D02*
X84277905Y-136269000D01*
X84373143Y-136221381D01*
X84611239Y-136221381D01*
X84706477Y-136269000D01*
X84754096Y-136316619D01*
X84801715Y-136411857D01*
X84801715Y-136507095D01*
X84754096Y-136649952D01*
X84182667Y-137221381D01*
X84801715Y-137221381D01*
X81244191Y-132968845D02*
X82053715Y-132968845D01*
X82148953Y-132921226D01*
X82196572Y-132873607D01*
X82244191Y-132778369D01*
X82244191Y-132587892D01*
X82196572Y-132492654D01*
X82148953Y-132445035D01*
X82053715Y-132397416D01*
X81244191Y-132397416D01*
X82244191Y-131397416D02*
X82244191Y-131968845D01*
X82244191Y-131683131D02*
X81244191Y-131683131D01*
X81387048Y-131778369D01*
X81482286Y-131873607D01*
X81529905Y-131968845D01*
X81244191Y-131064083D02*
X81244191Y-130445035D01*
X81625143Y-130778369D01*
X81625143Y-130635511D01*
X81672762Y-130540273D01*
X81720381Y-130492654D01*
X81815620Y-130445035D01*
X82053715Y-130445035D01*
X82148953Y-130492654D01*
X82196572Y-130540273D01*
X82244191Y-130635511D01*
X82244191Y-130921226D01*
X82196572Y-131016464D01*
X82148953Y-131064083D01*
X91898155Y-128887131D02*
X91898155Y-129696655D01*
X91945774Y-129791893D01*
X91993393Y-129839512D01*
X92088631Y-129887131D01*
X92279108Y-129887131D01*
X92374346Y-129839512D01*
X92421965Y-129791893D01*
X92469584Y-129696655D01*
X92469584Y-128887131D01*
X93469584Y-129887131D02*
X92898155Y-129887131D01*
X93183869Y-129887131D02*
X93183869Y-128887131D01*
X93088631Y-129029988D01*
X92993393Y-129125226D01*
X92898155Y-129172845D01*
X94374346Y-128887131D02*
X93898155Y-128887131D01*
X93850536Y-129363321D01*
X93898155Y-129315702D01*
X93993393Y-129268083D01*
X94231489Y-129268083D01*
X94326727Y-129315702D01*
X94374346Y-129363321D01*
X94421965Y-129458560D01*
X94421965Y-129696655D01*
X94374346Y-129791893D01*
X94326727Y-129839512D01*
X94231489Y-129887131D01*
X93993393Y-129887131D01*
X93898155Y-129839512D01*
X93850536Y-129791893D01*
X94533405Y-136665881D02*
X94533405Y-137475405D01*
X94581024Y-137570643D01*
X94628643Y-137618262D01*
X94723881Y-137665881D01*
X94914358Y-137665881D01*
X95009596Y-137618262D01*
X95057215Y-137570643D01*
X95104834Y-137475405D01*
X95104834Y-136665881D01*
X96104834Y-137665881D02*
X95533405Y-137665881D01*
X95819119Y-137665881D02*
X95819119Y-136665881D01*
X95723881Y-136808738D01*
X95628643Y-136903976D01*
X95533405Y-136951595D01*
X96961977Y-136665881D02*
X96771500Y-136665881D01*
X96676262Y-136713500D01*
X96628643Y-136761119D01*
X96533405Y-136903976D01*
X96485786Y-137094452D01*
X96485786Y-137475405D01*
X96533405Y-137570643D01*
X96581024Y-137618262D01*
X96676262Y-137665881D01*
X96866739Y-137665881D01*
X96961977Y-137618262D01*
X97009596Y-137570643D01*
X97057215Y-137475405D01*
X97057215Y-137237310D01*
X97009596Y-137142071D01*
X96961977Y-137094452D01*
X96866739Y-137046833D01*
X96676262Y-137046833D01*
X96581024Y-137094452D01*
X96533405Y-137142071D01*
X96485786Y-137237310D01*
X39503409Y-99369190D02*
X39503409Y-99845381D01*
X39170076Y-98845381D02*
X39503409Y-99369190D01*
X39836743Y-98845381D01*
X40693886Y-99845381D02*
X40122457Y-99845381D01*
X40408171Y-99845381D02*
X40408171Y-98845381D01*
X40312933Y-98988238D01*
X40217695Y-99083476D01*
X40122457Y-99131095D01*
X39658610Y-96993651D02*
X40134801Y-96993651D01*
X39134801Y-97326984D02*
X39658610Y-96993651D01*
X39134801Y-96660317D01*
X39230039Y-96374603D02*
X39182420Y-96326984D01*
X39134801Y-96231746D01*
X39134801Y-95993650D01*
X39182420Y-95898412D01*
X39230039Y-95850793D01*
X39325277Y-95803174D01*
X39420515Y-95803174D01*
X39563372Y-95850793D01*
X40134801Y-96422222D01*
X40134801Y-95803174D01*
X51305581Y-110286705D02*
X52115105Y-110286705D01*
X52210343Y-110239086D01*
X52257962Y-110191467D01*
X52305581Y-110096229D01*
X52305581Y-109905752D01*
X52257962Y-109810514D01*
X52210343Y-109762895D01*
X52115105Y-109715276D01*
X51305581Y-109715276D01*
X51400819Y-109286705D02*
X51353200Y-109239086D01*
X51305581Y-109143848D01*
X51305581Y-108905752D01*
X51353200Y-108810514D01*
X51400819Y-108762895D01*
X51496057Y-108715276D01*
X51591295Y-108715276D01*
X51734152Y-108762895D01*
X52305581Y-109334324D01*
X52305581Y-108715276D01*
X101056781Y-100776066D02*
X100580590Y-101109400D01*
X101056781Y-101347495D02*
X100056781Y-101347495D01*
X100056781Y-100966542D01*
X100104400Y-100871304D01*
X100152019Y-100823685D01*
X100247257Y-100776066D01*
X100390114Y-100776066D01*
X100485352Y-100823685D01*
X100532971Y-100871304D01*
X100580590Y-100966542D01*
X100580590Y-101347495D01*
X100056781Y-99871304D02*
X100056781Y-100347495D01*
X100532971Y-100395114D01*
X100485352Y-100347495D01*
X100437733Y-100252257D01*
X100437733Y-100014161D01*
X100485352Y-99918923D01*
X100532971Y-99871304D01*
X100628210Y-99823685D01*
X100866305Y-99823685D01*
X100961543Y-99871304D01*
X101009162Y-99918923D01*
X101056781Y-100014161D01*
X101056781Y-100252257D01*
X101009162Y-100347495D01*
X100961543Y-100395114D01*
X26098667Y-138120381D02*
X25765333Y-137644190D01*
X25527238Y-138120381D02*
X25527238Y-137120381D01*
X25908191Y-137120381D01*
X26003429Y-137168000D01*
X26051048Y-137215619D01*
X26098667Y-137310857D01*
X26098667Y-137453714D01*
X26051048Y-137548952D01*
X26003429Y-137596571D01*
X25908191Y-137644190D01*
X25527238Y-137644190D01*
X26527238Y-137596571D02*
X26860572Y-137596571D01*
X27003429Y-138120381D02*
X26527238Y-138120381D01*
X26527238Y-137120381D01*
X27003429Y-137120381D01*
X27765334Y-137596571D02*
X27432000Y-137596571D01*
X27432000Y-138120381D02*
X27432000Y-137120381D01*
X27908191Y-137120381D01*
X28432000Y-137120381D02*
X28432000Y-137358476D01*
X28193905Y-137263238D02*
X28432000Y-137358476D01*
X28670096Y-137263238D01*
X28289143Y-137548952D02*
X28432000Y-137358476D01*
X28574858Y-137548952D01*
X29193905Y-137120381D02*
X29193905Y-137358476D01*
X28955810Y-137263238D02*
X29193905Y-137358476D01*
X29432001Y-137263238D01*
X29051048Y-137548952D02*
X29193905Y-137358476D01*
X29336763Y-137548952D01*
X66734441Y-135508905D02*
X67543965Y-135508905D01*
X67639203Y-135461286D01*
X67686822Y-135413667D01*
X67734441Y-135318429D01*
X67734441Y-135127952D01*
X67686822Y-135032714D01*
X67639203Y-134985095D01*
X67543965Y-134937476D01*
X66734441Y-134937476D01*
X67734441Y-134413667D02*
X67734441Y-134223191D01*
X67686822Y-134127952D01*
X67639203Y-134080333D01*
X67496346Y-133985095D01*
X67305870Y-133937476D01*
X66924917Y-133937476D01*
X66829679Y-133985095D01*
X66782060Y-134032714D01*
X66734441Y-134127952D01*
X66734441Y-134318429D01*
X66782060Y-134413667D01*
X66829679Y-134461286D01*
X66924917Y-134508905D01*
X67163012Y-134508905D01*
X67258250Y-134461286D01*
X67305870Y-134413667D01*
X67353489Y-134318429D01*
X67353489Y-134127952D01*
X67305870Y-134032714D01*
X67258250Y-133985095D01*
X67163012Y-133937476D01*
X71874143Y-134597381D02*
X71540809Y-134121190D01*
X71302714Y-134597381D02*
X71302714Y-133597381D01*
X71683667Y-133597381D01*
X71778905Y-133645000D01*
X71826524Y-133692619D01*
X71874143Y-133787857D01*
X71874143Y-133930714D01*
X71826524Y-134025952D01*
X71778905Y-134073571D01*
X71683667Y-134121190D01*
X71302714Y-134121190D01*
X72826524Y-134597381D02*
X72255095Y-134597381D01*
X72540809Y-134597381D02*
X72540809Y-133597381D01*
X72445571Y-133740238D01*
X72350333Y-133835476D01*
X72255095Y-133883095D01*
X73159857Y-133597381D02*
X73826524Y-133597381D01*
X73397952Y-134597381D01*
X79773543Y-125565181D02*
X79440209Y-125088990D01*
X79202114Y-125565181D02*
X79202114Y-124565181D01*
X79583067Y-124565181D01*
X79678305Y-124612800D01*
X79725924Y-124660419D01*
X79773543Y-124755657D01*
X79773543Y-124898514D01*
X79725924Y-124993752D01*
X79678305Y-125041371D01*
X79583067Y-125088990D01*
X79202114Y-125088990D01*
X80154495Y-124660419D02*
X80202114Y-124612800D01*
X80297352Y-124565181D01*
X80535448Y-124565181D01*
X80630686Y-124612800D01*
X80678305Y-124660419D01*
X80725924Y-124755657D01*
X80725924Y-124850895D01*
X80678305Y-124993752D01*
X80106876Y-125565181D01*
X80725924Y-125565181D01*
X81583067Y-124898514D02*
X81583067Y-125565181D01*
X81344971Y-124517562D02*
X81106876Y-125231848D01*
X81725924Y-125231848D01*
X102138314Y-128950661D02*
X102138314Y-127950661D01*
X102519267Y-127950661D01*
X102614505Y-127998280D01*
X102662124Y-128045899D01*
X102709743Y-128141137D01*
X102709743Y-128283994D01*
X102662124Y-128379232D01*
X102614505Y-128426851D01*
X102519267Y-128474470D01*
X102138314Y-128474470D01*
X103662124Y-128950661D02*
X103090695Y-128950661D01*
X103376409Y-128950661D02*
X103376409Y-127950661D01*
X103281171Y-128093518D01*
X103185933Y-128188756D01*
X103090695Y-128236375D01*
X104281171Y-127950661D02*
X104376410Y-127950661D01*
X104471648Y-127998280D01*
X104519267Y-128045899D01*
X104566886Y-128141137D01*
X104614505Y-128331613D01*
X104614505Y-128569709D01*
X104566886Y-128760185D01*
X104519267Y-128855423D01*
X104471648Y-128903042D01*
X104376410Y-128950661D01*
X104281171Y-128950661D01*
X104185933Y-128903042D01*
X104138314Y-128855423D01*
X104090695Y-128760185D01*
X104043076Y-128569709D01*
X104043076Y-128331613D01*
X104090695Y-128141137D01*
X104138314Y-128045899D01*
X104185933Y-127998280D01*
X104281171Y-127950661D01*
X75199581Y-127287257D02*
X74723390Y-127620591D01*
X75199581Y-127858686D02*
X74199581Y-127858686D01*
X74199581Y-127477733D01*
X74247200Y-127382495D01*
X74294819Y-127334876D01*
X74390057Y-127287257D01*
X74532914Y-127287257D01*
X74628152Y-127334876D01*
X74675771Y-127382495D01*
X74723390Y-127477733D01*
X74723390Y-127858686D01*
X75199581Y-126334876D02*
X75199581Y-126906305D01*
X75199581Y-126620591D02*
X74199581Y-126620591D01*
X74342438Y-126715829D01*
X74437676Y-126811067D01*
X74485295Y-126906305D01*
X74199581Y-126001543D02*
X74199581Y-125382495D01*
X74580533Y-125715829D01*
X74580533Y-125572971D01*
X74628152Y-125477733D01*
X74675771Y-125430114D01*
X74771010Y-125382495D01*
X75009105Y-125382495D01*
X75104343Y-125430114D01*
X75151962Y-125477733D01*
X75199581Y-125572971D01*
X75199581Y-125858686D01*
X75151962Y-125953924D01*
X75104343Y-126001543D01*
X22428781Y-136748686D02*
X21428781Y-136748686D01*
X21428781Y-136367733D01*
X21476400Y-136272495D01*
X21524019Y-136224876D01*
X21619257Y-136177257D01*
X21762114Y-136177257D01*
X21857352Y-136224876D01*
X21904971Y-136272495D01*
X21952590Y-136367733D01*
X21952590Y-136748686D01*
X22428781Y-135224876D02*
X22428781Y-135796305D01*
X22428781Y-135510591D02*
X21428781Y-135510591D01*
X21571638Y-135605829D01*
X21666876Y-135701067D01*
X21714495Y-135796305D01*
X21428781Y-134891543D02*
X21428781Y-134272495D01*
X21809733Y-134605829D01*
X21809733Y-134462971D01*
X21857352Y-134367733D01*
X21904971Y-134320114D01*
X22000210Y-134272495D01*
X22238305Y-134272495D01*
X22333543Y-134320114D01*
X22381162Y-134367733D01*
X22428781Y-134462971D01*
X22428781Y-134748686D01*
X22381162Y-134843924D01*
X22333543Y-134891543D01*
D19*
X60889969Y-131071257D02*
X62123683Y-131071257D01*
X62268826Y-130998685D01*
X62341397Y-130926114D01*
X62413969Y-130780971D01*
X62413969Y-130490685D01*
X62341397Y-130345543D01*
X62268826Y-130272971D01*
X62123683Y-130200400D01*
X60889969Y-130200400D01*
X62413969Y-128676400D02*
X62413969Y-129547257D01*
X62413969Y-129111829D02*
X60889969Y-129111829D01*
X61107683Y-129256972D01*
X61252826Y-129402114D01*
X61325397Y-129547257D01*
X60889969Y-128168400D02*
X60889969Y-127152400D01*
X62413969Y-127805543D01*
X43214109Y-133502400D02*
X42198109Y-133502400D01*
X42343251Y-133502400D02*
X42270680Y-133429828D01*
X42198109Y-133284686D01*
X42198109Y-133066971D01*
X42270680Y-132921828D01*
X42415823Y-132849257D01*
X43214109Y-132849257D01*
X42415823Y-132849257D02*
X42270680Y-132776686D01*
X42198109Y-132631543D01*
X42198109Y-132413828D01*
X42270680Y-132268686D01*
X42415823Y-132196114D01*
X43214109Y-132196114D01*
X43214109Y-131470400D02*
X42198109Y-131470400D01*
X41690109Y-131470400D02*
X41762680Y-131542971D01*
X41835251Y-131470400D01*
X41762680Y-131397828D01*
X41690109Y-131470400D01*
X41835251Y-131470400D01*
X43141537Y-130091543D02*
X43214109Y-130236686D01*
X43214109Y-130526972D01*
X43141537Y-130672114D01*
X43068966Y-130744686D01*
X42923823Y-130817257D01*
X42488394Y-130817257D01*
X42343251Y-130744686D01*
X42270680Y-130672114D01*
X42198109Y-130526972D01*
X42198109Y-130236686D01*
X42270680Y-130091543D01*
X43214109Y-129438400D02*
X42198109Y-129438400D01*
X42488394Y-129438400D02*
X42343251Y-129365828D01*
X42270680Y-129293257D01*
X42198109Y-129148114D01*
X42198109Y-129002971D01*
X43214109Y-128277257D02*
X43141537Y-128422399D01*
X43068966Y-128494971D01*
X42923823Y-128567542D01*
X42488394Y-128567542D01*
X42343251Y-128494971D01*
X42270680Y-128422399D01*
X42198109Y-128277257D01*
X42198109Y-128059542D01*
X42270680Y-127914399D01*
X42343251Y-127841828D01*
X42488394Y-127769257D01*
X42923823Y-127769257D01*
X43068966Y-127841828D01*
X43141537Y-127914399D01*
X43214109Y-128059542D01*
X43214109Y-128277257D01*
X43141537Y-127188685D02*
X43214109Y-126970971D01*
X43214109Y-126608114D01*
X43141537Y-126462971D01*
X43068966Y-126390400D01*
X42923823Y-126317828D01*
X42778680Y-126317828D01*
X42633537Y-126390400D01*
X42560966Y-126462971D01*
X42488394Y-126608114D01*
X42415823Y-126898400D01*
X42343251Y-127043542D01*
X42270680Y-127116114D01*
X42125537Y-127188685D01*
X41980394Y-127188685D01*
X41835251Y-127116114D01*
X41762680Y-127043542D01*
X41690109Y-126898400D01*
X41690109Y-126535542D01*
X41762680Y-126317828D01*
X43214109Y-125664685D02*
X41690109Y-125664685D01*
X41690109Y-125301828D01*
X41762680Y-125084113D01*
X41907823Y-124938971D01*
X42052966Y-124866399D01*
X42343251Y-124793828D01*
X42560966Y-124793828D01*
X42851251Y-124866399D01*
X42996394Y-124938971D01*
X43141537Y-125084113D01*
X43214109Y-125301828D01*
X43214109Y-125664685D01*
D11*
X100038481Y-111609095D02*
X99038481Y-111609095D01*
X99038481Y-111228142D01*
X99086100Y-111132904D01*
X99133719Y-111085285D01*
X99228957Y-111037666D01*
X99371814Y-111037666D01*
X99467052Y-111085285D01*
X99514671Y-111132904D01*
X99562290Y-111228142D01*
X99562290Y-111609095D01*
X99371814Y-110180523D02*
X100038481Y-110180523D01*
X98990862Y-110418619D02*
X99705148Y-110656714D01*
X99705148Y-110037666D01*
X96632805Y-122735281D02*
X96632805Y-121735281D01*
X97013758Y-121735281D01*
X97108996Y-121782900D01*
X97156615Y-121830519D01*
X97204234Y-121925757D01*
X97204234Y-122068614D01*
X97156615Y-122163852D01*
X97108996Y-122211471D01*
X97013758Y-122259090D01*
X96632805Y-122259090D01*
X98061377Y-121735281D02*
X97870900Y-121735281D01*
X97775662Y-121782900D01*
X97728043Y-121830519D01*
X97632805Y-121973376D01*
X97585186Y-122163852D01*
X97585186Y-122544805D01*
X97632805Y-122640043D01*
X97680424Y-122687662D01*
X97775662Y-122735281D01*
X97966139Y-122735281D01*
X98061377Y-122687662D01*
X98108996Y-122640043D01*
X98156615Y-122544805D01*
X98156615Y-122306710D01*
X98108996Y-122211471D01*
X98061377Y-122163852D01*
X97966139Y-122116233D01*
X97775662Y-122116233D01*
X97680424Y-122163852D01*
X97632805Y-122211471D01*
X97585186Y-122306710D01*
X93184743Y-108442343D02*
X93137124Y-108489962D01*
X92994267Y-108537581D01*
X92899029Y-108537581D01*
X92756171Y-108489962D01*
X92660933Y-108394724D01*
X92613314Y-108299486D01*
X92565695Y-108109010D01*
X92565695Y-107966152D01*
X92613314Y-107775676D01*
X92660933Y-107680438D01*
X92756171Y-107585200D01*
X92899029Y-107537581D01*
X92994267Y-107537581D01*
X93137124Y-107585200D01*
X93184743Y-107632819D01*
X94137124Y-108537581D02*
X93565695Y-108537581D01*
X93851409Y-108537581D02*
X93851409Y-107537581D01*
X93756171Y-107680438D01*
X93660933Y-107775676D01*
X93565695Y-107823295D01*
X94613314Y-108537581D02*
X94803790Y-108537581D01*
X94899029Y-108489962D01*
X94946648Y-108442343D01*
X95041886Y-108299486D01*
X95089505Y-108109010D01*
X95089505Y-107728057D01*
X95041886Y-107632819D01*
X94994267Y-107585200D01*
X94899029Y-107537581D01*
X94708552Y-107537581D01*
X94613314Y-107585200D01*
X94565695Y-107632819D01*
X94518076Y-107728057D01*
X94518076Y-107966152D01*
X94565695Y-108061390D01*
X94613314Y-108109010D01*
X94708552Y-108156629D01*
X94899029Y-108156629D01*
X94994267Y-108109010D01*
X95041886Y-108061390D01*
X95089505Y-107966152D01*
%LPC*%
D20*
X52349400Y-101396800D03*
D21*
X53873400Y-101396800D03*
D22*
X56769000Y-140525500D03*
D23*
X59309000Y-140525500D03*
X61849000Y-140525500D03*
D24*
X84517250Y-131095750D03*
X84517250Y-131730750D03*
X84517250Y-132365750D03*
X84517250Y-133000750D03*
X89917250Y-133000750D03*
X89917250Y-132365750D03*
X89917250Y-131730750D03*
X89917250Y-131095750D03*
D25*
X99695000Y-131508500D03*
D26*
X97195000Y-131508500D03*
D27*
X112204500Y-140652500D03*
X112204500Y-96075500D03*
X27432000Y-96012000D03*
D28*
X85456700Y-109215800D03*
D29*
X78856700Y-95765800D03*
X78856700Y-97085800D03*
X78856700Y-98355800D03*
X78856700Y-99625800D03*
X78856700Y-100895800D03*
X78856700Y-102165800D03*
X78856700Y-103435800D03*
X78856700Y-104705800D03*
X78856700Y-105975800D03*
X78856700Y-107245800D03*
X78856700Y-108515800D03*
X91856700Y-108515800D03*
X91856700Y-107245800D03*
X91856700Y-105975800D03*
X91856700Y-104705800D03*
X91856700Y-103435800D03*
X91856700Y-102165800D03*
X91856700Y-100895800D03*
X91856700Y-99625800D03*
X91856700Y-98355800D03*
X91856700Y-97085800D03*
X91856700Y-95815800D03*
D28*
X85356700Y-95115800D03*
D30*
X27146000Y-103538000D03*
D31*
X27146000Y-106078000D03*
X27146000Y-108618000D03*
X27146000Y-111158000D03*
X27146000Y-113698000D03*
X27146000Y-116238000D03*
X27146000Y-118778000D03*
X27146000Y-121318000D03*
X27146000Y-123858000D03*
D32*
X50695100Y-118579900D03*
X48695100Y-118579900D03*
D33*
X70185280Y-120069520D03*
X70185280Y-121169520D03*
X52019200Y-114900800D03*
X52019200Y-113800800D03*
D34*
X53962300Y-103635300D03*
X53962300Y-105635300D03*
D35*
X49521200Y-116890800D03*
X48421200Y-116890800D03*
D33*
X51968400Y-104707600D03*
X51968400Y-105807600D03*
X37439600Y-114342000D03*
X37439600Y-113242000D03*
D35*
X41156800Y-100990400D03*
X42256800Y-100990400D03*
D33*
X36372800Y-106315600D03*
X36372800Y-105215600D03*
X82232500Y-117072500D03*
X82232500Y-115972500D03*
X53771800Y-97755800D03*
X53771800Y-96655800D03*
D34*
X45059600Y-95215200D03*
X45059600Y-97215200D03*
X35001200Y-97977200D03*
X35001200Y-95977200D03*
X34645600Y-111928400D03*
X34645600Y-113928400D03*
D32*
X48441100Y-98831400D03*
X50441100Y-98831400D03*
X49888900Y-96672400D03*
X51888900Y-96672400D03*
D34*
X61137800Y-108708700D03*
X61137800Y-106708700D03*
D33*
X94551500Y-105464700D03*
X94551500Y-104364700D03*
D32*
X67700400Y-104533700D03*
X65700400Y-104533700D03*
D33*
X94462600Y-108525400D03*
X94462600Y-107425400D03*
D34*
X69557900Y-104333800D03*
X69557900Y-106333800D03*
D35*
X68080800Y-110731300D03*
X69180800Y-110731300D03*
X81555500Y-121158000D03*
X82655500Y-121158000D03*
D33*
X102108000Y-130412400D03*
X102108000Y-131512400D03*
D34*
X75882500Y-139589000D03*
X75882500Y-141589000D03*
X101549200Y-126254000D03*
X101549200Y-128254000D03*
D25*
X109169200Y-123647200D03*
D26*
X109169200Y-126147200D03*
D34*
X87439500Y-139525500D03*
X87439500Y-141525500D03*
D25*
X111823500Y-132905500D03*
D26*
X111823500Y-135405500D03*
D34*
X92392500Y-139747500D03*
X92392500Y-137747500D03*
D32*
X100123500Y-135699500D03*
X98123500Y-135699500D03*
D34*
X109220000Y-130013200D03*
X109220000Y-132013200D03*
D36*
X77284580Y-135826500D03*
X81084420Y-135826500D03*
X107246420Y-137350500D03*
X103446580Y-137350500D03*
D22*
X52832000Y-140462000D03*
D23*
X50292000Y-140462000D03*
X47752000Y-140462000D03*
D22*
X43942000Y-140208000D03*
D23*
X41402000Y-140208000D03*
X38862000Y-140208000D03*
X36322000Y-140208000D03*
X33782000Y-140208000D03*
D37*
X104673400Y-114642900D03*
D38*
X107213400Y-114642900D03*
D20*
X101015800Y-117182900D03*
D21*
X101015800Y-114642900D03*
X101015800Y-112102900D03*
X101015800Y-109562900D03*
D37*
X112344200Y-105829100D03*
D38*
X112344200Y-108369100D03*
D39*
X97091500Y-120840500D03*
D40*
X99631500Y-120840500D03*
X97091500Y-123380500D03*
X99631500Y-123380500D03*
D41*
X71943000Y-133873240D03*
X70043000Y-133873240D03*
X70993000Y-135872220D03*
X86273640Y-127929600D03*
X86273640Y-129829600D03*
X88272620Y-128879600D03*
X99392740Y-138813500D03*
X99392740Y-140713500D03*
X101391720Y-139763500D03*
D42*
X104648000Y-106946000D03*
X104648000Y-108446000D03*
X107251500Y-106946000D03*
X107251500Y-108446000D03*
D43*
X73947720Y-121975880D03*
X72447720Y-121975880D03*
X71285800Y-123819920D03*
X69785800Y-123819920D03*
X106190480Y-117454680D03*
X104690480Y-117454680D03*
D42*
X107886500Y-118542500D03*
X107886500Y-117042500D03*
X76047600Y-122897200D03*
X76047600Y-124397200D03*
X70866000Y-127520000D03*
X70866000Y-129020000D03*
D43*
X64147000Y-132524500D03*
X65647000Y-132524500D03*
D42*
X64566800Y-128942400D03*
X64566800Y-130442400D03*
X64008000Y-136513000D03*
X64008000Y-135013000D03*
X78295500Y-139966000D03*
X78295500Y-141466000D03*
D44*
X80327500Y-141412000D03*
X80327500Y-139512000D03*
D42*
X87096600Y-125121100D03*
X87096600Y-123621100D03*
X99669600Y-126300800D03*
X99669600Y-127800800D03*
X76250800Y-127672400D03*
X76250800Y-129172400D03*
D43*
X74738800Y-126187200D03*
X76238800Y-126187200D03*
D42*
X94335600Y-129832800D03*
X94335600Y-128332800D03*
D45*
X54178300Y-99443100D03*
X54178300Y-94943100D03*
X62128300Y-94943100D03*
X62128300Y-99443100D03*
D46*
X67894200Y-120015000D03*
X67894200Y-121285000D03*
X67894200Y-122555000D03*
X67894200Y-123825000D03*
X61544200Y-123825000D03*
X61544200Y-122555000D03*
X61544200Y-121285000D03*
X61544200Y-120015000D03*
D47*
X92989400Y-113974900D03*
X91719400Y-113974900D03*
X90449400Y-113974900D03*
X89179400Y-113974900D03*
X87909400Y-113974900D03*
X86639400Y-113974900D03*
X85369400Y-113974900D03*
X84099400Y-113974900D03*
X84099400Y-119374900D03*
X85369400Y-119374900D03*
X86639400Y-119374900D03*
X87909400Y-119374900D03*
X89179400Y-119374900D03*
X90449400Y-119374900D03*
X91719400Y-119374900D03*
X92989400Y-119374900D03*
D48*
X64793600Y-106962700D03*
X64793600Y-107462700D03*
X64793600Y-107962700D03*
X64793600Y-108462700D03*
X64793600Y-108962700D03*
D49*
X65768600Y-109437700D03*
X66268600Y-109437700D03*
X66768600Y-109437700D03*
D48*
X67743600Y-108962700D03*
X67743600Y-108462700D03*
X67743600Y-107962700D03*
X67743600Y-107462700D03*
X67743600Y-106962700D03*
D49*
X66768600Y-106487700D03*
X66268600Y-106487700D03*
X65768600Y-106487700D03*
D50*
X98693600Y-95529400D03*
X96893600Y-95529400D03*
X103693600Y-95529400D03*
X105693600Y-95529400D03*
D51*
X79367200Y-123002000D03*
X79367200Y-123952000D03*
X79367200Y-124902000D03*
X81567200Y-124902000D03*
X81567200Y-123002000D03*
D52*
X66423500Y-130005000D03*
X67373500Y-130005000D03*
X68323500Y-130005000D03*
X68323500Y-127805000D03*
X66423500Y-127805000D03*
D51*
X70972500Y-138051500D03*
X70972500Y-139001500D03*
X70972500Y-139951500D03*
X73172500Y-139951500D03*
X73172500Y-138051500D03*
D53*
X92202600Y-124101100D03*
X92202600Y-123601100D03*
X92202600Y-123101100D03*
X92202600Y-122601100D03*
X92202600Y-122101100D03*
X89102600Y-122101100D03*
X89102600Y-122601100D03*
X89102600Y-123101100D03*
X89102600Y-123601100D03*
X89102600Y-124101100D03*
D54*
X90265100Y-122481100D03*
X90265100Y-123721100D03*
X91040100Y-122481100D03*
X91040100Y-123721100D03*
D51*
X82466000Y-138369000D03*
X82466000Y-139319000D03*
X82466000Y-140269000D03*
X84666000Y-140269000D03*
X84666000Y-138369000D03*
D55*
X80676750Y-131095750D03*
X80676750Y-132365750D03*
X82708750Y-131095750D03*
X80676750Y-131730750D03*
X82708750Y-132365750D03*
D51*
X92086250Y-131034750D03*
X92086250Y-131984750D03*
X92086250Y-132934750D03*
X94286250Y-132934750D03*
X94286250Y-131034750D03*
X94721500Y-138813500D03*
X94721500Y-139763500D03*
X94721500Y-140713500D03*
X96921500Y-140713500D03*
X96921500Y-138813500D03*
D56*
X41979600Y-95193000D03*
X37979600Y-95193000D03*
X37979600Y-97593000D03*
X41979600Y-97593000D03*
D57*
X48082200Y-97066100D03*
X48082200Y-95567500D03*
D58*
X48403200Y-103824800D03*
X47903200Y-103824800D03*
X47403200Y-103824800D03*
X46903200Y-103824800D03*
X46403200Y-103824800D03*
X45903200Y-103824800D03*
X45403200Y-103824800D03*
X44903200Y-103824800D03*
X44403200Y-103824800D03*
X43903200Y-103824800D03*
X43403200Y-103824800D03*
X42903200Y-103824800D03*
X42403200Y-103824800D03*
X41903200Y-103824800D03*
X41403200Y-103824800D03*
X40903200Y-103824800D03*
D59*
X38953200Y-105774800D03*
X38953200Y-106274800D03*
X38953200Y-106774800D03*
X38953200Y-107274800D03*
X38953200Y-107774800D03*
X38953200Y-108274800D03*
X38953200Y-108774800D03*
X38953200Y-109274800D03*
X38953200Y-109774800D03*
X38953200Y-110274800D03*
X38953200Y-110774800D03*
X38953200Y-111274800D03*
X38953200Y-111774800D03*
X38953200Y-112274800D03*
X38953200Y-112774800D03*
X38953200Y-113274800D03*
D58*
X40903200Y-115224800D03*
X41403200Y-115224800D03*
X41903200Y-115224800D03*
X42403200Y-115224800D03*
X42903200Y-115224800D03*
X43403200Y-115224800D03*
X43903200Y-115224800D03*
X44403200Y-115224800D03*
X44903200Y-115224800D03*
X45403200Y-115224800D03*
X45903200Y-115224800D03*
X46403200Y-115224800D03*
X46903200Y-115224800D03*
X47403200Y-115224800D03*
X47903200Y-115224800D03*
X48403200Y-115224800D03*
D59*
X50353200Y-113274800D03*
X50353200Y-112774800D03*
X50353200Y-112274800D03*
X50353200Y-111774800D03*
X50353200Y-111274800D03*
X50353200Y-110774800D03*
X50353200Y-110274800D03*
X50353200Y-109774800D03*
X50353200Y-109274800D03*
X50353200Y-108774800D03*
X50353200Y-108274800D03*
X50353200Y-107774800D03*
X50353200Y-107274800D03*
X50353200Y-106774800D03*
X50353200Y-106274800D03*
X50353200Y-105774800D03*
D25*
X66865500Y-137985500D03*
D26*
X66865500Y-140485500D03*
D42*
X98704400Y-99859400D03*
X98704400Y-101359400D03*
D27*
X27432000Y-140716000D03*
D55*
X66167000Y-134112000D03*
X66167000Y-135382000D03*
X68199000Y-134112000D03*
X66167000Y-134747000D03*
X68199000Y-135382000D03*
D60*
X74967000Y-131445000D03*
X70067000Y-131445000D03*
X77966400Y-127812800D03*
X82866400Y-127812800D03*
D37*
X103352600Y-123398280D03*
D38*
X103352600Y-120858280D03*
D39*
X104203500Y-129730500D03*
D40*
X104203500Y-132270500D03*
X106743500Y-129730500D03*
X106743500Y-132270500D03*
D42*
X72847200Y-125894400D03*
X72847200Y-127394400D03*
D37*
X27076400Y-135534400D03*
D38*
X29616400Y-135534400D03*
D10*
G36*
X47623120Y-132085740D02*
X50222760Y-132085740D01*
X50222760Y-133085180D01*
X47623120Y-133085180D01*
X47623120Y-132085740D01*
X47623120Y-132085740D01*
G37*
G36*
X47623120Y-130985920D02*
X50222760Y-130985920D01*
X50222760Y-131985360D01*
X47623120Y-131985360D01*
X47623120Y-130985920D01*
X47623120Y-130985920D01*
G37*
G36*
X47623120Y-129886100D02*
X50222760Y-129886100D01*
X50222760Y-130885540D01*
X47623120Y-130885540D01*
X47623120Y-129886100D01*
X47623120Y-129886100D01*
G37*
G36*
X47623120Y-128786280D02*
X50222760Y-128786280D01*
X50222760Y-129785720D01*
X47623120Y-129785720D01*
X47623120Y-128786280D01*
X47623120Y-128786280D01*
G37*
G36*
X47623120Y-127686460D02*
X50222760Y-127686460D01*
X50222760Y-128685900D01*
X47623120Y-128685900D01*
X47623120Y-127686460D01*
X47623120Y-127686460D01*
G37*
G36*
X47623120Y-126584100D02*
X50222760Y-126584100D01*
X50222760Y-127583540D01*
X47623120Y-127583540D01*
X47623120Y-126584100D01*
X47623120Y-126584100D01*
G37*
G36*
X47623120Y-125484280D02*
X50222760Y-125484280D01*
X50222760Y-126483720D01*
X47623120Y-126483720D01*
X47623120Y-125484280D01*
X47623120Y-125484280D01*
G37*
G36*
X47623120Y-124384460D02*
X50222760Y-124384460D01*
X50222760Y-125383900D01*
X47623120Y-125383900D01*
X47623120Y-124384460D01*
X47623120Y-124384460D01*
G37*
G36*
X57922820Y-122085760D02*
X59323580Y-122085760D01*
X59323580Y-124685400D01*
X57922820Y-124685400D01*
X57922820Y-122085760D01*
X57922820Y-122085760D01*
G37*
G36*
X58923580Y-134285380D02*
X61523220Y-134285380D01*
X61523220Y-135686140D01*
X58923580Y-135686140D01*
X58923580Y-134285380D01*
X58923580Y-134285380D01*
G37*
D37*
X104686100Y-110871000D03*
D38*
X107226100Y-110871000D03*
D20*
X97370900Y-117182900D03*
D21*
X97370900Y-114642900D03*
X97370900Y-112102900D03*
X97370900Y-109562900D03*
D32*
X92827600Y-110185200D03*
X94827600Y-110185200D03*
M02*
