G04 #@! TF.FileFunction,Soldermask,Bot*
%FSLAX46Y46*%
G04 Gerber Fmt 4.6, Leading zero omitted, Abs format (unit mm)*
G04 Created by KiCad (PCBNEW 4.0.2-stable) date 08/11/2016 15:47:43*
%MOMM*%
G01*
G04 APERTURE LIST*
%ADD10C,0.100000*%
%ADD11R,1.400000X1.400000*%
%ADD12C,1.400000*%
%ADD13R,2.127200X2.432000*%
%ADD14O,2.127200X2.432000*%
%ADD15R,1.700000X1.700000*%
%ADD16C,1.700000*%
%ADD17C,4.464000*%
%ADD18R,2.432000X2.127200*%
%ADD19O,2.432000X2.127200*%
%ADD20R,1.650000X1.400000*%
%ADD21R,3.399740X7.900620*%
%ADD22R,7.900620X3.399740*%
%ADD23R,2.432000X2.432000*%
%ADD24O,2.432000X2.432000*%
%ADD25R,2.127200X2.127200*%
%ADD26O,2.127200X2.127200*%
%ADD27C,1.400760*%
%ADD28R,0.900000X1.000000*%
G04 APERTURE END LIST*
D10*
D11*
X52349400Y-101396800D03*
D12*
X53873400Y-101396800D03*
D13*
X56769000Y-140525500D03*
D14*
X59309000Y-140525500D03*
X61849000Y-140525500D03*
D15*
X99695000Y-131508500D03*
D16*
X97195000Y-131508500D03*
D17*
X112204500Y-140652500D03*
X112204500Y-96075500D03*
X27432000Y-96012000D03*
D18*
X27146000Y-103538000D03*
D19*
X27146000Y-106078000D03*
X27146000Y-108618000D03*
X27146000Y-111158000D03*
X27146000Y-113698000D03*
X27146000Y-116238000D03*
X27146000Y-118778000D03*
X27146000Y-121318000D03*
X27146000Y-123858000D03*
D20*
X43332400Y-128762000D03*
X43332400Y-126762000D03*
D15*
X109169200Y-123647200D03*
D16*
X109169200Y-126147200D03*
D15*
X111823500Y-132905500D03*
D16*
X111823500Y-135405500D03*
D21*
X81066640Y-138366500D03*
X86065360Y-138366500D03*
X93068140Y-138493500D03*
X98066860Y-138493500D03*
D22*
X104711500Y-135740140D03*
X104711500Y-140738860D03*
D13*
X52832000Y-140462000D03*
D14*
X50292000Y-140462000D03*
X47752000Y-140462000D03*
D13*
X43942000Y-140208000D03*
D14*
X41402000Y-140208000D03*
X38862000Y-140208000D03*
X36322000Y-140208000D03*
X33782000Y-140208000D03*
D23*
X104673400Y-114642900D03*
D24*
X107213400Y-114642900D03*
D11*
X101015800Y-117182900D03*
D12*
X101015800Y-114642900D03*
X101015800Y-112102900D03*
X101015800Y-109562900D03*
D23*
X112344200Y-105829100D03*
D24*
X112344200Y-108369100D03*
D25*
X97091500Y-120840500D03*
D26*
X99631500Y-120840500D03*
X97091500Y-123380500D03*
X99631500Y-123380500D03*
D27*
X48082200Y-97066100D03*
X48082200Y-95567500D03*
D15*
X66865500Y-137985500D03*
D16*
X66865500Y-140485500D03*
D17*
X27432000Y-140716000D03*
D23*
X103352600Y-123398280D03*
D24*
X103352600Y-120858280D03*
D25*
X104203500Y-129730500D03*
D26*
X104203500Y-132270500D03*
X106743500Y-129730500D03*
X106743500Y-132270500D03*
D23*
X27076400Y-135534400D03*
D24*
X29616400Y-135534400D03*
D23*
X104686100Y-110871000D03*
D24*
X107226100Y-110871000D03*
D11*
X97370900Y-117182900D03*
D12*
X97370900Y-114642900D03*
X97370900Y-112102900D03*
X97370900Y-109562900D03*
D28*
X46228000Y-130572600D03*
X46228000Y-129472600D03*
D23*
X85242400Y-96824800D03*
D24*
X82702400Y-96824800D03*
M02*
