G04 #@! TF.FileFunction,Paste,Top*
%FSLAX46Y46*%
G04 Gerber Fmt 4.6, Leading zero omitted, Abs format (unit mm)*
G04 Created by KiCad (PCBNEW 4.0.2-stable) date 29/11/2016 20:18:24*
%MOMM*%
G01*
G04 APERTURE LIST*
%ADD10C,0.100000*%
%ADD11O,1.300000X0.350000*%
%ADD12R,3.650000X1.900000*%
%ADD13R,1.500000X0.800000*%
%ADD14R,1.000000X1.250000*%
%ADD15R,0.500000X0.600000*%
%ADD16R,1.250000X1.000000*%
%ADD17R,0.600000X0.500000*%
%ADD18R,1.600200X2.199640*%
%ADD19R,0.800100X0.800100*%
%ADD20R,0.900000X0.500000*%
%ADD21R,0.500000X0.900000*%
%ADD22R,1.300000X0.700000*%
%ADD23R,1.550000X1.300000*%
%ADD24R,1.143000X0.508000*%
%ADD25R,0.600000X1.500000*%
%ADD26R,0.850000X0.250000*%
%ADD27R,0.250000X0.850000*%
%ADD28R,1.200000X3.500000*%
%ADD29R,1.060000X0.650000*%
%ADD30R,0.650000X1.060000*%
%ADD31R,0.650000X0.300000*%
%ADD32R,0.465000X0.744000*%
%ADD33R,0.508000X0.304800*%
%ADD34R,2.000000X1.300000*%
%ADD35R,0.250000X1.000000*%
%ADD36R,1.000000X0.250000*%
%ADD37R,1.000000X2.500000*%
G04 APERTURE END LIST*
D10*
G36*
X59954160Y-127840740D02*
X57754520Y-127840740D01*
X57754520Y-127241300D01*
X59954160Y-127241300D01*
X59954160Y-127840740D01*
X59954160Y-127840740D01*
G37*
G36*
X59954160Y-128940560D02*
X57754520Y-128940560D01*
X57754520Y-128341120D01*
X59954160Y-128341120D01*
X59954160Y-128940560D01*
X59954160Y-128940560D01*
G37*
G36*
X59954160Y-130040380D02*
X57754520Y-130040380D01*
X57754520Y-129440940D01*
X59954160Y-129440940D01*
X59954160Y-130040380D01*
X59954160Y-130040380D01*
G37*
G36*
X59954160Y-131140200D02*
X57754520Y-131140200D01*
X57754520Y-130540760D01*
X59954160Y-130540760D01*
X59954160Y-131140200D01*
X59954160Y-131140200D01*
G37*
G36*
X59954160Y-132240020D02*
X57754520Y-132240020D01*
X57754520Y-131640580D01*
X59954160Y-131640580D01*
X59954160Y-132240020D01*
X59954160Y-132240020D01*
G37*
G36*
X59954160Y-133342380D02*
X57754520Y-133342380D01*
X57754520Y-132742940D01*
X59954160Y-132742940D01*
X59954160Y-133342380D01*
X59954160Y-133342380D01*
G37*
G36*
X59954160Y-134442200D02*
X57754520Y-134442200D01*
X57754520Y-133842760D01*
X59954160Y-133842760D01*
X59954160Y-134442200D01*
X59954160Y-134442200D01*
G37*
G36*
X59954160Y-135542020D02*
X57754520Y-135542020D01*
X57754520Y-134942580D01*
X59954160Y-134942580D01*
X59954160Y-135542020D01*
X59954160Y-135542020D01*
G37*
G36*
X49654460Y-137840720D02*
X48653700Y-137840720D01*
X48653700Y-135641080D01*
X49654460Y-135641080D01*
X49654460Y-137840720D01*
X49654460Y-137840720D01*
G37*
G36*
X48653700Y-125641100D02*
X46454060Y-125641100D01*
X46454060Y-124640340D01*
X48653700Y-124640340D01*
X48653700Y-125641100D01*
X48653700Y-125641100D01*
G37*
D11*
X84517250Y-131095750D03*
X84517250Y-131730750D03*
X84517250Y-132365750D03*
X84517250Y-133000750D03*
X89917250Y-133000750D03*
X89917250Y-132365750D03*
X89917250Y-131730750D03*
X89917250Y-131095750D03*
D12*
X85456700Y-109215800D03*
D13*
X78856700Y-95765800D03*
X78856700Y-97085800D03*
X78856700Y-98355800D03*
X78856700Y-99625800D03*
X78856700Y-100895800D03*
X78856700Y-102165800D03*
X78856700Y-103435800D03*
X78856700Y-104705800D03*
X78856700Y-105975800D03*
X78856700Y-107245800D03*
X78856700Y-108515800D03*
X91856700Y-108515800D03*
X91856700Y-107245800D03*
X91856700Y-105975800D03*
X91856700Y-104705800D03*
X91856700Y-103435800D03*
X91856700Y-102165800D03*
X91856700Y-100895800D03*
X91856700Y-99625800D03*
X91856700Y-98355800D03*
X91856700Y-97085800D03*
X91856700Y-95815800D03*
D12*
X85356700Y-95115800D03*
D14*
X50695100Y-118579900D03*
X48695100Y-118579900D03*
D15*
X69540120Y-120079680D03*
X69540120Y-121179680D03*
X52019200Y-114900800D03*
X52019200Y-113800800D03*
D16*
X53962300Y-103635300D03*
X53962300Y-105635300D03*
D17*
X49521200Y-116890800D03*
X48421200Y-116890800D03*
D15*
X51968400Y-104707600D03*
X51968400Y-105807600D03*
X37439600Y-114342000D03*
X37439600Y-113242000D03*
D17*
X41156800Y-100990400D03*
X42256800Y-100990400D03*
D15*
X36372800Y-106315600D03*
X36372800Y-105215600D03*
X82232500Y-117072500D03*
X82232500Y-115972500D03*
D16*
X62651640Y-129180080D03*
X62651640Y-131180080D03*
D15*
X53771800Y-97755800D03*
X53771800Y-96655800D03*
D16*
X45059600Y-95215200D03*
X45059600Y-97215200D03*
X35001200Y-97977200D03*
X35001200Y-95977200D03*
X34645600Y-111928400D03*
X34645600Y-113928400D03*
D14*
X48441100Y-98831400D03*
X50441100Y-98831400D03*
X49888900Y-96672400D03*
X51888900Y-96672400D03*
D16*
X61137800Y-108708700D03*
X61137800Y-106708700D03*
D15*
X94551500Y-105464700D03*
X94551500Y-104364700D03*
D14*
X67700400Y-104533700D03*
X65700400Y-104533700D03*
D15*
X94462600Y-108525400D03*
X94462600Y-107425400D03*
D16*
X69557900Y-104333800D03*
X69557900Y-106333800D03*
D17*
X68080800Y-110731300D03*
X69180800Y-110731300D03*
X81555500Y-121158000D03*
X82655500Y-121158000D03*
D15*
X102108000Y-130412400D03*
X102108000Y-131512400D03*
D16*
X75882500Y-139589000D03*
X75882500Y-141589000D03*
X101549200Y-126254000D03*
X101549200Y-128254000D03*
X87439500Y-139525500D03*
X87439500Y-141525500D03*
X92392500Y-139747500D03*
X92392500Y-137747500D03*
D14*
X100123500Y-135699500D03*
X98123500Y-135699500D03*
D16*
X109220000Y-130013200D03*
X109220000Y-132013200D03*
D18*
X77284580Y-135826500D03*
X81084420Y-135826500D03*
X107246420Y-137350500D03*
X103446580Y-137350500D03*
D19*
X71943000Y-133873240D03*
X70043000Y-133873240D03*
X70993000Y-135872220D03*
X86273640Y-127929600D03*
X86273640Y-129829600D03*
X88272620Y-128879600D03*
X99392740Y-138813500D03*
X99392740Y-140713500D03*
X101391720Y-139763500D03*
D20*
X104648000Y-106946000D03*
X104648000Y-108446000D03*
X107251500Y-106946000D03*
X107251500Y-108446000D03*
X69791580Y-126378400D03*
X69791580Y-124878400D03*
X67861180Y-126411420D03*
X67861180Y-124911420D03*
D21*
X106190480Y-117454680D03*
X104690480Y-117454680D03*
D20*
X107886500Y-118542500D03*
X107886500Y-117042500D03*
X76047600Y-122897200D03*
X76047600Y-124397200D03*
X70866000Y-127520000D03*
X70866000Y-129020000D03*
D21*
X64147000Y-132524500D03*
X65647000Y-132524500D03*
D20*
X64566800Y-128942400D03*
X64566800Y-130442400D03*
X64008000Y-136513000D03*
X64008000Y-135013000D03*
X78295500Y-139966000D03*
X78295500Y-141466000D03*
D22*
X80327500Y-141412000D03*
X80327500Y-139512000D03*
D20*
X87096600Y-125121100D03*
X87096600Y-123621100D03*
X99669600Y-126300800D03*
X99669600Y-127800800D03*
X76250800Y-127672400D03*
X76250800Y-129172400D03*
D21*
X74738800Y-126187200D03*
X76238800Y-126187200D03*
D20*
X94335600Y-129832800D03*
X94335600Y-128332800D03*
D23*
X54178300Y-99443100D03*
X54178300Y-94943100D03*
X62128300Y-94943100D03*
X62128300Y-99443100D03*
D24*
X67894200Y-120015000D03*
X67894200Y-121285000D03*
X67894200Y-122555000D03*
X67894200Y-123825000D03*
X61544200Y-123825000D03*
X61544200Y-122555000D03*
X61544200Y-121285000D03*
X61544200Y-120015000D03*
D25*
X92989400Y-113974900D03*
X91719400Y-113974900D03*
X90449400Y-113974900D03*
X89179400Y-113974900D03*
X87909400Y-113974900D03*
X86639400Y-113974900D03*
X85369400Y-113974900D03*
X84099400Y-113974900D03*
X84099400Y-119374900D03*
X85369400Y-119374900D03*
X86639400Y-119374900D03*
X87909400Y-119374900D03*
X89179400Y-119374900D03*
X90449400Y-119374900D03*
X91719400Y-119374900D03*
X92989400Y-119374900D03*
D26*
X64793600Y-106962700D03*
X64793600Y-107462700D03*
X64793600Y-107962700D03*
X64793600Y-108462700D03*
X64793600Y-108962700D03*
D27*
X65768600Y-109437700D03*
X66268600Y-109437700D03*
X66768600Y-109437700D03*
D26*
X67743600Y-108962700D03*
X67743600Y-108462700D03*
X67743600Y-107962700D03*
X67743600Y-107462700D03*
X67743600Y-106962700D03*
D27*
X66768600Y-106487700D03*
X66268600Y-106487700D03*
X65768600Y-106487700D03*
D28*
X98693600Y-95529400D03*
X96893600Y-95529400D03*
X103693600Y-95529400D03*
X105693600Y-95529400D03*
D29*
X79367200Y-123002000D03*
X79367200Y-123952000D03*
X79367200Y-124902000D03*
X81567200Y-124902000D03*
X81567200Y-123002000D03*
D30*
X66423500Y-130005000D03*
X67373500Y-130005000D03*
X68323500Y-130005000D03*
X68323500Y-127805000D03*
X66423500Y-127805000D03*
D29*
X70972500Y-138051500D03*
X70972500Y-139001500D03*
X70972500Y-139951500D03*
X73172500Y-139951500D03*
X73172500Y-138051500D03*
D31*
X92202600Y-124101100D03*
X92202600Y-123601100D03*
X92202600Y-123101100D03*
X92202600Y-122601100D03*
X92202600Y-122101100D03*
X89102600Y-122101100D03*
X89102600Y-122601100D03*
X89102600Y-123101100D03*
X89102600Y-123601100D03*
X89102600Y-124101100D03*
D32*
X90265100Y-122481100D03*
X90265100Y-123721100D03*
X91040100Y-122481100D03*
X91040100Y-123721100D03*
D29*
X82466000Y-138369000D03*
X82466000Y-139319000D03*
X82466000Y-140269000D03*
X84666000Y-140269000D03*
X84666000Y-138369000D03*
D33*
X80676750Y-131095750D03*
X80676750Y-132365750D03*
X82708750Y-131095750D03*
X80676750Y-131730750D03*
X82708750Y-132365750D03*
D29*
X92086250Y-131034750D03*
X92086250Y-131984750D03*
X92086250Y-132934750D03*
X94286250Y-132934750D03*
X94286250Y-131034750D03*
X94721500Y-138813500D03*
X94721500Y-139763500D03*
X94721500Y-140713500D03*
X96921500Y-140713500D03*
X96921500Y-138813500D03*
D34*
X41979600Y-95193000D03*
X37979600Y-95193000D03*
X37979600Y-97593000D03*
X41979600Y-97593000D03*
D35*
X48403200Y-103824800D03*
X47903200Y-103824800D03*
X47403200Y-103824800D03*
X46903200Y-103824800D03*
X46403200Y-103824800D03*
X45903200Y-103824800D03*
X45403200Y-103824800D03*
X44903200Y-103824800D03*
X44403200Y-103824800D03*
X43903200Y-103824800D03*
X43403200Y-103824800D03*
X42903200Y-103824800D03*
X42403200Y-103824800D03*
X41903200Y-103824800D03*
X41403200Y-103824800D03*
X40903200Y-103824800D03*
D36*
X38953200Y-105774800D03*
X38953200Y-106274800D03*
X38953200Y-106774800D03*
X38953200Y-107274800D03*
X38953200Y-107774800D03*
X38953200Y-108274800D03*
X38953200Y-108774800D03*
X38953200Y-109274800D03*
X38953200Y-109774800D03*
X38953200Y-110274800D03*
X38953200Y-110774800D03*
X38953200Y-111274800D03*
X38953200Y-111774800D03*
X38953200Y-112274800D03*
X38953200Y-112774800D03*
X38953200Y-113274800D03*
D35*
X40903200Y-115224800D03*
X41403200Y-115224800D03*
X41903200Y-115224800D03*
X42403200Y-115224800D03*
X42903200Y-115224800D03*
X43403200Y-115224800D03*
X43903200Y-115224800D03*
X44403200Y-115224800D03*
X44903200Y-115224800D03*
X45403200Y-115224800D03*
X45903200Y-115224800D03*
X46403200Y-115224800D03*
X46903200Y-115224800D03*
X47403200Y-115224800D03*
X47903200Y-115224800D03*
X48403200Y-115224800D03*
D36*
X50353200Y-113274800D03*
X50353200Y-112774800D03*
X50353200Y-112274800D03*
X50353200Y-111774800D03*
X50353200Y-111274800D03*
X50353200Y-110774800D03*
X50353200Y-110274800D03*
X50353200Y-109774800D03*
X50353200Y-109274800D03*
X50353200Y-108774800D03*
X50353200Y-108274800D03*
X50353200Y-107774800D03*
X50353200Y-107274800D03*
X50353200Y-106774800D03*
X50353200Y-106274800D03*
X50353200Y-105774800D03*
D20*
X98704400Y-99859400D03*
X98704400Y-101359400D03*
D33*
X66167000Y-134112000D03*
X66167000Y-135382000D03*
X68199000Y-134112000D03*
X66167000Y-134747000D03*
X68199000Y-135382000D03*
D37*
X74967000Y-131445000D03*
X70067000Y-131445000D03*
X77966400Y-127812800D03*
X82866400Y-127812800D03*
D20*
X72847200Y-125894400D03*
X72847200Y-127394400D03*
D14*
X92827600Y-110185200D03*
X94827600Y-110185200D03*
D15*
X60685680Y-131748440D03*
X60685680Y-132848440D03*
M02*
