G04 #@! TF.FileFunction,Copper,L2,Bot,Signal*
%FSLAX46Y46*%
G04 Gerber Fmt 4.6, Leading zero omitted, Abs format (unit mm)*
G04 Created by KiCad (PCBNEW 4.0.2-stable) date 23/11/2016 19:11:44*
%MOMM*%
G01*
G04 APERTURE LIST*
%ADD10C,0.100000*%
%ADD11C,0.300000*%
%ADD12R,1.000000X1.000000*%
%ADD13C,1.000000*%
%ADD14R,1.727200X2.032000*%
%ADD15O,1.727200X2.032000*%
%ADD16R,1.300000X1.300000*%
%ADD17C,1.300000*%
%ADD18C,4.064000*%
%ADD19R,2.032000X1.727200*%
%ADD20O,2.032000X1.727200*%
%ADD21R,2.999740X7.500620*%
%ADD22R,7.500620X2.999740*%
%ADD23R,2.032000X2.032000*%
%ADD24O,2.032000X2.032000*%
%ADD25R,1.727200X1.727200*%
%ADD26O,1.727200X1.727200*%
%ADD27C,1.000760*%
%ADD28C,0.600000*%
%ADD29C,0.500000*%
%ADD30C,0.250000*%
%ADD31C,0.500000*%
%ADD32C,1.000000*%
%ADD33C,0.400000*%
%ADD34C,1.500000*%
%ADD35C,0.200000*%
G04 APERTURE END LIST*
D10*
D11*
X64516541Y-103158171D02*
X64516541Y-104158171D01*
X64516541Y-103301029D02*
X64445113Y-103229600D01*
X64302255Y-103158171D01*
X64087970Y-103158171D01*
X63945113Y-103229600D01*
X63873684Y-103372457D01*
X63873684Y-104158171D01*
X62945112Y-104158171D02*
X63087970Y-104086743D01*
X63159398Y-104015314D01*
X63230827Y-103872457D01*
X63230827Y-103443886D01*
X63159398Y-103301029D01*
X63087970Y-103229600D01*
X62945112Y-103158171D01*
X62730827Y-103158171D01*
X62587970Y-103229600D01*
X62516541Y-103301029D01*
X62445112Y-103443886D01*
X62445112Y-103872457D01*
X62516541Y-104015314D01*
X62587970Y-104086743D01*
X62730827Y-104158171D01*
X62945112Y-104158171D01*
X61945112Y-103158171D02*
X61587969Y-104158171D01*
X61230827Y-103158171D01*
X59587970Y-102801029D02*
X59516541Y-102729600D01*
X59373684Y-102658171D01*
X59016541Y-102658171D01*
X58873684Y-102729600D01*
X58802255Y-102801029D01*
X58730827Y-102943886D01*
X58730827Y-103086743D01*
X58802255Y-103301029D01*
X59659398Y-104158171D01*
X58730827Y-104158171D01*
X57802256Y-102658171D02*
X57659399Y-102658171D01*
X57516542Y-102729600D01*
X57445113Y-102801029D01*
X57373684Y-102943886D01*
X57302256Y-103229600D01*
X57302256Y-103586743D01*
X57373684Y-103872457D01*
X57445113Y-104015314D01*
X57516542Y-104086743D01*
X57659399Y-104158171D01*
X57802256Y-104158171D01*
X57945113Y-104086743D01*
X58016542Y-104015314D01*
X58087970Y-103872457D01*
X58159399Y-103586743D01*
X58159399Y-103229600D01*
X58087970Y-102943886D01*
X58016542Y-102801029D01*
X57945113Y-102729600D01*
X57802256Y-102658171D01*
X55873685Y-104158171D02*
X56730828Y-104158171D01*
X56302256Y-104158171D02*
X56302256Y-102658171D01*
X56445113Y-102872457D01*
X56587971Y-103015314D01*
X56730828Y-103086743D01*
X54587971Y-102658171D02*
X54873685Y-102658171D01*
X55016542Y-102729600D01*
X55087971Y-102801029D01*
X55230828Y-103015314D01*
X55302257Y-103301029D01*
X55302257Y-103872457D01*
X55230828Y-104015314D01*
X55159400Y-104086743D01*
X55016542Y-104158171D01*
X54730828Y-104158171D01*
X54587971Y-104086743D01*
X54516542Y-104015314D01*
X54445114Y-103872457D01*
X54445114Y-103515314D01*
X54516542Y-103372457D01*
X54587971Y-103301029D01*
X54730828Y-103229600D01*
X55016542Y-103229600D01*
X55159400Y-103301029D01*
X55230828Y-103372457D01*
X55302257Y-103515314D01*
X52873686Y-102658171D02*
X52373686Y-104158171D01*
X51873686Y-102658171D01*
X51087972Y-102658171D02*
X50945115Y-102658171D01*
X50802258Y-102729600D01*
X50730829Y-102801029D01*
X50659400Y-102943886D01*
X50587972Y-103229600D01*
X50587972Y-103586743D01*
X50659400Y-103872457D01*
X50730829Y-104015314D01*
X50802258Y-104086743D01*
X50945115Y-104158171D01*
X51087972Y-104158171D01*
X51230829Y-104086743D01*
X51302258Y-104015314D01*
X51373686Y-103872457D01*
X51445115Y-103586743D01*
X51445115Y-103229600D01*
X51373686Y-102943886D01*
X51302258Y-102801029D01*
X51230829Y-102729600D01*
X51087972Y-102658171D01*
X49659401Y-102658171D02*
X49516544Y-102658171D01*
X49373687Y-102729600D01*
X49302258Y-102801029D01*
X49230829Y-102943886D01*
X49159401Y-103229600D01*
X49159401Y-103586743D01*
X49230829Y-103872457D01*
X49302258Y-104015314D01*
X49373687Y-104086743D01*
X49516544Y-104158171D01*
X49659401Y-104158171D01*
X49802258Y-104086743D01*
X49873687Y-104015314D01*
X49945115Y-103872457D01*
X50016544Y-103586743D01*
X50016544Y-103229600D01*
X49945115Y-102943886D01*
X49873687Y-102801029D01*
X49802258Y-102729600D01*
X49659401Y-102658171D01*
X47730830Y-104158171D02*
X48587973Y-104158171D01*
X48159401Y-104158171D02*
X48159401Y-102658171D01*
X48302258Y-102872457D01*
X48445116Y-103015314D01*
X48587973Y-103086743D01*
X77620114Y-95806343D02*
X77477257Y-95877771D01*
X77191542Y-95877771D01*
X77048685Y-95806343D01*
X76977257Y-95663486D01*
X76977257Y-95592057D01*
X77048685Y-95449200D01*
X77191542Y-95377771D01*
X77405828Y-95377771D01*
X77548685Y-95306343D01*
X77620114Y-95163486D01*
X77620114Y-95092057D01*
X77548685Y-94949200D01*
X77405828Y-94877771D01*
X77191542Y-94877771D01*
X77048685Y-94949200D01*
X76477256Y-94877771D02*
X76120113Y-95877771D01*
X75762971Y-94877771D01*
X74620114Y-95806343D02*
X74762971Y-95877771D01*
X75048685Y-95877771D01*
X75191542Y-95806343D01*
X75262971Y-95663486D01*
X75262971Y-95092057D01*
X75191542Y-94949200D01*
X75048685Y-94877771D01*
X74762971Y-94877771D01*
X74620114Y-94949200D01*
X74548685Y-95092057D01*
X74548685Y-95234914D01*
X75262971Y-95377771D01*
X73691542Y-95877771D02*
X73834400Y-95806343D01*
X73905828Y-95663486D01*
X73905828Y-94377771D01*
X72905828Y-95877771D02*
X73048686Y-95806343D01*
X73120114Y-95734914D01*
X73191543Y-95592057D01*
X73191543Y-95163486D01*
X73120114Y-95020629D01*
X73048686Y-94949200D01*
X72905828Y-94877771D01*
X72691543Y-94877771D01*
X72548686Y-94949200D01*
X72477257Y-95020629D01*
X72405828Y-95163486D01*
X72405828Y-95592057D01*
X72477257Y-95734914D01*
X72548686Y-95806343D01*
X72691543Y-95877771D01*
X72905828Y-95877771D01*
X71977257Y-94877771D02*
X71405828Y-94877771D01*
X71762971Y-94377771D02*
X71762971Y-95663486D01*
X71691543Y-95806343D01*
X71548685Y-95877771D01*
X71405828Y-95877771D01*
X70905828Y-95877771D02*
X70905828Y-94877771D01*
X70905828Y-95163486D02*
X70834400Y-95020629D01*
X70762971Y-94949200D01*
X70620114Y-94877771D01*
X70477257Y-94877771D01*
X69334400Y-95877771D02*
X69334400Y-95092057D01*
X69405829Y-94949200D01*
X69548686Y-94877771D01*
X69834400Y-94877771D01*
X69977257Y-94949200D01*
X69334400Y-95806343D02*
X69477257Y-95877771D01*
X69834400Y-95877771D01*
X69977257Y-95806343D01*
X70048686Y-95663486D01*
X70048686Y-95520629D01*
X69977257Y-95377771D01*
X69834400Y-95306343D01*
X69477257Y-95306343D01*
X69334400Y-95234914D01*
X67977257Y-95806343D02*
X68120114Y-95877771D01*
X68405828Y-95877771D01*
X68548686Y-95806343D01*
X68620114Y-95734914D01*
X68691543Y-95592057D01*
X68691543Y-95163486D01*
X68620114Y-95020629D01*
X68548686Y-94949200D01*
X68405828Y-94877771D01*
X68120114Y-94877771D01*
X67977257Y-94949200D01*
X67334400Y-95877771D02*
X67334400Y-94377771D01*
X67191543Y-95306343D02*
X66762972Y-95877771D01*
X66762972Y-94877771D02*
X67334400Y-95449200D01*
X65548686Y-95806343D02*
X65691543Y-95877771D01*
X65977257Y-95877771D01*
X66120114Y-95806343D01*
X66191543Y-95663486D01*
X66191543Y-95092057D01*
X66120114Y-94949200D01*
X65977257Y-94877771D01*
X65691543Y-94877771D01*
X65548686Y-94949200D01*
X65477257Y-95092057D01*
X65477257Y-95234914D01*
X66191543Y-95377771D01*
X64834400Y-95877771D02*
X64834400Y-94877771D01*
X64834400Y-95163486D02*
X64762972Y-95020629D01*
X64691543Y-94949200D01*
X64548686Y-94877771D01*
X64405829Y-94877771D01*
X62762972Y-95877771D02*
X62762972Y-94377771D01*
X62762972Y-94949200D02*
X62620115Y-94877771D01*
X62334401Y-94877771D01*
X62191544Y-94949200D01*
X62120115Y-95020629D01*
X62048686Y-95163486D01*
X62048686Y-95592057D01*
X62120115Y-95734914D01*
X62191544Y-95806343D01*
X62334401Y-95877771D01*
X62620115Y-95877771D01*
X62762972Y-95806343D01*
X61548686Y-94877771D02*
X61191543Y-95877771D01*
X60834401Y-94877771D02*
X61191543Y-95877771D01*
X61334401Y-96234914D01*
X61405829Y-96306343D01*
X61548686Y-96377771D01*
X59191544Y-95449200D02*
X58477258Y-95449200D01*
X59334401Y-95877771D02*
X58834401Y-94377771D01*
X58334401Y-95877771D01*
X57620115Y-95877771D02*
X57762973Y-95806343D01*
X57834401Y-95663486D01*
X57834401Y-94377771D01*
X56477259Y-95806343D02*
X56620116Y-95877771D01*
X56905830Y-95877771D01*
X57048687Y-95806343D01*
X57120116Y-95663486D01*
X57120116Y-95092057D01*
X57048687Y-94949200D01*
X56905830Y-94877771D01*
X56620116Y-94877771D01*
X56477259Y-94949200D01*
X56405830Y-95092057D01*
X56405830Y-95234914D01*
X57120116Y-95377771D01*
X55905830Y-95877771D02*
X55120116Y-94877771D01*
X55905830Y-94877771D02*
X55120116Y-95877771D01*
X53905830Y-95877771D02*
X53905830Y-95092057D01*
X53977259Y-94949200D01*
X54120116Y-94877771D01*
X54405830Y-94877771D01*
X54548687Y-94949200D01*
X53905830Y-95806343D02*
X54048687Y-95877771D01*
X54405830Y-95877771D01*
X54548687Y-95806343D01*
X54620116Y-95663486D01*
X54620116Y-95520629D01*
X54548687Y-95377771D01*
X54405830Y-95306343D01*
X54048687Y-95306343D01*
X53905830Y-95234914D01*
X53191544Y-94877771D02*
X53191544Y-95877771D01*
X53191544Y-95020629D02*
X53120116Y-94949200D01*
X52977258Y-94877771D01*
X52762973Y-94877771D01*
X52620116Y-94949200D01*
X52548687Y-95092057D01*
X52548687Y-95877771D01*
X51191544Y-95877771D02*
X51191544Y-94377771D01*
X51191544Y-95806343D02*
X51334401Y-95877771D01*
X51620115Y-95877771D01*
X51762973Y-95806343D01*
X51834401Y-95734914D01*
X51905830Y-95592057D01*
X51905830Y-95163486D01*
X51834401Y-95020629D01*
X51762973Y-94949200D01*
X51620115Y-94877771D01*
X51334401Y-94877771D01*
X51191544Y-94949200D01*
X49905830Y-95806343D02*
X50048687Y-95877771D01*
X50334401Y-95877771D01*
X50477258Y-95806343D01*
X50548687Y-95663486D01*
X50548687Y-95092057D01*
X50477258Y-94949200D01*
X50334401Y-94877771D01*
X50048687Y-94877771D01*
X49905830Y-94949200D01*
X49834401Y-95092057D01*
X49834401Y-95234914D01*
X50548687Y-95377771D01*
X49191544Y-95877771D02*
X49191544Y-94877771D01*
X49191544Y-95163486D02*
X49120116Y-95020629D01*
X49048687Y-94949200D01*
X48905830Y-94877771D01*
X48762973Y-94877771D01*
X46405830Y-95877771D02*
X47120116Y-95877771D01*
X47120116Y-94377771D01*
X45262973Y-94877771D02*
X45262973Y-95877771D01*
X45905830Y-94877771D02*
X45905830Y-95663486D01*
X45834402Y-95806343D01*
X45691544Y-95877771D01*
X45477259Y-95877771D01*
X45334402Y-95806343D01*
X45262973Y-95734914D01*
X44762973Y-94877771D02*
X44191544Y-94877771D01*
X44548687Y-94377771D02*
X44548687Y-95663486D01*
X44477259Y-95806343D01*
X44334401Y-95877771D01*
X44191544Y-95877771D01*
X43762973Y-95806343D02*
X43620116Y-95877771D01*
X43334401Y-95877771D01*
X43191544Y-95806343D01*
X43120116Y-95663486D01*
X43120116Y-95592057D01*
X43191544Y-95449200D01*
X43334401Y-95377771D01*
X43548687Y-95377771D01*
X43691544Y-95306343D01*
X43762973Y-95163486D01*
X43762973Y-95092057D01*
X43691544Y-94949200D01*
X43548687Y-94877771D01*
X43334401Y-94877771D01*
X43191544Y-94949200D01*
X41834401Y-95877771D02*
X41834401Y-95092057D01*
X41905830Y-94949200D01*
X42048687Y-94877771D01*
X42334401Y-94877771D01*
X42477258Y-94949200D01*
X41834401Y-95806343D02*
X41977258Y-95877771D01*
X42334401Y-95877771D01*
X42477258Y-95806343D01*
X42548687Y-95663486D01*
X42548687Y-95520629D01*
X42477258Y-95377771D01*
X42334401Y-95306343D01*
X41977258Y-95306343D01*
X41834401Y-95234914D01*
X41120115Y-95877771D02*
X41120115Y-94877771D01*
X41120115Y-94377771D02*
X41191544Y-94449200D01*
X41120115Y-94520629D01*
X41048687Y-94449200D01*
X41120115Y-94377771D01*
X41120115Y-94520629D01*
D12*
X52349400Y-101396800D03*
D13*
X53873400Y-101396800D03*
D14*
X56769000Y-140525500D03*
D15*
X59309000Y-140525500D03*
X61849000Y-140525500D03*
D16*
X99695000Y-131508500D03*
D17*
X97195000Y-131508500D03*
D18*
X112204500Y-140652500D03*
X112204500Y-96075500D03*
X27432000Y-96012000D03*
D19*
X27146000Y-103538000D03*
D20*
X27146000Y-106078000D03*
X27146000Y-108618000D03*
X27146000Y-111158000D03*
X27146000Y-113698000D03*
X27146000Y-116238000D03*
X27146000Y-118778000D03*
X27146000Y-121318000D03*
X27146000Y-123858000D03*
D16*
X109169200Y-123647200D03*
D17*
X109169200Y-126147200D03*
D16*
X111823500Y-132905500D03*
D17*
X111823500Y-135405500D03*
D21*
X81066640Y-138366500D03*
X86065360Y-138366500D03*
X93068140Y-138493500D03*
X98066860Y-138493500D03*
D22*
X104711500Y-135740140D03*
X104711500Y-140738860D03*
D14*
X52832000Y-140462000D03*
D15*
X50292000Y-140462000D03*
X47752000Y-140462000D03*
D14*
X43942000Y-140208000D03*
D15*
X41402000Y-140208000D03*
X38862000Y-140208000D03*
X36322000Y-140208000D03*
X33782000Y-140208000D03*
D23*
X104673400Y-114642900D03*
D24*
X107213400Y-114642900D03*
D12*
X101015800Y-117182900D03*
D13*
X101015800Y-114642900D03*
X101015800Y-112102900D03*
X101015800Y-109562900D03*
D23*
X112344200Y-105829100D03*
D24*
X112344200Y-108369100D03*
D25*
X97091500Y-120840500D03*
D26*
X99631500Y-120840500D03*
X97091500Y-123380500D03*
X99631500Y-123380500D03*
D27*
X48082200Y-97066100D03*
X48082200Y-95567500D03*
D16*
X66865500Y-137985500D03*
D17*
X66865500Y-140485500D03*
D18*
X27432000Y-140716000D03*
D23*
X103352600Y-123398280D03*
D24*
X103352600Y-120858280D03*
D25*
X104203500Y-129730500D03*
D26*
X104203500Y-132270500D03*
X106743500Y-129730500D03*
X106743500Y-132270500D03*
D23*
X27076400Y-135534400D03*
D24*
X29616400Y-135534400D03*
D23*
X104686100Y-110871000D03*
D24*
X107226100Y-110871000D03*
D12*
X97370900Y-117182900D03*
D13*
X97370900Y-114642900D03*
X97370900Y-112102900D03*
X97370900Y-109562900D03*
D23*
X85242400Y-96824800D03*
D24*
X82702400Y-96824800D03*
D28*
X30746700Y-121259600D03*
X88940640Y-140390880D03*
X74353420Y-139034520D03*
X74355960Y-141046200D03*
X34607500Y-104775000D03*
X64386460Y-105879900D03*
X60624720Y-121239280D03*
X66273680Y-121269760D03*
X61920120Y-125211840D03*
X74046080Y-125206760D03*
X34577020Y-116278660D03*
X37635180Y-104759760D03*
X30226000Y-102108000D03*
X27876500Y-100965000D03*
X40322500Y-108902500D03*
X71056500Y-106680000D03*
X76263500Y-105029000D03*
X55384700Y-105879900D03*
X33362900Y-95783400D03*
X47180500Y-106451400D03*
X65430400Y-136804400D03*
X36068000Y-104038400D03*
X36068000Y-114401600D03*
X35966400Y-121259600D03*
X77470000Y-123901200D03*
X85699600Y-123393200D03*
X43411140Y-109956600D03*
X63855600Y-110154720D03*
X68762880Y-109644180D03*
X65438200Y-127805000D03*
X60960000Y-127848360D03*
X62019180Y-132748020D03*
X108902500Y-112903000D03*
X109474000Y-119697500D03*
X89090500Y-108521500D03*
X94424500Y-119126000D03*
D13*
X104203500Y-126682500D03*
D28*
X33909000Y-105918000D03*
X72136000Y-129946400D03*
X73202800Y-132994400D03*
X83159600Y-122529600D03*
X37439600Y-123240800D03*
X37439600Y-115519200D03*
X30886400Y-103327200D03*
X30886400Y-108508800D03*
X30276800Y-114503200D03*
X30073600Y-106121200D03*
X52133500Y-99695000D03*
X45199300Y-99695000D03*
X83616800Y-135178800D03*
X90805000Y-136588500D03*
D29*
X88328500Y-138366500D03*
D28*
X93345000Y-107759500D03*
X96710500Y-107124500D03*
X79451200Y-131521200D03*
X90779600Y-140106400D03*
X101803200Y-138430000D03*
D29*
X100139500Y-137350500D03*
X105346500Y-138112500D03*
X100774500Y-138112500D03*
D28*
X57038240Y-121269760D03*
X54945280Y-121249440D03*
X42870120Y-119100600D03*
X54719220Y-123101100D03*
X53949600Y-122057160D03*
X44041060Y-119044720D03*
X57424320Y-119296180D03*
X54510940Y-119273320D03*
D29*
X78867000Y-138366500D03*
D28*
X52120800Y-135229600D03*
X35458400Y-135483600D03*
X35204400Y-130352800D03*
X35306000Y-119634000D03*
X38150800Y-129946400D03*
X37592000Y-136855200D03*
X38227000Y-119735600D03*
X34493200Y-129946400D03*
X34493200Y-121970800D03*
X33782000Y-120497600D03*
X33782000Y-130352800D03*
D13*
X61722000Y-137972800D03*
D28*
X74422000Y-98933000D03*
X74612500Y-106426000D03*
X98425000Y-106680000D03*
X44716700Y-98983800D03*
X108775500Y-107569000D03*
X75374500Y-105791000D03*
X75247500Y-98488500D03*
X44411900Y-105308400D03*
X84899500Y-127952500D03*
X89344500Y-127381000D03*
X63169800Y-122504200D03*
X66103500Y-122618500D03*
X55930800Y-107442000D03*
X63423800Y-108788200D03*
X60015120Y-123510040D03*
X58864500Y-106763820D03*
X66167000Y-123698000D03*
X55372000Y-106781600D03*
X65976500Y-107835700D03*
X76159360Y-118912640D03*
X38328600Y-116311680D03*
X34983420Y-107083860D03*
X33939480Y-115397280D03*
X39517320Y-101711760D03*
X70942200Y-115443000D03*
X53888640Y-135072120D03*
X68326000Y-137109200D03*
X83667600Y-141579600D03*
X73355200Y-141325600D03*
X64155320Y-114554000D03*
X38999160Y-102504240D03*
X65125600Y-134315200D03*
X41706800Y-134112000D03*
X41706800Y-130352800D03*
X41656000Y-119684800D03*
X76606400Y-131622800D03*
X92100400Y-127000000D03*
X38633400Y-104780080D03*
X33116520Y-122895360D03*
X35966400Y-122697240D03*
X77815440Y-125349000D03*
X85310980Y-126001780D03*
X91005660Y-129212340D03*
X73253600Y-121168160D03*
X73197720Y-110901480D03*
X39740840Y-100228400D03*
X84714080Y-121884440D03*
X31546800Y-100177600D03*
X31597600Y-129946400D03*
X32258000Y-136144000D03*
X69088000Y-140055600D03*
X30835600Y-100736400D03*
X79298800Y-128981200D03*
X84988400Y-124256800D03*
X32461200Y-131927600D03*
X32461200Y-129997200D03*
X32308800Y-118465600D03*
X40487600Y-117906800D03*
X40487600Y-111252000D03*
X46380400Y-111709200D03*
X70269100Y-111569500D03*
X45059600Y-112471200D03*
X71069200Y-112445800D03*
X45821600Y-113182400D03*
X71793100Y-113220500D03*
X90043000Y-100901500D03*
X44246800Y-113893600D03*
X73914000Y-101536500D03*
X73914000Y-113652300D03*
X57378600Y-100787200D03*
X76111100Y-100888800D03*
X76098400Y-99618800D03*
X56692800Y-99631500D03*
X58166000Y-118237000D03*
X88519000Y-117475000D03*
X87249000Y-117284500D03*
X59944000Y-117475000D03*
X60134500Y-116459000D03*
X91059000Y-117348000D03*
X36728400Y-128524000D03*
X36830000Y-111506000D03*
X87919560Y-115757960D03*
X77393800Y-97104200D03*
X77190600Y-95808800D03*
D30*
X39624000Y-123240800D02*
X39573200Y-123291600D01*
X30746700Y-121259600D02*
X30746700Y-121262140D01*
X36068000Y-104038400D02*
X35344100Y-104038400D01*
X34366200Y-104533700D02*
X34607500Y-104775000D01*
X34366200Y-104533700D02*
X34366200Y-103568500D01*
X35344100Y-104038400D02*
X34607500Y-104775000D01*
X65237360Y-105029000D02*
X72707500Y-105029000D01*
X64386460Y-105879900D02*
X65237360Y-105029000D01*
X66243200Y-121239280D02*
X60624720Y-121239280D01*
X66273680Y-121269760D02*
X66243200Y-121239280D01*
X74041000Y-125211840D02*
X61920120Y-125211840D01*
X74046080Y-125206760D02*
X74041000Y-125211840D01*
X34577020Y-111523780D02*
X34577020Y-116278660D01*
X37810440Y-108290360D02*
X34577020Y-111523780D01*
X37810440Y-104935020D02*
X37810440Y-108290360D01*
X37635180Y-104759760D02*
X37810440Y-104935020D01*
X36068000Y-104038400D02*
X39585900Y-104038400D01*
X40322500Y-104775000D02*
X40322500Y-108902500D01*
X39585900Y-104038400D02*
X40322500Y-104775000D01*
X71056500Y-106680000D02*
X72707500Y-105029000D01*
X72707500Y-105029000D02*
X76263500Y-105029000D01*
X54381400Y-106400600D02*
X54864000Y-106400600D01*
X54864000Y-106400600D02*
X55384700Y-105879900D01*
X34366200Y-103568500D02*
X34366200Y-99580700D01*
X34366200Y-99580700D02*
X33362900Y-98577400D01*
X33362900Y-98577400D02*
X33362900Y-95783400D01*
X47231300Y-106400600D02*
X54381400Y-106400600D01*
X47180500Y-106451400D02*
X47231300Y-106400600D01*
X66865500Y-140485500D02*
X66114300Y-140485500D01*
X65430400Y-139801600D02*
X65430400Y-136804400D01*
X66114300Y-140485500D02*
X65430400Y-139801600D01*
X36068000Y-121107200D02*
X36068000Y-114401600D01*
X35966400Y-121259600D02*
X36068000Y-121107200D01*
D31*
X85699600Y-123393200D02*
X77978000Y-123393200D01*
X77978000Y-123393200D02*
X77470000Y-123901200D01*
X97091500Y-123380500D02*
X85712300Y-123380500D01*
X85712300Y-123380500D02*
X85699600Y-123393200D01*
X99631500Y-123380500D02*
X97091500Y-123380500D01*
D11*
X77978000Y-123393200D02*
X77470000Y-123901200D01*
X85712300Y-123380500D02*
X85699600Y-123393200D01*
D32*
X108331000Y-132935500D02*
X104868500Y-132935500D01*
X104868500Y-132935500D02*
X104203500Y-132270500D01*
X108331000Y-132935500D02*
X107408500Y-132935500D01*
X107408500Y-132935500D02*
X106743500Y-132270500D01*
X103919500Y-132935500D02*
X97693000Y-132935500D01*
X97693000Y-132935500D02*
X97195000Y-132437500D01*
X97195000Y-132437500D02*
X97195000Y-131508500D01*
X105219500Y-132935500D02*
X103919500Y-132935500D01*
X111823500Y-135405500D02*
X111339000Y-135405500D01*
X111339000Y-135405500D02*
X108869000Y-132935500D01*
X108869000Y-132935500D02*
X108331000Y-132935500D01*
X108331000Y-132935500D02*
X105219500Y-132935500D01*
X104711500Y-140738860D02*
X106911140Y-140738860D01*
X106911140Y-140738860D02*
X111823500Y-135826500D01*
X111823500Y-135826500D02*
X111823500Y-135405500D01*
D33*
X63855600Y-110154720D02*
X43609260Y-110154720D01*
X43609260Y-110154720D02*
X43411140Y-109956600D01*
X63855600Y-110154720D02*
X68252340Y-110154720D01*
X68252340Y-110154720D02*
X68762880Y-109644180D01*
D30*
X68762880Y-109644180D02*
X68252340Y-110154720D01*
D33*
X61005720Y-127802640D02*
X60960000Y-127848360D01*
X65435840Y-127802640D02*
X61005720Y-127802640D01*
D30*
X65438200Y-127805000D02*
X65435840Y-127802640D01*
X62727840Y-132732780D02*
X62727840Y-132994400D01*
X62019180Y-132748020D02*
X62265560Y-132994400D01*
X62265560Y-132994400D02*
X62466220Y-132994400D01*
X62466220Y-132994400D02*
X62727840Y-132732780D01*
D31*
X99441000Y-113347500D02*
X102743000Y-113347500D01*
X108712000Y-112712500D02*
X108902500Y-112903000D01*
X103378000Y-112712500D02*
X108712000Y-112712500D01*
X102743000Y-113347500D02*
X103378000Y-112712500D01*
X109474000Y-119697500D02*
X108839000Y-120332500D01*
X108839000Y-120332500D02*
X105854500Y-120332500D01*
D32*
X99441000Y-118745000D02*
X99441000Y-113347500D01*
X99441000Y-113347500D02*
X99441000Y-112331500D01*
D31*
X94107000Y-108521500D02*
X89090500Y-108521500D01*
X96393000Y-110807500D02*
X94107000Y-108521500D01*
D32*
X97917000Y-110807500D02*
X96393000Y-110807500D01*
X99441000Y-112331500D02*
X97917000Y-110807500D01*
D31*
X94805500Y-118745000D02*
X94424500Y-119126000D01*
D32*
X105156000Y-118745000D02*
X99441000Y-118745000D01*
X104203500Y-126682500D02*
X105727500Y-125158500D01*
X105727500Y-125158500D02*
X105727500Y-119316500D01*
X105727500Y-119316500D02*
X105156000Y-118745000D01*
X99441000Y-118745000D02*
X94805500Y-118745000D01*
D31*
X25425400Y-122936000D02*
X25425400Y-100660200D01*
X25425400Y-100660200D02*
X26644600Y-99441000D01*
X26644600Y-99441000D02*
X28295600Y-99441000D01*
X25425400Y-122936000D02*
X26347400Y-123858000D01*
D30*
X33375600Y-99441000D02*
X28295600Y-99441000D01*
X33807400Y-99872800D02*
X33375600Y-99441000D01*
X33807400Y-105816400D02*
X33807400Y-99872800D01*
X33909000Y-105918000D02*
X33807400Y-105816400D01*
D31*
X27146000Y-123858000D02*
X26347400Y-123858000D01*
X77622400Y-122529600D02*
X77914500Y-122529600D01*
X74676000Y-129946400D02*
X76606400Y-128016000D01*
X73050400Y-132994400D02*
X73202800Y-132994400D01*
X72136000Y-129946400D02*
X74676000Y-129946400D01*
X76606400Y-128016000D02*
X76606400Y-125476000D01*
X76606400Y-125476000D02*
X76606400Y-123545600D01*
X76606400Y-123545600D02*
X77622400Y-122529600D01*
X77914500Y-122529600D02*
X80327500Y-122529600D01*
X80327500Y-122529600D02*
X83159600Y-122529600D01*
X37439600Y-123240800D02*
X37439600Y-122428000D01*
D32*
X27146000Y-131794000D02*
X27146000Y-129082800D01*
X27146000Y-129082800D02*
X27146000Y-123858000D01*
D31*
X37439600Y-122428000D02*
X37439600Y-115519200D01*
D34*
X104203500Y-129730500D02*
X101346000Y-129730500D01*
X101346000Y-129730500D02*
X99695000Y-128079500D01*
D32*
X61976000Y-132994400D02*
X56794400Y-132994400D01*
X56794400Y-132994400D02*
X28346400Y-132994400D01*
X28346400Y-132994400D02*
X27146000Y-131794000D01*
D34*
X92195650Y-130752850D02*
X92195650Y-130765550D01*
X89966800Y-132994400D02*
X73050400Y-132994400D01*
X73050400Y-132994400D02*
X62727840Y-132994400D01*
X62727840Y-132994400D02*
X61976000Y-132994400D01*
X92195650Y-130765550D02*
X89966800Y-132994400D01*
X94869000Y-128079500D02*
X92195650Y-130752850D01*
X99695000Y-128079500D02*
X94869000Y-128079500D01*
D30*
X30886400Y-108508800D02*
X30886400Y-103327200D01*
X30073600Y-106121200D02*
X30073600Y-114300000D01*
X30073600Y-114300000D02*
X30276800Y-114503200D01*
X45199300Y-99695000D02*
X52133500Y-99695000D01*
D32*
X86065360Y-138366500D02*
X86065360Y-137627360D01*
X86065360Y-137627360D02*
X83616800Y-135178800D01*
D34*
X93068140Y-138493500D02*
X86192360Y-138493500D01*
X86192360Y-138493500D02*
X86065360Y-138366500D01*
D31*
X90805000Y-136588500D02*
X92710000Y-138493500D01*
X92710000Y-138493500D02*
X93068140Y-138493500D01*
D32*
X99695000Y-131508500D02*
X99695000Y-130619500D01*
X93068140Y-132166360D02*
X93068140Y-138493500D01*
X95504000Y-129730500D02*
X93068140Y-132166360D01*
X98806000Y-129730500D02*
X95504000Y-129730500D01*
X99695000Y-130619500D02*
X98806000Y-129730500D01*
D31*
X86065360Y-138366500D02*
X88328500Y-138366500D01*
D30*
X92306140Y-137731500D02*
X93068140Y-138493500D01*
X92941140Y-138366500D02*
X93068140Y-138493500D01*
X96075500Y-107759500D02*
X93345000Y-107759500D01*
X96710500Y-107124500D02*
X96075500Y-107759500D01*
X103352600Y-123398280D02*
X103352600Y-125658880D01*
X102174040Y-126837440D02*
X94294960Y-126837440D01*
X103352600Y-125658880D02*
X102174040Y-126837440D01*
X89357200Y-131775200D02*
X94294960Y-126837440D01*
X79705200Y-131775200D02*
X89357200Y-131775200D01*
X79451200Y-131521200D02*
X79705200Y-131775200D01*
X90525600Y-140360400D02*
X90779600Y-140106400D01*
X90525600Y-142697200D02*
X90525600Y-140360400D01*
X90678000Y-142849600D02*
X90525600Y-142697200D01*
X95605600Y-142849600D02*
X90678000Y-142849600D01*
X99974400Y-142849600D02*
X95605600Y-142849600D01*
X100177600Y-142646400D02*
X99974400Y-142849600D01*
X100177600Y-139547600D02*
X100177600Y-142646400D01*
X101092000Y-138633200D02*
X100177600Y-139547600D01*
X101600000Y-138633200D02*
X101092000Y-138633200D01*
X101803200Y-138430000D02*
X101600000Y-138633200D01*
D32*
X111823500Y-132905500D02*
X111823500Y-132524500D01*
X111823500Y-132524500D02*
X109029500Y-129730500D01*
X109029500Y-129730500D02*
X106743500Y-129730500D01*
D31*
X100139500Y-137350500D02*
X101749860Y-135740140D01*
X101749860Y-135740140D02*
X104711500Y-135740140D01*
X104711500Y-137477500D02*
X104711500Y-135740140D01*
X105346500Y-138112500D02*
X104711500Y-137477500D01*
X100393500Y-138493500D02*
X98066860Y-138493500D01*
X100774500Y-138112500D02*
X100393500Y-138493500D01*
D30*
X54945280Y-121249440D02*
X57017920Y-121249440D01*
X57017920Y-121249440D02*
X57038240Y-121269760D01*
X42870120Y-120716040D02*
X42870120Y-119100600D01*
X45247560Y-123093480D02*
X42870120Y-120716040D01*
X54711600Y-123093480D02*
X45247560Y-123093480D01*
X54719220Y-123101100D02*
X54711600Y-123093480D01*
X45232320Y-122057160D02*
X53949600Y-122057160D01*
X44317920Y-121142760D02*
X45232320Y-122057160D01*
X44317920Y-119321580D02*
X44317920Y-121142760D01*
X44041060Y-119044720D02*
X44317920Y-119321580D01*
X54533800Y-119296180D02*
X57424320Y-119296180D01*
X54510940Y-119273320D02*
X54533800Y-119296180D01*
D31*
X78867000Y-138366500D02*
X81066640Y-138366500D01*
D30*
X51765200Y-135585200D02*
X52120800Y-135229600D01*
X35560000Y-135585200D02*
X51765200Y-135585200D01*
X35458400Y-135483600D02*
X35560000Y-135585200D01*
X35255200Y-130302000D02*
X35204400Y-130352800D01*
X35255200Y-119684800D02*
X35255200Y-130302000D01*
X35306000Y-119634000D02*
X35255200Y-119684800D01*
X38227000Y-119735600D02*
X38227000Y-129870200D01*
X38227000Y-129870200D02*
X38150800Y-129946400D01*
X63093600Y-139496800D02*
X63093600Y-137668000D01*
X63093600Y-137668000D02*
X62433200Y-137007600D01*
X62433200Y-137007600D02*
X37744400Y-137007600D01*
X37744400Y-137007600D02*
X37592000Y-136855200D01*
X62064900Y-140525500D02*
X63093600Y-139496800D01*
X61849000Y-140525500D02*
X62064900Y-140525500D01*
X34493200Y-121970800D02*
X34493200Y-129946400D01*
X33782000Y-130352800D02*
X33782000Y-120497600D01*
D32*
X33782000Y-140208000D02*
X33782000Y-138074400D01*
X33883600Y-137972800D02*
X61722000Y-137972800D01*
X33782000Y-138074400D02*
X33883600Y-137972800D01*
D30*
X74371200Y-98983800D02*
X44716700Y-98983800D01*
X74422000Y-98933000D02*
X74371200Y-98983800D01*
X98171000Y-106426000D02*
X74612500Y-106426000D01*
X98425000Y-106680000D02*
X98171000Y-106426000D01*
X44932600Y-98183700D02*
X44399200Y-98183700D01*
X44399200Y-98183700D02*
X44094400Y-98488500D01*
X99472750Y-105886250D02*
X75469750Y-105886250D01*
X75469750Y-105886250D02*
X75374500Y-105791000D01*
X44932600Y-98183700D02*
X74942700Y-98183700D01*
X101155500Y-107569000D02*
X108775500Y-107569000D01*
X99472750Y-105886250D02*
X101155500Y-107569000D01*
X74942700Y-98183700D02*
X75247500Y-98488500D01*
X43992800Y-98590100D02*
X44094400Y-98488500D01*
X44094400Y-98488500D02*
X44399200Y-98183700D01*
X43992800Y-104889300D02*
X43992800Y-98590100D01*
X44411900Y-105308400D02*
X43992800Y-104889300D01*
X88773000Y-127952500D02*
X84899500Y-127952500D01*
X89344500Y-127381000D02*
X88773000Y-127952500D01*
X63284100Y-122618500D02*
X66103500Y-122618500D01*
X63169800Y-122504200D02*
X63284100Y-122618500D01*
X57175400Y-107607100D02*
X58839100Y-107607100D01*
X58839100Y-107607100D02*
X62242700Y-107607100D01*
X62242700Y-107607100D02*
X63423800Y-108788200D01*
X55930800Y-107442000D02*
X56095900Y-107607100D01*
X56095900Y-107607100D02*
X57175400Y-107607100D01*
X66167000Y-123698000D02*
X60203080Y-123698000D01*
X60203080Y-123698000D02*
X60015120Y-123510040D01*
X58864500Y-106763820D02*
X58846720Y-106781600D01*
X58846720Y-106781600D02*
X55372000Y-106781600D01*
X65798700Y-107835700D02*
X65976500Y-107835700D01*
X64744600Y-106781600D02*
X65798700Y-107835700D01*
X55372000Y-106781600D02*
X64744600Y-106781600D01*
X72115680Y-118880890D02*
X76127610Y-118880890D01*
X76127610Y-118880890D02*
X76159360Y-118912640D01*
X72115680Y-118880890D02*
X57905650Y-118880890D01*
X57287160Y-118262400D02*
X57905650Y-118880890D01*
X41148000Y-118262400D02*
X57287160Y-118262400D01*
X40812720Y-118597680D02*
X41148000Y-118262400D01*
X40020240Y-118597680D02*
X40812720Y-118597680D01*
X39608760Y-118186200D02*
X40020240Y-118597680D01*
X39608760Y-117591840D02*
X39608760Y-118186200D01*
X38328600Y-116311680D02*
X39608760Y-117591840D01*
X33939480Y-115397280D02*
X33901380Y-115359180D01*
X33901380Y-115359180D02*
X33901380Y-107121960D01*
X33901380Y-107121960D02*
X33939480Y-107083860D01*
X33939480Y-107083860D02*
X34983420Y-107083860D01*
X39517320Y-101711760D02*
X41371520Y-103565960D01*
X41371520Y-103565960D02*
X41371520Y-115051840D01*
X41595040Y-115275360D02*
X41371520Y-115051840D01*
X70774560Y-115275360D02*
X41595040Y-115275360D01*
X70942200Y-115443000D02*
X70774560Y-115275360D01*
X69768720Y-141325600D02*
X69783960Y-141325600D01*
X53888640Y-135072120D02*
X54452520Y-135636000D01*
X54452520Y-135636000D02*
X68671440Y-135636000D01*
X68671440Y-135636000D02*
X69768720Y-136733280D01*
X69768720Y-136733280D02*
X69768720Y-141325600D01*
X69783960Y-141325600D02*
X69783960Y-141351000D01*
X69783960Y-141351000D02*
X69783960Y-141325600D01*
X73355200Y-141325600D02*
X69783960Y-141325600D01*
X69783960Y-141325600D02*
X68427600Y-141325600D01*
X68326000Y-141224000D02*
X68326000Y-137109200D01*
X68427600Y-141325600D02*
X68326000Y-141224000D01*
X83667600Y-141579600D02*
X83413600Y-141833600D01*
X83413600Y-141833600D02*
X83413600Y-142544800D01*
X83413600Y-142544800D02*
X83108800Y-142849600D01*
X83108800Y-142849600D02*
X74879200Y-142849600D01*
X74879200Y-142849600D02*
X73355200Y-141325600D01*
X64155320Y-114554000D02*
X42560240Y-114554000D01*
X42560240Y-114554000D02*
X41945560Y-113939320D01*
X41945560Y-103012240D02*
X41945560Y-113939320D01*
X39944040Y-101010720D02*
X41945560Y-103012240D01*
X38869620Y-101010720D02*
X39944040Y-101010720D01*
X38633400Y-101246940D02*
X38869620Y-101010720D01*
X38633400Y-102138480D02*
X38633400Y-101246940D01*
X38999160Y-102504240D02*
X38633400Y-102138480D01*
X41706800Y-125069600D02*
X41706800Y-119735600D01*
X41706800Y-119735600D02*
X41656000Y-119684800D01*
X41706800Y-134112000D02*
X64922400Y-134112000D01*
X64922400Y-134112000D02*
X65125600Y-134315200D01*
X41706800Y-125069600D02*
X41706800Y-130352800D01*
D31*
X78028800Y-131622800D02*
X76606400Y-131622800D01*
X78994000Y-130657600D02*
X78028800Y-131622800D01*
X79908400Y-130657600D02*
X78994000Y-130657600D01*
X80365600Y-131114800D02*
X79908400Y-130657600D01*
X87985600Y-131114800D02*
X80365600Y-131114800D01*
X92100400Y-127000000D02*
X87985600Y-131114800D01*
D30*
X35272980Y-117142260D02*
X35272980Y-111671100D01*
X38633400Y-108310680D02*
X38633400Y-104780080D01*
X35272980Y-111671100D02*
X38633400Y-108310680D01*
X35928300Y-129783840D02*
X35928300Y-122735340D01*
X33086040Y-119329200D02*
X35272980Y-117142260D01*
X35272980Y-117142260D02*
X35280600Y-117134640D01*
X33086040Y-122864880D02*
X33086040Y-119329200D01*
X33116520Y-122895360D02*
X33086040Y-122864880D01*
X35928300Y-122735340D02*
X35966400Y-122697240D01*
X35928300Y-130683000D02*
X35928300Y-129783840D01*
X36309300Y-131064000D02*
X35928300Y-130683000D01*
X60251340Y-131064000D02*
X36309300Y-131064000D01*
X60617100Y-130698240D02*
X60251340Y-131064000D01*
X74858880Y-130698240D02*
X60617100Y-130698240D01*
X77388720Y-128168400D02*
X74858880Y-130698240D01*
X77388720Y-125775720D02*
X77388720Y-128168400D01*
X77815440Y-125349000D02*
X77388720Y-125775720D01*
X85495130Y-126185930D02*
X92596970Y-126185930D01*
X85310980Y-126001780D02*
X85495130Y-126185930D01*
X39740840Y-100228400D02*
X39878000Y-100228400D01*
X39878000Y-100228400D02*
X42550080Y-102900480D01*
X73792080Y-121615200D02*
X73700640Y-121615200D01*
X73700640Y-121615200D02*
X73253600Y-121168160D01*
X73860660Y-121615200D02*
X73792080Y-121615200D01*
X73700640Y-121615200D02*
X73253600Y-121168160D01*
X74333100Y-121615200D02*
X73860660Y-121615200D01*
X73700640Y-121615200D02*
X73571100Y-121485660D01*
X93047820Y-126636780D02*
X92596970Y-126185930D01*
X93047820Y-127154940D02*
X93047820Y-126636780D01*
X92781120Y-127421640D02*
X93047820Y-127154940D01*
X92781120Y-127436880D02*
X92781120Y-127421640D01*
X91005660Y-129212340D02*
X92781120Y-127436880D01*
X73253600Y-121168160D02*
X73571100Y-121485660D01*
X73571100Y-121485660D02*
X73700640Y-121615200D01*
X42550080Y-102900480D02*
X42550080Y-110723680D01*
X42550080Y-110723680D02*
X42732960Y-110906560D01*
X42732960Y-110906560D02*
X69758560Y-110906560D01*
X69758560Y-110906560D02*
X69799200Y-110865920D01*
X69799200Y-110865920D02*
X72346820Y-110865920D01*
X72346820Y-110865920D02*
X72382380Y-110901480D01*
X72382380Y-110901480D02*
X73197720Y-110901480D01*
X84714080Y-121884440D02*
X84444840Y-121615200D01*
X84444840Y-121615200D02*
X74333100Y-121615200D01*
X31597600Y-129946400D02*
X31546800Y-100177600D01*
X43586400Y-136144000D02*
X32258000Y-136144000D01*
X60502800Y-136144000D02*
X43586400Y-136144000D01*
X68275200Y-136144000D02*
X60502800Y-136144000D01*
X69037200Y-136906000D02*
X68275200Y-136144000D01*
X69037200Y-140004800D02*
X69037200Y-136906000D01*
X69088000Y-140055600D02*
X69037200Y-140004800D01*
X32771080Y-131216400D02*
X30495240Y-131216400D01*
X30495240Y-131216400D02*
X29616400Y-130337560D01*
X29616400Y-127459740D02*
X29616400Y-130337560D01*
X29616400Y-124002800D02*
X29616400Y-106883200D01*
X29616400Y-106883200D02*
X29311600Y-106578400D01*
X29311600Y-106578400D02*
X29311600Y-100990400D01*
X29311600Y-100990400D02*
X29565600Y-100736400D01*
X29565600Y-100736400D02*
X30835600Y-100736400D01*
X29616400Y-124002800D02*
X29616400Y-127459740D01*
X32867600Y-131216400D02*
X32771080Y-131216400D01*
X33223200Y-131572000D02*
X32867600Y-131216400D01*
X60502800Y-131572000D02*
X33223200Y-131572000D01*
X60909200Y-131165600D02*
X60502800Y-131572000D01*
X75285600Y-131165600D02*
X60909200Y-131165600D01*
X76149200Y-130302000D02*
X75285600Y-131165600D01*
X77520800Y-130302000D02*
X76149200Y-130302000D01*
X78689200Y-129133600D02*
X77520800Y-130302000D01*
X79146400Y-129133600D02*
X78689200Y-129133600D01*
X79298800Y-128981200D02*
X79146400Y-129133600D01*
X81432400Y-124256800D02*
X84988400Y-124256800D01*
X80975200Y-124714000D02*
X81432400Y-124256800D01*
X80975200Y-129438400D02*
X80975200Y-124714000D01*
X80721200Y-129692400D02*
X80975200Y-129438400D01*
X78892400Y-129692400D02*
X80721200Y-129692400D01*
X77774800Y-130810000D02*
X78892400Y-129692400D01*
X76352400Y-130810000D02*
X77774800Y-130810000D01*
X75488800Y-131673600D02*
X76352400Y-130810000D01*
X61112400Y-131673600D02*
X75488800Y-131673600D01*
X60655200Y-132130800D02*
X61112400Y-131673600D01*
X32664400Y-132130800D02*
X60655200Y-132130800D01*
X32461200Y-131927600D02*
X32664400Y-132130800D01*
X32461200Y-118618000D02*
X32461200Y-129997200D01*
X32308800Y-118465600D02*
X32461200Y-118618000D01*
X40487600Y-111252000D02*
X40487600Y-117906800D01*
X46380400Y-111709200D02*
X70129400Y-111709200D01*
X70129400Y-111709200D02*
X70269100Y-111569500D01*
X71043800Y-112471200D02*
X45059600Y-112471200D01*
X71069200Y-112445800D02*
X71043800Y-112471200D01*
X45821600Y-113182400D02*
X71755000Y-113182400D01*
X71755000Y-113182400D02*
X71793100Y-113220500D01*
X88646006Y-101597682D02*
X89346818Y-101597682D01*
X89346818Y-101597682D02*
X90043000Y-100901500D01*
X44246800Y-113893600D02*
X72263000Y-113893600D01*
X73939400Y-101561900D02*
X88646006Y-101597682D01*
X73914000Y-101536500D02*
X73939400Y-101561900D01*
X72504300Y-113652300D02*
X73914000Y-113652300D01*
X72263000Y-113893600D02*
X72504300Y-113652300D01*
X76009500Y-100787200D02*
X57378600Y-100787200D01*
X76111100Y-100888800D02*
X76009500Y-100787200D01*
X56705500Y-99618800D02*
X76098400Y-99618800D01*
X56692800Y-99631500D02*
X56705500Y-99618800D01*
X87757000Y-118237000D02*
X58166000Y-118237000D01*
X88519000Y-117475000D02*
X87757000Y-118237000D01*
X60134500Y-117284500D02*
X87249000Y-117284500D01*
X59944000Y-117475000D02*
X60134500Y-117284500D01*
X60198000Y-116522500D02*
X60134500Y-116459000D01*
X90233500Y-116522500D02*
X60198000Y-116522500D01*
X91059000Y-117348000D02*
X90233500Y-116522500D01*
X36728400Y-128473200D02*
X36779200Y-128473200D01*
X36779200Y-128473200D02*
X36728400Y-128524000D01*
X36728400Y-111607600D02*
X36728400Y-128473200D01*
X36830000Y-111506000D02*
X36728400Y-111607600D01*
X97370900Y-114642900D02*
X89034620Y-114642900D01*
X89034620Y-114642900D02*
X87919560Y-115757960D01*
X84810600Y-98501200D02*
X84912200Y-98501200D01*
X84912200Y-98501200D02*
X85242400Y-98171000D01*
X78790800Y-98501200D02*
X84810600Y-98501200D01*
X85242400Y-98171000D02*
X85242400Y-96824800D01*
X77393800Y-97104200D02*
X78790800Y-98501200D01*
X78206600Y-96824800D02*
X82702400Y-96824800D01*
X77190600Y-95808800D02*
X78206600Y-96824800D01*
D35*
G36*
X25862479Y-124150897D02*
X25892792Y-124303290D01*
X26145029Y-124680789D01*
X26346000Y-124815074D01*
X26346000Y-131794000D01*
X26392973Y-132030152D01*
X26406896Y-132100147D01*
X26580315Y-132359685D01*
X27780715Y-133560085D01*
X28040253Y-133733504D01*
X28346400Y-133794400D01*
X41189008Y-133794400D01*
X41106904Y-133992129D01*
X41106696Y-134230824D01*
X41197848Y-134451429D01*
X41366483Y-134620359D01*
X41586929Y-134711896D01*
X41825624Y-134712104D01*
X42046229Y-134620952D01*
X42130328Y-134537000D01*
X53612542Y-134537000D01*
X53549211Y-134563168D01*
X53380281Y-134731803D01*
X53288744Y-134952249D01*
X53288536Y-135190944D01*
X53379688Y-135411549D01*
X53548323Y-135580479D01*
X53768769Y-135672016D01*
X53887599Y-135672120D01*
X53934479Y-135719000D01*
X52479815Y-135719000D01*
X52629159Y-135569917D01*
X52720696Y-135349471D01*
X52720904Y-135110776D01*
X52629752Y-134890171D01*
X52461117Y-134721241D01*
X52240671Y-134629704D01*
X52001976Y-134629496D01*
X51781371Y-134720648D01*
X51612441Y-134889283D01*
X51520904Y-135109729D01*
X51520860Y-135160200D01*
X35973975Y-135160200D01*
X35967352Y-135144171D01*
X35798717Y-134975241D01*
X35578271Y-134883704D01*
X35339576Y-134883496D01*
X35118971Y-134974648D01*
X34950041Y-135143283D01*
X34858504Y-135363729D01*
X34858296Y-135602424D01*
X34906464Y-135719000D01*
X32681530Y-135719000D01*
X32598317Y-135635641D01*
X32377871Y-135544104D01*
X32139176Y-135543896D01*
X31918571Y-135635048D01*
X31749641Y-135803683D01*
X31658104Y-136024129D01*
X31657896Y-136262824D01*
X31749048Y-136483429D01*
X31917683Y-136652359D01*
X32138129Y-136743896D01*
X32376824Y-136744104D01*
X32597429Y-136652952D01*
X32681528Y-136569000D01*
X37061170Y-136569000D01*
X36992104Y-136735329D01*
X36991896Y-136974024D01*
X37074028Y-137172800D01*
X33883600Y-137172800D01*
X33600705Y-137229071D01*
X33577453Y-137233696D01*
X33317915Y-137407115D01*
X33216315Y-137508715D01*
X33042896Y-137768253D01*
X32982000Y-138074400D01*
X32982000Y-139191802D01*
X32959211Y-139207029D01*
X32706974Y-139584528D01*
X32618400Y-140029818D01*
X32618400Y-140386182D01*
X32706974Y-140831472D01*
X32959211Y-141208971D01*
X33336710Y-141461208D01*
X33782000Y-141549782D01*
X34227290Y-141461208D01*
X34604789Y-141208971D01*
X34857026Y-140831472D01*
X34945600Y-140386182D01*
X34945600Y-140029818D01*
X35158400Y-140029818D01*
X35158400Y-140386182D01*
X35246974Y-140831472D01*
X35499211Y-141208971D01*
X35876710Y-141461208D01*
X36322000Y-141549782D01*
X36767290Y-141461208D01*
X37144789Y-141208971D01*
X37397026Y-140831472D01*
X37485600Y-140386182D01*
X37485600Y-140029818D01*
X37698400Y-140029818D01*
X37698400Y-140386182D01*
X37786974Y-140831472D01*
X38039211Y-141208971D01*
X38416710Y-141461208D01*
X38862000Y-141549782D01*
X39307290Y-141461208D01*
X39684789Y-141208971D01*
X39937026Y-140831472D01*
X40025600Y-140386182D01*
X40025600Y-140029818D01*
X39937026Y-139584528D01*
X39684789Y-139207029D01*
X39307290Y-138954792D01*
X38862000Y-138866218D01*
X38416710Y-138954792D01*
X38039211Y-139207029D01*
X37786974Y-139584528D01*
X37698400Y-140029818D01*
X37485600Y-140029818D01*
X37397026Y-139584528D01*
X37144789Y-139207029D01*
X36767290Y-138954792D01*
X36322000Y-138866218D01*
X35876710Y-138954792D01*
X35499211Y-139207029D01*
X35246974Y-139584528D01*
X35158400Y-140029818D01*
X34945600Y-140029818D01*
X34857026Y-139584528D01*
X34604789Y-139207029D01*
X34582000Y-139191802D01*
X34582000Y-138772800D01*
X42637758Y-138772800D01*
X42562963Y-138847595D01*
X42470400Y-139071061D01*
X42470400Y-139574611D01*
X42224789Y-139207029D01*
X41847290Y-138954792D01*
X41402000Y-138866218D01*
X40956710Y-138954792D01*
X40579211Y-139207029D01*
X40326974Y-139584528D01*
X40238400Y-140029818D01*
X40238400Y-140386182D01*
X40326974Y-140831472D01*
X40579211Y-141208971D01*
X40956710Y-141461208D01*
X41402000Y-141549782D01*
X41847290Y-141461208D01*
X42224789Y-141208971D01*
X42470400Y-140841389D01*
X42470400Y-141344939D01*
X42562963Y-141568405D01*
X42733996Y-141739438D01*
X42957462Y-141832000D01*
X43636000Y-141832000D01*
X43788000Y-141680000D01*
X43788000Y-140362000D01*
X44096000Y-140362000D01*
X44096000Y-141680000D01*
X44248000Y-141832000D01*
X44926538Y-141832000D01*
X45150004Y-141739438D01*
X45321037Y-141568405D01*
X45413600Y-141344939D01*
X45413600Y-140514000D01*
X45261600Y-140362000D01*
X44096000Y-140362000D01*
X43788000Y-140362000D01*
X43768000Y-140362000D01*
X43768000Y-140283818D01*
X46588400Y-140283818D01*
X46588400Y-140640182D01*
X46676974Y-141085472D01*
X46929211Y-141462971D01*
X47306710Y-141715208D01*
X47752000Y-141803782D01*
X48197290Y-141715208D01*
X48574789Y-141462971D01*
X48827026Y-141085472D01*
X48862121Y-140909040D01*
X49038162Y-141384629D01*
X49428359Y-141805822D01*
X49910951Y-142035811D01*
X50138000Y-141924983D01*
X50138000Y-140616000D01*
X50118000Y-140616000D01*
X50118000Y-140308000D01*
X50138000Y-140308000D01*
X50138000Y-138999017D01*
X50446000Y-138999017D01*
X50446000Y-140308000D01*
X50466000Y-140308000D01*
X50466000Y-140616000D01*
X50446000Y-140616000D01*
X50446000Y-141924983D01*
X50673049Y-142035811D01*
X51155641Y-141805822D01*
X51545838Y-141384629D01*
X51662523Y-141069396D01*
X51662523Y-141478000D01*
X51683442Y-141589173D01*
X51749145Y-141691279D01*
X51849397Y-141759778D01*
X51968400Y-141783877D01*
X53695600Y-141783877D01*
X53806773Y-141762958D01*
X53908879Y-141697255D01*
X53977378Y-141597003D01*
X54001477Y-141478000D01*
X54001477Y-140831500D01*
X55297400Y-140831500D01*
X55297400Y-141662439D01*
X55389963Y-141885905D01*
X55560996Y-142056938D01*
X55784462Y-142149500D01*
X56463000Y-142149500D01*
X56615000Y-141997500D01*
X56615000Y-140679500D01*
X55449400Y-140679500D01*
X55297400Y-140831500D01*
X54001477Y-140831500D01*
X54001477Y-139446000D01*
X53990669Y-139388561D01*
X55297400Y-139388561D01*
X55297400Y-140219500D01*
X55449400Y-140371500D01*
X56615000Y-140371500D01*
X56615000Y-139053500D01*
X56923000Y-139053500D01*
X56923000Y-140371500D01*
X56943000Y-140371500D01*
X56943000Y-140679500D01*
X56923000Y-140679500D01*
X56923000Y-141997500D01*
X57075000Y-142149500D01*
X57753538Y-142149500D01*
X57977004Y-142056938D01*
X58148037Y-141885905D01*
X58240600Y-141662439D01*
X58240600Y-141158889D01*
X58486211Y-141526471D01*
X58863710Y-141778708D01*
X59309000Y-141867282D01*
X59754290Y-141778708D01*
X60131789Y-141526471D01*
X60384026Y-141148972D01*
X60472600Y-140703682D01*
X60472600Y-140347318D01*
X60384026Y-139902028D01*
X60131789Y-139524529D01*
X59754290Y-139272292D01*
X59309000Y-139183718D01*
X58863710Y-139272292D01*
X58486211Y-139524529D01*
X58240600Y-139892111D01*
X58240600Y-139388561D01*
X58148037Y-139165095D01*
X57977004Y-138994062D01*
X57753538Y-138901500D01*
X57075000Y-138901500D01*
X56923000Y-139053500D01*
X56615000Y-139053500D01*
X56463000Y-138901500D01*
X55784462Y-138901500D01*
X55560996Y-138994062D01*
X55389963Y-139165095D01*
X55297400Y-139388561D01*
X53990669Y-139388561D01*
X53980558Y-139334827D01*
X53914855Y-139232721D01*
X53814603Y-139164222D01*
X53695600Y-139140123D01*
X51968400Y-139140123D01*
X51857227Y-139161042D01*
X51755121Y-139226745D01*
X51686622Y-139326997D01*
X51662523Y-139446000D01*
X51662523Y-139854604D01*
X51545838Y-139539371D01*
X51155641Y-139118178D01*
X50673049Y-138888189D01*
X50446000Y-138999017D01*
X50138000Y-138999017D01*
X49910951Y-138888189D01*
X49428359Y-139118178D01*
X49038162Y-139539371D01*
X48862121Y-140014960D01*
X48827026Y-139838528D01*
X48574789Y-139461029D01*
X48197290Y-139208792D01*
X47752000Y-139120218D01*
X47306710Y-139208792D01*
X46929211Y-139461029D01*
X46676974Y-139838528D01*
X46588400Y-140283818D01*
X43768000Y-140283818D01*
X43768000Y-140054000D01*
X43788000Y-140054000D01*
X43788000Y-140034000D01*
X44096000Y-140034000D01*
X44096000Y-140054000D01*
X45261600Y-140054000D01*
X45413600Y-139902000D01*
X45413600Y-139071061D01*
X45321037Y-138847595D01*
X45246242Y-138772800D01*
X61721302Y-138772800D01*
X61880432Y-138772939D01*
X62174572Y-138651403D01*
X62399812Y-138426555D01*
X62521861Y-138132628D01*
X62522139Y-137814368D01*
X62439904Y-137615345D01*
X62668600Y-137844041D01*
X62668600Y-139320759D01*
X62547726Y-139441633D01*
X62294290Y-139272292D01*
X61849000Y-139183718D01*
X61403710Y-139272292D01*
X61026211Y-139524529D01*
X60773974Y-139902028D01*
X60685400Y-140347318D01*
X60685400Y-140703682D01*
X60773974Y-141148972D01*
X61026211Y-141526471D01*
X61403710Y-141778708D01*
X61849000Y-141867282D01*
X62294290Y-141778708D01*
X62671789Y-141526471D01*
X62765360Y-141386431D01*
X66182358Y-141386431D01*
X66241622Y-141606194D01*
X66717983Y-141759634D01*
X67216802Y-141719099D01*
X67489378Y-141606194D01*
X67548642Y-141386431D01*
X66865500Y-140703289D01*
X66182358Y-141386431D01*
X62765360Y-141386431D01*
X62924026Y-141148972D01*
X63012600Y-140703682D01*
X63012600Y-140347318D01*
X63010744Y-140337983D01*
X65591366Y-140337983D01*
X65631901Y-140836802D01*
X65744806Y-141109378D01*
X65964569Y-141168642D01*
X66647711Y-140485500D01*
X65964569Y-139802358D01*
X65744806Y-139861622D01*
X65591366Y-140337983D01*
X63010744Y-140337983D01*
X62984648Y-140206793D01*
X63394120Y-139797321D01*
X63486248Y-139659441D01*
X63486249Y-139659440D01*
X63501141Y-139584569D01*
X66182358Y-139584569D01*
X66865500Y-140267711D01*
X67548642Y-139584569D01*
X67489378Y-139364806D01*
X67013017Y-139211366D01*
X66514198Y-139251901D01*
X66241622Y-139364806D01*
X66182358Y-139584569D01*
X63501141Y-139584569D01*
X63518600Y-139496800D01*
X63518600Y-137668000D01*
X63508567Y-137617559D01*
X63486249Y-137505359D01*
X63394121Y-137367480D01*
X62733720Y-136707080D01*
X62595841Y-136614951D01*
X62568857Y-136609584D01*
X62433200Y-136582600D01*
X38128565Y-136582600D01*
X38122946Y-136569000D01*
X68062197Y-136569000D01*
X67986571Y-136600248D01*
X67817641Y-136768883D01*
X67726104Y-136989329D01*
X67725993Y-137116234D01*
X67634503Y-137053722D01*
X67515500Y-137029623D01*
X66215500Y-137029623D01*
X66104327Y-137050542D01*
X66002221Y-137116245D01*
X65933722Y-137216497D01*
X65909623Y-137335500D01*
X65909623Y-138635500D01*
X65930542Y-138746673D01*
X65996245Y-138848779D01*
X66096497Y-138917278D01*
X66215500Y-138941377D01*
X67515500Y-138941377D01*
X67626673Y-138920458D01*
X67728779Y-138854755D01*
X67797278Y-138754503D01*
X67821377Y-138635500D01*
X67821377Y-137452966D01*
X67901000Y-137532728D01*
X67901000Y-139838648D01*
X67766431Y-139802358D01*
X67083289Y-140485500D01*
X67766431Y-141168642D01*
X67901000Y-141132352D01*
X67901000Y-141224000D01*
X67925056Y-141344939D01*
X67933351Y-141386641D01*
X68025480Y-141524520D01*
X68127080Y-141626120D01*
X68264959Y-141718249D01*
X68291943Y-141723616D01*
X68427600Y-141750600D01*
X69656265Y-141750600D01*
X69783960Y-141776000D01*
X69911655Y-141750600D01*
X72931670Y-141750600D01*
X73014883Y-141833959D01*
X73235329Y-141925496D01*
X73354159Y-141925600D01*
X74309559Y-142881000D01*
X28298978Y-142881000D01*
X28751246Y-142694127D01*
X29407821Y-142038697D01*
X29763595Y-141181899D01*
X29764404Y-140254172D01*
X29410127Y-139396754D01*
X28754697Y-138740179D01*
X27897899Y-138384405D01*
X26970172Y-138383596D01*
X26112754Y-138737873D01*
X25456179Y-139393303D01*
X25267000Y-139848896D01*
X25267000Y-135840400D01*
X25452400Y-135840400D01*
X25452400Y-136671339D01*
X25544963Y-136894805D01*
X25715996Y-137065838D01*
X25939462Y-137158400D01*
X26770400Y-137158400D01*
X26922400Y-137006400D01*
X26922400Y-135688400D01*
X25604400Y-135688400D01*
X25452400Y-135840400D01*
X25267000Y-135840400D01*
X25267000Y-134397461D01*
X25452400Y-134397461D01*
X25452400Y-135228400D01*
X25604400Y-135380400D01*
X26922400Y-135380400D01*
X26922400Y-134062400D01*
X27230400Y-134062400D01*
X27230400Y-135380400D01*
X27250400Y-135380400D01*
X27250400Y-135688400D01*
X27230400Y-135688400D01*
X27230400Y-137006400D01*
X27382400Y-137158400D01*
X28213338Y-137158400D01*
X28436804Y-137065838D01*
X28607837Y-136894805D01*
X28700400Y-136671339D01*
X28700400Y-136500459D01*
X29112789Y-136776007D01*
X29616400Y-136876182D01*
X30120011Y-136776007D01*
X30546953Y-136490735D01*
X30832225Y-136063793D01*
X30932400Y-135560182D01*
X30932400Y-135508618D01*
X30832225Y-135005007D01*
X30546953Y-134578065D01*
X30120011Y-134292793D01*
X29616400Y-134192618D01*
X29112789Y-134292793D01*
X28700400Y-134568341D01*
X28700400Y-134397461D01*
X28607837Y-134173995D01*
X28436804Y-134002962D01*
X28213338Y-133910400D01*
X27382400Y-133910400D01*
X27230400Y-134062400D01*
X26922400Y-134062400D01*
X26770400Y-133910400D01*
X25939462Y-133910400D01*
X25715996Y-134002962D01*
X25544963Y-134173995D01*
X25452400Y-134397461D01*
X25267000Y-134397461D01*
X25267000Y-123555418D01*
X25862479Y-124150897D01*
X25862479Y-124150897D01*
G37*
X25862479Y-124150897D02*
X25892792Y-124303290D01*
X26145029Y-124680789D01*
X26346000Y-124815074D01*
X26346000Y-131794000D01*
X26392973Y-132030152D01*
X26406896Y-132100147D01*
X26580315Y-132359685D01*
X27780715Y-133560085D01*
X28040253Y-133733504D01*
X28346400Y-133794400D01*
X41189008Y-133794400D01*
X41106904Y-133992129D01*
X41106696Y-134230824D01*
X41197848Y-134451429D01*
X41366483Y-134620359D01*
X41586929Y-134711896D01*
X41825624Y-134712104D01*
X42046229Y-134620952D01*
X42130328Y-134537000D01*
X53612542Y-134537000D01*
X53549211Y-134563168D01*
X53380281Y-134731803D01*
X53288744Y-134952249D01*
X53288536Y-135190944D01*
X53379688Y-135411549D01*
X53548323Y-135580479D01*
X53768769Y-135672016D01*
X53887599Y-135672120D01*
X53934479Y-135719000D01*
X52479815Y-135719000D01*
X52629159Y-135569917D01*
X52720696Y-135349471D01*
X52720904Y-135110776D01*
X52629752Y-134890171D01*
X52461117Y-134721241D01*
X52240671Y-134629704D01*
X52001976Y-134629496D01*
X51781371Y-134720648D01*
X51612441Y-134889283D01*
X51520904Y-135109729D01*
X51520860Y-135160200D01*
X35973975Y-135160200D01*
X35967352Y-135144171D01*
X35798717Y-134975241D01*
X35578271Y-134883704D01*
X35339576Y-134883496D01*
X35118971Y-134974648D01*
X34950041Y-135143283D01*
X34858504Y-135363729D01*
X34858296Y-135602424D01*
X34906464Y-135719000D01*
X32681530Y-135719000D01*
X32598317Y-135635641D01*
X32377871Y-135544104D01*
X32139176Y-135543896D01*
X31918571Y-135635048D01*
X31749641Y-135803683D01*
X31658104Y-136024129D01*
X31657896Y-136262824D01*
X31749048Y-136483429D01*
X31917683Y-136652359D01*
X32138129Y-136743896D01*
X32376824Y-136744104D01*
X32597429Y-136652952D01*
X32681528Y-136569000D01*
X37061170Y-136569000D01*
X36992104Y-136735329D01*
X36991896Y-136974024D01*
X37074028Y-137172800D01*
X33883600Y-137172800D01*
X33600705Y-137229071D01*
X33577453Y-137233696D01*
X33317915Y-137407115D01*
X33216315Y-137508715D01*
X33042896Y-137768253D01*
X32982000Y-138074400D01*
X32982000Y-139191802D01*
X32959211Y-139207029D01*
X32706974Y-139584528D01*
X32618400Y-140029818D01*
X32618400Y-140386182D01*
X32706974Y-140831472D01*
X32959211Y-141208971D01*
X33336710Y-141461208D01*
X33782000Y-141549782D01*
X34227290Y-141461208D01*
X34604789Y-141208971D01*
X34857026Y-140831472D01*
X34945600Y-140386182D01*
X34945600Y-140029818D01*
X35158400Y-140029818D01*
X35158400Y-140386182D01*
X35246974Y-140831472D01*
X35499211Y-141208971D01*
X35876710Y-141461208D01*
X36322000Y-141549782D01*
X36767290Y-141461208D01*
X37144789Y-141208971D01*
X37397026Y-140831472D01*
X37485600Y-140386182D01*
X37485600Y-140029818D01*
X37698400Y-140029818D01*
X37698400Y-140386182D01*
X37786974Y-140831472D01*
X38039211Y-141208971D01*
X38416710Y-141461208D01*
X38862000Y-141549782D01*
X39307290Y-141461208D01*
X39684789Y-141208971D01*
X39937026Y-140831472D01*
X40025600Y-140386182D01*
X40025600Y-140029818D01*
X39937026Y-139584528D01*
X39684789Y-139207029D01*
X39307290Y-138954792D01*
X38862000Y-138866218D01*
X38416710Y-138954792D01*
X38039211Y-139207029D01*
X37786974Y-139584528D01*
X37698400Y-140029818D01*
X37485600Y-140029818D01*
X37397026Y-139584528D01*
X37144789Y-139207029D01*
X36767290Y-138954792D01*
X36322000Y-138866218D01*
X35876710Y-138954792D01*
X35499211Y-139207029D01*
X35246974Y-139584528D01*
X35158400Y-140029818D01*
X34945600Y-140029818D01*
X34857026Y-139584528D01*
X34604789Y-139207029D01*
X34582000Y-139191802D01*
X34582000Y-138772800D01*
X42637758Y-138772800D01*
X42562963Y-138847595D01*
X42470400Y-139071061D01*
X42470400Y-139574611D01*
X42224789Y-139207029D01*
X41847290Y-138954792D01*
X41402000Y-138866218D01*
X40956710Y-138954792D01*
X40579211Y-139207029D01*
X40326974Y-139584528D01*
X40238400Y-140029818D01*
X40238400Y-140386182D01*
X40326974Y-140831472D01*
X40579211Y-141208971D01*
X40956710Y-141461208D01*
X41402000Y-141549782D01*
X41847290Y-141461208D01*
X42224789Y-141208971D01*
X42470400Y-140841389D01*
X42470400Y-141344939D01*
X42562963Y-141568405D01*
X42733996Y-141739438D01*
X42957462Y-141832000D01*
X43636000Y-141832000D01*
X43788000Y-141680000D01*
X43788000Y-140362000D01*
X44096000Y-140362000D01*
X44096000Y-141680000D01*
X44248000Y-141832000D01*
X44926538Y-141832000D01*
X45150004Y-141739438D01*
X45321037Y-141568405D01*
X45413600Y-141344939D01*
X45413600Y-140514000D01*
X45261600Y-140362000D01*
X44096000Y-140362000D01*
X43788000Y-140362000D01*
X43768000Y-140362000D01*
X43768000Y-140283818D01*
X46588400Y-140283818D01*
X46588400Y-140640182D01*
X46676974Y-141085472D01*
X46929211Y-141462971D01*
X47306710Y-141715208D01*
X47752000Y-141803782D01*
X48197290Y-141715208D01*
X48574789Y-141462971D01*
X48827026Y-141085472D01*
X48862121Y-140909040D01*
X49038162Y-141384629D01*
X49428359Y-141805822D01*
X49910951Y-142035811D01*
X50138000Y-141924983D01*
X50138000Y-140616000D01*
X50118000Y-140616000D01*
X50118000Y-140308000D01*
X50138000Y-140308000D01*
X50138000Y-138999017D01*
X50446000Y-138999017D01*
X50446000Y-140308000D01*
X50466000Y-140308000D01*
X50466000Y-140616000D01*
X50446000Y-140616000D01*
X50446000Y-141924983D01*
X50673049Y-142035811D01*
X51155641Y-141805822D01*
X51545838Y-141384629D01*
X51662523Y-141069396D01*
X51662523Y-141478000D01*
X51683442Y-141589173D01*
X51749145Y-141691279D01*
X51849397Y-141759778D01*
X51968400Y-141783877D01*
X53695600Y-141783877D01*
X53806773Y-141762958D01*
X53908879Y-141697255D01*
X53977378Y-141597003D01*
X54001477Y-141478000D01*
X54001477Y-140831500D01*
X55297400Y-140831500D01*
X55297400Y-141662439D01*
X55389963Y-141885905D01*
X55560996Y-142056938D01*
X55784462Y-142149500D01*
X56463000Y-142149500D01*
X56615000Y-141997500D01*
X56615000Y-140679500D01*
X55449400Y-140679500D01*
X55297400Y-140831500D01*
X54001477Y-140831500D01*
X54001477Y-139446000D01*
X53990669Y-139388561D01*
X55297400Y-139388561D01*
X55297400Y-140219500D01*
X55449400Y-140371500D01*
X56615000Y-140371500D01*
X56615000Y-139053500D01*
X56923000Y-139053500D01*
X56923000Y-140371500D01*
X56943000Y-140371500D01*
X56943000Y-140679500D01*
X56923000Y-140679500D01*
X56923000Y-141997500D01*
X57075000Y-142149500D01*
X57753538Y-142149500D01*
X57977004Y-142056938D01*
X58148037Y-141885905D01*
X58240600Y-141662439D01*
X58240600Y-141158889D01*
X58486211Y-141526471D01*
X58863710Y-141778708D01*
X59309000Y-141867282D01*
X59754290Y-141778708D01*
X60131789Y-141526471D01*
X60384026Y-141148972D01*
X60472600Y-140703682D01*
X60472600Y-140347318D01*
X60384026Y-139902028D01*
X60131789Y-139524529D01*
X59754290Y-139272292D01*
X59309000Y-139183718D01*
X58863710Y-139272292D01*
X58486211Y-139524529D01*
X58240600Y-139892111D01*
X58240600Y-139388561D01*
X58148037Y-139165095D01*
X57977004Y-138994062D01*
X57753538Y-138901500D01*
X57075000Y-138901500D01*
X56923000Y-139053500D01*
X56615000Y-139053500D01*
X56463000Y-138901500D01*
X55784462Y-138901500D01*
X55560996Y-138994062D01*
X55389963Y-139165095D01*
X55297400Y-139388561D01*
X53990669Y-139388561D01*
X53980558Y-139334827D01*
X53914855Y-139232721D01*
X53814603Y-139164222D01*
X53695600Y-139140123D01*
X51968400Y-139140123D01*
X51857227Y-139161042D01*
X51755121Y-139226745D01*
X51686622Y-139326997D01*
X51662523Y-139446000D01*
X51662523Y-139854604D01*
X51545838Y-139539371D01*
X51155641Y-139118178D01*
X50673049Y-138888189D01*
X50446000Y-138999017D01*
X50138000Y-138999017D01*
X49910951Y-138888189D01*
X49428359Y-139118178D01*
X49038162Y-139539371D01*
X48862121Y-140014960D01*
X48827026Y-139838528D01*
X48574789Y-139461029D01*
X48197290Y-139208792D01*
X47752000Y-139120218D01*
X47306710Y-139208792D01*
X46929211Y-139461029D01*
X46676974Y-139838528D01*
X46588400Y-140283818D01*
X43768000Y-140283818D01*
X43768000Y-140054000D01*
X43788000Y-140054000D01*
X43788000Y-140034000D01*
X44096000Y-140034000D01*
X44096000Y-140054000D01*
X45261600Y-140054000D01*
X45413600Y-139902000D01*
X45413600Y-139071061D01*
X45321037Y-138847595D01*
X45246242Y-138772800D01*
X61721302Y-138772800D01*
X61880432Y-138772939D01*
X62174572Y-138651403D01*
X62399812Y-138426555D01*
X62521861Y-138132628D01*
X62522139Y-137814368D01*
X62439904Y-137615345D01*
X62668600Y-137844041D01*
X62668600Y-139320759D01*
X62547726Y-139441633D01*
X62294290Y-139272292D01*
X61849000Y-139183718D01*
X61403710Y-139272292D01*
X61026211Y-139524529D01*
X60773974Y-139902028D01*
X60685400Y-140347318D01*
X60685400Y-140703682D01*
X60773974Y-141148972D01*
X61026211Y-141526471D01*
X61403710Y-141778708D01*
X61849000Y-141867282D01*
X62294290Y-141778708D01*
X62671789Y-141526471D01*
X62765360Y-141386431D01*
X66182358Y-141386431D01*
X66241622Y-141606194D01*
X66717983Y-141759634D01*
X67216802Y-141719099D01*
X67489378Y-141606194D01*
X67548642Y-141386431D01*
X66865500Y-140703289D01*
X66182358Y-141386431D01*
X62765360Y-141386431D01*
X62924026Y-141148972D01*
X63012600Y-140703682D01*
X63012600Y-140347318D01*
X63010744Y-140337983D01*
X65591366Y-140337983D01*
X65631901Y-140836802D01*
X65744806Y-141109378D01*
X65964569Y-141168642D01*
X66647711Y-140485500D01*
X65964569Y-139802358D01*
X65744806Y-139861622D01*
X65591366Y-140337983D01*
X63010744Y-140337983D01*
X62984648Y-140206793D01*
X63394120Y-139797321D01*
X63486248Y-139659441D01*
X63486249Y-139659440D01*
X63501141Y-139584569D01*
X66182358Y-139584569D01*
X66865500Y-140267711D01*
X67548642Y-139584569D01*
X67489378Y-139364806D01*
X67013017Y-139211366D01*
X66514198Y-139251901D01*
X66241622Y-139364806D01*
X66182358Y-139584569D01*
X63501141Y-139584569D01*
X63518600Y-139496800D01*
X63518600Y-137668000D01*
X63508567Y-137617559D01*
X63486249Y-137505359D01*
X63394121Y-137367480D01*
X62733720Y-136707080D01*
X62595841Y-136614951D01*
X62568857Y-136609584D01*
X62433200Y-136582600D01*
X38128565Y-136582600D01*
X38122946Y-136569000D01*
X68062197Y-136569000D01*
X67986571Y-136600248D01*
X67817641Y-136768883D01*
X67726104Y-136989329D01*
X67725993Y-137116234D01*
X67634503Y-137053722D01*
X67515500Y-137029623D01*
X66215500Y-137029623D01*
X66104327Y-137050542D01*
X66002221Y-137116245D01*
X65933722Y-137216497D01*
X65909623Y-137335500D01*
X65909623Y-138635500D01*
X65930542Y-138746673D01*
X65996245Y-138848779D01*
X66096497Y-138917278D01*
X66215500Y-138941377D01*
X67515500Y-138941377D01*
X67626673Y-138920458D01*
X67728779Y-138854755D01*
X67797278Y-138754503D01*
X67821377Y-138635500D01*
X67821377Y-137452966D01*
X67901000Y-137532728D01*
X67901000Y-139838648D01*
X67766431Y-139802358D01*
X67083289Y-140485500D01*
X67766431Y-141168642D01*
X67901000Y-141132352D01*
X67901000Y-141224000D01*
X67925056Y-141344939D01*
X67933351Y-141386641D01*
X68025480Y-141524520D01*
X68127080Y-141626120D01*
X68264959Y-141718249D01*
X68291943Y-141723616D01*
X68427600Y-141750600D01*
X69656265Y-141750600D01*
X69783960Y-141776000D01*
X69911655Y-141750600D01*
X72931670Y-141750600D01*
X73014883Y-141833959D01*
X73235329Y-141925496D01*
X73354159Y-141925600D01*
X74309559Y-142881000D01*
X28298978Y-142881000D01*
X28751246Y-142694127D01*
X29407821Y-142038697D01*
X29763595Y-141181899D01*
X29764404Y-140254172D01*
X29410127Y-139396754D01*
X28754697Y-138740179D01*
X27897899Y-138384405D01*
X26970172Y-138383596D01*
X26112754Y-138737873D01*
X25456179Y-139393303D01*
X25267000Y-139848896D01*
X25267000Y-135840400D01*
X25452400Y-135840400D01*
X25452400Y-136671339D01*
X25544963Y-136894805D01*
X25715996Y-137065838D01*
X25939462Y-137158400D01*
X26770400Y-137158400D01*
X26922400Y-137006400D01*
X26922400Y-135688400D01*
X25604400Y-135688400D01*
X25452400Y-135840400D01*
X25267000Y-135840400D01*
X25267000Y-134397461D01*
X25452400Y-134397461D01*
X25452400Y-135228400D01*
X25604400Y-135380400D01*
X26922400Y-135380400D01*
X26922400Y-134062400D01*
X27230400Y-134062400D01*
X27230400Y-135380400D01*
X27250400Y-135380400D01*
X27250400Y-135688400D01*
X27230400Y-135688400D01*
X27230400Y-137006400D01*
X27382400Y-137158400D01*
X28213338Y-137158400D01*
X28436804Y-137065838D01*
X28607837Y-136894805D01*
X28700400Y-136671339D01*
X28700400Y-136500459D01*
X29112789Y-136776007D01*
X29616400Y-136876182D01*
X30120011Y-136776007D01*
X30546953Y-136490735D01*
X30832225Y-136063793D01*
X30932400Y-135560182D01*
X30932400Y-135508618D01*
X30832225Y-135005007D01*
X30546953Y-134578065D01*
X30120011Y-134292793D01*
X29616400Y-134192618D01*
X29112789Y-134292793D01*
X28700400Y-134568341D01*
X28700400Y-134397461D01*
X28607837Y-134173995D01*
X28436804Y-134002962D01*
X28213338Y-133910400D01*
X27382400Y-133910400D01*
X27230400Y-134062400D01*
X26922400Y-134062400D01*
X26770400Y-133910400D01*
X25939462Y-133910400D01*
X25715996Y-134002962D01*
X25544963Y-134173995D01*
X25452400Y-134397461D01*
X25267000Y-134397461D01*
X25267000Y-123555418D01*
X25862479Y-124150897D01*
G36*
X90440171Y-139597448D02*
X90271241Y-139766083D01*
X90179704Y-139986529D01*
X90179581Y-140127974D01*
X90132951Y-140197759D01*
X90132951Y-140197760D01*
X90100600Y-140360400D01*
X90100600Y-142697200D01*
X90127584Y-142832857D01*
X90132951Y-142859841D01*
X90147089Y-142881000D01*
X83678441Y-142881000D01*
X83714120Y-142845321D01*
X83806248Y-142707441D01*
X83806249Y-142707440D01*
X83838600Y-142544800D01*
X83838600Y-142158145D01*
X84007029Y-142088552D01*
X84175959Y-141919917D01*
X84259613Y-141718455D01*
X84259613Y-142116810D01*
X84280532Y-142227983D01*
X84346235Y-142330089D01*
X84446487Y-142398588D01*
X84565490Y-142422687D01*
X87565230Y-142422687D01*
X87676403Y-142401768D01*
X87778509Y-142336065D01*
X87847008Y-142235813D01*
X87871107Y-142116810D01*
X87871107Y-139543500D01*
X90570735Y-139543500D01*
X90440171Y-139597448D01*
X90440171Y-139597448D01*
G37*
X90440171Y-139597448D02*
X90271241Y-139766083D01*
X90179704Y-139986529D01*
X90179581Y-140127974D01*
X90132951Y-140197759D01*
X90132951Y-140197760D01*
X90100600Y-140360400D01*
X90100600Y-142697200D01*
X90127584Y-142832857D01*
X90132951Y-142859841D01*
X90147089Y-142881000D01*
X83678441Y-142881000D01*
X83714120Y-142845321D01*
X83806248Y-142707441D01*
X83806249Y-142707440D01*
X83838600Y-142544800D01*
X83838600Y-142158145D01*
X84007029Y-142088552D01*
X84175959Y-141919917D01*
X84259613Y-141718455D01*
X84259613Y-142116810D01*
X84280532Y-142227983D01*
X84346235Y-142330089D01*
X84446487Y-142398588D01*
X84565490Y-142422687D01*
X87565230Y-142422687D01*
X87676403Y-142401768D01*
X87778509Y-142336065D01*
X87847008Y-142235813D01*
X87871107Y-142116810D01*
X87871107Y-139543500D01*
X90570735Y-139543500D01*
X90440171Y-139597448D01*
G36*
X40312972Y-96699200D02*
X47367912Y-96699200D01*
X47281960Y-96906196D01*
X47281682Y-97224607D01*
X47403276Y-97518886D01*
X47628229Y-97744233D01*
X47663069Y-97758700D01*
X44399200Y-97758700D01*
X44236560Y-97791051D01*
X44236558Y-97791052D01*
X44236559Y-97791052D01*
X44098679Y-97883180D01*
X43793881Y-98187979D01*
X43692280Y-98289580D01*
X43600151Y-98427459D01*
X43600151Y-98427460D01*
X43567800Y-98590100D01*
X43567800Y-104889300D01*
X43585762Y-104979600D01*
X43600151Y-105051941D01*
X43692280Y-105189820D01*
X43811899Y-105309439D01*
X43811796Y-105427224D01*
X43902948Y-105647829D01*
X44071583Y-105816759D01*
X44292029Y-105908296D01*
X44530724Y-105908504D01*
X44751329Y-105817352D01*
X44920259Y-105648717D01*
X45011796Y-105428271D01*
X45012004Y-105189576D01*
X44920852Y-104968971D01*
X44752217Y-104800041D01*
X44531771Y-104708504D01*
X44417800Y-104708405D01*
X44417800Y-101679600D01*
X46995116Y-101679600D01*
X46995116Y-104979600D01*
X65323684Y-104979600D01*
X65323684Y-101679600D01*
X54622199Y-101679600D01*
X54673261Y-101556628D01*
X54673539Y-101238368D01*
X54552003Y-100944228D01*
X54327155Y-100718988D01*
X54033228Y-100596939D01*
X53714968Y-100596661D01*
X53431661Y-100713721D01*
X53364837Y-100552395D01*
X53193804Y-100381362D01*
X52970338Y-100288800D01*
X52655400Y-100288800D01*
X52503400Y-100440800D01*
X52503400Y-101242800D01*
X52523400Y-101242800D01*
X52523400Y-101550800D01*
X52503400Y-101550800D01*
X52503400Y-101570800D01*
X52195400Y-101570800D01*
X52195400Y-101550800D01*
X51393400Y-101550800D01*
X51264600Y-101679600D01*
X46995116Y-101679600D01*
X44417800Y-101679600D01*
X44417800Y-99509357D01*
X44596829Y-99583696D01*
X44599397Y-99583698D01*
X44599196Y-99813824D01*
X44690348Y-100034429D01*
X44858983Y-100203359D01*
X45079429Y-100294896D01*
X45318124Y-100295104D01*
X45538729Y-100203952D01*
X45622828Y-100120000D01*
X51709970Y-100120000D01*
X51793183Y-100203359D01*
X51998948Y-100288800D01*
X51728462Y-100288800D01*
X51504996Y-100381362D01*
X51333963Y-100552395D01*
X51241400Y-100775861D01*
X51241400Y-101090800D01*
X51393400Y-101242800D01*
X52195400Y-101242800D01*
X52195400Y-100440800D01*
X52049527Y-100294927D01*
X52252324Y-100295104D01*
X52472929Y-100203952D01*
X52641859Y-100035317D01*
X52733396Y-99814871D01*
X52733604Y-99576176D01*
X52664446Y-99408800D01*
X56135602Y-99408800D01*
X56092904Y-99511629D01*
X56092696Y-99750324D01*
X56183848Y-99970929D01*
X56352483Y-100139859D01*
X56572929Y-100231396D01*
X56811624Y-100231604D01*
X57032229Y-100140452D01*
X57129050Y-100043800D01*
X75674870Y-100043800D01*
X75758083Y-100127159D01*
X75978529Y-100218696D01*
X76217224Y-100218904D01*
X76437829Y-100127752D01*
X76606759Y-99959117D01*
X76698296Y-99738671D01*
X76698504Y-99499976D01*
X76607352Y-99279371D01*
X76438717Y-99110441D01*
X76218271Y-99018904D01*
X75979576Y-99018696D01*
X75758971Y-99109848D01*
X75674872Y-99193800D01*
X74963377Y-99193800D01*
X75021896Y-99052871D01*
X75021903Y-99044495D01*
X75127629Y-99088396D01*
X75366324Y-99088604D01*
X75586929Y-98997452D01*
X75755859Y-98828817D01*
X75847396Y-98608371D01*
X75847604Y-98369676D01*
X75756452Y-98149071D01*
X75587817Y-97980141D01*
X75367371Y-97888604D01*
X75248540Y-97888500D01*
X75243220Y-97883180D01*
X75105341Y-97791051D01*
X75078357Y-97785684D01*
X74942700Y-97758700D01*
X48501888Y-97758700D01*
X48534986Y-97745024D01*
X48760333Y-97520071D01*
X48882440Y-97226004D01*
X48882718Y-96907593D01*
X48796611Y-96699200D01*
X76950237Y-96699200D01*
X76885441Y-96763883D01*
X76793904Y-96984329D01*
X76793696Y-97223024D01*
X76884848Y-97443629D01*
X77053483Y-97612559D01*
X77273929Y-97704096D01*
X77392759Y-97704200D01*
X78490279Y-98801720D01*
X78529504Y-98827929D01*
X78628160Y-98893849D01*
X78790800Y-98926200D01*
X84912200Y-98926200D01*
X85047857Y-98899216D01*
X85074841Y-98893849D01*
X85212720Y-98801720D01*
X85542920Y-98471521D01*
X85626563Y-98346340D01*
X85635049Y-98333640D01*
X85667400Y-98171000D01*
X85667400Y-98146677D01*
X86258400Y-98146677D01*
X86369573Y-98125758D01*
X86471679Y-98060055D01*
X86540178Y-97959803D01*
X86564277Y-97840800D01*
X86564277Y-95808800D01*
X86543358Y-95697627D01*
X86477655Y-95595521D01*
X86377403Y-95527022D01*
X86258400Y-95502923D01*
X84226400Y-95502923D01*
X84115227Y-95523842D01*
X84013121Y-95589545D01*
X83944622Y-95689797D01*
X83920523Y-95808800D01*
X83920523Y-96306960D01*
X83918225Y-96295407D01*
X83632953Y-95868465D01*
X83206011Y-95583193D01*
X82702400Y-95483018D01*
X82198789Y-95583193D01*
X81771847Y-95868465D01*
X81486575Y-96295407D01*
X81465810Y-96399800D01*
X78382640Y-96399800D01*
X78355828Y-96372988D01*
X78355828Y-93847000D01*
X89003200Y-93847000D01*
X89003200Y-101172682D01*
X88646630Y-101172682D01*
X76655008Y-101143506D01*
X76710996Y-101008671D01*
X76711204Y-100769976D01*
X76620052Y-100549371D01*
X76451417Y-100380441D01*
X76230971Y-100288904D01*
X75992276Y-100288696D01*
X75814382Y-100362200D01*
X57802130Y-100362200D01*
X57718917Y-100278841D01*
X57498471Y-100187304D01*
X57259776Y-100187096D01*
X57039171Y-100278248D01*
X56870241Y-100446883D01*
X56778704Y-100667329D01*
X56778496Y-100906024D01*
X56869648Y-101126629D01*
X57038283Y-101295559D01*
X57258729Y-101387096D01*
X57497424Y-101387304D01*
X57718029Y-101296152D01*
X57802128Y-101212200D01*
X73398990Y-101212200D01*
X73314104Y-101416629D01*
X73313896Y-101655324D01*
X73405048Y-101875929D01*
X73573683Y-102044859D01*
X73794129Y-102136396D01*
X74032824Y-102136604D01*
X74253429Y-102045452D01*
X74311176Y-101987806D01*
X88644972Y-102022681D01*
X88645490Y-102022579D01*
X88646006Y-102022682D01*
X89003200Y-102022682D01*
X89003200Y-103022400D01*
X89011079Y-103061306D01*
X89033473Y-103094081D01*
X89066854Y-103115561D01*
X89103200Y-103122400D01*
X108864400Y-103122400D01*
X108903306Y-103114521D01*
X108936081Y-103092127D01*
X108957561Y-103058746D01*
X108964400Y-103022400D01*
X108964400Y-93847000D01*
X111491204Y-93847000D01*
X110885254Y-94097373D01*
X110228679Y-94752803D01*
X109872905Y-95609601D01*
X109872096Y-96537328D01*
X110226373Y-97394746D01*
X110881803Y-98051321D01*
X111738601Y-98407095D01*
X112666328Y-98407904D01*
X113523746Y-98053627D01*
X114180321Y-97398197D01*
X114496500Y-96636754D01*
X114496500Y-140092887D01*
X114182627Y-139333254D01*
X113527197Y-138676679D01*
X112670399Y-138320905D01*
X111742672Y-138320096D01*
X110885254Y-138674373D01*
X110228679Y-139329803D01*
X109872905Y-140186601D01*
X109872096Y-141114328D01*
X110226373Y-141971746D01*
X110881803Y-142628321D01*
X111490321Y-142881000D01*
X100522167Y-142881000D01*
X100539678Y-142854792D01*
X100570249Y-142809040D01*
X100587074Y-142724456D01*
X100616786Y-142754168D01*
X100840252Y-142846730D01*
X104405500Y-142846730D01*
X104557500Y-142694730D01*
X104557500Y-140892860D01*
X104865500Y-140892860D01*
X104865500Y-142694730D01*
X105017500Y-142846730D01*
X108582748Y-142846730D01*
X108806214Y-142754168D01*
X108977247Y-142583135D01*
X109069810Y-142359669D01*
X109069810Y-141044860D01*
X108917810Y-140892860D01*
X104865500Y-140892860D01*
X104557500Y-140892860D01*
X104537500Y-140892860D01*
X104537500Y-140584860D01*
X104557500Y-140584860D01*
X104557500Y-138782990D01*
X104405500Y-138630990D01*
X102369413Y-138630990D01*
X102403096Y-138549871D01*
X102403304Y-138311176D01*
X102312152Y-138090571D01*
X102143517Y-137921641D01*
X101923071Y-137830104D01*
X101684376Y-137829896D01*
X101463771Y-137921048D01*
X101324546Y-138060030D01*
X101324595Y-138003578D01*
X101241039Y-137801357D01*
X101086457Y-137646505D01*
X100984977Y-137604367D01*
X100984976Y-137604366D01*
X100984974Y-137604366D01*
X100884382Y-137562596D01*
X100774500Y-137562500D01*
X100705378Y-137562440D01*
X100785062Y-137482756D01*
X100842187Y-137521788D01*
X100961190Y-137545887D01*
X104175103Y-137545887D01*
X104203366Y-137687976D01*
X104322591Y-137866409D01*
X104957252Y-138501069D01*
X105034543Y-138578495D01*
X105136023Y-138620633D01*
X105136024Y-138620634D01*
X105136026Y-138620634D01*
X105160965Y-138630990D01*
X105017500Y-138630990D01*
X104865500Y-138782990D01*
X104865500Y-140584860D01*
X108917810Y-140584860D01*
X109069810Y-140432860D01*
X109069810Y-139118051D01*
X108977247Y-138894585D01*
X108806214Y-138723552D01*
X108582748Y-138630990D01*
X105531912Y-138630990D01*
X105556975Y-138620634D01*
X105556976Y-138620634D01*
X105556977Y-138620633D01*
X105657643Y-138579039D01*
X105812495Y-138424457D01*
X105896404Y-138222382D01*
X105896500Y-138112505D01*
X105896501Y-138112500D01*
X105896500Y-138112495D01*
X105896595Y-138003578D01*
X105813039Y-137801357D01*
X105658457Y-137646505D01*
X105658226Y-137646409D01*
X105557704Y-137545887D01*
X108461810Y-137545887D01*
X108572983Y-137524968D01*
X108675089Y-137459265D01*
X108743588Y-137359013D01*
X108767687Y-137240010D01*
X108767687Y-136306431D01*
X111140358Y-136306431D01*
X111199622Y-136526194D01*
X111675983Y-136679634D01*
X112174802Y-136639099D01*
X112447378Y-136526194D01*
X112506642Y-136306431D01*
X111823500Y-135623289D01*
X111140358Y-136306431D01*
X108767687Y-136306431D01*
X108767687Y-135257983D01*
X110549366Y-135257983D01*
X110589901Y-135756802D01*
X110702806Y-136029378D01*
X110922569Y-136088642D01*
X111605711Y-135405500D01*
X112041289Y-135405500D01*
X112724431Y-136088642D01*
X112944194Y-136029378D01*
X113097634Y-135553017D01*
X113057099Y-135054198D01*
X112944194Y-134781622D01*
X112724431Y-134722358D01*
X112041289Y-135405500D01*
X111605711Y-135405500D01*
X110922569Y-134722358D01*
X110702806Y-134781622D01*
X110549366Y-135257983D01*
X108767687Y-135257983D01*
X108767687Y-134504569D01*
X111140358Y-134504569D01*
X111823500Y-135187711D01*
X112506642Y-134504569D01*
X112447378Y-134284806D01*
X111971017Y-134131366D01*
X111472198Y-134171901D01*
X111199622Y-134284806D01*
X111140358Y-134504569D01*
X108767687Y-134504569D01*
X108767687Y-134240270D01*
X108746768Y-134129097D01*
X108681065Y-134026991D01*
X108580813Y-133958492D01*
X108461810Y-133934393D01*
X100961190Y-133934393D01*
X100850017Y-133955312D01*
X100747911Y-134021015D01*
X100679412Y-134121267D01*
X100655313Y-134240270D01*
X100655313Y-136056869D01*
X99872607Y-136839575D01*
X99872607Y-134743190D01*
X99851688Y-134632017D01*
X99785985Y-134529911D01*
X99685733Y-134461412D01*
X99566730Y-134437313D01*
X96566990Y-134437313D01*
X96455817Y-134458232D01*
X96353711Y-134523935D01*
X96285212Y-134624187D01*
X96261113Y-134743190D01*
X96261113Y-142243810D01*
X96282032Y-142354983D01*
X96326829Y-142424600D01*
X94807571Y-142424600D01*
X94849788Y-142362813D01*
X94873887Y-142243810D01*
X94873887Y-134743190D01*
X94852968Y-134632017D01*
X94787265Y-134529911D01*
X94687013Y-134461412D01*
X94568010Y-134437313D01*
X93868140Y-134437313D01*
X93868140Y-132497730D01*
X93956439Y-132409431D01*
X96511858Y-132409431D01*
X96571122Y-132629194D01*
X97047483Y-132782634D01*
X97546302Y-132742099D01*
X97764903Y-132651551D01*
X102782077Y-132651551D01*
X103036098Y-133166500D01*
X103467846Y-133545041D01*
X103822451Y-133691911D01*
X104049500Y-133581083D01*
X104049500Y-132424500D01*
X104357500Y-132424500D01*
X104357500Y-133581083D01*
X104584549Y-133691911D01*
X104939154Y-133545041D01*
X105370902Y-133166500D01*
X105473500Y-132958514D01*
X105576098Y-133166500D01*
X106007846Y-133545041D01*
X106362451Y-133691911D01*
X106589500Y-133581083D01*
X106589500Y-132424500D01*
X106897500Y-132424500D01*
X106897500Y-133581083D01*
X107124549Y-133691911D01*
X107479154Y-133545041D01*
X107910902Y-133166500D01*
X108164923Y-132651551D01*
X108055032Y-132424500D01*
X106897500Y-132424500D01*
X106589500Y-132424500D01*
X104357500Y-132424500D01*
X104049500Y-132424500D01*
X102891968Y-132424500D01*
X102782077Y-132651551D01*
X97764903Y-132651551D01*
X97818878Y-132629194D01*
X97878142Y-132409431D01*
X97195000Y-131726289D01*
X96511858Y-132409431D01*
X93956439Y-132409431D01*
X95004887Y-131360983D01*
X95920866Y-131360983D01*
X95961401Y-131859802D01*
X96074306Y-132132378D01*
X96294069Y-132191642D01*
X96977211Y-131508500D01*
X97412789Y-131508500D01*
X98095931Y-132191642D01*
X98315694Y-132132378D01*
X98469134Y-131656017D01*
X98428599Y-131157198D01*
X98315694Y-130884622D01*
X98095931Y-130825358D01*
X97412789Y-131508500D01*
X96977211Y-131508500D01*
X96294069Y-130825358D01*
X96074306Y-130884622D01*
X95920866Y-131360983D01*
X95004887Y-131360983D01*
X95835371Y-130530500D01*
X96532641Y-130530500D01*
X96511858Y-130607569D01*
X97195000Y-131290711D01*
X97878142Y-130607569D01*
X97857359Y-130530500D01*
X98474630Y-130530500D01*
X98749818Y-130805688D01*
X98739123Y-130858500D01*
X98739123Y-132158500D01*
X98760042Y-132269673D01*
X98825745Y-132371779D01*
X98925997Y-132440278D01*
X99045000Y-132464377D01*
X100345000Y-132464377D01*
X100456173Y-132443458D01*
X100558279Y-132377755D01*
X100626778Y-132277503D01*
X100650877Y-132158500D01*
X100650877Y-130858500D01*
X100629958Y-130747327D01*
X100564255Y-130645221D01*
X100490028Y-130594504D01*
X100434104Y-130313353D01*
X100422633Y-130296185D01*
X100414320Y-130283744D01*
X100603538Y-130472962D01*
X100944182Y-130700574D01*
X101346000Y-130780500D01*
X103103349Y-130780500D01*
X103120645Y-130807379D01*
X103220897Y-130875878D01*
X103339900Y-130899977D01*
X103699586Y-130899977D01*
X103467846Y-130995959D01*
X103036098Y-131374500D01*
X102782077Y-131889449D01*
X102891968Y-132116500D01*
X104049500Y-132116500D01*
X104049500Y-132096500D01*
X104357500Y-132096500D01*
X104357500Y-132116500D01*
X106589500Y-132116500D01*
X106589500Y-132096500D01*
X106897500Y-132096500D01*
X106897500Y-132116500D01*
X108055032Y-132116500D01*
X108164923Y-131889449D01*
X107910902Y-131374500D01*
X107479154Y-130995959D01*
X107124549Y-130849089D01*
X106897502Y-130959916D01*
X106897502Y-130886263D01*
X107188790Y-130828322D01*
X107566289Y-130576085D01*
X107596748Y-130530500D01*
X108698130Y-130530500D01*
X110867623Y-132699994D01*
X110867623Y-133555500D01*
X110888542Y-133666673D01*
X110954245Y-133768779D01*
X111054497Y-133837278D01*
X111173500Y-133861377D01*
X112473500Y-133861377D01*
X112584673Y-133840458D01*
X112686779Y-133774755D01*
X112755278Y-133674503D01*
X112779377Y-133555500D01*
X112779377Y-132255500D01*
X112758458Y-132144327D01*
X112692755Y-132042221D01*
X112592503Y-131973722D01*
X112473500Y-131949623D01*
X112379994Y-131949623D01*
X109595185Y-129164815D01*
X109335647Y-128991396D01*
X109318765Y-128988038D01*
X109029500Y-128930500D01*
X107596748Y-128930500D01*
X107566289Y-128884915D01*
X107188790Y-128632678D01*
X106743500Y-128544104D01*
X106298210Y-128632678D01*
X105920711Y-128884915D01*
X105668474Y-129262414D01*
X105579900Y-129707704D01*
X105579900Y-129753296D01*
X105668474Y-130198586D01*
X105920711Y-130576085D01*
X106298210Y-130828322D01*
X106589498Y-130886263D01*
X106589498Y-130959916D01*
X106362451Y-130849089D01*
X106007846Y-130995959D01*
X105576098Y-131374500D01*
X105473500Y-131582486D01*
X105370902Y-131374500D01*
X104939154Y-130995959D01*
X104707414Y-130899977D01*
X105067100Y-130899977D01*
X105178273Y-130879058D01*
X105280379Y-130813355D01*
X105348878Y-130713103D01*
X105372977Y-130594100D01*
X105372977Y-128866900D01*
X105352058Y-128755727D01*
X105286355Y-128653621D01*
X105186103Y-128585122D01*
X105067100Y-128561023D01*
X103339900Y-128561023D01*
X103228727Y-128581942D01*
X103126621Y-128647645D01*
X103104172Y-128680500D01*
X101780924Y-128680500D01*
X100437462Y-127337038D01*
X100325819Y-127262440D01*
X102174040Y-127262440D01*
X102309697Y-127235456D01*
X102336681Y-127230089D01*
X102474560Y-127137960D01*
X103653121Y-125959400D01*
X103745249Y-125821521D01*
X103777600Y-125658880D01*
X103777600Y-124720157D01*
X104368600Y-124720157D01*
X104479773Y-124699238D01*
X104581879Y-124633535D01*
X104650378Y-124533283D01*
X104674477Y-124414280D01*
X104674477Y-122382280D01*
X104653558Y-122271107D01*
X104587855Y-122169001D01*
X104487603Y-122100502D01*
X104368600Y-122076403D01*
X103870440Y-122076403D01*
X103881993Y-122074105D01*
X104308935Y-121788833D01*
X104594207Y-121361891D01*
X104694382Y-120858280D01*
X104594207Y-120354669D01*
X104308935Y-119927727D01*
X103881993Y-119642455D01*
X103392056Y-119545000D01*
X104824630Y-119545000D01*
X104927500Y-119647870D01*
X104927500Y-124827129D01*
X103638882Y-126115748D01*
X103525688Y-126228745D01*
X103403639Y-126522672D01*
X103403361Y-126840932D01*
X103524897Y-127135072D01*
X103749745Y-127360312D01*
X104043672Y-127482361D01*
X104361932Y-127482639D01*
X104656072Y-127361103D01*
X104881312Y-127136255D01*
X104881452Y-127135918D01*
X104969239Y-127048131D01*
X108486058Y-127048131D01*
X108545322Y-127267894D01*
X109021683Y-127421334D01*
X109520502Y-127380799D01*
X109793078Y-127267894D01*
X109852342Y-127048131D01*
X109169200Y-126364989D01*
X108486058Y-127048131D01*
X104969239Y-127048131D01*
X106017687Y-125999683D01*
X107895066Y-125999683D01*
X107935601Y-126498502D01*
X108048506Y-126771078D01*
X108268269Y-126830342D01*
X108951411Y-126147200D01*
X109386989Y-126147200D01*
X110070131Y-126830342D01*
X110289894Y-126771078D01*
X110443334Y-126294717D01*
X110402799Y-125795898D01*
X110289894Y-125523322D01*
X110070131Y-125464058D01*
X109386989Y-126147200D01*
X108951411Y-126147200D01*
X108268269Y-125464058D01*
X108048506Y-125523322D01*
X107895066Y-125999683D01*
X106017687Y-125999683D01*
X106293185Y-125724186D01*
X106466604Y-125464647D01*
X106479088Y-125401884D01*
X106510041Y-125246269D01*
X108486058Y-125246269D01*
X109169200Y-125929411D01*
X109852342Y-125246269D01*
X109793078Y-125026506D01*
X109316717Y-124873066D01*
X108817898Y-124913601D01*
X108545322Y-125026506D01*
X108486058Y-125246269D01*
X106510041Y-125246269D01*
X106527500Y-125158500D01*
X106527500Y-122997200D01*
X108213323Y-122997200D01*
X108213323Y-124297200D01*
X108234242Y-124408373D01*
X108299945Y-124510479D01*
X108400197Y-124578978D01*
X108519200Y-124603077D01*
X109819200Y-124603077D01*
X109930373Y-124582158D01*
X110032479Y-124516455D01*
X110100978Y-124416203D01*
X110125077Y-124297200D01*
X110125077Y-122997200D01*
X110104158Y-122886027D01*
X110038455Y-122783921D01*
X109938203Y-122715422D01*
X109819200Y-122691323D01*
X108519200Y-122691323D01*
X108408027Y-122712242D01*
X108305921Y-122777945D01*
X108237422Y-122878197D01*
X108213323Y-122997200D01*
X106527500Y-122997200D01*
X106527500Y-120882500D01*
X108839000Y-120882500D01*
X109049476Y-120840634D01*
X109227909Y-120721409D01*
X109693179Y-120256138D01*
X109813429Y-120206452D01*
X109982359Y-120037817D01*
X110073896Y-119817371D01*
X110074104Y-119578676D01*
X109982952Y-119358071D01*
X109814317Y-119189141D01*
X109593871Y-119097604D01*
X109355176Y-119097396D01*
X109134571Y-119188548D01*
X108965641Y-119357183D01*
X108915325Y-119478358D01*
X108611182Y-119782500D01*
X106527500Y-119782500D01*
X106527500Y-119316500D01*
X106466604Y-119010353D01*
X106293185Y-118750815D01*
X105721685Y-118179315D01*
X105462147Y-118005896D01*
X105156000Y-117945000D01*
X101662496Y-117945000D01*
X101729079Y-117902155D01*
X101797578Y-117801903D01*
X101821677Y-117682900D01*
X101821677Y-116682900D01*
X101800758Y-116571727D01*
X101735055Y-116469621D01*
X101634803Y-116401122D01*
X101515800Y-116377023D01*
X100515800Y-116377023D01*
X100404627Y-116397942D01*
X100302521Y-116463645D01*
X100241000Y-116553684D01*
X100241000Y-114862657D01*
X100337197Y-115095472D01*
X100562045Y-115320712D01*
X100855972Y-115442761D01*
X101174232Y-115443039D01*
X101468372Y-115321503D01*
X101693612Y-115096655D01*
X101815661Y-114802728D01*
X101815939Y-114484468D01*
X101694403Y-114190328D01*
X101469555Y-113965088D01*
X101306785Y-113897500D01*
X102743000Y-113897500D01*
X102953476Y-113855634D01*
X103131909Y-113736409D01*
X103408415Y-113459902D01*
X103375622Y-113507897D01*
X103351523Y-113626900D01*
X103351523Y-115658900D01*
X103372442Y-115770073D01*
X103438145Y-115872179D01*
X103538397Y-115940678D01*
X103657400Y-115964777D01*
X105689400Y-115964777D01*
X105800573Y-115943858D01*
X105902679Y-115878155D01*
X105971178Y-115777903D01*
X105995277Y-115658900D01*
X105995277Y-115160740D01*
X105997575Y-115172293D01*
X106282847Y-115599235D01*
X106709789Y-115884507D01*
X107213400Y-115984682D01*
X107717011Y-115884507D01*
X108143953Y-115599235D01*
X108429225Y-115172293D01*
X108529400Y-114668682D01*
X108529400Y-114617118D01*
X108429225Y-114113507D01*
X108143953Y-113686565D01*
X107717011Y-113401293D01*
X107213400Y-113301118D01*
X106709789Y-113401293D01*
X106282847Y-113686565D01*
X105997575Y-114113507D01*
X105995277Y-114125060D01*
X105995277Y-113626900D01*
X105974358Y-113515727D01*
X105908655Y-113413621D01*
X105808403Y-113345122D01*
X105689400Y-113321023D01*
X103657400Y-113321023D01*
X103546227Y-113341942D01*
X103490546Y-113377772D01*
X103605817Y-113262500D01*
X108413584Y-113262500D01*
X108562183Y-113411359D01*
X108782629Y-113502896D01*
X109021324Y-113503104D01*
X109241929Y-113411952D01*
X109410859Y-113243317D01*
X109502396Y-113022871D01*
X109502604Y-112784176D01*
X109411452Y-112563571D01*
X109242817Y-112394641D01*
X109121643Y-112344325D01*
X109100909Y-112323591D01*
X108922476Y-112204366D01*
X108712000Y-112162500D01*
X107478883Y-112162500D01*
X107729711Y-112112607D01*
X108156653Y-111827335D01*
X108441925Y-111400393D01*
X108542100Y-110896782D01*
X108542100Y-110845218D01*
X108441925Y-110341607D01*
X108156653Y-109914665D01*
X107729711Y-109629393D01*
X107226100Y-109529218D01*
X106722489Y-109629393D01*
X106295547Y-109914665D01*
X106010275Y-110341607D01*
X106007977Y-110353160D01*
X106007977Y-109855000D01*
X105987058Y-109743827D01*
X105921355Y-109641721D01*
X105821103Y-109573222D01*
X105702100Y-109549123D01*
X103670100Y-109549123D01*
X103558927Y-109570042D01*
X103456821Y-109635745D01*
X103388322Y-109735997D01*
X103364223Y-109855000D01*
X103364223Y-111887000D01*
X103385142Y-111998173D01*
X103450845Y-112100279D01*
X103541909Y-112162500D01*
X103378005Y-112162500D01*
X103378000Y-112162499D01*
X103167524Y-112204366D01*
X102989091Y-112323591D01*
X102989089Y-112323594D01*
X102515182Y-112797500D01*
X101429656Y-112797500D01*
X101468372Y-112781503D01*
X101693612Y-112556655D01*
X101815661Y-112262728D01*
X101815939Y-111944468D01*
X101694403Y-111650328D01*
X101469555Y-111425088D01*
X101175628Y-111303039D01*
X100857368Y-111302761D01*
X100563228Y-111424297D01*
X100337988Y-111649145D01*
X100215939Y-111943072D01*
X100215711Y-112204362D01*
X100180104Y-112025353D01*
X100150327Y-111980789D01*
X100006685Y-111765814D01*
X98482685Y-110241815D01*
X98223147Y-110068396D01*
X98034475Y-110030867D01*
X98048712Y-110016655D01*
X98170761Y-109722728D01*
X98170762Y-109721332D01*
X100215661Y-109721332D01*
X100337197Y-110015472D01*
X100562045Y-110240712D01*
X100855972Y-110362761D01*
X101174232Y-110363039D01*
X101468372Y-110241503D01*
X101693612Y-110016655D01*
X101815661Y-109722728D01*
X101815939Y-109404468D01*
X101694403Y-109110328D01*
X101469555Y-108885088D01*
X101202288Y-108774109D01*
X110771513Y-108774109D01*
X110945749Y-109194779D01*
X111368173Y-109667092D01*
X111939189Y-109941798D01*
X112190200Y-109833793D01*
X112190200Y-108523100D01*
X112498200Y-108523100D01*
X112498200Y-109833793D01*
X112749211Y-109941798D01*
X113320227Y-109667092D01*
X113742651Y-109194779D01*
X113916887Y-108774109D01*
X113808122Y-108523100D01*
X112498200Y-108523100D01*
X112190200Y-108523100D01*
X110880278Y-108523100D01*
X110771513Y-108774109D01*
X101202288Y-108774109D01*
X101175628Y-108763039D01*
X100857368Y-108762761D01*
X100563228Y-108884297D01*
X100337988Y-109109145D01*
X100215939Y-109403072D01*
X100215661Y-109721332D01*
X98170762Y-109721332D01*
X98171039Y-109404468D01*
X98049503Y-109110328D01*
X97824655Y-108885088D01*
X97530728Y-108763039D01*
X97212468Y-108762761D01*
X96918328Y-108884297D01*
X96693088Y-109109145D01*
X96571039Y-109403072D01*
X96570761Y-109721332D01*
X96689003Y-110007500D01*
X96393000Y-110007500D01*
X96374498Y-110011180D01*
X94547818Y-108184500D01*
X96075500Y-108184500D01*
X96211157Y-108157516D01*
X96238141Y-108152149D01*
X96376020Y-108060020D01*
X96711539Y-107724501D01*
X96829324Y-107724604D01*
X97049929Y-107633452D01*
X97218859Y-107464817D01*
X97310396Y-107244371D01*
X97310604Y-107005676D01*
X97246693Y-106851000D01*
X97846455Y-106851000D01*
X97916048Y-107019429D01*
X98084683Y-107188359D01*
X98305129Y-107279896D01*
X98543824Y-107280104D01*
X98764429Y-107188952D01*
X98933359Y-107020317D01*
X99024896Y-106799871D01*
X99025104Y-106561176D01*
X98933952Y-106340571D01*
X98904682Y-106311250D01*
X99296710Y-106311250D01*
X100854980Y-107869520D01*
X100992859Y-107961649D01*
X101155500Y-107994000D01*
X108351970Y-107994000D01*
X108435183Y-108077359D01*
X108655629Y-108168896D01*
X108894324Y-108169104D01*
X109114929Y-108077952D01*
X109228989Y-107964091D01*
X110771513Y-107964091D01*
X110880278Y-108215100D01*
X112190200Y-108215100D01*
X112190200Y-108195100D01*
X112498200Y-108195100D01*
X112498200Y-108215100D01*
X113808122Y-108215100D01*
X113916887Y-107964091D01*
X113742651Y-107543421D01*
X113387128Y-107145910D01*
X113471373Y-107130058D01*
X113573479Y-107064355D01*
X113641978Y-106964103D01*
X113666077Y-106845100D01*
X113666077Y-104813100D01*
X113645158Y-104701927D01*
X113579455Y-104599821D01*
X113479203Y-104531322D01*
X113360200Y-104507223D01*
X111328200Y-104507223D01*
X111217027Y-104528142D01*
X111114921Y-104593845D01*
X111046422Y-104694097D01*
X111022323Y-104813100D01*
X111022323Y-106845100D01*
X111043242Y-106956273D01*
X111108945Y-107058379D01*
X111209197Y-107126878D01*
X111301564Y-107145583D01*
X110945749Y-107543421D01*
X110771513Y-107964091D01*
X109228989Y-107964091D01*
X109283859Y-107909317D01*
X109375396Y-107688871D01*
X109375604Y-107450176D01*
X109284452Y-107229571D01*
X109115817Y-107060641D01*
X108895371Y-106969104D01*
X108656676Y-106968896D01*
X108436071Y-107060048D01*
X108351972Y-107144000D01*
X101331540Y-107144000D01*
X99773270Y-105585730D01*
X99635391Y-105493601D01*
X99608407Y-105488234D01*
X99472750Y-105461250D01*
X75887451Y-105461250D01*
X75883452Y-105451571D01*
X75714817Y-105282641D01*
X75494371Y-105191104D01*
X75255676Y-105190896D01*
X75035071Y-105282048D01*
X74866141Y-105450683D01*
X74774604Y-105671129D01*
X74774454Y-105843578D01*
X74732371Y-105826104D01*
X74493676Y-105825896D01*
X74273071Y-105917048D01*
X74104141Y-106085683D01*
X74012604Y-106306129D01*
X74012396Y-106544824D01*
X74103548Y-106765429D01*
X74272183Y-106934359D01*
X74492629Y-107025896D01*
X74731324Y-107026104D01*
X74951929Y-106934952D01*
X75036028Y-106851000D01*
X96174396Y-106851000D01*
X96110604Y-107004629D01*
X96110500Y-107123459D01*
X95899460Y-107334500D01*
X93768530Y-107334500D01*
X93685317Y-107251141D01*
X93464871Y-107159604D01*
X93226176Y-107159396D01*
X93005571Y-107250548D01*
X92836641Y-107419183D01*
X92745104Y-107639629D01*
X92744896Y-107878324D01*
X92783395Y-107971500D01*
X89330534Y-107971500D01*
X89210371Y-107921604D01*
X88971676Y-107921396D01*
X88751071Y-108012548D01*
X88582141Y-108181183D01*
X88490604Y-108401629D01*
X88490396Y-108640324D01*
X88581548Y-108860929D01*
X88750183Y-109029859D01*
X88970629Y-109121396D01*
X89209324Y-109121604D01*
X89330585Y-109071500D01*
X93879182Y-109071500D01*
X95596680Y-110788998D01*
X95593000Y-110807500D01*
X95653896Y-111113647D01*
X95827315Y-111373185D01*
X96086853Y-111546604D01*
X96393000Y-111607500D01*
X96734806Y-111607500D01*
X96693088Y-111649145D01*
X96571039Y-111943072D01*
X96570761Y-112261332D01*
X96692297Y-112555472D01*
X96917145Y-112780712D01*
X97211072Y-112902761D01*
X97529332Y-112903039D01*
X97823472Y-112781503D01*
X98048712Y-112556655D01*
X98170761Y-112262728D01*
X98170822Y-112192693D01*
X98641000Y-112662871D01*
X98641000Y-117945000D01*
X98017596Y-117945000D01*
X98084179Y-117902155D01*
X98152678Y-117801903D01*
X98176777Y-117682900D01*
X98176777Y-116682900D01*
X98155858Y-116571727D01*
X98090155Y-116469621D01*
X97989903Y-116401122D01*
X97870900Y-116377023D01*
X96870900Y-116377023D01*
X96759727Y-116397942D01*
X96657621Y-116463645D01*
X96589122Y-116563897D01*
X96565023Y-116682900D01*
X96565023Y-117682900D01*
X96585942Y-117794073D01*
X96651645Y-117896179D01*
X96723097Y-117945000D01*
X94805500Y-117945000D01*
X94499353Y-118005896D01*
X94239815Y-118179315D01*
X94066396Y-118438853D01*
X94017542Y-118684459D01*
X93916141Y-118785683D01*
X93824604Y-119006129D01*
X93824396Y-119244824D01*
X93915548Y-119465429D01*
X94084183Y-119634359D01*
X94304629Y-119725896D01*
X94543324Y-119726104D01*
X94763929Y-119634952D01*
X94854038Y-119545000D01*
X103313144Y-119545000D01*
X102823207Y-119642455D01*
X102396265Y-119927727D01*
X102110993Y-120354669D01*
X102010818Y-120858280D01*
X102110993Y-121361891D01*
X102396265Y-121788833D01*
X102823207Y-122074105D01*
X102834760Y-122076403D01*
X102336600Y-122076403D01*
X102225427Y-122097322D01*
X102123321Y-122163025D01*
X102054822Y-122263277D01*
X102030723Y-122382280D01*
X102030723Y-124414280D01*
X102051642Y-124525453D01*
X102117345Y-124627559D01*
X102217597Y-124696058D01*
X102336600Y-124720157D01*
X102927600Y-124720157D01*
X102927600Y-125482839D01*
X101998000Y-126412440D01*
X94294960Y-126412440D01*
X94159303Y-126439424D01*
X94132319Y-126444791D01*
X93994440Y-126536920D01*
X93472820Y-127058540D01*
X93472820Y-126636780D01*
X93440469Y-126474140D01*
X93399242Y-126412440D01*
X93348340Y-126336259D01*
X92897490Y-125885410D01*
X92759611Y-125793281D01*
X92732627Y-125787914D01*
X92596970Y-125760930D01*
X85860664Y-125760930D01*
X85819932Y-125662351D01*
X85651297Y-125493421D01*
X85430851Y-125401884D01*
X85192156Y-125401676D01*
X84971551Y-125492828D01*
X84802621Y-125661463D01*
X84711084Y-125881909D01*
X84710876Y-126120604D01*
X84802028Y-126341209D01*
X84970663Y-126510139D01*
X85191109Y-126601676D01*
X85429804Y-126601884D01*
X85436254Y-126599219D01*
X85495130Y-126610930D01*
X91640879Y-126610930D01*
X91592041Y-126659683D01*
X91541725Y-126780857D01*
X87757782Y-130564800D01*
X80593417Y-130564800D01*
X80297309Y-130268691D01*
X80118876Y-130149466D01*
X79957668Y-130117400D01*
X80721200Y-130117400D01*
X80856857Y-130090416D01*
X80883841Y-130085049D01*
X81021720Y-129992920D01*
X81275720Y-129738921D01*
X81367848Y-129601041D01*
X81367849Y-129601040D01*
X81400200Y-129438400D01*
X81400200Y-128071324D01*
X84299396Y-128071324D01*
X84390548Y-128291929D01*
X84559183Y-128460859D01*
X84779629Y-128552396D01*
X85018324Y-128552604D01*
X85238929Y-128461452D01*
X85323028Y-128377500D01*
X88773000Y-128377500D01*
X88908657Y-128350516D01*
X88935641Y-128345149D01*
X89073520Y-128253020D01*
X89345539Y-127981001D01*
X89463324Y-127981104D01*
X89683929Y-127889952D01*
X89852859Y-127721317D01*
X89944396Y-127500871D01*
X89944604Y-127262176D01*
X89853452Y-127041571D01*
X89684817Y-126872641D01*
X89464371Y-126781104D01*
X89225676Y-126780896D01*
X89005071Y-126872048D01*
X88836141Y-127040683D01*
X88744604Y-127261129D01*
X88744500Y-127379960D01*
X88596960Y-127527500D01*
X85323030Y-127527500D01*
X85239817Y-127444141D01*
X85019371Y-127352604D01*
X84780676Y-127352396D01*
X84560071Y-127443548D01*
X84391141Y-127612183D01*
X84299604Y-127832629D01*
X84299396Y-128071324D01*
X81400200Y-128071324D01*
X81400200Y-124890040D01*
X81608441Y-124681800D01*
X84564870Y-124681800D01*
X84648083Y-124765159D01*
X84868529Y-124856696D01*
X85107224Y-124856904D01*
X85327829Y-124765752D01*
X85496759Y-124597117D01*
X85588296Y-124376671D01*
X85588504Y-124137976D01*
X85497352Y-123917371D01*
X85341803Y-123761549D01*
X95670089Y-123761549D01*
X95816959Y-124116154D01*
X96195500Y-124547902D01*
X96710449Y-124801923D01*
X96937500Y-124692032D01*
X96937500Y-123534500D01*
X97245500Y-123534500D01*
X97245500Y-124692032D01*
X97472551Y-124801923D01*
X97987500Y-124547902D01*
X98361500Y-124121333D01*
X98735500Y-124547902D01*
X99250449Y-124801923D01*
X99477500Y-124692032D01*
X99477500Y-123534500D01*
X99785500Y-123534500D01*
X99785500Y-124692032D01*
X100012551Y-124801923D01*
X100527500Y-124547902D01*
X100906041Y-124116154D01*
X101052911Y-123761549D01*
X100942083Y-123534500D01*
X99785500Y-123534500D01*
X99477500Y-123534500D01*
X97245500Y-123534500D01*
X96937500Y-123534500D01*
X95780917Y-123534500D01*
X95670089Y-123761549D01*
X85341803Y-123761549D01*
X85328717Y-123748441D01*
X85108271Y-123656904D01*
X84869576Y-123656696D01*
X84648971Y-123747848D01*
X84564872Y-123831800D01*
X81432400Y-123831800D01*
X81269760Y-123864151D01*
X81269758Y-123864152D01*
X81269759Y-123864152D01*
X81131879Y-123956280D01*
X80674680Y-124413480D01*
X80582551Y-124551359D01*
X80582551Y-124551360D01*
X80550200Y-124714000D01*
X80550200Y-129262359D01*
X80545160Y-129267400D01*
X79829630Y-129267400D01*
X79898696Y-129101071D01*
X79898904Y-128862376D01*
X79807752Y-128641771D01*
X79639117Y-128472841D01*
X79418671Y-128381304D01*
X79179976Y-128381096D01*
X78959371Y-128472248D01*
X78790441Y-128640883D01*
X78762322Y-128708600D01*
X78689200Y-128708600D01*
X78553543Y-128735584D01*
X78526559Y-128740951D01*
X78388680Y-128833080D01*
X77344760Y-129877000D01*
X76281160Y-129877000D01*
X77689240Y-128468920D01*
X77781369Y-128331041D01*
X77789149Y-128291929D01*
X77813720Y-128168400D01*
X77813720Y-125951760D01*
X77816479Y-125949001D01*
X77934264Y-125949104D01*
X78154869Y-125857952D01*
X78323799Y-125689317D01*
X78415336Y-125468871D01*
X78415544Y-125230176D01*
X78324392Y-125009571D01*
X78155757Y-124840641D01*
X77935311Y-124749104D01*
X77696616Y-124748896D01*
X77476011Y-124840048D01*
X77307081Y-125008683D01*
X77215544Y-125229129D01*
X77215440Y-125347959D01*
X77156400Y-125407000D01*
X77156400Y-123773418D01*
X77850218Y-123079600D01*
X82919566Y-123079600D01*
X83039729Y-123129496D01*
X83278424Y-123129704D01*
X83499029Y-123038552D01*
X83538198Y-122999451D01*
X95670089Y-122999451D01*
X95780917Y-123226500D01*
X96937500Y-123226500D01*
X96937500Y-123206500D01*
X97245500Y-123206500D01*
X97245500Y-123226500D01*
X99477500Y-123226500D01*
X99477500Y-123206500D01*
X99785500Y-123206500D01*
X99785500Y-123226500D01*
X100942083Y-123226500D01*
X101052911Y-122999451D01*
X100906041Y-122644846D01*
X100527500Y-122213098D01*
X100012551Y-121959077D01*
X99785502Y-122068967D01*
X99785502Y-121978001D01*
X100099586Y-121915526D01*
X100477085Y-121663289D01*
X100729322Y-121285790D01*
X100817896Y-120840500D01*
X100729322Y-120395210D01*
X100477085Y-120017711D01*
X100099586Y-119765474D01*
X99654296Y-119676900D01*
X99608704Y-119676900D01*
X99163414Y-119765474D01*
X98785915Y-120017711D01*
X98533678Y-120395210D01*
X98445104Y-120840500D01*
X98533678Y-121285790D01*
X98785915Y-121663289D01*
X99163414Y-121915526D01*
X99477498Y-121978001D01*
X99477498Y-122068967D01*
X99250449Y-121959077D01*
X98735500Y-122213098D01*
X98361500Y-122639667D01*
X97987500Y-122213098D01*
X97575735Y-122009977D01*
X97955100Y-122009977D01*
X98066273Y-121989058D01*
X98168379Y-121923355D01*
X98236878Y-121823103D01*
X98260977Y-121704100D01*
X98260977Y-119976900D01*
X98240058Y-119865727D01*
X98174355Y-119763621D01*
X98074103Y-119695122D01*
X97955100Y-119671023D01*
X96227900Y-119671023D01*
X96116727Y-119691942D01*
X96014621Y-119757645D01*
X95946122Y-119857897D01*
X95922023Y-119976900D01*
X95922023Y-121704100D01*
X95942942Y-121815273D01*
X96008645Y-121917379D01*
X96108897Y-121985878D01*
X96227900Y-122009977D01*
X96607265Y-122009977D01*
X96195500Y-122213098D01*
X95816959Y-122644846D01*
X95670089Y-122999451D01*
X83538198Y-122999451D01*
X83667959Y-122869917D01*
X83759496Y-122649471D01*
X83759704Y-122410776D01*
X83668552Y-122190171D01*
X83518843Y-122040200D01*
X84129238Y-122040200D01*
X84205128Y-122223869D01*
X84373763Y-122392799D01*
X84594209Y-122484336D01*
X84832904Y-122484544D01*
X85053509Y-122393392D01*
X85222439Y-122224757D01*
X85313976Y-122004311D01*
X85314184Y-121765616D01*
X85223032Y-121545011D01*
X85054397Y-121376081D01*
X84833951Y-121284544D01*
X84700084Y-121284427D01*
X84607481Y-121222551D01*
X84580497Y-121217184D01*
X84444840Y-121190200D01*
X73876680Y-121190200D01*
X73871623Y-121185143D01*
X73871621Y-121185140D01*
X73853601Y-121167120D01*
X73853704Y-121049336D01*
X73762552Y-120828731D01*
X73593917Y-120659801D01*
X73373471Y-120568264D01*
X73134776Y-120568056D01*
X72914171Y-120659208D01*
X72745241Y-120827843D01*
X72653704Y-121048289D01*
X72653496Y-121286984D01*
X72744648Y-121507589D01*
X72913283Y-121676519D01*
X73133729Y-121768056D01*
X73252559Y-121768160D01*
X73270580Y-121786181D01*
X73270583Y-121786183D01*
X73400119Y-121915720D01*
X73455346Y-121952622D01*
X73537999Y-122007849D01*
X73548698Y-122009977D01*
X73700640Y-122040200D01*
X77383887Y-122040200D01*
X77233491Y-122140691D01*
X76217491Y-123156691D01*
X76098266Y-123335124D01*
X76056400Y-123545600D01*
X76056400Y-127788182D01*
X74448182Y-129396400D01*
X72376034Y-129396400D01*
X72255871Y-129346504D01*
X72017176Y-129346296D01*
X71796571Y-129437448D01*
X71627641Y-129606083D01*
X71536104Y-129826529D01*
X71535896Y-130065224D01*
X71621846Y-130273240D01*
X60617100Y-130273240D01*
X60454459Y-130305591D01*
X60316580Y-130397719D01*
X60075300Y-130639000D01*
X42237630Y-130639000D01*
X42306696Y-130472671D01*
X42306904Y-130233976D01*
X42215752Y-130013371D01*
X42131800Y-129929272D01*
X42131800Y-127967184D01*
X60359896Y-127967184D01*
X60451048Y-128187789D01*
X60619683Y-128356719D01*
X60840129Y-128448256D01*
X61078824Y-128448464D01*
X61299429Y-128357312D01*
X61354197Y-128302640D01*
X65087183Y-128302640D01*
X65097883Y-128313359D01*
X65318329Y-128404896D01*
X65557024Y-128405104D01*
X65777629Y-128313952D01*
X65946559Y-128145317D01*
X66038096Y-127924871D01*
X66038304Y-127686176D01*
X65947152Y-127465571D01*
X65778517Y-127296641D01*
X65558071Y-127205104D01*
X65319376Y-127204896D01*
X65098771Y-127296048D01*
X65092167Y-127302640D01*
X61210342Y-127302640D01*
X61079871Y-127248464D01*
X60841176Y-127248256D01*
X60620571Y-127339408D01*
X60451641Y-127508043D01*
X60360104Y-127728489D01*
X60359896Y-127967184D01*
X42131800Y-127967184D01*
X42131800Y-120057619D01*
X42164359Y-120025117D01*
X42255896Y-119804671D01*
X42256104Y-119565976D01*
X42164952Y-119345371D01*
X41996317Y-119176441D01*
X41775871Y-119084904D01*
X41537176Y-119084696D01*
X41316571Y-119175848D01*
X41147641Y-119344483D01*
X41056104Y-119564929D01*
X41055896Y-119803624D01*
X41147048Y-120024229D01*
X41281800Y-120159217D01*
X41281800Y-129929270D01*
X41198441Y-130012483D01*
X41106904Y-130232929D01*
X41106696Y-130471624D01*
X41175854Y-130639000D01*
X36485341Y-130639000D01*
X36353300Y-130506960D01*
X36353300Y-128997515D01*
X36388083Y-129032359D01*
X36608529Y-129123896D01*
X36847224Y-129124104D01*
X37067829Y-129032952D01*
X37236759Y-128864317D01*
X37328296Y-128643871D01*
X37328504Y-128405176D01*
X37237352Y-128184571D01*
X37153400Y-128100472D01*
X37153400Y-123771630D01*
X37319729Y-123840696D01*
X37558424Y-123840904D01*
X37779029Y-123749752D01*
X37802000Y-123726821D01*
X37802000Y-129446803D01*
X37642441Y-129606083D01*
X37550904Y-129826529D01*
X37550696Y-130065224D01*
X37641848Y-130285829D01*
X37810483Y-130454759D01*
X38030929Y-130546296D01*
X38269624Y-130546504D01*
X38490229Y-130455352D01*
X38659159Y-130286717D01*
X38750696Y-130066271D01*
X38750904Y-129827576D01*
X38659752Y-129606971D01*
X38652000Y-129599205D01*
X38652000Y-123291600D01*
X39148201Y-123291600D01*
X39180551Y-123454241D01*
X39272680Y-123592120D01*
X39410559Y-123684249D01*
X39573200Y-123716599D01*
X39735841Y-123684249D01*
X39873720Y-123592120D01*
X39924520Y-123541320D01*
X40016649Y-123403441D01*
X40048999Y-123240800D01*
X40016649Y-123078159D01*
X39924520Y-122940280D01*
X39786641Y-122848151D01*
X39624000Y-122815801D01*
X39461359Y-122848151D01*
X39323480Y-122940280D01*
X39272680Y-122991080D01*
X39180551Y-123128959D01*
X39148201Y-123291600D01*
X38652000Y-123291600D01*
X38652000Y-120159130D01*
X38735359Y-120075917D01*
X38826896Y-119855471D01*
X38827104Y-119616776D01*
X38735952Y-119396171D01*
X38567317Y-119227241D01*
X38346871Y-119135704D01*
X38108176Y-119135496D01*
X37989600Y-119184491D01*
X37989600Y-116820586D01*
X38208729Y-116911576D01*
X38327559Y-116911680D01*
X39183760Y-117767881D01*
X39183760Y-118186200D01*
X39205831Y-118297160D01*
X39216111Y-118348841D01*
X39308240Y-118486720D01*
X39719720Y-118898201D01*
X39857599Y-118990329D01*
X40020240Y-119022680D01*
X40812720Y-119022680D01*
X40948559Y-118995660D01*
X40975361Y-118990329D01*
X41113240Y-118898200D01*
X41324041Y-118687400D01*
X42434771Y-118687400D01*
X42361761Y-118760283D01*
X42270224Y-118980729D01*
X42270016Y-119219424D01*
X42361168Y-119440029D01*
X42445120Y-119524128D01*
X42445120Y-120716040D01*
X42466682Y-120824440D01*
X42477471Y-120878681D01*
X42569600Y-121016560D01*
X44947040Y-123394000D01*
X45084919Y-123486129D01*
X45247560Y-123518480D01*
X54288083Y-123518480D01*
X54378903Y-123609459D01*
X54599349Y-123700996D01*
X54838044Y-123701204D01*
X55013120Y-123628864D01*
X59415016Y-123628864D01*
X59506168Y-123849469D01*
X59674803Y-124018399D01*
X59895249Y-124109936D01*
X60133944Y-124110144D01*
X60135408Y-124109539D01*
X60203080Y-124123000D01*
X65743470Y-124123000D01*
X65826683Y-124206359D01*
X66047129Y-124297896D01*
X66285824Y-124298104D01*
X66506429Y-124206952D01*
X66675359Y-124038317D01*
X66766896Y-123817871D01*
X66767104Y-123579176D01*
X66675952Y-123358571D01*
X66507317Y-123189641D01*
X66400134Y-123145135D01*
X66442929Y-123127452D01*
X66611859Y-122958817D01*
X66703396Y-122738371D01*
X66703604Y-122499676D01*
X66612452Y-122279071D01*
X66443817Y-122110141D01*
X66223371Y-122018604D01*
X65984676Y-122018396D01*
X65764071Y-122109548D01*
X65679972Y-122193500D01*
X63690623Y-122193500D01*
X63678752Y-122164771D01*
X63510117Y-121995841D01*
X63289671Y-121904304D01*
X63050976Y-121904096D01*
X62830371Y-121995248D01*
X62661441Y-122163883D01*
X62569904Y-122384329D01*
X62569696Y-122623024D01*
X62660848Y-122843629D01*
X62829483Y-123012559D01*
X63049929Y-123104096D01*
X63288624Y-123104304D01*
X63435781Y-123043500D01*
X65679970Y-123043500D01*
X65763183Y-123126859D01*
X65870366Y-123171365D01*
X65827571Y-123189048D01*
X65743472Y-123273000D01*
X60566378Y-123273000D01*
X60524072Y-123170611D01*
X60355437Y-123001681D01*
X60134991Y-122910144D01*
X59896296Y-122909936D01*
X59675691Y-123001088D01*
X59506761Y-123169723D01*
X59415224Y-123390169D01*
X59415016Y-123628864D01*
X55013120Y-123628864D01*
X55058649Y-123610052D01*
X55227579Y-123441417D01*
X55319116Y-123220971D01*
X55319324Y-122982276D01*
X55228172Y-122761671D01*
X55059537Y-122592741D01*
X54839091Y-122501204D01*
X54600396Y-122500996D01*
X54379791Y-122592148D01*
X54303325Y-122668480D01*
X45423600Y-122668480D01*
X45237280Y-122482160D01*
X53526070Y-122482160D01*
X53609283Y-122565519D01*
X53829729Y-122657056D01*
X54068424Y-122657264D01*
X54289029Y-122566112D01*
X54457959Y-122397477D01*
X54549496Y-122177031D01*
X54549704Y-121938336D01*
X54458552Y-121717731D01*
X54289917Y-121548801D01*
X54069471Y-121457264D01*
X53830776Y-121457056D01*
X53610171Y-121548208D01*
X53526072Y-121632160D01*
X45408360Y-121632160D01*
X45144464Y-121368264D01*
X54345176Y-121368264D01*
X54436328Y-121588869D01*
X54604963Y-121757799D01*
X54825409Y-121849336D01*
X55064104Y-121849544D01*
X55284709Y-121758392D01*
X55368808Y-121674440D01*
X56594425Y-121674440D01*
X56697923Y-121778119D01*
X56918369Y-121869656D01*
X57157064Y-121869864D01*
X57377669Y-121778712D01*
X57546599Y-121610077D01*
X57638136Y-121389631D01*
X57638344Y-121150936D01*
X57547192Y-120930331D01*
X57378557Y-120761401D01*
X57158111Y-120669864D01*
X56919416Y-120669656D01*
X56698811Y-120760808D01*
X56635068Y-120824440D01*
X55368810Y-120824440D01*
X55285597Y-120741081D01*
X55065151Y-120649544D01*
X54826456Y-120649336D01*
X54605851Y-120740488D01*
X54436921Y-120909123D01*
X54345384Y-121129569D01*
X54345176Y-121368264D01*
X45144464Y-121368264D01*
X44742920Y-120966720D01*
X44742920Y-119321580D01*
X44710569Y-119158940D01*
X44669446Y-119097396D01*
X44641052Y-119054900D01*
X44641164Y-118925896D01*
X44550012Y-118705291D01*
X44532152Y-118687400D01*
X54357788Y-118687400D01*
X54171511Y-118764368D01*
X54002581Y-118933003D01*
X53911044Y-119153449D01*
X53910836Y-119392144D01*
X54001988Y-119612749D01*
X54170623Y-119781679D01*
X54391069Y-119873216D01*
X54629764Y-119873424D01*
X54850369Y-119782272D01*
X54911568Y-119721180D01*
X57000790Y-119721180D01*
X57084003Y-119804539D01*
X57304449Y-119896076D01*
X57543144Y-119896284D01*
X57763749Y-119805132D01*
X57932679Y-119636497D01*
X58024216Y-119416051D01*
X58024312Y-119305890D01*
X75704135Y-119305890D01*
X75819043Y-119420999D01*
X76039489Y-119512536D01*
X76278184Y-119512744D01*
X76498789Y-119421592D01*
X76667719Y-119252957D01*
X76759256Y-119032511D01*
X76759464Y-118793816D01*
X76704999Y-118662000D01*
X87757000Y-118662000D01*
X87892657Y-118635016D01*
X87919641Y-118629649D01*
X88057520Y-118537520D01*
X88520039Y-118075001D01*
X88637824Y-118075104D01*
X88858429Y-117983952D01*
X89027359Y-117815317D01*
X89118896Y-117594871D01*
X89119104Y-117356176D01*
X89027952Y-117135571D01*
X88859317Y-116966641D01*
X88813220Y-116947500D01*
X90057460Y-116947500D01*
X90458999Y-117349039D01*
X90458896Y-117466824D01*
X90550048Y-117687429D01*
X90718683Y-117856359D01*
X90939129Y-117947896D01*
X91177824Y-117948104D01*
X91398429Y-117856952D01*
X91567359Y-117688317D01*
X91658896Y-117467871D01*
X91659104Y-117229176D01*
X91567952Y-117008571D01*
X91399317Y-116839641D01*
X91178871Y-116748104D01*
X91060041Y-116748000D01*
X90534020Y-116221980D01*
X90396141Y-116129851D01*
X90369157Y-116124484D01*
X90233500Y-116097500D01*
X88428242Y-116097500D01*
X88519456Y-115877831D01*
X88519560Y-115759000D01*
X89210660Y-115067900D01*
X96680904Y-115067900D01*
X96692297Y-115095472D01*
X96917145Y-115320712D01*
X97211072Y-115442761D01*
X97529332Y-115443039D01*
X97823472Y-115321503D01*
X98048712Y-115096655D01*
X98170761Y-114802728D01*
X98171039Y-114484468D01*
X98049503Y-114190328D01*
X97824655Y-113965088D01*
X97530728Y-113843039D01*
X97212468Y-113842761D01*
X96918328Y-113964297D01*
X96693088Y-114189145D01*
X96681148Y-114217900D01*
X89034620Y-114217900D01*
X88898963Y-114244884D01*
X88871979Y-114250251D01*
X88734100Y-114342380D01*
X87918521Y-115157959D01*
X87800736Y-115157856D01*
X87580131Y-115249008D01*
X87411201Y-115417643D01*
X87319664Y-115638089D01*
X87319456Y-115876784D01*
X87410608Y-116097389D01*
X87410719Y-116097500D01*
X60621420Y-116097500D01*
X60474817Y-115950641D01*
X60254371Y-115859104D01*
X60015676Y-115858896D01*
X59795071Y-115950048D01*
X59626141Y-116118683D01*
X59534604Y-116339129D01*
X59534396Y-116577824D01*
X59625548Y-116798429D01*
X59737886Y-116910963D01*
X59604571Y-116966048D01*
X59435641Y-117134683D01*
X59344104Y-117355129D01*
X59343896Y-117593824D01*
X59434044Y-117812000D01*
X58589530Y-117812000D01*
X58506317Y-117728641D01*
X58285871Y-117637104D01*
X58047176Y-117636896D01*
X57826571Y-117728048D01*
X57657641Y-117896683D01*
X57617985Y-117992185D01*
X57587680Y-117961880D01*
X57449801Y-117869751D01*
X57422817Y-117864384D01*
X57287160Y-117837400D01*
X41148000Y-117837400D01*
X41087650Y-117849404D01*
X41087704Y-117787976D01*
X40996552Y-117567371D01*
X40912600Y-117483272D01*
X40912600Y-111675530D01*
X40946520Y-111641670D01*
X40946520Y-115051840D01*
X40966820Y-115153896D01*
X40978871Y-115214481D01*
X41071000Y-115352360D01*
X41294520Y-115575880D01*
X41432399Y-115668009D01*
X41459383Y-115673376D01*
X41595040Y-115700360D01*
X70399338Y-115700360D01*
X70433248Y-115782429D01*
X70601883Y-115951359D01*
X70822329Y-116042896D01*
X71061024Y-116043104D01*
X71281629Y-115951952D01*
X71450559Y-115783317D01*
X71542096Y-115562871D01*
X71542304Y-115324176D01*
X71451152Y-115103571D01*
X71282517Y-114934641D01*
X71062071Y-114843104D01*
X70823376Y-114842896D01*
X70795318Y-114854489D01*
X70774560Y-114850360D01*
X64681932Y-114850360D01*
X64755216Y-114673871D01*
X64755424Y-114435176D01*
X64707256Y-114318600D01*
X72263000Y-114318600D01*
X72398657Y-114291616D01*
X72425641Y-114286249D01*
X72563520Y-114194120D01*
X72680340Y-114077300D01*
X73490470Y-114077300D01*
X73573683Y-114160659D01*
X73794129Y-114252196D01*
X74032824Y-114252404D01*
X74253429Y-114161252D01*
X74422359Y-113992617D01*
X74513896Y-113772171D01*
X74514104Y-113533476D01*
X74422952Y-113312871D01*
X74254317Y-113143941D01*
X74033871Y-113052404D01*
X73795176Y-113052196D01*
X73574571Y-113143348D01*
X73490472Y-113227300D01*
X72504300Y-113227300D01*
X72393075Y-113249424D01*
X72393204Y-113101676D01*
X72302052Y-112881071D01*
X72133417Y-112712141D01*
X71912971Y-112620604D01*
X71674276Y-112620396D01*
X71640593Y-112634313D01*
X71669096Y-112565671D01*
X71669304Y-112326976D01*
X71578152Y-112106371D01*
X71409517Y-111937441D01*
X71189071Y-111845904D01*
X70950376Y-111845696D01*
X70764936Y-111922318D01*
X70777459Y-111909817D01*
X70868996Y-111689371D01*
X70869204Y-111450676D01*
X70803194Y-111290920D01*
X72214937Y-111290920D01*
X72219740Y-111294129D01*
X72382380Y-111326480D01*
X72774190Y-111326480D01*
X72857403Y-111409839D01*
X73077849Y-111501376D01*
X73316544Y-111501584D01*
X73537149Y-111410432D01*
X73706079Y-111241797D01*
X73797616Y-111021351D01*
X73797824Y-110782656D01*
X73706672Y-110562051D01*
X73538037Y-110393121D01*
X73317591Y-110301584D01*
X73078896Y-110301376D01*
X72858291Y-110392528D01*
X72774192Y-110476480D01*
X72514264Y-110476480D01*
X72509461Y-110473271D01*
X72482477Y-110467904D01*
X72346820Y-110440920D01*
X69799200Y-110440920D01*
X69636559Y-110473271D01*
X69624154Y-110481560D01*
X68632606Y-110481560D01*
X68869893Y-110244274D01*
X68881704Y-110244284D01*
X69102309Y-110153132D01*
X69271239Y-109984497D01*
X69362776Y-109764051D01*
X69362984Y-109525356D01*
X69271832Y-109304751D01*
X69103197Y-109135821D01*
X68882751Y-109044284D01*
X68644056Y-109044076D01*
X68423451Y-109135228D01*
X68254521Y-109303863D01*
X68162984Y-109524309D01*
X68162973Y-109536981D01*
X68045234Y-109654720D01*
X64204261Y-109654720D01*
X64195917Y-109646361D01*
X63975471Y-109554824D01*
X63736776Y-109554616D01*
X63516171Y-109645768D01*
X63507203Y-109654720D01*
X43935607Y-109654720D01*
X43920092Y-109617171D01*
X43751457Y-109448241D01*
X43531011Y-109356704D01*
X43292316Y-109356496D01*
X43071711Y-109447648D01*
X42975080Y-109544110D01*
X42975080Y-106900424D01*
X54771896Y-106900424D01*
X54863048Y-107121029D01*
X55031683Y-107289959D01*
X55252129Y-107381496D01*
X55330852Y-107381565D01*
X55330696Y-107560824D01*
X55421848Y-107781429D01*
X55590483Y-107950359D01*
X55810929Y-108041896D01*
X56049624Y-108042104D01*
X56081006Y-108029137D01*
X56095900Y-108032100D01*
X62066660Y-108032100D01*
X62823799Y-108789239D01*
X62823696Y-108907024D01*
X62914848Y-109127629D01*
X63083483Y-109296559D01*
X63303929Y-109388096D01*
X63542624Y-109388304D01*
X63763229Y-109297152D01*
X63932159Y-109128517D01*
X64023696Y-108908071D01*
X64023904Y-108669376D01*
X63932752Y-108448771D01*
X63764117Y-108279841D01*
X63543671Y-108188304D01*
X63424841Y-108188200D01*
X62543220Y-107306580D01*
X62405341Y-107214451D01*
X62365870Y-107206600D01*
X64568560Y-107206600D01*
X65418583Y-108056624D01*
X65467548Y-108175129D01*
X65636183Y-108344059D01*
X65856629Y-108435596D01*
X66095324Y-108435804D01*
X66315929Y-108344652D01*
X66484859Y-108176017D01*
X66576396Y-107955571D01*
X66576604Y-107716876D01*
X66485452Y-107496271D01*
X66316817Y-107327341D01*
X66096371Y-107235804D01*
X65857676Y-107235596D01*
X65816606Y-107252566D01*
X65045120Y-106481080D01*
X64907241Y-106388951D01*
X64880257Y-106383584D01*
X64744600Y-106356600D01*
X59305779Y-106356600D01*
X59204817Y-106255461D01*
X58984371Y-106163924D01*
X58745676Y-106163716D01*
X58525071Y-106254868D01*
X58423161Y-106356600D01*
X55795530Y-106356600D01*
X55712317Y-106273241D01*
X55491871Y-106181704D01*
X55253176Y-106181496D01*
X55032571Y-106272648D01*
X54863641Y-106441283D01*
X54772104Y-106661729D01*
X54771896Y-106900424D01*
X42975080Y-106900424D01*
X42975080Y-102900480D01*
X42942729Y-102737840D01*
X42942729Y-102737839D01*
X42850601Y-102599960D01*
X40327374Y-100076734D01*
X40249792Y-99888971D01*
X40081157Y-99720041D01*
X39860711Y-99628504D01*
X39622016Y-99628296D01*
X39401411Y-99719448D01*
X39232481Y-99888083D01*
X39140944Y-100108529D01*
X39140736Y-100347224D01*
X39231888Y-100567829D01*
X39249748Y-100585720D01*
X38869620Y-100585720D01*
X38706979Y-100618071D01*
X38569100Y-100710199D01*
X38332880Y-100946420D01*
X38240751Y-101084299D01*
X38240751Y-101084300D01*
X38208400Y-101246940D01*
X38208400Y-102138480D01*
X38224639Y-102220119D01*
X38240751Y-102301121D01*
X38332880Y-102439000D01*
X38399159Y-102505279D01*
X38399056Y-102623064D01*
X38490208Y-102843669D01*
X38658843Y-103012599D01*
X38879289Y-103104136D01*
X39117984Y-103104344D01*
X39338589Y-103013192D01*
X39507519Y-102844557D01*
X39599056Y-102624111D01*
X39599256Y-102394736D01*
X40946520Y-103742001D01*
X40946520Y-110862451D01*
X40827917Y-110743641D01*
X40607471Y-110652104D01*
X40368776Y-110651896D01*
X40148171Y-110743048D01*
X39979241Y-110911683D01*
X39887704Y-111132129D01*
X39887496Y-111370824D01*
X39978648Y-111591429D01*
X40062600Y-111675528D01*
X40062600Y-117483270D01*
X40020520Y-117525276D01*
X40004978Y-117447141D01*
X40001409Y-117429199D01*
X39909281Y-117291320D01*
X38928601Y-116310641D01*
X38928704Y-116192856D01*
X38837552Y-115972251D01*
X38668917Y-115803321D01*
X38448471Y-115711784D01*
X38209776Y-115711576D01*
X37989600Y-115802551D01*
X37989600Y-115759234D01*
X38039496Y-115639071D01*
X38039704Y-115400376D01*
X37948552Y-115179771D01*
X37779917Y-115010841D01*
X37559471Y-114919304D01*
X37320776Y-114919096D01*
X37153400Y-114988254D01*
X37153400Y-112021575D01*
X37169429Y-112014952D01*
X37338359Y-111846317D01*
X37429896Y-111625871D01*
X37430104Y-111387176D01*
X37338952Y-111166571D01*
X37170317Y-110997641D01*
X36949871Y-110906104D01*
X36711176Y-110905896D01*
X36588561Y-110956559D01*
X38933921Y-108611200D01*
X39026049Y-108473321D01*
X39058400Y-108310680D01*
X39058400Y-105203610D01*
X39141759Y-105120397D01*
X39233296Y-104899951D01*
X39233504Y-104661256D01*
X39142352Y-104440651D01*
X38973717Y-104271721D01*
X38753271Y-104180184D01*
X38514576Y-104179976D01*
X38293971Y-104271128D01*
X38125041Y-104439763D01*
X38033504Y-104660209D01*
X38033296Y-104898904D01*
X38124448Y-105119509D01*
X38208400Y-105203608D01*
X38208400Y-108134639D01*
X34972460Y-111370580D01*
X34880331Y-111508459D01*
X34880331Y-111508460D01*
X34847980Y-111671100D01*
X34847980Y-116966219D01*
X32886200Y-118928000D01*
X32886200Y-118639647D01*
X32908696Y-118585471D01*
X32908904Y-118346776D01*
X32817752Y-118126171D01*
X32649117Y-117957241D01*
X32428671Y-117865704D01*
X32189976Y-117865496D01*
X32002117Y-117943118D01*
X31997976Y-115516104D01*
X33339376Y-115516104D01*
X33430528Y-115736709D01*
X33599163Y-115905639D01*
X33819609Y-115997176D01*
X34058304Y-115997384D01*
X34278909Y-115906232D01*
X34447839Y-115737597D01*
X34539376Y-115517151D01*
X34539584Y-115278456D01*
X34448432Y-115057851D01*
X34326380Y-114935585D01*
X34326380Y-107508860D01*
X34559890Y-107508860D01*
X34643103Y-107592219D01*
X34863549Y-107683756D01*
X35102244Y-107683964D01*
X35322849Y-107592812D01*
X35491779Y-107424177D01*
X35583316Y-107203731D01*
X35583524Y-106965036D01*
X35492372Y-106744431D01*
X35323737Y-106575501D01*
X35103291Y-106483964D01*
X34864596Y-106483756D01*
X34643991Y-106574908D01*
X34559892Y-106658860D01*
X33939480Y-106658860D01*
X33776839Y-106691211D01*
X33638960Y-106783339D01*
X33600860Y-106821440D01*
X33508731Y-106959319D01*
X33507594Y-106965036D01*
X33476380Y-107121960D01*
X33476380Y-115011783D01*
X33431121Y-115056963D01*
X33339584Y-115277409D01*
X33339376Y-115516104D01*
X31997976Y-115516104D01*
X31972522Y-100600410D01*
X32055159Y-100517917D01*
X32146696Y-100297471D01*
X32146904Y-100058776D01*
X32067251Y-99866000D01*
X33199560Y-99866000D01*
X33382400Y-100048841D01*
X33382400Y-105621612D01*
X33309104Y-105798129D01*
X33308896Y-106036824D01*
X33400048Y-106257429D01*
X33568683Y-106426359D01*
X33789129Y-106517896D01*
X34027824Y-106518104D01*
X34248429Y-106426952D01*
X34417359Y-106258317D01*
X34508896Y-106037871D01*
X34509104Y-105799176D01*
X34417952Y-105578571D01*
X34249317Y-105409641D01*
X34232400Y-105402616D01*
X34232400Y-99872800D01*
X34200049Y-99710160D01*
X34128875Y-99603641D01*
X34107920Y-99572279D01*
X33676120Y-99140480D01*
X33538241Y-99048351D01*
X33511257Y-99042984D01*
X33375600Y-99016000D01*
X28630495Y-99016000D01*
X28506076Y-98932866D01*
X28295600Y-98891000D01*
X26644600Y-98891000D01*
X26434124Y-98932866D01*
X26255691Y-99052091D01*
X25267000Y-100040782D01*
X25267000Y-96878978D01*
X25453873Y-97331246D01*
X26109303Y-97987821D01*
X26966101Y-98343595D01*
X27893828Y-98344404D01*
X28751246Y-97990127D01*
X29407821Y-97334697D01*
X29763595Y-96477899D01*
X29764404Y-95550172D01*
X29410127Y-94692754D01*
X28754697Y-94036179D01*
X28299104Y-93847000D01*
X40312972Y-93847000D01*
X40312972Y-96699200D01*
X40312972Y-96699200D01*
G37*
X40312972Y-96699200D02*
X47367912Y-96699200D01*
X47281960Y-96906196D01*
X47281682Y-97224607D01*
X47403276Y-97518886D01*
X47628229Y-97744233D01*
X47663069Y-97758700D01*
X44399200Y-97758700D01*
X44236560Y-97791051D01*
X44236558Y-97791052D01*
X44236559Y-97791052D01*
X44098679Y-97883180D01*
X43793881Y-98187979D01*
X43692280Y-98289580D01*
X43600151Y-98427459D01*
X43600151Y-98427460D01*
X43567800Y-98590100D01*
X43567800Y-104889300D01*
X43585762Y-104979600D01*
X43600151Y-105051941D01*
X43692280Y-105189820D01*
X43811899Y-105309439D01*
X43811796Y-105427224D01*
X43902948Y-105647829D01*
X44071583Y-105816759D01*
X44292029Y-105908296D01*
X44530724Y-105908504D01*
X44751329Y-105817352D01*
X44920259Y-105648717D01*
X45011796Y-105428271D01*
X45012004Y-105189576D01*
X44920852Y-104968971D01*
X44752217Y-104800041D01*
X44531771Y-104708504D01*
X44417800Y-104708405D01*
X44417800Y-101679600D01*
X46995116Y-101679600D01*
X46995116Y-104979600D01*
X65323684Y-104979600D01*
X65323684Y-101679600D01*
X54622199Y-101679600D01*
X54673261Y-101556628D01*
X54673539Y-101238368D01*
X54552003Y-100944228D01*
X54327155Y-100718988D01*
X54033228Y-100596939D01*
X53714968Y-100596661D01*
X53431661Y-100713721D01*
X53364837Y-100552395D01*
X53193804Y-100381362D01*
X52970338Y-100288800D01*
X52655400Y-100288800D01*
X52503400Y-100440800D01*
X52503400Y-101242800D01*
X52523400Y-101242800D01*
X52523400Y-101550800D01*
X52503400Y-101550800D01*
X52503400Y-101570800D01*
X52195400Y-101570800D01*
X52195400Y-101550800D01*
X51393400Y-101550800D01*
X51264600Y-101679600D01*
X46995116Y-101679600D01*
X44417800Y-101679600D01*
X44417800Y-99509357D01*
X44596829Y-99583696D01*
X44599397Y-99583698D01*
X44599196Y-99813824D01*
X44690348Y-100034429D01*
X44858983Y-100203359D01*
X45079429Y-100294896D01*
X45318124Y-100295104D01*
X45538729Y-100203952D01*
X45622828Y-100120000D01*
X51709970Y-100120000D01*
X51793183Y-100203359D01*
X51998948Y-100288800D01*
X51728462Y-100288800D01*
X51504996Y-100381362D01*
X51333963Y-100552395D01*
X51241400Y-100775861D01*
X51241400Y-101090800D01*
X51393400Y-101242800D01*
X52195400Y-101242800D01*
X52195400Y-100440800D01*
X52049527Y-100294927D01*
X52252324Y-100295104D01*
X52472929Y-100203952D01*
X52641859Y-100035317D01*
X52733396Y-99814871D01*
X52733604Y-99576176D01*
X52664446Y-99408800D01*
X56135602Y-99408800D01*
X56092904Y-99511629D01*
X56092696Y-99750324D01*
X56183848Y-99970929D01*
X56352483Y-100139859D01*
X56572929Y-100231396D01*
X56811624Y-100231604D01*
X57032229Y-100140452D01*
X57129050Y-100043800D01*
X75674870Y-100043800D01*
X75758083Y-100127159D01*
X75978529Y-100218696D01*
X76217224Y-100218904D01*
X76437829Y-100127752D01*
X76606759Y-99959117D01*
X76698296Y-99738671D01*
X76698504Y-99499976D01*
X76607352Y-99279371D01*
X76438717Y-99110441D01*
X76218271Y-99018904D01*
X75979576Y-99018696D01*
X75758971Y-99109848D01*
X75674872Y-99193800D01*
X74963377Y-99193800D01*
X75021896Y-99052871D01*
X75021903Y-99044495D01*
X75127629Y-99088396D01*
X75366324Y-99088604D01*
X75586929Y-98997452D01*
X75755859Y-98828817D01*
X75847396Y-98608371D01*
X75847604Y-98369676D01*
X75756452Y-98149071D01*
X75587817Y-97980141D01*
X75367371Y-97888604D01*
X75248540Y-97888500D01*
X75243220Y-97883180D01*
X75105341Y-97791051D01*
X75078357Y-97785684D01*
X74942700Y-97758700D01*
X48501888Y-97758700D01*
X48534986Y-97745024D01*
X48760333Y-97520071D01*
X48882440Y-97226004D01*
X48882718Y-96907593D01*
X48796611Y-96699200D01*
X76950237Y-96699200D01*
X76885441Y-96763883D01*
X76793904Y-96984329D01*
X76793696Y-97223024D01*
X76884848Y-97443629D01*
X77053483Y-97612559D01*
X77273929Y-97704096D01*
X77392759Y-97704200D01*
X78490279Y-98801720D01*
X78529504Y-98827929D01*
X78628160Y-98893849D01*
X78790800Y-98926200D01*
X84912200Y-98926200D01*
X85047857Y-98899216D01*
X85074841Y-98893849D01*
X85212720Y-98801720D01*
X85542920Y-98471521D01*
X85626563Y-98346340D01*
X85635049Y-98333640D01*
X85667400Y-98171000D01*
X85667400Y-98146677D01*
X86258400Y-98146677D01*
X86369573Y-98125758D01*
X86471679Y-98060055D01*
X86540178Y-97959803D01*
X86564277Y-97840800D01*
X86564277Y-95808800D01*
X86543358Y-95697627D01*
X86477655Y-95595521D01*
X86377403Y-95527022D01*
X86258400Y-95502923D01*
X84226400Y-95502923D01*
X84115227Y-95523842D01*
X84013121Y-95589545D01*
X83944622Y-95689797D01*
X83920523Y-95808800D01*
X83920523Y-96306960D01*
X83918225Y-96295407D01*
X83632953Y-95868465D01*
X83206011Y-95583193D01*
X82702400Y-95483018D01*
X82198789Y-95583193D01*
X81771847Y-95868465D01*
X81486575Y-96295407D01*
X81465810Y-96399800D01*
X78382640Y-96399800D01*
X78355828Y-96372988D01*
X78355828Y-93847000D01*
X89003200Y-93847000D01*
X89003200Y-101172682D01*
X88646630Y-101172682D01*
X76655008Y-101143506D01*
X76710996Y-101008671D01*
X76711204Y-100769976D01*
X76620052Y-100549371D01*
X76451417Y-100380441D01*
X76230971Y-100288904D01*
X75992276Y-100288696D01*
X75814382Y-100362200D01*
X57802130Y-100362200D01*
X57718917Y-100278841D01*
X57498471Y-100187304D01*
X57259776Y-100187096D01*
X57039171Y-100278248D01*
X56870241Y-100446883D01*
X56778704Y-100667329D01*
X56778496Y-100906024D01*
X56869648Y-101126629D01*
X57038283Y-101295559D01*
X57258729Y-101387096D01*
X57497424Y-101387304D01*
X57718029Y-101296152D01*
X57802128Y-101212200D01*
X73398990Y-101212200D01*
X73314104Y-101416629D01*
X73313896Y-101655324D01*
X73405048Y-101875929D01*
X73573683Y-102044859D01*
X73794129Y-102136396D01*
X74032824Y-102136604D01*
X74253429Y-102045452D01*
X74311176Y-101987806D01*
X88644972Y-102022681D01*
X88645490Y-102022579D01*
X88646006Y-102022682D01*
X89003200Y-102022682D01*
X89003200Y-103022400D01*
X89011079Y-103061306D01*
X89033473Y-103094081D01*
X89066854Y-103115561D01*
X89103200Y-103122400D01*
X108864400Y-103122400D01*
X108903306Y-103114521D01*
X108936081Y-103092127D01*
X108957561Y-103058746D01*
X108964400Y-103022400D01*
X108964400Y-93847000D01*
X111491204Y-93847000D01*
X110885254Y-94097373D01*
X110228679Y-94752803D01*
X109872905Y-95609601D01*
X109872096Y-96537328D01*
X110226373Y-97394746D01*
X110881803Y-98051321D01*
X111738601Y-98407095D01*
X112666328Y-98407904D01*
X113523746Y-98053627D01*
X114180321Y-97398197D01*
X114496500Y-96636754D01*
X114496500Y-140092887D01*
X114182627Y-139333254D01*
X113527197Y-138676679D01*
X112670399Y-138320905D01*
X111742672Y-138320096D01*
X110885254Y-138674373D01*
X110228679Y-139329803D01*
X109872905Y-140186601D01*
X109872096Y-141114328D01*
X110226373Y-141971746D01*
X110881803Y-142628321D01*
X111490321Y-142881000D01*
X100522167Y-142881000D01*
X100539678Y-142854792D01*
X100570249Y-142809040D01*
X100587074Y-142724456D01*
X100616786Y-142754168D01*
X100840252Y-142846730D01*
X104405500Y-142846730D01*
X104557500Y-142694730D01*
X104557500Y-140892860D01*
X104865500Y-140892860D01*
X104865500Y-142694730D01*
X105017500Y-142846730D01*
X108582748Y-142846730D01*
X108806214Y-142754168D01*
X108977247Y-142583135D01*
X109069810Y-142359669D01*
X109069810Y-141044860D01*
X108917810Y-140892860D01*
X104865500Y-140892860D01*
X104557500Y-140892860D01*
X104537500Y-140892860D01*
X104537500Y-140584860D01*
X104557500Y-140584860D01*
X104557500Y-138782990D01*
X104405500Y-138630990D01*
X102369413Y-138630990D01*
X102403096Y-138549871D01*
X102403304Y-138311176D01*
X102312152Y-138090571D01*
X102143517Y-137921641D01*
X101923071Y-137830104D01*
X101684376Y-137829896D01*
X101463771Y-137921048D01*
X101324546Y-138060030D01*
X101324595Y-138003578D01*
X101241039Y-137801357D01*
X101086457Y-137646505D01*
X100984977Y-137604367D01*
X100984976Y-137604366D01*
X100984974Y-137604366D01*
X100884382Y-137562596D01*
X100774500Y-137562500D01*
X100705378Y-137562440D01*
X100785062Y-137482756D01*
X100842187Y-137521788D01*
X100961190Y-137545887D01*
X104175103Y-137545887D01*
X104203366Y-137687976D01*
X104322591Y-137866409D01*
X104957252Y-138501069D01*
X105034543Y-138578495D01*
X105136023Y-138620633D01*
X105136024Y-138620634D01*
X105136026Y-138620634D01*
X105160965Y-138630990D01*
X105017500Y-138630990D01*
X104865500Y-138782990D01*
X104865500Y-140584860D01*
X108917810Y-140584860D01*
X109069810Y-140432860D01*
X109069810Y-139118051D01*
X108977247Y-138894585D01*
X108806214Y-138723552D01*
X108582748Y-138630990D01*
X105531912Y-138630990D01*
X105556975Y-138620634D01*
X105556976Y-138620634D01*
X105556977Y-138620633D01*
X105657643Y-138579039D01*
X105812495Y-138424457D01*
X105896404Y-138222382D01*
X105896500Y-138112505D01*
X105896501Y-138112500D01*
X105896500Y-138112495D01*
X105896595Y-138003578D01*
X105813039Y-137801357D01*
X105658457Y-137646505D01*
X105658226Y-137646409D01*
X105557704Y-137545887D01*
X108461810Y-137545887D01*
X108572983Y-137524968D01*
X108675089Y-137459265D01*
X108743588Y-137359013D01*
X108767687Y-137240010D01*
X108767687Y-136306431D01*
X111140358Y-136306431D01*
X111199622Y-136526194D01*
X111675983Y-136679634D01*
X112174802Y-136639099D01*
X112447378Y-136526194D01*
X112506642Y-136306431D01*
X111823500Y-135623289D01*
X111140358Y-136306431D01*
X108767687Y-136306431D01*
X108767687Y-135257983D01*
X110549366Y-135257983D01*
X110589901Y-135756802D01*
X110702806Y-136029378D01*
X110922569Y-136088642D01*
X111605711Y-135405500D01*
X112041289Y-135405500D01*
X112724431Y-136088642D01*
X112944194Y-136029378D01*
X113097634Y-135553017D01*
X113057099Y-135054198D01*
X112944194Y-134781622D01*
X112724431Y-134722358D01*
X112041289Y-135405500D01*
X111605711Y-135405500D01*
X110922569Y-134722358D01*
X110702806Y-134781622D01*
X110549366Y-135257983D01*
X108767687Y-135257983D01*
X108767687Y-134504569D01*
X111140358Y-134504569D01*
X111823500Y-135187711D01*
X112506642Y-134504569D01*
X112447378Y-134284806D01*
X111971017Y-134131366D01*
X111472198Y-134171901D01*
X111199622Y-134284806D01*
X111140358Y-134504569D01*
X108767687Y-134504569D01*
X108767687Y-134240270D01*
X108746768Y-134129097D01*
X108681065Y-134026991D01*
X108580813Y-133958492D01*
X108461810Y-133934393D01*
X100961190Y-133934393D01*
X100850017Y-133955312D01*
X100747911Y-134021015D01*
X100679412Y-134121267D01*
X100655313Y-134240270D01*
X100655313Y-136056869D01*
X99872607Y-136839575D01*
X99872607Y-134743190D01*
X99851688Y-134632017D01*
X99785985Y-134529911D01*
X99685733Y-134461412D01*
X99566730Y-134437313D01*
X96566990Y-134437313D01*
X96455817Y-134458232D01*
X96353711Y-134523935D01*
X96285212Y-134624187D01*
X96261113Y-134743190D01*
X96261113Y-142243810D01*
X96282032Y-142354983D01*
X96326829Y-142424600D01*
X94807571Y-142424600D01*
X94849788Y-142362813D01*
X94873887Y-142243810D01*
X94873887Y-134743190D01*
X94852968Y-134632017D01*
X94787265Y-134529911D01*
X94687013Y-134461412D01*
X94568010Y-134437313D01*
X93868140Y-134437313D01*
X93868140Y-132497730D01*
X93956439Y-132409431D01*
X96511858Y-132409431D01*
X96571122Y-132629194D01*
X97047483Y-132782634D01*
X97546302Y-132742099D01*
X97764903Y-132651551D01*
X102782077Y-132651551D01*
X103036098Y-133166500D01*
X103467846Y-133545041D01*
X103822451Y-133691911D01*
X104049500Y-133581083D01*
X104049500Y-132424500D01*
X104357500Y-132424500D01*
X104357500Y-133581083D01*
X104584549Y-133691911D01*
X104939154Y-133545041D01*
X105370902Y-133166500D01*
X105473500Y-132958514D01*
X105576098Y-133166500D01*
X106007846Y-133545041D01*
X106362451Y-133691911D01*
X106589500Y-133581083D01*
X106589500Y-132424500D01*
X106897500Y-132424500D01*
X106897500Y-133581083D01*
X107124549Y-133691911D01*
X107479154Y-133545041D01*
X107910902Y-133166500D01*
X108164923Y-132651551D01*
X108055032Y-132424500D01*
X106897500Y-132424500D01*
X106589500Y-132424500D01*
X104357500Y-132424500D01*
X104049500Y-132424500D01*
X102891968Y-132424500D01*
X102782077Y-132651551D01*
X97764903Y-132651551D01*
X97818878Y-132629194D01*
X97878142Y-132409431D01*
X97195000Y-131726289D01*
X96511858Y-132409431D01*
X93956439Y-132409431D01*
X95004887Y-131360983D01*
X95920866Y-131360983D01*
X95961401Y-131859802D01*
X96074306Y-132132378D01*
X96294069Y-132191642D01*
X96977211Y-131508500D01*
X97412789Y-131508500D01*
X98095931Y-132191642D01*
X98315694Y-132132378D01*
X98469134Y-131656017D01*
X98428599Y-131157198D01*
X98315694Y-130884622D01*
X98095931Y-130825358D01*
X97412789Y-131508500D01*
X96977211Y-131508500D01*
X96294069Y-130825358D01*
X96074306Y-130884622D01*
X95920866Y-131360983D01*
X95004887Y-131360983D01*
X95835371Y-130530500D01*
X96532641Y-130530500D01*
X96511858Y-130607569D01*
X97195000Y-131290711D01*
X97878142Y-130607569D01*
X97857359Y-130530500D01*
X98474630Y-130530500D01*
X98749818Y-130805688D01*
X98739123Y-130858500D01*
X98739123Y-132158500D01*
X98760042Y-132269673D01*
X98825745Y-132371779D01*
X98925997Y-132440278D01*
X99045000Y-132464377D01*
X100345000Y-132464377D01*
X100456173Y-132443458D01*
X100558279Y-132377755D01*
X100626778Y-132277503D01*
X100650877Y-132158500D01*
X100650877Y-130858500D01*
X100629958Y-130747327D01*
X100564255Y-130645221D01*
X100490028Y-130594504D01*
X100434104Y-130313353D01*
X100422633Y-130296185D01*
X100414320Y-130283744D01*
X100603538Y-130472962D01*
X100944182Y-130700574D01*
X101346000Y-130780500D01*
X103103349Y-130780500D01*
X103120645Y-130807379D01*
X103220897Y-130875878D01*
X103339900Y-130899977D01*
X103699586Y-130899977D01*
X103467846Y-130995959D01*
X103036098Y-131374500D01*
X102782077Y-131889449D01*
X102891968Y-132116500D01*
X104049500Y-132116500D01*
X104049500Y-132096500D01*
X104357500Y-132096500D01*
X104357500Y-132116500D01*
X106589500Y-132116500D01*
X106589500Y-132096500D01*
X106897500Y-132096500D01*
X106897500Y-132116500D01*
X108055032Y-132116500D01*
X108164923Y-131889449D01*
X107910902Y-131374500D01*
X107479154Y-130995959D01*
X107124549Y-130849089D01*
X106897502Y-130959916D01*
X106897502Y-130886263D01*
X107188790Y-130828322D01*
X107566289Y-130576085D01*
X107596748Y-130530500D01*
X108698130Y-130530500D01*
X110867623Y-132699994D01*
X110867623Y-133555500D01*
X110888542Y-133666673D01*
X110954245Y-133768779D01*
X111054497Y-133837278D01*
X111173500Y-133861377D01*
X112473500Y-133861377D01*
X112584673Y-133840458D01*
X112686779Y-133774755D01*
X112755278Y-133674503D01*
X112779377Y-133555500D01*
X112779377Y-132255500D01*
X112758458Y-132144327D01*
X112692755Y-132042221D01*
X112592503Y-131973722D01*
X112473500Y-131949623D01*
X112379994Y-131949623D01*
X109595185Y-129164815D01*
X109335647Y-128991396D01*
X109318765Y-128988038D01*
X109029500Y-128930500D01*
X107596748Y-128930500D01*
X107566289Y-128884915D01*
X107188790Y-128632678D01*
X106743500Y-128544104D01*
X106298210Y-128632678D01*
X105920711Y-128884915D01*
X105668474Y-129262414D01*
X105579900Y-129707704D01*
X105579900Y-129753296D01*
X105668474Y-130198586D01*
X105920711Y-130576085D01*
X106298210Y-130828322D01*
X106589498Y-130886263D01*
X106589498Y-130959916D01*
X106362451Y-130849089D01*
X106007846Y-130995959D01*
X105576098Y-131374500D01*
X105473500Y-131582486D01*
X105370902Y-131374500D01*
X104939154Y-130995959D01*
X104707414Y-130899977D01*
X105067100Y-130899977D01*
X105178273Y-130879058D01*
X105280379Y-130813355D01*
X105348878Y-130713103D01*
X105372977Y-130594100D01*
X105372977Y-128866900D01*
X105352058Y-128755727D01*
X105286355Y-128653621D01*
X105186103Y-128585122D01*
X105067100Y-128561023D01*
X103339900Y-128561023D01*
X103228727Y-128581942D01*
X103126621Y-128647645D01*
X103104172Y-128680500D01*
X101780924Y-128680500D01*
X100437462Y-127337038D01*
X100325819Y-127262440D01*
X102174040Y-127262440D01*
X102309697Y-127235456D01*
X102336681Y-127230089D01*
X102474560Y-127137960D01*
X103653121Y-125959400D01*
X103745249Y-125821521D01*
X103777600Y-125658880D01*
X103777600Y-124720157D01*
X104368600Y-124720157D01*
X104479773Y-124699238D01*
X104581879Y-124633535D01*
X104650378Y-124533283D01*
X104674477Y-124414280D01*
X104674477Y-122382280D01*
X104653558Y-122271107D01*
X104587855Y-122169001D01*
X104487603Y-122100502D01*
X104368600Y-122076403D01*
X103870440Y-122076403D01*
X103881993Y-122074105D01*
X104308935Y-121788833D01*
X104594207Y-121361891D01*
X104694382Y-120858280D01*
X104594207Y-120354669D01*
X104308935Y-119927727D01*
X103881993Y-119642455D01*
X103392056Y-119545000D01*
X104824630Y-119545000D01*
X104927500Y-119647870D01*
X104927500Y-124827129D01*
X103638882Y-126115748D01*
X103525688Y-126228745D01*
X103403639Y-126522672D01*
X103403361Y-126840932D01*
X103524897Y-127135072D01*
X103749745Y-127360312D01*
X104043672Y-127482361D01*
X104361932Y-127482639D01*
X104656072Y-127361103D01*
X104881312Y-127136255D01*
X104881452Y-127135918D01*
X104969239Y-127048131D01*
X108486058Y-127048131D01*
X108545322Y-127267894D01*
X109021683Y-127421334D01*
X109520502Y-127380799D01*
X109793078Y-127267894D01*
X109852342Y-127048131D01*
X109169200Y-126364989D01*
X108486058Y-127048131D01*
X104969239Y-127048131D01*
X106017687Y-125999683D01*
X107895066Y-125999683D01*
X107935601Y-126498502D01*
X108048506Y-126771078D01*
X108268269Y-126830342D01*
X108951411Y-126147200D01*
X109386989Y-126147200D01*
X110070131Y-126830342D01*
X110289894Y-126771078D01*
X110443334Y-126294717D01*
X110402799Y-125795898D01*
X110289894Y-125523322D01*
X110070131Y-125464058D01*
X109386989Y-126147200D01*
X108951411Y-126147200D01*
X108268269Y-125464058D01*
X108048506Y-125523322D01*
X107895066Y-125999683D01*
X106017687Y-125999683D01*
X106293185Y-125724186D01*
X106466604Y-125464647D01*
X106479088Y-125401884D01*
X106510041Y-125246269D01*
X108486058Y-125246269D01*
X109169200Y-125929411D01*
X109852342Y-125246269D01*
X109793078Y-125026506D01*
X109316717Y-124873066D01*
X108817898Y-124913601D01*
X108545322Y-125026506D01*
X108486058Y-125246269D01*
X106510041Y-125246269D01*
X106527500Y-125158500D01*
X106527500Y-122997200D01*
X108213323Y-122997200D01*
X108213323Y-124297200D01*
X108234242Y-124408373D01*
X108299945Y-124510479D01*
X108400197Y-124578978D01*
X108519200Y-124603077D01*
X109819200Y-124603077D01*
X109930373Y-124582158D01*
X110032479Y-124516455D01*
X110100978Y-124416203D01*
X110125077Y-124297200D01*
X110125077Y-122997200D01*
X110104158Y-122886027D01*
X110038455Y-122783921D01*
X109938203Y-122715422D01*
X109819200Y-122691323D01*
X108519200Y-122691323D01*
X108408027Y-122712242D01*
X108305921Y-122777945D01*
X108237422Y-122878197D01*
X108213323Y-122997200D01*
X106527500Y-122997200D01*
X106527500Y-120882500D01*
X108839000Y-120882500D01*
X109049476Y-120840634D01*
X109227909Y-120721409D01*
X109693179Y-120256138D01*
X109813429Y-120206452D01*
X109982359Y-120037817D01*
X110073896Y-119817371D01*
X110074104Y-119578676D01*
X109982952Y-119358071D01*
X109814317Y-119189141D01*
X109593871Y-119097604D01*
X109355176Y-119097396D01*
X109134571Y-119188548D01*
X108965641Y-119357183D01*
X108915325Y-119478358D01*
X108611182Y-119782500D01*
X106527500Y-119782500D01*
X106527500Y-119316500D01*
X106466604Y-119010353D01*
X106293185Y-118750815D01*
X105721685Y-118179315D01*
X105462147Y-118005896D01*
X105156000Y-117945000D01*
X101662496Y-117945000D01*
X101729079Y-117902155D01*
X101797578Y-117801903D01*
X101821677Y-117682900D01*
X101821677Y-116682900D01*
X101800758Y-116571727D01*
X101735055Y-116469621D01*
X101634803Y-116401122D01*
X101515800Y-116377023D01*
X100515800Y-116377023D01*
X100404627Y-116397942D01*
X100302521Y-116463645D01*
X100241000Y-116553684D01*
X100241000Y-114862657D01*
X100337197Y-115095472D01*
X100562045Y-115320712D01*
X100855972Y-115442761D01*
X101174232Y-115443039D01*
X101468372Y-115321503D01*
X101693612Y-115096655D01*
X101815661Y-114802728D01*
X101815939Y-114484468D01*
X101694403Y-114190328D01*
X101469555Y-113965088D01*
X101306785Y-113897500D01*
X102743000Y-113897500D01*
X102953476Y-113855634D01*
X103131909Y-113736409D01*
X103408415Y-113459902D01*
X103375622Y-113507897D01*
X103351523Y-113626900D01*
X103351523Y-115658900D01*
X103372442Y-115770073D01*
X103438145Y-115872179D01*
X103538397Y-115940678D01*
X103657400Y-115964777D01*
X105689400Y-115964777D01*
X105800573Y-115943858D01*
X105902679Y-115878155D01*
X105971178Y-115777903D01*
X105995277Y-115658900D01*
X105995277Y-115160740D01*
X105997575Y-115172293D01*
X106282847Y-115599235D01*
X106709789Y-115884507D01*
X107213400Y-115984682D01*
X107717011Y-115884507D01*
X108143953Y-115599235D01*
X108429225Y-115172293D01*
X108529400Y-114668682D01*
X108529400Y-114617118D01*
X108429225Y-114113507D01*
X108143953Y-113686565D01*
X107717011Y-113401293D01*
X107213400Y-113301118D01*
X106709789Y-113401293D01*
X106282847Y-113686565D01*
X105997575Y-114113507D01*
X105995277Y-114125060D01*
X105995277Y-113626900D01*
X105974358Y-113515727D01*
X105908655Y-113413621D01*
X105808403Y-113345122D01*
X105689400Y-113321023D01*
X103657400Y-113321023D01*
X103546227Y-113341942D01*
X103490546Y-113377772D01*
X103605817Y-113262500D01*
X108413584Y-113262500D01*
X108562183Y-113411359D01*
X108782629Y-113502896D01*
X109021324Y-113503104D01*
X109241929Y-113411952D01*
X109410859Y-113243317D01*
X109502396Y-113022871D01*
X109502604Y-112784176D01*
X109411452Y-112563571D01*
X109242817Y-112394641D01*
X109121643Y-112344325D01*
X109100909Y-112323591D01*
X108922476Y-112204366D01*
X108712000Y-112162500D01*
X107478883Y-112162500D01*
X107729711Y-112112607D01*
X108156653Y-111827335D01*
X108441925Y-111400393D01*
X108542100Y-110896782D01*
X108542100Y-110845218D01*
X108441925Y-110341607D01*
X108156653Y-109914665D01*
X107729711Y-109629393D01*
X107226100Y-109529218D01*
X106722489Y-109629393D01*
X106295547Y-109914665D01*
X106010275Y-110341607D01*
X106007977Y-110353160D01*
X106007977Y-109855000D01*
X105987058Y-109743827D01*
X105921355Y-109641721D01*
X105821103Y-109573222D01*
X105702100Y-109549123D01*
X103670100Y-109549123D01*
X103558927Y-109570042D01*
X103456821Y-109635745D01*
X103388322Y-109735997D01*
X103364223Y-109855000D01*
X103364223Y-111887000D01*
X103385142Y-111998173D01*
X103450845Y-112100279D01*
X103541909Y-112162500D01*
X103378005Y-112162500D01*
X103378000Y-112162499D01*
X103167524Y-112204366D01*
X102989091Y-112323591D01*
X102989089Y-112323594D01*
X102515182Y-112797500D01*
X101429656Y-112797500D01*
X101468372Y-112781503D01*
X101693612Y-112556655D01*
X101815661Y-112262728D01*
X101815939Y-111944468D01*
X101694403Y-111650328D01*
X101469555Y-111425088D01*
X101175628Y-111303039D01*
X100857368Y-111302761D01*
X100563228Y-111424297D01*
X100337988Y-111649145D01*
X100215939Y-111943072D01*
X100215711Y-112204362D01*
X100180104Y-112025353D01*
X100150327Y-111980789D01*
X100006685Y-111765814D01*
X98482685Y-110241815D01*
X98223147Y-110068396D01*
X98034475Y-110030867D01*
X98048712Y-110016655D01*
X98170761Y-109722728D01*
X98170762Y-109721332D01*
X100215661Y-109721332D01*
X100337197Y-110015472D01*
X100562045Y-110240712D01*
X100855972Y-110362761D01*
X101174232Y-110363039D01*
X101468372Y-110241503D01*
X101693612Y-110016655D01*
X101815661Y-109722728D01*
X101815939Y-109404468D01*
X101694403Y-109110328D01*
X101469555Y-108885088D01*
X101202288Y-108774109D01*
X110771513Y-108774109D01*
X110945749Y-109194779D01*
X111368173Y-109667092D01*
X111939189Y-109941798D01*
X112190200Y-109833793D01*
X112190200Y-108523100D01*
X112498200Y-108523100D01*
X112498200Y-109833793D01*
X112749211Y-109941798D01*
X113320227Y-109667092D01*
X113742651Y-109194779D01*
X113916887Y-108774109D01*
X113808122Y-108523100D01*
X112498200Y-108523100D01*
X112190200Y-108523100D01*
X110880278Y-108523100D01*
X110771513Y-108774109D01*
X101202288Y-108774109D01*
X101175628Y-108763039D01*
X100857368Y-108762761D01*
X100563228Y-108884297D01*
X100337988Y-109109145D01*
X100215939Y-109403072D01*
X100215661Y-109721332D01*
X98170762Y-109721332D01*
X98171039Y-109404468D01*
X98049503Y-109110328D01*
X97824655Y-108885088D01*
X97530728Y-108763039D01*
X97212468Y-108762761D01*
X96918328Y-108884297D01*
X96693088Y-109109145D01*
X96571039Y-109403072D01*
X96570761Y-109721332D01*
X96689003Y-110007500D01*
X96393000Y-110007500D01*
X96374498Y-110011180D01*
X94547818Y-108184500D01*
X96075500Y-108184500D01*
X96211157Y-108157516D01*
X96238141Y-108152149D01*
X96376020Y-108060020D01*
X96711539Y-107724501D01*
X96829324Y-107724604D01*
X97049929Y-107633452D01*
X97218859Y-107464817D01*
X97310396Y-107244371D01*
X97310604Y-107005676D01*
X97246693Y-106851000D01*
X97846455Y-106851000D01*
X97916048Y-107019429D01*
X98084683Y-107188359D01*
X98305129Y-107279896D01*
X98543824Y-107280104D01*
X98764429Y-107188952D01*
X98933359Y-107020317D01*
X99024896Y-106799871D01*
X99025104Y-106561176D01*
X98933952Y-106340571D01*
X98904682Y-106311250D01*
X99296710Y-106311250D01*
X100854980Y-107869520D01*
X100992859Y-107961649D01*
X101155500Y-107994000D01*
X108351970Y-107994000D01*
X108435183Y-108077359D01*
X108655629Y-108168896D01*
X108894324Y-108169104D01*
X109114929Y-108077952D01*
X109228989Y-107964091D01*
X110771513Y-107964091D01*
X110880278Y-108215100D01*
X112190200Y-108215100D01*
X112190200Y-108195100D01*
X112498200Y-108195100D01*
X112498200Y-108215100D01*
X113808122Y-108215100D01*
X113916887Y-107964091D01*
X113742651Y-107543421D01*
X113387128Y-107145910D01*
X113471373Y-107130058D01*
X113573479Y-107064355D01*
X113641978Y-106964103D01*
X113666077Y-106845100D01*
X113666077Y-104813100D01*
X113645158Y-104701927D01*
X113579455Y-104599821D01*
X113479203Y-104531322D01*
X113360200Y-104507223D01*
X111328200Y-104507223D01*
X111217027Y-104528142D01*
X111114921Y-104593845D01*
X111046422Y-104694097D01*
X111022323Y-104813100D01*
X111022323Y-106845100D01*
X111043242Y-106956273D01*
X111108945Y-107058379D01*
X111209197Y-107126878D01*
X111301564Y-107145583D01*
X110945749Y-107543421D01*
X110771513Y-107964091D01*
X109228989Y-107964091D01*
X109283859Y-107909317D01*
X109375396Y-107688871D01*
X109375604Y-107450176D01*
X109284452Y-107229571D01*
X109115817Y-107060641D01*
X108895371Y-106969104D01*
X108656676Y-106968896D01*
X108436071Y-107060048D01*
X108351972Y-107144000D01*
X101331540Y-107144000D01*
X99773270Y-105585730D01*
X99635391Y-105493601D01*
X99608407Y-105488234D01*
X99472750Y-105461250D01*
X75887451Y-105461250D01*
X75883452Y-105451571D01*
X75714817Y-105282641D01*
X75494371Y-105191104D01*
X75255676Y-105190896D01*
X75035071Y-105282048D01*
X74866141Y-105450683D01*
X74774604Y-105671129D01*
X74774454Y-105843578D01*
X74732371Y-105826104D01*
X74493676Y-105825896D01*
X74273071Y-105917048D01*
X74104141Y-106085683D01*
X74012604Y-106306129D01*
X74012396Y-106544824D01*
X74103548Y-106765429D01*
X74272183Y-106934359D01*
X74492629Y-107025896D01*
X74731324Y-107026104D01*
X74951929Y-106934952D01*
X75036028Y-106851000D01*
X96174396Y-106851000D01*
X96110604Y-107004629D01*
X96110500Y-107123459D01*
X95899460Y-107334500D01*
X93768530Y-107334500D01*
X93685317Y-107251141D01*
X93464871Y-107159604D01*
X93226176Y-107159396D01*
X93005571Y-107250548D01*
X92836641Y-107419183D01*
X92745104Y-107639629D01*
X92744896Y-107878324D01*
X92783395Y-107971500D01*
X89330534Y-107971500D01*
X89210371Y-107921604D01*
X88971676Y-107921396D01*
X88751071Y-108012548D01*
X88582141Y-108181183D01*
X88490604Y-108401629D01*
X88490396Y-108640324D01*
X88581548Y-108860929D01*
X88750183Y-109029859D01*
X88970629Y-109121396D01*
X89209324Y-109121604D01*
X89330585Y-109071500D01*
X93879182Y-109071500D01*
X95596680Y-110788998D01*
X95593000Y-110807500D01*
X95653896Y-111113647D01*
X95827315Y-111373185D01*
X96086853Y-111546604D01*
X96393000Y-111607500D01*
X96734806Y-111607500D01*
X96693088Y-111649145D01*
X96571039Y-111943072D01*
X96570761Y-112261332D01*
X96692297Y-112555472D01*
X96917145Y-112780712D01*
X97211072Y-112902761D01*
X97529332Y-112903039D01*
X97823472Y-112781503D01*
X98048712Y-112556655D01*
X98170761Y-112262728D01*
X98170822Y-112192693D01*
X98641000Y-112662871D01*
X98641000Y-117945000D01*
X98017596Y-117945000D01*
X98084179Y-117902155D01*
X98152678Y-117801903D01*
X98176777Y-117682900D01*
X98176777Y-116682900D01*
X98155858Y-116571727D01*
X98090155Y-116469621D01*
X97989903Y-116401122D01*
X97870900Y-116377023D01*
X96870900Y-116377023D01*
X96759727Y-116397942D01*
X96657621Y-116463645D01*
X96589122Y-116563897D01*
X96565023Y-116682900D01*
X96565023Y-117682900D01*
X96585942Y-117794073D01*
X96651645Y-117896179D01*
X96723097Y-117945000D01*
X94805500Y-117945000D01*
X94499353Y-118005896D01*
X94239815Y-118179315D01*
X94066396Y-118438853D01*
X94017542Y-118684459D01*
X93916141Y-118785683D01*
X93824604Y-119006129D01*
X93824396Y-119244824D01*
X93915548Y-119465429D01*
X94084183Y-119634359D01*
X94304629Y-119725896D01*
X94543324Y-119726104D01*
X94763929Y-119634952D01*
X94854038Y-119545000D01*
X103313144Y-119545000D01*
X102823207Y-119642455D01*
X102396265Y-119927727D01*
X102110993Y-120354669D01*
X102010818Y-120858280D01*
X102110993Y-121361891D01*
X102396265Y-121788833D01*
X102823207Y-122074105D01*
X102834760Y-122076403D01*
X102336600Y-122076403D01*
X102225427Y-122097322D01*
X102123321Y-122163025D01*
X102054822Y-122263277D01*
X102030723Y-122382280D01*
X102030723Y-124414280D01*
X102051642Y-124525453D01*
X102117345Y-124627559D01*
X102217597Y-124696058D01*
X102336600Y-124720157D01*
X102927600Y-124720157D01*
X102927600Y-125482839D01*
X101998000Y-126412440D01*
X94294960Y-126412440D01*
X94159303Y-126439424D01*
X94132319Y-126444791D01*
X93994440Y-126536920D01*
X93472820Y-127058540D01*
X93472820Y-126636780D01*
X93440469Y-126474140D01*
X93399242Y-126412440D01*
X93348340Y-126336259D01*
X92897490Y-125885410D01*
X92759611Y-125793281D01*
X92732627Y-125787914D01*
X92596970Y-125760930D01*
X85860664Y-125760930D01*
X85819932Y-125662351D01*
X85651297Y-125493421D01*
X85430851Y-125401884D01*
X85192156Y-125401676D01*
X84971551Y-125492828D01*
X84802621Y-125661463D01*
X84711084Y-125881909D01*
X84710876Y-126120604D01*
X84802028Y-126341209D01*
X84970663Y-126510139D01*
X85191109Y-126601676D01*
X85429804Y-126601884D01*
X85436254Y-126599219D01*
X85495130Y-126610930D01*
X91640879Y-126610930D01*
X91592041Y-126659683D01*
X91541725Y-126780857D01*
X87757782Y-130564800D01*
X80593417Y-130564800D01*
X80297309Y-130268691D01*
X80118876Y-130149466D01*
X79957668Y-130117400D01*
X80721200Y-130117400D01*
X80856857Y-130090416D01*
X80883841Y-130085049D01*
X81021720Y-129992920D01*
X81275720Y-129738921D01*
X81367848Y-129601041D01*
X81367849Y-129601040D01*
X81400200Y-129438400D01*
X81400200Y-128071324D01*
X84299396Y-128071324D01*
X84390548Y-128291929D01*
X84559183Y-128460859D01*
X84779629Y-128552396D01*
X85018324Y-128552604D01*
X85238929Y-128461452D01*
X85323028Y-128377500D01*
X88773000Y-128377500D01*
X88908657Y-128350516D01*
X88935641Y-128345149D01*
X89073520Y-128253020D01*
X89345539Y-127981001D01*
X89463324Y-127981104D01*
X89683929Y-127889952D01*
X89852859Y-127721317D01*
X89944396Y-127500871D01*
X89944604Y-127262176D01*
X89853452Y-127041571D01*
X89684817Y-126872641D01*
X89464371Y-126781104D01*
X89225676Y-126780896D01*
X89005071Y-126872048D01*
X88836141Y-127040683D01*
X88744604Y-127261129D01*
X88744500Y-127379960D01*
X88596960Y-127527500D01*
X85323030Y-127527500D01*
X85239817Y-127444141D01*
X85019371Y-127352604D01*
X84780676Y-127352396D01*
X84560071Y-127443548D01*
X84391141Y-127612183D01*
X84299604Y-127832629D01*
X84299396Y-128071324D01*
X81400200Y-128071324D01*
X81400200Y-124890040D01*
X81608441Y-124681800D01*
X84564870Y-124681800D01*
X84648083Y-124765159D01*
X84868529Y-124856696D01*
X85107224Y-124856904D01*
X85327829Y-124765752D01*
X85496759Y-124597117D01*
X85588296Y-124376671D01*
X85588504Y-124137976D01*
X85497352Y-123917371D01*
X85341803Y-123761549D01*
X95670089Y-123761549D01*
X95816959Y-124116154D01*
X96195500Y-124547902D01*
X96710449Y-124801923D01*
X96937500Y-124692032D01*
X96937500Y-123534500D01*
X97245500Y-123534500D01*
X97245500Y-124692032D01*
X97472551Y-124801923D01*
X97987500Y-124547902D01*
X98361500Y-124121333D01*
X98735500Y-124547902D01*
X99250449Y-124801923D01*
X99477500Y-124692032D01*
X99477500Y-123534500D01*
X99785500Y-123534500D01*
X99785500Y-124692032D01*
X100012551Y-124801923D01*
X100527500Y-124547902D01*
X100906041Y-124116154D01*
X101052911Y-123761549D01*
X100942083Y-123534500D01*
X99785500Y-123534500D01*
X99477500Y-123534500D01*
X97245500Y-123534500D01*
X96937500Y-123534500D01*
X95780917Y-123534500D01*
X95670089Y-123761549D01*
X85341803Y-123761549D01*
X85328717Y-123748441D01*
X85108271Y-123656904D01*
X84869576Y-123656696D01*
X84648971Y-123747848D01*
X84564872Y-123831800D01*
X81432400Y-123831800D01*
X81269760Y-123864151D01*
X81269758Y-123864152D01*
X81269759Y-123864152D01*
X81131879Y-123956280D01*
X80674680Y-124413480D01*
X80582551Y-124551359D01*
X80582551Y-124551360D01*
X80550200Y-124714000D01*
X80550200Y-129262359D01*
X80545160Y-129267400D01*
X79829630Y-129267400D01*
X79898696Y-129101071D01*
X79898904Y-128862376D01*
X79807752Y-128641771D01*
X79639117Y-128472841D01*
X79418671Y-128381304D01*
X79179976Y-128381096D01*
X78959371Y-128472248D01*
X78790441Y-128640883D01*
X78762322Y-128708600D01*
X78689200Y-128708600D01*
X78553543Y-128735584D01*
X78526559Y-128740951D01*
X78388680Y-128833080D01*
X77344760Y-129877000D01*
X76281160Y-129877000D01*
X77689240Y-128468920D01*
X77781369Y-128331041D01*
X77789149Y-128291929D01*
X77813720Y-128168400D01*
X77813720Y-125951760D01*
X77816479Y-125949001D01*
X77934264Y-125949104D01*
X78154869Y-125857952D01*
X78323799Y-125689317D01*
X78415336Y-125468871D01*
X78415544Y-125230176D01*
X78324392Y-125009571D01*
X78155757Y-124840641D01*
X77935311Y-124749104D01*
X77696616Y-124748896D01*
X77476011Y-124840048D01*
X77307081Y-125008683D01*
X77215544Y-125229129D01*
X77215440Y-125347959D01*
X77156400Y-125407000D01*
X77156400Y-123773418D01*
X77850218Y-123079600D01*
X82919566Y-123079600D01*
X83039729Y-123129496D01*
X83278424Y-123129704D01*
X83499029Y-123038552D01*
X83538198Y-122999451D01*
X95670089Y-122999451D01*
X95780917Y-123226500D01*
X96937500Y-123226500D01*
X96937500Y-123206500D01*
X97245500Y-123206500D01*
X97245500Y-123226500D01*
X99477500Y-123226500D01*
X99477500Y-123206500D01*
X99785500Y-123206500D01*
X99785500Y-123226500D01*
X100942083Y-123226500D01*
X101052911Y-122999451D01*
X100906041Y-122644846D01*
X100527500Y-122213098D01*
X100012551Y-121959077D01*
X99785502Y-122068967D01*
X99785502Y-121978001D01*
X100099586Y-121915526D01*
X100477085Y-121663289D01*
X100729322Y-121285790D01*
X100817896Y-120840500D01*
X100729322Y-120395210D01*
X100477085Y-120017711D01*
X100099586Y-119765474D01*
X99654296Y-119676900D01*
X99608704Y-119676900D01*
X99163414Y-119765474D01*
X98785915Y-120017711D01*
X98533678Y-120395210D01*
X98445104Y-120840500D01*
X98533678Y-121285790D01*
X98785915Y-121663289D01*
X99163414Y-121915526D01*
X99477498Y-121978001D01*
X99477498Y-122068967D01*
X99250449Y-121959077D01*
X98735500Y-122213098D01*
X98361500Y-122639667D01*
X97987500Y-122213098D01*
X97575735Y-122009977D01*
X97955100Y-122009977D01*
X98066273Y-121989058D01*
X98168379Y-121923355D01*
X98236878Y-121823103D01*
X98260977Y-121704100D01*
X98260977Y-119976900D01*
X98240058Y-119865727D01*
X98174355Y-119763621D01*
X98074103Y-119695122D01*
X97955100Y-119671023D01*
X96227900Y-119671023D01*
X96116727Y-119691942D01*
X96014621Y-119757645D01*
X95946122Y-119857897D01*
X95922023Y-119976900D01*
X95922023Y-121704100D01*
X95942942Y-121815273D01*
X96008645Y-121917379D01*
X96108897Y-121985878D01*
X96227900Y-122009977D01*
X96607265Y-122009977D01*
X96195500Y-122213098D01*
X95816959Y-122644846D01*
X95670089Y-122999451D01*
X83538198Y-122999451D01*
X83667959Y-122869917D01*
X83759496Y-122649471D01*
X83759704Y-122410776D01*
X83668552Y-122190171D01*
X83518843Y-122040200D01*
X84129238Y-122040200D01*
X84205128Y-122223869D01*
X84373763Y-122392799D01*
X84594209Y-122484336D01*
X84832904Y-122484544D01*
X85053509Y-122393392D01*
X85222439Y-122224757D01*
X85313976Y-122004311D01*
X85314184Y-121765616D01*
X85223032Y-121545011D01*
X85054397Y-121376081D01*
X84833951Y-121284544D01*
X84700084Y-121284427D01*
X84607481Y-121222551D01*
X84580497Y-121217184D01*
X84444840Y-121190200D01*
X73876680Y-121190200D01*
X73871623Y-121185143D01*
X73871621Y-121185140D01*
X73853601Y-121167120D01*
X73853704Y-121049336D01*
X73762552Y-120828731D01*
X73593917Y-120659801D01*
X73373471Y-120568264D01*
X73134776Y-120568056D01*
X72914171Y-120659208D01*
X72745241Y-120827843D01*
X72653704Y-121048289D01*
X72653496Y-121286984D01*
X72744648Y-121507589D01*
X72913283Y-121676519D01*
X73133729Y-121768056D01*
X73252559Y-121768160D01*
X73270580Y-121786181D01*
X73270583Y-121786183D01*
X73400119Y-121915720D01*
X73455346Y-121952622D01*
X73537999Y-122007849D01*
X73548698Y-122009977D01*
X73700640Y-122040200D01*
X77383887Y-122040200D01*
X77233491Y-122140691D01*
X76217491Y-123156691D01*
X76098266Y-123335124D01*
X76056400Y-123545600D01*
X76056400Y-127788182D01*
X74448182Y-129396400D01*
X72376034Y-129396400D01*
X72255871Y-129346504D01*
X72017176Y-129346296D01*
X71796571Y-129437448D01*
X71627641Y-129606083D01*
X71536104Y-129826529D01*
X71535896Y-130065224D01*
X71621846Y-130273240D01*
X60617100Y-130273240D01*
X60454459Y-130305591D01*
X60316580Y-130397719D01*
X60075300Y-130639000D01*
X42237630Y-130639000D01*
X42306696Y-130472671D01*
X42306904Y-130233976D01*
X42215752Y-130013371D01*
X42131800Y-129929272D01*
X42131800Y-127967184D01*
X60359896Y-127967184D01*
X60451048Y-128187789D01*
X60619683Y-128356719D01*
X60840129Y-128448256D01*
X61078824Y-128448464D01*
X61299429Y-128357312D01*
X61354197Y-128302640D01*
X65087183Y-128302640D01*
X65097883Y-128313359D01*
X65318329Y-128404896D01*
X65557024Y-128405104D01*
X65777629Y-128313952D01*
X65946559Y-128145317D01*
X66038096Y-127924871D01*
X66038304Y-127686176D01*
X65947152Y-127465571D01*
X65778517Y-127296641D01*
X65558071Y-127205104D01*
X65319376Y-127204896D01*
X65098771Y-127296048D01*
X65092167Y-127302640D01*
X61210342Y-127302640D01*
X61079871Y-127248464D01*
X60841176Y-127248256D01*
X60620571Y-127339408D01*
X60451641Y-127508043D01*
X60360104Y-127728489D01*
X60359896Y-127967184D01*
X42131800Y-127967184D01*
X42131800Y-120057619D01*
X42164359Y-120025117D01*
X42255896Y-119804671D01*
X42256104Y-119565976D01*
X42164952Y-119345371D01*
X41996317Y-119176441D01*
X41775871Y-119084904D01*
X41537176Y-119084696D01*
X41316571Y-119175848D01*
X41147641Y-119344483D01*
X41056104Y-119564929D01*
X41055896Y-119803624D01*
X41147048Y-120024229D01*
X41281800Y-120159217D01*
X41281800Y-129929270D01*
X41198441Y-130012483D01*
X41106904Y-130232929D01*
X41106696Y-130471624D01*
X41175854Y-130639000D01*
X36485341Y-130639000D01*
X36353300Y-130506960D01*
X36353300Y-128997515D01*
X36388083Y-129032359D01*
X36608529Y-129123896D01*
X36847224Y-129124104D01*
X37067829Y-129032952D01*
X37236759Y-128864317D01*
X37328296Y-128643871D01*
X37328504Y-128405176D01*
X37237352Y-128184571D01*
X37153400Y-128100472D01*
X37153400Y-123771630D01*
X37319729Y-123840696D01*
X37558424Y-123840904D01*
X37779029Y-123749752D01*
X37802000Y-123726821D01*
X37802000Y-129446803D01*
X37642441Y-129606083D01*
X37550904Y-129826529D01*
X37550696Y-130065224D01*
X37641848Y-130285829D01*
X37810483Y-130454759D01*
X38030929Y-130546296D01*
X38269624Y-130546504D01*
X38490229Y-130455352D01*
X38659159Y-130286717D01*
X38750696Y-130066271D01*
X38750904Y-129827576D01*
X38659752Y-129606971D01*
X38652000Y-129599205D01*
X38652000Y-123291600D01*
X39148201Y-123291600D01*
X39180551Y-123454241D01*
X39272680Y-123592120D01*
X39410559Y-123684249D01*
X39573200Y-123716599D01*
X39735841Y-123684249D01*
X39873720Y-123592120D01*
X39924520Y-123541320D01*
X40016649Y-123403441D01*
X40048999Y-123240800D01*
X40016649Y-123078159D01*
X39924520Y-122940280D01*
X39786641Y-122848151D01*
X39624000Y-122815801D01*
X39461359Y-122848151D01*
X39323480Y-122940280D01*
X39272680Y-122991080D01*
X39180551Y-123128959D01*
X39148201Y-123291600D01*
X38652000Y-123291600D01*
X38652000Y-120159130D01*
X38735359Y-120075917D01*
X38826896Y-119855471D01*
X38827104Y-119616776D01*
X38735952Y-119396171D01*
X38567317Y-119227241D01*
X38346871Y-119135704D01*
X38108176Y-119135496D01*
X37989600Y-119184491D01*
X37989600Y-116820586D01*
X38208729Y-116911576D01*
X38327559Y-116911680D01*
X39183760Y-117767881D01*
X39183760Y-118186200D01*
X39205831Y-118297160D01*
X39216111Y-118348841D01*
X39308240Y-118486720D01*
X39719720Y-118898201D01*
X39857599Y-118990329D01*
X40020240Y-119022680D01*
X40812720Y-119022680D01*
X40948559Y-118995660D01*
X40975361Y-118990329D01*
X41113240Y-118898200D01*
X41324041Y-118687400D01*
X42434771Y-118687400D01*
X42361761Y-118760283D01*
X42270224Y-118980729D01*
X42270016Y-119219424D01*
X42361168Y-119440029D01*
X42445120Y-119524128D01*
X42445120Y-120716040D01*
X42466682Y-120824440D01*
X42477471Y-120878681D01*
X42569600Y-121016560D01*
X44947040Y-123394000D01*
X45084919Y-123486129D01*
X45247560Y-123518480D01*
X54288083Y-123518480D01*
X54378903Y-123609459D01*
X54599349Y-123700996D01*
X54838044Y-123701204D01*
X55013120Y-123628864D01*
X59415016Y-123628864D01*
X59506168Y-123849469D01*
X59674803Y-124018399D01*
X59895249Y-124109936D01*
X60133944Y-124110144D01*
X60135408Y-124109539D01*
X60203080Y-124123000D01*
X65743470Y-124123000D01*
X65826683Y-124206359D01*
X66047129Y-124297896D01*
X66285824Y-124298104D01*
X66506429Y-124206952D01*
X66675359Y-124038317D01*
X66766896Y-123817871D01*
X66767104Y-123579176D01*
X66675952Y-123358571D01*
X66507317Y-123189641D01*
X66400134Y-123145135D01*
X66442929Y-123127452D01*
X66611859Y-122958817D01*
X66703396Y-122738371D01*
X66703604Y-122499676D01*
X66612452Y-122279071D01*
X66443817Y-122110141D01*
X66223371Y-122018604D01*
X65984676Y-122018396D01*
X65764071Y-122109548D01*
X65679972Y-122193500D01*
X63690623Y-122193500D01*
X63678752Y-122164771D01*
X63510117Y-121995841D01*
X63289671Y-121904304D01*
X63050976Y-121904096D01*
X62830371Y-121995248D01*
X62661441Y-122163883D01*
X62569904Y-122384329D01*
X62569696Y-122623024D01*
X62660848Y-122843629D01*
X62829483Y-123012559D01*
X63049929Y-123104096D01*
X63288624Y-123104304D01*
X63435781Y-123043500D01*
X65679970Y-123043500D01*
X65763183Y-123126859D01*
X65870366Y-123171365D01*
X65827571Y-123189048D01*
X65743472Y-123273000D01*
X60566378Y-123273000D01*
X60524072Y-123170611D01*
X60355437Y-123001681D01*
X60134991Y-122910144D01*
X59896296Y-122909936D01*
X59675691Y-123001088D01*
X59506761Y-123169723D01*
X59415224Y-123390169D01*
X59415016Y-123628864D01*
X55013120Y-123628864D01*
X55058649Y-123610052D01*
X55227579Y-123441417D01*
X55319116Y-123220971D01*
X55319324Y-122982276D01*
X55228172Y-122761671D01*
X55059537Y-122592741D01*
X54839091Y-122501204D01*
X54600396Y-122500996D01*
X54379791Y-122592148D01*
X54303325Y-122668480D01*
X45423600Y-122668480D01*
X45237280Y-122482160D01*
X53526070Y-122482160D01*
X53609283Y-122565519D01*
X53829729Y-122657056D01*
X54068424Y-122657264D01*
X54289029Y-122566112D01*
X54457959Y-122397477D01*
X54549496Y-122177031D01*
X54549704Y-121938336D01*
X54458552Y-121717731D01*
X54289917Y-121548801D01*
X54069471Y-121457264D01*
X53830776Y-121457056D01*
X53610171Y-121548208D01*
X53526072Y-121632160D01*
X45408360Y-121632160D01*
X45144464Y-121368264D01*
X54345176Y-121368264D01*
X54436328Y-121588869D01*
X54604963Y-121757799D01*
X54825409Y-121849336D01*
X55064104Y-121849544D01*
X55284709Y-121758392D01*
X55368808Y-121674440D01*
X56594425Y-121674440D01*
X56697923Y-121778119D01*
X56918369Y-121869656D01*
X57157064Y-121869864D01*
X57377669Y-121778712D01*
X57546599Y-121610077D01*
X57638136Y-121389631D01*
X57638344Y-121150936D01*
X57547192Y-120930331D01*
X57378557Y-120761401D01*
X57158111Y-120669864D01*
X56919416Y-120669656D01*
X56698811Y-120760808D01*
X56635068Y-120824440D01*
X55368810Y-120824440D01*
X55285597Y-120741081D01*
X55065151Y-120649544D01*
X54826456Y-120649336D01*
X54605851Y-120740488D01*
X54436921Y-120909123D01*
X54345384Y-121129569D01*
X54345176Y-121368264D01*
X45144464Y-121368264D01*
X44742920Y-120966720D01*
X44742920Y-119321580D01*
X44710569Y-119158940D01*
X44669446Y-119097396D01*
X44641052Y-119054900D01*
X44641164Y-118925896D01*
X44550012Y-118705291D01*
X44532152Y-118687400D01*
X54357788Y-118687400D01*
X54171511Y-118764368D01*
X54002581Y-118933003D01*
X53911044Y-119153449D01*
X53910836Y-119392144D01*
X54001988Y-119612749D01*
X54170623Y-119781679D01*
X54391069Y-119873216D01*
X54629764Y-119873424D01*
X54850369Y-119782272D01*
X54911568Y-119721180D01*
X57000790Y-119721180D01*
X57084003Y-119804539D01*
X57304449Y-119896076D01*
X57543144Y-119896284D01*
X57763749Y-119805132D01*
X57932679Y-119636497D01*
X58024216Y-119416051D01*
X58024312Y-119305890D01*
X75704135Y-119305890D01*
X75819043Y-119420999D01*
X76039489Y-119512536D01*
X76278184Y-119512744D01*
X76498789Y-119421592D01*
X76667719Y-119252957D01*
X76759256Y-119032511D01*
X76759464Y-118793816D01*
X76704999Y-118662000D01*
X87757000Y-118662000D01*
X87892657Y-118635016D01*
X87919641Y-118629649D01*
X88057520Y-118537520D01*
X88520039Y-118075001D01*
X88637824Y-118075104D01*
X88858429Y-117983952D01*
X89027359Y-117815317D01*
X89118896Y-117594871D01*
X89119104Y-117356176D01*
X89027952Y-117135571D01*
X88859317Y-116966641D01*
X88813220Y-116947500D01*
X90057460Y-116947500D01*
X90458999Y-117349039D01*
X90458896Y-117466824D01*
X90550048Y-117687429D01*
X90718683Y-117856359D01*
X90939129Y-117947896D01*
X91177824Y-117948104D01*
X91398429Y-117856952D01*
X91567359Y-117688317D01*
X91658896Y-117467871D01*
X91659104Y-117229176D01*
X91567952Y-117008571D01*
X91399317Y-116839641D01*
X91178871Y-116748104D01*
X91060041Y-116748000D01*
X90534020Y-116221980D01*
X90396141Y-116129851D01*
X90369157Y-116124484D01*
X90233500Y-116097500D01*
X88428242Y-116097500D01*
X88519456Y-115877831D01*
X88519560Y-115759000D01*
X89210660Y-115067900D01*
X96680904Y-115067900D01*
X96692297Y-115095472D01*
X96917145Y-115320712D01*
X97211072Y-115442761D01*
X97529332Y-115443039D01*
X97823472Y-115321503D01*
X98048712Y-115096655D01*
X98170761Y-114802728D01*
X98171039Y-114484468D01*
X98049503Y-114190328D01*
X97824655Y-113965088D01*
X97530728Y-113843039D01*
X97212468Y-113842761D01*
X96918328Y-113964297D01*
X96693088Y-114189145D01*
X96681148Y-114217900D01*
X89034620Y-114217900D01*
X88898963Y-114244884D01*
X88871979Y-114250251D01*
X88734100Y-114342380D01*
X87918521Y-115157959D01*
X87800736Y-115157856D01*
X87580131Y-115249008D01*
X87411201Y-115417643D01*
X87319664Y-115638089D01*
X87319456Y-115876784D01*
X87410608Y-116097389D01*
X87410719Y-116097500D01*
X60621420Y-116097500D01*
X60474817Y-115950641D01*
X60254371Y-115859104D01*
X60015676Y-115858896D01*
X59795071Y-115950048D01*
X59626141Y-116118683D01*
X59534604Y-116339129D01*
X59534396Y-116577824D01*
X59625548Y-116798429D01*
X59737886Y-116910963D01*
X59604571Y-116966048D01*
X59435641Y-117134683D01*
X59344104Y-117355129D01*
X59343896Y-117593824D01*
X59434044Y-117812000D01*
X58589530Y-117812000D01*
X58506317Y-117728641D01*
X58285871Y-117637104D01*
X58047176Y-117636896D01*
X57826571Y-117728048D01*
X57657641Y-117896683D01*
X57617985Y-117992185D01*
X57587680Y-117961880D01*
X57449801Y-117869751D01*
X57422817Y-117864384D01*
X57287160Y-117837400D01*
X41148000Y-117837400D01*
X41087650Y-117849404D01*
X41087704Y-117787976D01*
X40996552Y-117567371D01*
X40912600Y-117483272D01*
X40912600Y-111675530D01*
X40946520Y-111641670D01*
X40946520Y-115051840D01*
X40966820Y-115153896D01*
X40978871Y-115214481D01*
X41071000Y-115352360D01*
X41294520Y-115575880D01*
X41432399Y-115668009D01*
X41459383Y-115673376D01*
X41595040Y-115700360D01*
X70399338Y-115700360D01*
X70433248Y-115782429D01*
X70601883Y-115951359D01*
X70822329Y-116042896D01*
X71061024Y-116043104D01*
X71281629Y-115951952D01*
X71450559Y-115783317D01*
X71542096Y-115562871D01*
X71542304Y-115324176D01*
X71451152Y-115103571D01*
X71282517Y-114934641D01*
X71062071Y-114843104D01*
X70823376Y-114842896D01*
X70795318Y-114854489D01*
X70774560Y-114850360D01*
X64681932Y-114850360D01*
X64755216Y-114673871D01*
X64755424Y-114435176D01*
X64707256Y-114318600D01*
X72263000Y-114318600D01*
X72398657Y-114291616D01*
X72425641Y-114286249D01*
X72563520Y-114194120D01*
X72680340Y-114077300D01*
X73490470Y-114077300D01*
X73573683Y-114160659D01*
X73794129Y-114252196D01*
X74032824Y-114252404D01*
X74253429Y-114161252D01*
X74422359Y-113992617D01*
X74513896Y-113772171D01*
X74514104Y-113533476D01*
X74422952Y-113312871D01*
X74254317Y-113143941D01*
X74033871Y-113052404D01*
X73795176Y-113052196D01*
X73574571Y-113143348D01*
X73490472Y-113227300D01*
X72504300Y-113227300D01*
X72393075Y-113249424D01*
X72393204Y-113101676D01*
X72302052Y-112881071D01*
X72133417Y-112712141D01*
X71912971Y-112620604D01*
X71674276Y-112620396D01*
X71640593Y-112634313D01*
X71669096Y-112565671D01*
X71669304Y-112326976D01*
X71578152Y-112106371D01*
X71409517Y-111937441D01*
X71189071Y-111845904D01*
X70950376Y-111845696D01*
X70764936Y-111922318D01*
X70777459Y-111909817D01*
X70868996Y-111689371D01*
X70869204Y-111450676D01*
X70803194Y-111290920D01*
X72214937Y-111290920D01*
X72219740Y-111294129D01*
X72382380Y-111326480D01*
X72774190Y-111326480D01*
X72857403Y-111409839D01*
X73077849Y-111501376D01*
X73316544Y-111501584D01*
X73537149Y-111410432D01*
X73706079Y-111241797D01*
X73797616Y-111021351D01*
X73797824Y-110782656D01*
X73706672Y-110562051D01*
X73538037Y-110393121D01*
X73317591Y-110301584D01*
X73078896Y-110301376D01*
X72858291Y-110392528D01*
X72774192Y-110476480D01*
X72514264Y-110476480D01*
X72509461Y-110473271D01*
X72482477Y-110467904D01*
X72346820Y-110440920D01*
X69799200Y-110440920D01*
X69636559Y-110473271D01*
X69624154Y-110481560D01*
X68632606Y-110481560D01*
X68869893Y-110244274D01*
X68881704Y-110244284D01*
X69102309Y-110153132D01*
X69271239Y-109984497D01*
X69362776Y-109764051D01*
X69362984Y-109525356D01*
X69271832Y-109304751D01*
X69103197Y-109135821D01*
X68882751Y-109044284D01*
X68644056Y-109044076D01*
X68423451Y-109135228D01*
X68254521Y-109303863D01*
X68162984Y-109524309D01*
X68162973Y-109536981D01*
X68045234Y-109654720D01*
X64204261Y-109654720D01*
X64195917Y-109646361D01*
X63975471Y-109554824D01*
X63736776Y-109554616D01*
X63516171Y-109645768D01*
X63507203Y-109654720D01*
X43935607Y-109654720D01*
X43920092Y-109617171D01*
X43751457Y-109448241D01*
X43531011Y-109356704D01*
X43292316Y-109356496D01*
X43071711Y-109447648D01*
X42975080Y-109544110D01*
X42975080Y-106900424D01*
X54771896Y-106900424D01*
X54863048Y-107121029D01*
X55031683Y-107289959D01*
X55252129Y-107381496D01*
X55330852Y-107381565D01*
X55330696Y-107560824D01*
X55421848Y-107781429D01*
X55590483Y-107950359D01*
X55810929Y-108041896D01*
X56049624Y-108042104D01*
X56081006Y-108029137D01*
X56095900Y-108032100D01*
X62066660Y-108032100D01*
X62823799Y-108789239D01*
X62823696Y-108907024D01*
X62914848Y-109127629D01*
X63083483Y-109296559D01*
X63303929Y-109388096D01*
X63542624Y-109388304D01*
X63763229Y-109297152D01*
X63932159Y-109128517D01*
X64023696Y-108908071D01*
X64023904Y-108669376D01*
X63932752Y-108448771D01*
X63764117Y-108279841D01*
X63543671Y-108188304D01*
X63424841Y-108188200D01*
X62543220Y-107306580D01*
X62405341Y-107214451D01*
X62365870Y-107206600D01*
X64568560Y-107206600D01*
X65418583Y-108056624D01*
X65467548Y-108175129D01*
X65636183Y-108344059D01*
X65856629Y-108435596D01*
X66095324Y-108435804D01*
X66315929Y-108344652D01*
X66484859Y-108176017D01*
X66576396Y-107955571D01*
X66576604Y-107716876D01*
X66485452Y-107496271D01*
X66316817Y-107327341D01*
X66096371Y-107235804D01*
X65857676Y-107235596D01*
X65816606Y-107252566D01*
X65045120Y-106481080D01*
X64907241Y-106388951D01*
X64880257Y-106383584D01*
X64744600Y-106356600D01*
X59305779Y-106356600D01*
X59204817Y-106255461D01*
X58984371Y-106163924D01*
X58745676Y-106163716D01*
X58525071Y-106254868D01*
X58423161Y-106356600D01*
X55795530Y-106356600D01*
X55712317Y-106273241D01*
X55491871Y-106181704D01*
X55253176Y-106181496D01*
X55032571Y-106272648D01*
X54863641Y-106441283D01*
X54772104Y-106661729D01*
X54771896Y-106900424D01*
X42975080Y-106900424D01*
X42975080Y-102900480D01*
X42942729Y-102737840D01*
X42942729Y-102737839D01*
X42850601Y-102599960D01*
X40327374Y-100076734D01*
X40249792Y-99888971D01*
X40081157Y-99720041D01*
X39860711Y-99628504D01*
X39622016Y-99628296D01*
X39401411Y-99719448D01*
X39232481Y-99888083D01*
X39140944Y-100108529D01*
X39140736Y-100347224D01*
X39231888Y-100567829D01*
X39249748Y-100585720D01*
X38869620Y-100585720D01*
X38706979Y-100618071D01*
X38569100Y-100710199D01*
X38332880Y-100946420D01*
X38240751Y-101084299D01*
X38240751Y-101084300D01*
X38208400Y-101246940D01*
X38208400Y-102138480D01*
X38224639Y-102220119D01*
X38240751Y-102301121D01*
X38332880Y-102439000D01*
X38399159Y-102505279D01*
X38399056Y-102623064D01*
X38490208Y-102843669D01*
X38658843Y-103012599D01*
X38879289Y-103104136D01*
X39117984Y-103104344D01*
X39338589Y-103013192D01*
X39507519Y-102844557D01*
X39599056Y-102624111D01*
X39599256Y-102394736D01*
X40946520Y-103742001D01*
X40946520Y-110862451D01*
X40827917Y-110743641D01*
X40607471Y-110652104D01*
X40368776Y-110651896D01*
X40148171Y-110743048D01*
X39979241Y-110911683D01*
X39887704Y-111132129D01*
X39887496Y-111370824D01*
X39978648Y-111591429D01*
X40062600Y-111675528D01*
X40062600Y-117483270D01*
X40020520Y-117525276D01*
X40004978Y-117447141D01*
X40001409Y-117429199D01*
X39909281Y-117291320D01*
X38928601Y-116310641D01*
X38928704Y-116192856D01*
X38837552Y-115972251D01*
X38668917Y-115803321D01*
X38448471Y-115711784D01*
X38209776Y-115711576D01*
X37989600Y-115802551D01*
X37989600Y-115759234D01*
X38039496Y-115639071D01*
X38039704Y-115400376D01*
X37948552Y-115179771D01*
X37779917Y-115010841D01*
X37559471Y-114919304D01*
X37320776Y-114919096D01*
X37153400Y-114988254D01*
X37153400Y-112021575D01*
X37169429Y-112014952D01*
X37338359Y-111846317D01*
X37429896Y-111625871D01*
X37430104Y-111387176D01*
X37338952Y-111166571D01*
X37170317Y-110997641D01*
X36949871Y-110906104D01*
X36711176Y-110905896D01*
X36588561Y-110956559D01*
X38933921Y-108611200D01*
X39026049Y-108473321D01*
X39058400Y-108310680D01*
X39058400Y-105203610D01*
X39141759Y-105120397D01*
X39233296Y-104899951D01*
X39233504Y-104661256D01*
X39142352Y-104440651D01*
X38973717Y-104271721D01*
X38753271Y-104180184D01*
X38514576Y-104179976D01*
X38293971Y-104271128D01*
X38125041Y-104439763D01*
X38033504Y-104660209D01*
X38033296Y-104898904D01*
X38124448Y-105119509D01*
X38208400Y-105203608D01*
X38208400Y-108134639D01*
X34972460Y-111370580D01*
X34880331Y-111508459D01*
X34880331Y-111508460D01*
X34847980Y-111671100D01*
X34847980Y-116966219D01*
X32886200Y-118928000D01*
X32886200Y-118639647D01*
X32908696Y-118585471D01*
X32908904Y-118346776D01*
X32817752Y-118126171D01*
X32649117Y-117957241D01*
X32428671Y-117865704D01*
X32189976Y-117865496D01*
X32002117Y-117943118D01*
X31997976Y-115516104D01*
X33339376Y-115516104D01*
X33430528Y-115736709D01*
X33599163Y-115905639D01*
X33819609Y-115997176D01*
X34058304Y-115997384D01*
X34278909Y-115906232D01*
X34447839Y-115737597D01*
X34539376Y-115517151D01*
X34539584Y-115278456D01*
X34448432Y-115057851D01*
X34326380Y-114935585D01*
X34326380Y-107508860D01*
X34559890Y-107508860D01*
X34643103Y-107592219D01*
X34863549Y-107683756D01*
X35102244Y-107683964D01*
X35322849Y-107592812D01*
X35491779Y-107424177D01*
X35583316Y-107203731D01*
X35583524Y-106965036D01*
X35492372Y-106744431D01*
X35323737Y-106575501D01*
X35103291Y-106483964D01*
X34864596Y-106483756D01*
X34643991Y-106574908D01*
X34559892Y-106658860D01*
X33939480Y-106658860D01*
X33776839Y-106691211D01*
X33638960Y-106783339D01*
X33600860Y-106821440D01*
X33508731Y-106959319D01*
X33507594Y-106965036D01*
X33476380Y-107121960D01*
X33476380Y-115011783D01*
X33431121Y-115056963D01*
X33339584Y-115277409D01*
X33339376Y-115516104D01*
X31997976Y-115516104D01*
X31972522Y-100600410D01*
X32055159Y-100517917D01*
X32146696Y-100297471D01*
X32146904Y-100058776D01*
X32067251Y-99866000D01*
X33199560Y-99866000D01*
X33382400Y-100048841D01*
X33382400Y-105621612D01*
X33309104Y-105798129D01*
X33308896Y-106036824D01*
X33400048Y-106257429D01*
X33568683Y-106426359D01*
X33789129Y-106517896D01*
X34027824Y-106518104D01*
X34248429Y-106426952D01*
X34417359Y-106258317D01*
X34508896Y-106037871D01*
X34509104Y-105799176D01*
X34417952Y-105578571D01*
X34249317Y-105409641D01*
X34232400Y-105402616D01*
X34232400Y-99872800D01*
X34200049Y-99710160D01*
X34128875Y-99603641D01*
X34107920Y-99572279D01*
X33676120Y-99140480D01*
X33538241Y-99048351D01*
X33511257Y-99042984D01*
X33375600Y-99016000D01*
X28630495Y-99016000D01*
X28506076Y-98932866D01*
X28295600Y-98891000D01*
X26644600Y-98891000D01*
X26434124Y-98932866D01*
X26255691Y-99052091D01*
X25267000Y-100040782D01*
X25267000Y-96878978D01*
X25453873Y-97331246D01*
X26109303Y-97987821D01*
X26966101Y-98343595D01*
X27893828Y-98344404D01*
X28751246Y-97990127D01*
X29407821Y-97334697D01*
X29763595Y-96477899D01*
X29764404Y-95550172D01*
X29410127Y-94692754D01*
X28754697Y-94036179D01*
X28299104Y-93847000D01*
X40312972Y-93847000D01*
X40312972Y-96699200D01*
G36*
X92268140Y-134437313D02*
X91568270Y-134437313D01*
X91457097Y-134458232D01*
X91354991Y-134523935D01*
X91286492Y-134624187D01*
X91262393Y-134743190D01*
X91262393Y-136197422D01*
X91145317Y-136080141D01*
X90924871Y-135988604D01*
X90686176Y-135988396D01*
X90465571Y-136079548D01*
X90296641Y-136248183D01*
X90205104Y-136468629D01*
X90204896Y-136707324D01*
X90296048Y-136927929D01*
X90464683Y-137096859D01*
X90585857Y-137147175D01*
X90882182Y-137443500D01*
X87871107Y-137443500D01*
X87871107Y-134616190D01*
X87850188Y-134505017D01*
X87784485Y-134402911D01*
X87684233Y-134334412D01*
X87565230Y-134310313D01*
X84565490Y-134310313D01*
X84454317Y-134331232D01*
X84352211Y-134396935D01*
X84283712Y-134497187D01*
X84259613Y-134616190D01*
X84259613Y-134690243D01*
X84182485Y-134613115D01*
X83922947Y-134439696D01*
X83616800Y-134378801D01*
X83310653Y-134439696D01*
X83051115Y-134613115D01*
X82877696Y-134872653D01*
X82872387Y-134899344D01*
X82872387Y-134616190D01*
X82851468Y-134505017D01*
X82785765Y-134402911D01*
X82685513Y-134334412D01*
X82566510Y-134310313D01*
X79566770Y-134310313D01*
X79455597Y-134331232D01*
X79353491Y-134396935D01*
X79284992Y-134497187D01*
X79260893Y-134616190D01*
X79260893Y-137816500D01*
X78867000Y-137816500D01*
X78758078Y-137816405D01*
X78656525Y-137858366D01*
X78656524Y-137858366D01*
X78656523Y-137858367D01*
X78555857Y-137899961D01*
X78401005Y-138054543D01*
X78317096Y-138256618D01*
X78316905Y-138475422D01*
X78400461Y-138677643D01*
X78555043Y-138832495D01*
X78656523Y-138874633D01*
X78656524Y-138874634D01*
X78656526Y-138874634D01*
X78757118Y-138916404D01*
X78867000Y-138916500D01*
X78867093Y-138916500D01*
X78975922Y-138916595D01*
X78976152Y-138916500D01*
X79260893Y-138916500D01*
X79260893Y-142116810D01*
X79281812Y-142227983D01*
X79347515Y-142330089D01*
X79447767Y-142398588D01*
X79566770Y-142422687D01*
X82566510Y-142422687D01*
X82677683Y-142401768D01*
X82779789Y-142336065D01*
X82848288Y-142235813D01*
X82872387Y-142116810D01*
X82872387Y-135458256D01*
X82877696Y-135484947D01*
X83051115Y-135744485D01*
X84259613Y-136952983D01*
X84259613Y-141441194D01*
X84176552Y-141240171D01*
X84007917Y-141071241D01*
X83787471Y-140979704D01*
X83548776Y-140979496D01*
X83328171Y-141070648D01*
X83159241Y-141239283D01*
X83067704Y-141459729D01*
X83067581Y-141601174D01*
X83020951Y-141670959D01*
X83020951Y-141670960D01*
X82988600Y-141833600D01*
X82988600Y-142368759D01*
X82932760Y-142424600D01*
X75055241Y-142424600D01*
X73955201Y-141324561D01*
X73955304Y-141206776D01*
X73864152Y-140986171D01*
X73695517Y-140817241D01*
X73475071Y-140725704D01*
X73236376Y-140725496D01*
X73015771Y-140816648D01*
X72931672Y-140900600D01*
X70193720Y-140900600D01*
X70193720Y-136733280D01*
X70161369Y-136570640D01*
X70130798Y-136524888D01*
X70069240Y-136432759D01*
X68971960Y-135335480D01*
X68834081Y-135243351D01*
X68807097Y-135237984D01*
X68671440Y-135211000D01*
X54628561Y-135211000D01*
X54488641Y-135071081D01*
X54488744Y-134953296D01*
X54397592Y-134732691D01*
X54228957Y-134563761D01*
X54164509Y-134537000D01*
X64568045Y-134537000D01*
X64616648Y-134654629D01*
X64785283Y-134823559D01*
X65005729Y-134915096D01*
X65244424Y-134915304D01*
X65465029Y-134824152D01*
X65633959Y-134655517D01*
X65725496Y-134435071D01*
X65725704Y-134196376D01*
X65662909Y-134044400D01*
X89966800Y-134044400D01*
X90368618Y-133964474D01*
X90709262Y-133736862D01*
X92268140Y-132177984D01*
X92268140Y-134437313D01*
X92268140Y-134437313D01*
G37*
X92268140Y-134437313D02*
X91568270Y-134437313D01*
X91457097Y-134458232D01*
X91354991Y-134523935D01*
X91286492Y-134624187D01*
X91262393Y-134743190D01*
X91262393Y-136197422D01*
X91145317Y-136080141D01*
X90924871Y-135988604D01*
X90686176Y-135988396D01*
X90465571Y-136079548D01*
X90296641Y-136248183D01*
X90205104Y-136468629D01*
X90204896Y-136707324D01*
X90296048Y-136927929D01*
X90464683Y-137096859D01*
X90585857Y-137147175D01*
X90882182Y-137443500D01*
X87871107Y-137443500D01*
X87871107Y-134616190D01*
X87850188Y-134505017D01*
X87784485Y-134402911D01*
X87684233Y-134334412D01*
X87565230Y-134310313D01*
X84565490Y-134310313D01*
X84454317Y-134331232D01*
X84352211Y-134396935D01*
X84283712Y-134497187D01*
X84259613Y-134616190D01*
X84259613Y-134690243D01*
X84182485Y-134613115D01*
X83922947Y-134439696D01*
X83616800Y-134378801D01*
X83310653Y-134439696D01*
X83051115Y-134613115D01*
X82877696Y-134872653D01*
X82872387Y-134899344D01*
X82872387Y-134616190D01*
X82851468Y-134505017D01*
X82785765Y-134402911D01*
X82685513Y-134334412D01*
X82566510Y-134310313D01*
X79566770Y-134310313D01*
X79455597Y-134331232D01*
X79353491Y-134396935D01*
X79284992Y-134497187D01*
X79260893Y-134616190D01*
X79260893Y-137816500D01*
X78867000Y-137816500D01*
X78758078Y-137816405D01*
X78656525Y-137858366D01*
X78656524Y-137858366D01*
X78656523Y-137858367D01*
X78555857Y-137899961D01*
X78401005Y-138054543D01*
X78317096Y-138256618D01*
X78316905Y-138475422D01*
X78400461Y-138677643D01*
X78555043Y-138832495D01*
X78656523Y-138874633D01*
X78656524Y-138874634D01*
X78656526Y-138874634D01*
X78757118Y-138916404D01*
X78867000Y-138916500D01*
X78867093Y-138916500D01*
X78975922Y-138916595D01*
X78976152Y-138916500D01*
X79260893Y-138916500D01*
X79260893Y-142116810D01*
X79281812Y-142227983D01*
X79347515Y-142330089D01*
X79447767Y-142398588D01*
X79566770Y-142422687D01*
X82566510Y-142422687D01*
X82677683Y-142401768D01*
X82779789Y-142336065D01*
X82848288Y-142235813D01*
X82872387Y-142116810D01*
X82872387Y-135458256D01*
X82877696Y-135484947D01*
X83051115Y-135744485D01*
X84259613Y-136952983D01*
X84259613Y-141441194D01*
X84176552Y-141240171D01*
X84007917Y-141071241D01*
X83787471Y-140979704D01*
X83548776Y-140979496D01*
X83328171Y-141070648D01*
X83159241Y-141239283D01*
X83067704Y-141459729D01*
X83067581Y-141601174D01*
X83020951Y-141670959D01*
X83020951Y-141670960D01*
X82988600Y-141833600D01*
X82988600Y-142368759D01*
X82932760Y-142424600D01*
X75055241Y-142424600D01*
X73955201Y-141324561D01*
X73955304Y-141206776D01*
X73864152Y-140986171D01*
X73695517Y-140817241D01*
X73475071Y-140725704D01*
X73236376Y-140725496D01*
X73015771Y-140816648D01*
X72931672Y-140900600D01*
X70193720Y-140900600D01*
X70193720Y-136733280D01*
X70161369Y-136570640D01*
X70130798Y-136524888D01*
X70069240Y-136432759D01*
X68971960Y-135335480D01*
X68834081Y-135243351D01*
X68807097Y-135237984D01*
X68671440Y-135211000D01*
X54628561Y-135211000D01*
X54488641Y-135071081D01*
X54488744Y-134953296D01*
X54397592Y-134732691D01*
X54228957Y-134563761D01*
X54164509Y-134537000D01*
X64568045Y-134537000D01*
X64616648Y-134654629D01*
X64785283Y-134823559D01*
X65005729Y-134915096D01*
X65244424Y-134915304D01*
X65465029Y-134824152D01*
X65633959Y-134655517D01*
X65725496Y-134435071D01*
X65725704Y-134196376D01*
X65662909Y-134044400D01*
X89966800Y-134044400D01*
X90368618Y-133964474D01*
X90709262Y-133736862D01*
X92268140Y-132177984D01*
X92268140Y-134437313D01*
G36*
X30946904Y-100057729D02*
X30946835Y-100136496D01*
X30716776Y-100136296D01*
X30496171Y-100227448D01*
X30412072Y-100311400D01*
X29565600Y-100311400D01*
X29402960Y-100343751D01*
X29375349Y-100362200D01*
X29265079Y-100435880D01*
X29011080Y-100689880D01*
X28918951Y-100827759D01*
X28918951Y-100827760D01*
X28886600Y-100990400D01*
X28886600Y-106578400D01*
X28910183Y-106696960D01*
X28918951Y-106741041D01*
X29011080Y-106878920D01*
X29191400Y-107059241D01*
X29191400Y-130337560D01*
X29214712Y-130454759D01*
X29223751Y-130500201D01*
X29315880Y-130638080D01*
X30194719Y-131516920D01*
X30286848Y-131578478D01*
X30332600Y-131609049D01*
X30495240Y-131641400D01*
X31930370Y-131641400D01*
X31861304Y-131807729D01*
X31861096Y-132046424D01*
X31922238Y-132194400D01*
X28677770Y-132194400D01*
X27946000Y-131462630D01*
X27946000Y-124815074D01*
X28146971Y-124680789D01*
X28399208Y-124303290D01*
X28487782Y-123858000D01*
X28399208Y-123412710D01*
X28146971Y-123035211D01*
X27769472Y-122782974D01*
X27593040Y-122747879D01*
X28068629Y-122571838D01*
X28489822Y-122181641D01*
X28719811Y-121699049D01*
X28608983Y-121472000D01*
X27300000Y-121472000D01*
X27300000Y-121492000D01*
X26992000Y-121492000D01*
X26992000Y-121472000D01*
X26972000Y-121472000D01*
X26972000Y-121164000D01*
X26992000Y-121164000D01*
X26992000Y-121144000D01*
X27300000Y-121144000D01*
X27300000Y-121164000D01*
X28608983Y-121164000D01*
X28719811Y-120936951D01*
X28489822Y-120454359D01*
X28068629Y-120064162D01*
X27593040Y-119888121D01*
X27769472Y-119853026D01*
X28146971Y-119600789D01*
X28399208Y-119223290D01*
X28487782Y-118778000D01*
X28399208Y-118332710D01*
X28146971Y-117955211D01*
X27769472Y-117702974D01*
X27324182Y-117614400D01*
X26967818Y-117614400D01*
X26522528Y-117702974D01*
X26145029Y-117955211D01*
X25975400Y-118209079D01*
X25975400Y-116806921D01*
X26145029Y-117060789D01*
X26522528Y-117313026D01*
X26967818Y-117401600D01*
X27324182Y-117401600D01*
X27769472Y-117313026D01*
X28146971Y-117060789D01*
X28399208Y-116683290D01*
X28487782Y-116238000D01*
X28399208Y-115792710D01*
X28146971Y-115415211D01*
X27769472Y-115162974D01*
X27324182Y-115074400D01*
X26967818Y-115074400D01*
X26522528Y-115162974D01*
X26145029Y-115415211D01*
X25975400Y-115669079D01*
X25975400Y-114266921D01*
X26145029Y-114520789D01*
X26522528Y-114773026D01*
X26967818Y-114861600D01*
X27324182Y-114861600D01*
X27769472Y-114773026D01*
X28146971Y-114520789D01*
X28399208Y-114143290D01*
X28487782Y-113698000D01*
X28399208Y-113252710D01*
X28146971Y-112875211D01*
X27769472Y-112622974D01*
X27324182Y-112534400D01*
X26967818Y-112534400D01*
X26522528Y-112622974D01*
X26145029Y-112875211D01*
X25975400Y-113129079D01*
X25975400Y-111726921D01*
X26145029Y-111980789D01*
X26522528Y-112233026D01*
X26967818Y-112321600D01*
X27324182Y-112321600D01*
X27769472Y-112233026D01*
X28146971Y-111980789D01*
X28399208Y-111603290D01*
X28487782Y-111158000D01*
X28399208Y-110712710D01*
X28146971Y-110335211D01*
X27769472Y-110082974D01*
X27324182Y-109994400D01*
X26967818Y-109994400D01*
X26522528Y-110082974D01*
X26145029Y-110335211D01*
X25975400Y-110589079D01*
X25975400Y-109186921D01*
X26145029Y-109440789D01*
X26522528Y-109693026D01*
X26967818Y-109781600D01*
X27324182Y-109781600D01*
X27769472Y-109693026D01*
X28146971Y-109440789D01*
X28399208Y-109063290D01*
X28487782Y-108618000D01*
X28399208Y-108172710D01*
X28146971Y-107795211D01*
X27769472Y-107542974D01*
X27324182Y-107454400D01*
X26967818Y-107454400D01*
X26522528Y-107542974D01*
X26145029Y-107795211D01*
X25975400Y-108049079D01*
X25975400Y-106646921D01*
X26145029Y-106900789D01*
X26522528Y-107153026D01*
X26967818Y-107241600D01*
X27324182Y-107241600D01*
X27769472Y-107153026D01*
X28146971Y-106900789D01*
X28399208Y-106523290D01*
X28487782Y-106078000D01*
X28399208Y-105632710D01*
X28146971Y-105255211D01*
X27769472Y-105002974D01*
X27324182Y-104914400D01*
X26967818Y-104914400D01*
X26522528Y-105002974D01*
X26145029Y-105255211D01*
X25975400Y-105509079D01*
X25975400Y-104659056D01*
X26010997Y-104683378D01*
X26130000Y-104707477D01*
X28162000Y-104707477D01*
X28273173Y-104686558D01*
X28375279Y-104620855D01*
X28443778Y-104520603D01*
X28467877Y-104401600D01*
X28467877Y-102674400D01*
X28446958Y-102563227D01*
X28381255Y-102461121D01*
X28281003Y-102392622D01*
X28162000Y-102368523D01*
X26130000Y-102368523D01*
X26018827Y-102389442D01*
X25975400Y-102417386D01*
X25975400Y-100888018D01*
X26872418Y-99991000D01*
X28295600Y-99991000D01*
X28506076Y-99949134D01*
X28630495Y-99866000D01*
X31026517Y-99866000D01*
X30946904Y-100057729D01*
X30946904Y-100057729D01*
G37*
X30946904Y-100057729D02*
X30946835Y-100136496D01*
X30716776Y-100136296D01*
X30496171Y-100227448D01*
X30412072Y-100311400D01*
X29565600Y-100311400D01*
X29402960Y-100343751D01*
X29375349Y-100362200D01*
X29265079Y-100435880D01*
X29011080Y-100689880D01*
X28918951Y-100827759D01*
X28918951Y-100827760D01*
X28886600Y-100990400D01*
X28886600Y-106578400D01*
X28910183Y-106696960D01*
X28918951Y-106741041D01*
X29011080Y-106878920D01*
X29191400Y-107059241D01*
X29191400Y-130337560D01*
X29214712Y-130454759D01*
X29223751Y-130500201D01*
X29315880Y-130638080D01*
X30194719Y-131516920D01*
X30286848Y-131578478D01*
X30332600Y-131609049D01*
X30495240Y-131641400D01*
X31930370Y-131641400D01*
X31861304Y-131807729D01*
X31861096Y-132046424D01*
X31922238Y-132194400D01*
X28677770Y-132194400D01*
X27946000Y-131462630D01*
X27946000Y-124815074D01*
X28146971Y-124680789D01*
X28399208Y-124303290D01*
X28487782Y-123858000D01*
X28399208Y-123412710D01*
X28146971Y-123035211D01*
X27769472Y-122782974D01*
X27593040Y-122747879D01*
X28068629Y-122571838D01*
X28489822Y-122181641D01*
X28719811Y-121699049D01*
X28608983Y-121472000D01*
X27300000Y-121472000D01*
X27300000Y-121492000D01*
X26992000Y-121492000D01*
X26992000Y-121472000D01*
X26972000Y-121472000D01*
X26972000Y-121164000D01*
X26992000Y-121164000D01*
X26992000Y-121144000D01*
X27300000Y-121144000D01*
X27300000Y-121164000D01*
X28608983Y-121164000D01*
X28719811Y-120936951D01*
X28489822Y-120454359D01*
X28068629Y-120064162D01*
X27593040Y-119888121D01*
X27769472Y-119853026D01*
X28146971Y-119600789D01*
X28399208Y-119223290D01*
X28487782Y-118778000D01*
X28399208Y-118332710D01*
X28146971Y-117955211D01*
X27769472Y-117702974D01*
X27324182Y-117614400D01*
X26967818Y-117614400D01*
X26522528Y-117702974D01*
X26145029Y-117955211D01*
X25975400Y-118209079D01*
X25975400Y-116806921D01*
X26145029Y-117060789D01*
X26522528Y-117313026D01*
X26967818Y-117401600D01*
X27324182Y-117401600D01*
X27769472Y-117313026D01*
X28146971Y-117060789D01*
X28399208Y-116683290D01*
X28487782Y-116238000D01*
X28399208Y-115792710D01*
X28146971Y-115415211D01*
X27769472Y-115162974D01*
X27324182Y-115074400D01*
X26967818Y-115074400D01*
X26522528Y-115162974D01*
X26145029Y-115415211D01*
X25975400Y-115669079D01*
X25975400Y-114266921D01*
X26145029Y-114520789D01*
X26522528Y-114773026D01*
X26967818Y-114861600D01*
X27324182Y-114861600D01*
X27769472Y-114773026D01*
X28146971Y-114520789D01*
X28399208Y-114143290D01*
X28487782Y-113698000D01*
X28399208Y-113252710D01*
X28146971Y-112875211D01*
X27769472Y-112622974D01*
X27324182Y-112534400D01*
X26967818Y-112534400D01*
X26522528Y-112622974D01*
X26145029Y-112875211D01*
X25975400Y-113129079D01*
X25975400Y-111726921D01*
X26145029Y-111980789D01*
X26522528Y-112233026D01*
X26967818Y-112321600D01*
X27324182Y-112321600D01*
X27769472Y-112233026D01*
X28146971Y-111980789D01*
X28399208Y-111603290D01*
X28487782Y-111158000D01*
X28399208Y-110712710D01*
X28146971Y-110335211D01*
X27769472Y-110082974D01*
X27324182Y-109994400D01*
X26967818Y-109994400D01*
X26522528Y-110082974D01*
X26145029Y-110335211D01*
X25975400Y-110589079D01*
X25975400Y-109186921D01*
X26145029Y-109440789D01*
X26522528Y-109693026D01*
X26967818Y-109781600D01*
X27324182Y-109781600D01*
X27769472Y-109693026D01*
X28146971Y-109440789D01*
X28399208Y-109063290D01*
X28487782Y-108618000D01*
X28399208Y-108172710D01*
X28146971Y-107795211D01*
X27769472Y-107542974D01*
X27324182Y-107454400D01*
X26967818Y-107454400D01*
X26522528Y-107542974D01*
X26145029Y-107795211D01*
X25975400Y-108049079D01*
X25975400Y-106646921D01*
X26145029Y-106900789D01*
X26522528Y-107153026D01*
X26967818Y-107241600D01*
X27324182Y-107241600D01*
X27769472Y-107153026D01*
X28146971Y-106900789D01*
X28399208Y-106523290D01*
X28487782Y-106078000D01*
X28399208Y-105632710D01*
X28146971Y-105255211D01*
X27769472Y-105002974D01*
X27324182Y-104914400D01*
X26967818Y-104914400D01*
X26522528Y-105002974D01*
X26145029Y-105255211D01*
X25975400Y-105509079D01*
X25975400Y-104659056D01*
X26010997Y-104683378D01*
X26130000Y-104707477D01*
X28162000Y-104707477D01*
X28273173Y-104686558D01*
X28375279Y-104620855D01*
X28443778Y-104520603D01*
X28467877Y-104401600D01*
X28467877Y-102674400D01*
X28446958Y-102563227D01*
X28381255Y-102461121D01*
X28281003Y-102392622D01*
X28162000Y-102368523D01*
X26130000Y-102368523D01*
X26018827Y-102389442D01*
X25975400Y-102417386D01*
X25975400Y-100888018D01*
X26872418Y-99991000D01*
X28295600Y-99991000D01*
X28506076Y-99949134D01*
X28630495Y-99866000D01*
X31026517Y-99866000D01*
X30946904Y-100057729D01*
G36*
X30546083Y-109017159D02*
X30766529Y-109108696D01*
X31005224Y-109108904D01*
X31136948Y-109054477D01*
X31171878Y-129523590D01*
X31089241Y-129606083D01*
X30997704Y-129826529D01*
X30997496Y-130065224D01*
X31088648Y-130285829D01*
X31257283Y-130454759D01*
X31477729Y-130546296D01*
X31716424Y-130546504D01*
X31937029Y-130455352D01*
X32004013Y-130388485D01*
X32120883Y-130505559D01*
X32341329Y-130597096D01*
X32580024Y-130597304D01*
X32800629Y-130506152D01*
X32969559Y-130337517D01*
X33061096Y-130117071D01*
X33061304Y-129878376D01*
X32970152Y-129657771D01*
X32886200Y-129573672D01*
X32886200Y-123449394D01*
X32996649Y-123495256D01*
X33235344Y-123495464D01*
X33357000Y-123445197D01*
X33357000Y-129929270D01*
X33273641Y-130012483D01*
X33182104Y-130232929D01*
X33181896Y-130471624D01*
X33273048Y-130692229D01*
X33441683Y-130861159D01*
X33662129Y-130952696D01*
X33900824Y-130952904D01*
X34121429Y-130861752D01*
X34290359Y-130693117D01*
X34354560Y-130538503D01*
X34373329Y-130546296D01*
X34612024Y-130546504D01*
X34631851Y-130538312D01*
X34695448Y-130692229D01*
X34864083Y-130861159D01*
X35084529Y-130952696D01*
X35323224Y-130952904D01*
X35543829Y-130861752D01*
X35545381Y-130860203D01*
X35627780Y-130983520D01*
X35791260Y-131147000D01*
X33399241Y-131147000D01*
X33168120Y-130915880D01*
X33030241Y-130823751D01*
X33003257Y-130818384D01*
X32867600Y-130791400D01*
X30671281Y-130791400D01*
X30041400Y-130161520D01*
X30041400Y-115055124D01*
X30156929Y-115103096D01*
X30395624Y-115103304D01*
X30616229Y-115012152D01*
X30785159Y-114843517D01*
X30876696Y-114623071D01*
X30876904Y-114384376D01*
X30785752Y-114163771D01*
X30617117Y-113994841D01*
X30498600Y-113945629D01*
X30498600Y-108969593D01*
X30546083Y-109017159D01*
X30546083Y-109017159D01*
G37*
X30546083Y-109017159D02*
X30766529Y-109108696D01*
X31005224Y-109108904D01*
X31136948Y-109054477D01*
X31171878Y-129523590D01*
X31089241Y-129606083D01*
X30997704Y-129826529D01*
X30997496Y-130065224D01*
X31088648Y-130285829D01*
X31257283Y-130454759D01*
X31477729Y-130546296D01*
X31716424Y-130546504D01*
X31937029Y-130455352D01*
X32004013Y-130388485D01*
X32120883Y-130505559D01*
X32341329Y-130597096D01*
X32580024Y-130597304D01*
X32800629Y-130506152D01*
X32969559Y-130337517D01*
X33061096Y-130117071D01*
X33061304Y-129878376D01*
X32970152Y-129657771D01*
X32886200Y-129573672D01*
X32886200Y-123449394D01*
X32996649Y-123495256D01*
X33235344Y-123495464D01*
X33357000Y-123445197D01*
X33357000Y-129929270D01*
X33273641Y-130012483D01*
X33182104Y-130232929D01*
X33181896Y-130471624D01*
X33273048Y-130692229D01*
X33441683Y-130861159D01*
X33662129Y-130952696D01*
X33900824Y-130952904D01*
X34121429Y-130861752D01*
X34290359Y-130693117D01*
X34354560Y-130538503D01*
X34373329Y-130546296D01*
X34612024Y-130546504D01*
X34631851Y-130538312D01*
X34695448Y-130692229D01*
X34864083Y-130861159D01*
X35084529Y-130952696D01*
X35323224Y-130952904D01*
X35543829Y-130861752D01*
X35545381Y-130860203D01*
X35627780Y-130983520D01*
X35791260Y-131147000D01*
X33399241Y-131147000D01*
X33168120Y-130915880D01*
X33030241Y-130823751D01*
X33003257Y-130818384D01*
X32867600Y-130791400D01*
X30671281Y-130791400D01*
X30041400Y-130161520D01*
X30041400Y-115055124D01*
X30156929Y-115103096D01*
X30395624Y-115103304D01*
X30616229Y-115012152D01*
X30785159Y-114843517D01*
X30876696Y-114623071D01*
X30876904Y-114384376D01*
X30785752Y-114163771D01*
X30617117Y-113994841D01*
X30498600Y-113945629D01*
X30498600Y-108969593D01*
X30546083Y-109017159D01*
G36*
X36230104Y-111386129D02*
X36229896Y-111624824D01*
X36303400Y-111802718D01*
X36303400Y-122187504D01*
X36086271Y-122097344D01*
X35847576Y-122097136D01*
X35680200Y-122166294D01*
X35680200Y-120108242D01*
X35814359Y-119974317D01*
X35905896Y-119753871D01*
X35906104Y-119515176D01*
X35814952Y-119294571D01*
X35646317Y-119125641D01*
X35425871Y-119034104D01*
X35187176Y-119033896D01*
X34966571Y-119125048D01*
X34797641Y-119293683D01*
X34706104Y-119514129D01*
X34705896Y-119752824D01*
X34797048Y-119973429D01*
X34830200Y-120006639D01*
X34830200Y-121461064D01*
X34613071Y-121370904D01*
X34374376Y-121370696D01*
X34207000Y-121439854D01*
X34207000Y-120921130D01*
X34290359Y-120837917D01*
X34381896Y-120617471D01*
X34382104Y-120378776D01*
X34290952Y-120158171D01*
X34122317Y-119989241D01*
X33901871Y-119897704D01*
X33663176Y-119897496D01*
X33511040Y-119960357D01*
X33511040Y-119505240D01*
X35573500Y-117442781D01*
X35573502Y-117442778D01*
X35581120Y-117435161D01*
X35673248Y-117297281D01*
X35705599Y-117134640D01*
X35697980Y-117096336D01*
X35697980Y-111847140D01*
X36280600Y-111264520D01*
X36230104Y-111386129D01*
X36230104Y-111386129D01*
G37*
X36230104Y-111386129D02*
X36229896Y-111624824D01*
X36303400Y-111802718D01*
X36303400Y-122187504D01*
X36086271Y-122097344D01*
X35847576Y-122097136D01*
X35680200Y-122166294D01*
X35680200Y-120108242D01*
X35814359Y-119974317D01*
X35905896Y-119753871D01*
X35906104Y-119515176D01*
X35814952Y-119294571D01*
X35646317Y-119125641D01*
X35425871Y-119034104D01*
X35187176Y-119033896D01*
X34966571Y-119125048D01*
X34797641Y-119293683D01*
X34706104Y-119514129D01*
X34705896Y-119752824D01*
X34797048Y-119973429D01*
X34830200Y-120006639D01*
X34830200Y-121461064D01*
X34613071Y-121370904D01*
X34374376Y-121370696D01*
X34207000Y-121439854D01*
X34207000Y-120921130D01*
X34290359Y-120837917D01*
X34381896Y-120617471D01*
X34382104Y-120378776D01*
X34290952Y-120158171D01*
X34122317Y-119989241D01*
X33901871Y-119897704D01*
X33663176Y-119897496D01*
X33511040Y-119960357D01*
X33511040Y-119505240D01*
X35573500Y-117442781D01*
X35573502Y-117442778D01*
X35581120Y-117435161D01*
X35673248Y-117297281D01*
X35705599Y-117134640D01*
X35697980Y-117096336D01*
X35697980Y-111847140D01*
X36280600Y-111264520D01*
X36230104Y-111386129D01*
G36*
X30495283Y-101244759D02*
X30715729Y-101336296D01*
X30954424Y-101336504D01*
X31123658Y-101266578D01*
X31126236Y-102777118D01*
X31006271Y-102727304D01*
X30767576Y-102727096D01*
X30546971Y-102818248D01*
X30378041Y-102986883D01*
X30286504Y-103207329D01*
X30286296Y-103446024D01*
X30377448Y-103666629D01*
X30461400Y-103750728D01*
X30461400Y-105660407D01*
X30413917Y-105612841D01*
X30193471Y-105521304D01*
X29954776Y-105521096D01*
X29736600Y-105611244D01*
X29736600Y-101166440D01*
X29741641Y-101161400D01*
X30412070Y-101161400D01*
X30495283Y-101244759D01*
X30495283Y-101244759D01*
G37*
X30495283Y-101244759D02*
X30715729Y-101336296D01*
X30954424Y-101336504D01*
X31123658Y-101266578D01*
X31126236Y-102777118D01*
X31006271Y-102727304D01*
X30767576Y-102727096D01*
X30546971Y-102818248D01*
X30378041Y-102986883D01*
X30286504Y-103207329D01*
X30286296Y-103446024D01*
X30377448Y-103666629D01*
X30461400Y-103750728D01*
X30461400Y-105660407D01*
X30413917Y-105612841D01*
X30193471Y-105521304D01*
X29954776Y-105521096D01*
X29736600Y-105611244D01*
X29736600Y-101166440D01*
X29741641Y-101161400D01*
X30412070Y-101161400D01*
X30495283Y-101244759D01*
M02*
