G04 #@! TF.FileFunction,Legend,Bot*
%FSLAX46Y46*%
G04 Gerber Fmt 4.6, Leading zero omitted, Abs format (unit mm)*
G04 Created by KiCad (PCBNEW 4.0.2-stable) date 08/11/2016 15:47:43*
%MOMM*%
G01*
G04 APERTURE LIST*
%ADD10C,0.100000*%
%ADD11C,0.150000*%
%ADD12R,1.400000X1.400000*%
%ADD13C,1.400000*%
%ADD14R,2.127200X2.432000*%
%ADD15O,2.127200X2.432000*%
%ADD16R,1.700000X1.700000*%
%ADD17C,1.700000*%
%ADD18C,4.464000*%
%ADD19R,2.432000X2.127200*%
%ADD20O,2.432000X2.127200*%
%ADD21R,1.650000X1.400000*%
%ADD22R,3.399740X7.900620*%
%ADD23R,7.900620X3.399740*%
%ADD24R,2.432000X2.432000*%
%ADD25O,2.432000X2.432000*%
%ADD26R,2.127200X2.127200*%
%ADD27O,2.127200X2.127200*%
%ADD28C,1.400760*%
%ADD29R,0.900000X1.000000*%
G04 APERTURE END LIST*
D10*
D11*
X44182400Y-127262000D02*
X44182400Y-128262000D01*
X42482400Y-128262000D02*
X42482400Y-127262000D01*
X83167220Y-134566660D02*
X83964780Y-134566660D01*
X83167220Y-142166340D02*
X84015580Y-142166340D01*
X95168720Y-134693660D02*
X95966280Y-134693660D01*
X95168720Y-142293340D02*
X96017080Y-142293340D01*
X108511340Y-137840720D02*
X108511340Y-138638280D01*
X100911660Y-137840720D02*
X100911660Y-138689080D01*
X64366500Y-139310500D02*
X69364500Y-139310500D01*
X64374500Y-139450500D02*
X69356500Y-139450500D01*
X64390500Y-139590500D02*
X66770500Y-139590500D01*
X66960500Y-139590500D02*
X69340500Y-139590500D01*
X64414500Y-139730500D02*
X66375500Y-139730500D01*
X67355500Y-139730500D02*
X69316500Y-139730500D01*
X64447500Y-139870500D02*
X66208500Y-139870500D01*
X67522500Y-139870500D02*
X69283500Y-139870500D01*
X64488500Y-140010500D02*
X66101500Y-140010500D01*
X67629500Y-140010500D02*
X69242500Y-140010500D01*
X64538500Y-140150500D02*
X66030500Y-140150500D01*
X67700500Y-140150500D02*
X69192500Y-140150500D01*
X64599500Y-140290500D02*
X65986500Y-140290500D01*
X67744500Y-140290500D02*
X69131500Y-140290500D01*
X64669500Y-140430500D02*
X65967500Y-140430500D01*
X67763500Y-140430500D02*
X69061500Y-140430500D01*
X64751500Y-140570500D02*
X65969500Y-140570500D01*
X67761500Y-140570500D02*
X68979500Y-140570500D01*
X64846500Y-140710500D02*
X65994500Y-140710500D01*
X67736500Y-140710500D02*
X68884500Y-140710500D01*
X64957500Y-140850500D02*
X66042500Y-140850500D01*
X67688500Y-140850500D02*
X68773500Y-140850500D01*
X65085500Y-140990500D02*
X66120500Y-140990500D01*
X67610500Y-140990500D02*
X68645500Y-140990500D01*
X65234500Y-141130500D02*
X66237500Y-141130500D01*
X67493500Y-141130500D02*
X68496500Y-141130500D01*
X65413500Y-141270500D02*
X66425500Y-141270500D01*
X67305500Y-141270500D02*
X68317500Y-141270500D01*
X65632500Y-141410500D02*
X68098500Y-141410500D01*
X65921500Y-141550500D02*
X67809500Y-141550500D01*
X66393500Y-141690500D02*
X67337500Y-141690500D01*
X67765500Y-140485500D02*
G75*
G03X67765500Y-140485500I-900000J0D01*
G01*
X69403000Y-139235500D02*
G75*
G03X69403000Y-139235500I-2537500J0D01*
G01*
X104203500Y-128180500D02*
X102653500Y-128180500D01*
X102653500Y-129730500D02*
X102653500Y-128180500D01*
X105473500Y-128460500D02*
X105473500Y-131000500D01*
X105473500Y-131000500D02*
X102933500Y-131000500D01*
X102933500Y-131000500D02*
X102933500Y-133540500D01*
X102933500Y-133540500D02*
X108013500Y-133540500D01*
X108013500Y-133540500D02*
X108013500Y-128460500D01*
X108013500Y-128460500D02*
X105473500Y-128460500D01*
X46703000Y-129772600D02*
X46703000Y-130272600D01*
X45753000Y-130272600D02*
X45753000Y-129772600D01*
X83972400Y-95554800D02*
X81432400Y-95554800D01*
X86792400Y-95274800D02*
X85242400Y-95274800D01*
X83972400Y-95554800D02*
X83972400Y-98094800D01*
X85242400Y-98374800D02*
X86792400Y-98374800D01*
X86792400Y-98374800D02*
X86792400Y-95274800D01*
X83972400Y-98094800D02*
X81432400Y-98094800D01*
X81432400Y-98094800D02*
X81432400Y-95554800D01*
X45789543Y-127119143D02*
X45837162Y-127071524D01*
X45884781Y-126928667D01*
X45884781Y-126833429D01*
X45837162Y-126690571D01*
X45741924Y-126595333D01*
X45646686Y-126547714D01*
X45456210Y-126500095D01*
X45313352Y-126500095D01*
X45122876Y-126547714D01*
X45027638Y-126595333D01*
X44932400Y-126690571D01*
X44884781Y-126833429D01*
X44884781Y-126928667D01*
X44932400Y-127071524D01*
X44980019Y-127119143D01*
X45884781Y-128071524D02*
X45884781Y-127500095D01*
X45884781Y-127785809D02*
X44884781Y-127785809D01*
X45027638Y-127690571D01*
X45122876Y-127595333D01*
X45170495Y-127500095D01*
X45884781Y-129023905D02*
X45884781Y-128452476D01*
X45884781Y-128738190D02*
X44884781Y-128738190D01*
X45027638Y-128642952D01*
X45122876Y-128547714D01*
X45170495Y-128452476D01*
X83732666Y-143898881D02*
X84208857Y-143898881D01*
X84208857Y-142898881D01*
X82875523Y-143898881D02*
X83446952Y-143898881D01*
X83161238Y-143898881D02*
X83161238Y-142898881D01*
X83256476Y-143041738D01*
X83351714Y-143136976D01*
X83446952Y-143184595D01*
X95734166Y-144025881D02*
X96210357Y-144025881D01*
X96210357Y-143025881D01*
X95448452Y-143121119D02*
X95400833Y-143073500D01*
X95305595Y-143025881D01*
X95067499Y-143025881D01*
X94972261Y-143073500D01*
X94924642Y-143121119D01*
X94877023Y-143216357D01*
X94877023Y-143311595D01*
X94924642Y-143454452D01*
X95496071Y-144025881D01*
X94877023Y-144025881D01*
X100083881Y-138072834D02*
X100083881Y-137596643D01*
X99083881Y-137596643D01*
X99083881Y-138310929D02*
X99083881Y-138929977D01*
X99464833Y-138596643D01*
X99464833Y-138739501D01*
X99512452Y-138834739D01*
X99560071Y-138882358D01*
X99655310Y-138929977D01*
X99893405Y-138929977D01*
X99988643Y-138882358D01*
X100036262Y-138834739D01*
X100083881Y-138739501D01*
X100083881Y-138453786D01*
X100036262Y-138358548D01*
X99988643Y-138310929D01*
X63422643Y-138592643D02*
X63470262Y-138545024D01*
X63517881Y-138402167D01*
X63517881Y-138306929D01*
X63470262Y-138164071D01*
X63375024Y-138068833D01*
X63279786Y-138021214D01*
X63089310Y-137973595D01*
X62946452Y-137973595D01*
X62755976Y-138021214D01*
X62660738Y-138068833D01*
X62565500Y-138164071D01*
X62517881Y-138306929D01*
X62517881Y-138402167D01*
X62565500Y-138545024D01*
X62613119Y-138592643D01*
X62517881Y-138925976D02*
X62517881Y-139545024D01*
X62898833Y-139211690D01*
X62898833Y-139354548D01*
X62946452Y-139449786D01*
X62994071Y-139497405D01*
X63089310Y-139545024D01*
X63327405Y-139545024D01*
X63422643Y-139497405D01*
X63470262Y-139449786D01*
X63517881Y-139354548D01*
X63517881Y-139068833D01*
X63470262Y-138973595D01*
X63422643Y-138925976D01*
X62517881Y-140402167D02*
X62517881Y-140211690D01*
X62565500Y-140116452D01*
X62613119Y-140068833D01*
X62755976Y-139973595D01*
X62946452Y-139925976D01*
X63327405Y-139925976D01*
X63422643Y-139973595D01*
X63470262Y-140021214D01*
X63517881Y-140116452D01*
X63517881Y-140306929D01*
X63470262Y-140402167D01*
X63422643Y-140449786D01*
X63327405Y-140497405D01*
X63089310Y-140497405D01*
X62994071Y-140449786D01*
X62946452Y-140402167D01*
X62898833Y-140306929D01*
X62898833Y-140116452D01*
X62946452Y-140021214D01*
X62994071Y-139973595D01*
X63089310Y-139925976D01*
X99555881Y-128516214D02*
X98555881Y-128516214D01*
X98555881Y-128897167D01*
X98603500Y-128992405D01*
X98651119Y-129040024D01*
X98746357Y-129087643D01*
X98889214Y-129087643D01*
X98984452Y-129040024D01*
X99032071Y-128992405D01*
X99079690Y-128897167D01*
X99079690Y-128516214D01*
X99555881Y-130040024D02*
X99555881Y-129468595D01*
X99555881Y-129754309D02*
X98555881Y-129754309D01*
X98698738Y-129659071D01*
X98793976Y-129563833D01*
X98841595Y-129468595D01*
X98651119Y-130420976D02*
X98603500Y-130468595D01*
X98555881Y-130563833D01*
X98555881Y-130801929D01*
X98603500Y-130897167D01*
X98651119Y-130944786D01*
X98746357Y-130992405D01*
X98841595Y-130992405D01*
X98984452Y-130944786D01*
X99555881Y-130373357D01*
X99555881Y-130992405D01*
X48285143Y-129379743D02*
X48332762Y-129332124D01*
X48380381Y-129189267D01*
X48380381Y-129094029D01*
X48332762Y-128951171D01*
X48237524Y-128855933D01*
X48142286Y-128808314D01*
X47951810Y-128760695D01*
X47808952Y-128760695D01*
X47618476Y-128808314D01*
X47523238Y-128855933D01*
X47428000Y-128951171D01*
X47380381Y-129094029D01*
X47380381Y-129189267D01*
X47428000Y-129332124D01*
X47475619Y-129379743D01*
X47380381Y-129713076D02*
X47380381Y-130332124D01*
X47761333Y-129998790D01*
X47761333Y-130141648D01*
X47808952Y-130236886D01*
X47856571Y-130284505D01*
X47951810Y-130332124D01*
X48189905Y-130332124D01*
X48285143Y-130284505D01*
X48332762Y-130236886D01*
X48380381Y-130141648D01*
X48380381Y-129855933D01*
X48332762Y-129760695D01*
X48285143Y-129713076D01*
X47380381Y-130665457D02*
X47380381Y-131332124D01*
X48380381Y-130903552D01*
X90794781Y-95610514D02*
X89794781Y-95610514D01*
X89794781Y-95991467D01*
X89842400Y-96086705D01*
X89890019Y-96134324D01*
X89985257Y-96181943D01*
X90128114Y-96181943D01*
X90223352Y-96134324D01*
X90270971Y-96086705D01*
X90318590Y-95991467D01*
X90318590Y-95610514D01*
X90794781Y-97134324D02*
X90794781Y-96562895D01*
X90794781Y-96848609D02*
X89794781Y-96848609D01*
X89937638Y-96753371D01*
X90032876Y-96658133D01*
X90080495Y-96562895D01*
X89794781Y-98039086D02*
X89794781Y-97562895D01*
X90270971Y-97515276D01*
X90223352Y-97562895D01*
X90175733Y-97658133D01*
X90175733Y-97896229D01*
X90223352Y-97991467D01*
X90270971Y-98039086D01*
X90366210Y-98086705D01*
X90604305Y-98086705D01*
X90699543Y-98039086D01*
X90747162Y-97991467D01*
X90794781Y-97896229D01*
X90794781Y-97658133D01*
X90747162Y-97562895D01*
X90699543Y-97515276D01*
%LPC*%
D12*
X52349400Y-101396800D03*
D13*
X53873400Y-101396800D03*
D14*
X56769000Y-140525500D03*
D15*
X59309000Y-140525500D03*
X61849000Y-140525500D03*
D16*
X99695000Y-131508500D03*
D17*
X97195000Y-131508500D03*
D18*
X112204500Y-140652500D03*
X112204500Y-96075500D03*
X27432000Y-96012000D03*
D19*
X27146000Y-103538000D03*
D20*
X27146000Y-106078000D03*
X27146000Y-108618000D03*
X27146000Y-111158000D03*
X27146000Y-113698000D03*
X27146000Y-116238000D03*
X27146000Y-118778000D03*
X27146000Y-121318000D03*
X27146000Y-123858000D03*
D21*
X43332400Y-128762000D03*
X43332400Y-126762000D03*
D16*
X109169200Y-123647200D03*
D17*
X109169200Y-126147200D03*
D16*
X111823500Y-132905500D03*
D17*
X111823500Y-135405500D03*
D22*
X81066640Y-138366500D03*
X86065360Y-138366500D03*
X93068140Y-138493500D03*
X98066860Y-138493500D03*
D23*
X104711500Y-135740140D03*
X104711500Y-140738860D03*
D14*
X52832000Y-140462000D03*
D15*
X50292000Y-140462000D03*
X47752000Y-140462000D03*
D14*
X43942000Y-140208000D03*
D15*
X41402000Y-140208000D03*
X38862000Y-140208000D03*
X36322000Y-140208000D03*
X33782000Y-140208000D03*
D24*
X104673400Y-114642900D03*
D25*
X107213400Y-114642900D03*
D12*
X101015800Y-117182900D03*
D13*
X101015800Y-114642900D03*
X101015800Y-112102900D03*
X101015800Y-109562900D03*
D24*
X112344200Y-105829100D03*
D25*
X112344200Y-108369100D03*
D26*
X97091500Y-120840500D03*
D27*
X99631500Y-120840500D03*
X97091500Y-123380500D03*
X99631500Y-123380500D03*
D28*
X48082200Y-97066100D03*
X48082200Y-95567500D03*
D16*
X66865500Y-137985500D03*
D17*
X66865500Y-140485500D03*
D18*
X27432000Y-140716000D03*
D24*
X103352600Y-123398280D03*
D25*
X103352600Y-120858280D03*
D26*
X104203500Y-129730500D03*
D27*
X104203500Y-132270500D03*
X106743500Y-129730500D03*
X106743500Y-132270500D03*
D24*
X27076400Y-135534400D03*
D25*
X29616400Y-135534400D03*
D24*
X104686100Y-110871000D03*
D25*
X107226100Y-110871000D03*
D12*
X97370900Y-117182900D03*
D13*
X97370900Y-114642900D03*
X97370900Y-112102900D03*
X97370900Y-109562900D03*
D29*
X46228000Y-130572600D03*
X46228000Y-129472600D03*
D24*
X85242400Y-96824800D03*
D25*
X82702400Y-96824800D03*
M02*
