M48
;DRILL file {KiCad 4.0.2-stable} date 08/11/2016 15:47:46
;FORMAT={-:-/ absolute / metric / decimal}
FMAT,2
METRIC,TZ
T1C0.400
T2C0.500
T3C0.599
T4C0.800
T5C1.016
T6C3.048
%
G90
G05
M71
T1
X27.877Y-100.965
X28.296Y-129.134
X28.854Y-107.086
X29.007Y-127.914
X29.616Y-128.626
X29.616Y-131.877
X30.074Y-106.121
X30.226Y-102.108
X30.277Y-114.503
X30.378Y-130.861
X30.48Y-131.928
X30.836Y-100.736
X30.836Y-119.532
X30.836Y-124.79
X30.886Y-103.327
X30.886Y-108.509
X31.547Y-100.178
X31.598Y-129.946
X32.258Y-102.87
X32.258Y-136.144
X32.309Y-118.466
X32.36Y-117.5
X32.461Y-129.997
X32.461Y-131.928
X33.122Y-100.33
X33.122Y-126.34
X33.363Y-95.783
X33.782Y-119.482
X33.782Y-120.498
X33.782Y-130.353
X33.884Y-107.036
X33.909Y-105.918
X34.493Y-121.971
X34.493Y-129.946
X34.608Y-104.775
X35.204Y-130.353
X35.306Y-119.634
X35.458Y-135.484
X35.966Y-121.26
X36.068Y-104.038
X36.068Y-114.402
X36.728Y-128.524
X36.83Y-111.506
X37.44Y-115.519
X37.44Y-123.241
X37.44Y-125.578
X37.592Y-136.855
X38.151Y-129.946
X38.202Y-116.891
X38.227Y-119.736
X38.608Y-104.953
X38.862Y-122.631
X38.862Y-130.353
X38.913Y-117.704
X38.964Y-121.209
X39.573Y-129.946
X39.624Y-123.241
X40.234Y-123.952
X40.284Y-130.353
X40.322Y-108.902
X40.488Y-111.252
X40.488Y-117.907
X40.996Y-124.612
X40.996Y-129.946
X41.25Y-117.043
X41.656Y-119.685
X41.707Y-130.353
X41.707Y-134.112
X42.367Y-119.228
X42.367Y-125.07
X43.028Y-125.679
X43.129Y-118.567
X44.145Y-127.
X44.196Y-121.209
X44.247Y-113.894
X44.412Y-105.308
X44.717Y-98.984
X44.856Y-129.286
X45.06Y-112.471
X45.199Y-99.695
X45.568Y-127.762
X45.822Y-113.182
X46.38Y-111.709
X46.863Y-128.448
X46.99Y-126.441
X47.18Y-106.451
X50.419Y-120.459
X50.8Y-124.917
X50.8Y-125.73
X50.863Y-121.983
X51.003Y-126.746
X52.121Y-135.23
X52.133Y-99.695
X52.476Y-124.206
X53.34Y-127.406
X53.391Y-116.992
X53.391Y-134.823
X54.Y-130.454
X54.051Y-117.653
X54.661Y-129.794
X54.712Y-117.043
X55.372Y-106.782
X55.372Y-117.754
X55.372Y-128.219
X55.385Y-105.88
X55.931Y-107.442
X56.032Y-117.145
X56.083Y-129.032
X56.693Y-99.631
X56.794Y-132.994
X56.845Y-126.695
X57.379Y-100.787
X58.014Y-126.835
X58.166Y-118.237
X58.369Y-129.794
X59.118Y-121.158
X59.245Y-127.698
X59.842Y-129.083
X59.944Y-117.475
X59.944Y-121.983
X59.944Y-123.126
X60.008Y-110.998
X60.134Y-116.459
X60.655Y-129.845
X61.417Y-132.334
X61.595Y-110.236
X61.976Y-127.635
X62.484Y-125.666
X62.624Y-105.486
X62.738Y-129.946
X62.928Y-110.998
X63.055Y-122.936
X63.119Y-120.459
X63.424Y-108.788
X63.944Y-121.475
X64.287Y-105.499
X65.126Y-134.315
X65.43Y-136.804
X65.977Y-107.836
X66.103Y-122.618
X66.167Y-123.698
X67.208Y-134.315
X68.326Y-126.441
X68.326Y-137.109
X69.088Y-140.056
X69.545Y-126.746
X70.269Y-111.569
X71.056Y-106.68
X71.069Y-112.446
X71.793Y-113.221
X72.136Y-129.946
X72.936Y-114.478
X73.203Y-132.994
X73.355Y-141.326
X73.914Y-101.536
X73.914Y-113.652
X74.422Y-98.933
X74.422Y-128.88
X74.612Y-106.426
X75.248Y-98.489
X75.374Y-105.791
X76.098Y-99.619
X76.111Y-100.889
X76.263Y-105.029
X76.606Y-131.623
X77.191Y-95.809
X77.394Y-97.104
X77.47Y-123.901
X78.867Y-138.367
X79.299Y-128.981
X79.451Y-131.521
X80.264Y-119.253
X80.315Y-128.016
X81.636Y-128.016
X83.16Y-122.53
X83.617Y-135.179
X83.668Y-141.58
X84.899Y-127.953
X84.988Y-124.257
X85.7Y-123.393
X87.249Y-117.284
X87.92Y-115.758
X88.328Y-138.367
X88.519Y-117.475
X89.09Y-108.521
X89.344Y-127.381
X90.043Y-100.901
X90.78Y-129.388
X90.78Y-140.106
X90.805Y-136.588
X91.059Y-117.348
X92.1Y-127.
X93.345Y-107.759
X94.424Y-119.126
X96.71Y-107.124
X98.425Y-106.68
X100.139Y-137.35
X100.774Y-138.112
X101.803Y-138.43
X104.203Y-126.682
X105.346Y-138.112
X108.775Y-107.569
X108.902Y-112.903
X109.474Y-119.697
T2
X52.349Y-101.397
X53.873Y-101.397
X97.371Y-109.563
X97.371Y-112.103
X97.371Y-114.643
X97.371Y-117.183
X101.016Y-109.563
X101.016Y-112.103
X101.016Y-114.643
X101.016Y-117.183
T3
X48.082Y-95.567
X48.082Y-97.066
T4
X61.722Y-137.973
X66.865Y-137.986
X66.865Y-140.486
X97.195Y-131.508
X99.695Y-131.508
X109.169Y-123.647
X109.169Y-126.147
X111.823Y-132.905
X111.823Y-135.405
T5
X27.076Y-135.534
X27.146Y-103.538
X27.146Y-106.078
X27.146Y-108.618
X27.146Y-111.158
X27.146Y-113.698
X27.146Y-116.238
X27.146Y-118.778
X27.146Y-121.318
X27.146Y-123.858
X29.616Y-135.534
X33.782Y-140.208
X36.322Y-140.208
X38.862Y-140.208
X41.402Y-140.208
X43.942Y-140.208
X47.752Y-140.462
X50.292Y-140.462
X52.832Y-140.462
X56.769Y-140.525
X59.309Y-140.525
X61.849Y-140.525
X97.091Y-120.84
X97.091Y-123.38
X99.631Y-120.84
X99.631Y-123.38
X103.353Y-120.858
X103.353Y-123.398
X104.203Y-129.731
X104.203Y-132.27
X104.673Y-114.643
X104.686Y-110.871
X106.743Y-129.731
X106.743Y-132.27
X107.213Y-114.643
X107.226Y-110.871
X112.344Y-105.829
X112.344Y-108.369
T6
X27.432Y-96.012
X27.432Y-140.716
X112.204Y-96.075
X112.204Y-140.653
T0
M30
