M48
;DRILL file {KiCad 4.0.2-stable} date 29/11/2016 20:18:26
;FORMAT={-:-/ absolute / metric / decimal}
FMAT,2
METRIC,TZ
T1C0.300
T2C0.500
T3C0.600
T4C0.800
T5C1.016
T6C3.048
%
G90
G05
M71
T1
X27.877Y-100.965
X30.074Y-106.121
X30.226Y-102.108
X30.353Y-103.569
X30.607Y-114.173
X30.747Y-121.26
X30.836Y-100.736
X30.861Y-108.648
X31.547Y-100.178
X31.598Y-129.946
X32.258Y-136.144
X32.309Y-118.466
X32.334Y-130.518
X32.461Y-131.928
X33.033Y-122.606
X33.363Y-95.783
X33.452Y-130.581
X33.782Y-120.498
X33.909Y-105.918
X33.939Y-115.397
X34.493Y-121.971
X34.493Y-129.451
X34.577Y-116.279
X34.608Y-104.775
X34.983Y-107.084
X35.204Y-130.353
X35.306Y-119.634
X35.319Y-135.09
X35.966Y-121.26
X35.966Y-122.697
X35.992Y-115.392
X36.728Y-128.524
X36.83Y-111.506
X37.44Y-115.519
X37.44Y-123.241
X37.592Y-136.855
X37.635Y-104.76
X38.151Y-129.946
X38.227Y-119.736
X38.329Y-116.312
X38.633Y-104.78
X38.999Y-102.504
X39.421Y-100.279
X39.517Y-101.712
X40.322Y-108.902
X40.488Y-111.252
X40.488Y-117.907
X41.656Y-119.685
X41.707Y-130.353
X41.707Y-134.112
X42.87Y-119.101
X43.411Y-109.957
X44.041Y-119.045
X44.412Y-105.308
X44.691Y-100.724
X44.945Y-113.868
X45.06Y-112.471
X45.199Y-99.695
X45.822Y-113.182
X46.38Y-111.709
X47.18Y-106.451
X52.121Y-135.23
X52.133Y-99.695
X53.889Y-135.072
X53.988Y-122.047
X54.407Y-119.825
X54.719Y-123.101
X54.945Y-121.249
X55.385Y-105.88
X56.49Y-106.07
X56.617Y-107.455
X57.038Y-121.27
X57.366Y-120.04
X57.988Y-117.615
X58.191Y-100.927
X58.255Y-99.758
X58.864Y-106.764
X59.944Y-117.475
X60.015Y-123.51
X60.134Y-116.459
X60.625Y-121.239
X60.96Y-127.848
X61.9Y-132.486
X61.92Y-125.212
X63.17Y-122.504
X63.424Y-108.788
X63.856Y-110.155
X64.364Y-114.592
X64.386Y-105.88
X65.126Y-134.315
X65.176Y-136.855
X65.438Y-127.805
X65.977Y-107.836
X66.103Y-122.618
X66.167Y-123.698
X66.274Y-121.27
X68.008Y-136.906
X68.763Y-109.644
X69.088Y-140.056
X70.269Y-111.569
X70.942Y-115.443
X71.056Y-106.68
X71.069Y-112.446
X71.755Y-113.182
X72.136Y-129.946
X73.198Y-110.901
X73.203Y-132.994
X73.254Y-121.168
X73.355Y-141.326
X73.914Y-101.536
X73.914Y-113.779
X74.046Y-125.207
X74.353Y-139.035
X74.356Y-141.046
X74.422Y-98.933
X74.612Y-106.426
X75.248Y-98.489
X75.501Y-105.474
X76.098Y-99.619
X76.111Y-100.889
X76.159Y-118.913
X76.606Y-131.623
X77.216Y-104.584
X77.47Y-123.901
X77.815Y-125.349
X79.299Y-128.981
X79.451Y-131.521
X80.391Y-95.758
X80.454Y-97.218
X80.518Y-128.308
X82.995Y-122.555
X83.21Y-100.482
X83.668Y-141.58
X84.714Y-121.884
X84.899Y-127.953
X85.268Y-124.257
X85.311Y-126.002
X87.249Y-117.284
X87.92Y-115.758
X88.227Y-123.342
X88.519Y-117.475
X88.941Y-140.391
X89.09Y-108.521
X89.344Y-127.381
X90.043Y-100.901
X90.78Y-140.106
X90.805Y-136.588
X90.83Y-129.235
X91.059Y-117.348
X92.1Y-126.873
X93.345Y-107.759
X93.485Y-124.701
X96.71Y-107.124
X98.425Y-106.68
X99.949Y-138.367
X100.139Y-137.35
X101.803Y-138.43
X105.346Y-138.112
X108.775Y-107.569
X109.474Y-119.697
T2
X52.349Y-101.397
X53.873Y-101.397
X61.722Y-137.973
X78.867Y-138.367
X83.617Y-135.179
X88.328Y-138.367
X94.424Y-119.126
X97.371Y-109.563
X97.371Y-112.103
X97.371Y-114.643
X97.371Y-117.183
X101.016Y-109.563
X101.016Y-112.103
X101.016Y-114.643
X101.016Y-117.183
X104.203Y-126.682
X108.902Y-112.903
T3
X48.082Y-95.567
X48.082Y-97.066
T4
X66.865Y-137.986
X66.865Y-140.486
X97.195Y-131.508
X99.695Y-131.508
X109.169Y-123.647
X109.169Y-126.147
X111.823Y-132.905
X111.823Y-135.405
T5
X27.076Y-135.534
X27.146Y-103.538
X27.146Y-106.078
X27.146Y-108.618
X27.146Y-111.158
X27.146Y-113.698
X27.146Y-116.238
X27.146Y-118.778
X27.146Y-121.318
X27.146Y-123.858
X29.616Y-135.534
X33.782Y-140.208
X36.322Y-140.208
X38.862Y-140.208
X41.402Y-140.208
X43.942Y-140.208
X47.752Y-140.462
X50.292Y-140.462
X52.832Y-140.462
X56.769Y-140.525
X59.309Y-140.525
X61.849Y-140.525
X97.091Y-120.84
X97.091Y-123.38
X99.631Y-120.84
X99.631Y-123.38
X103.353Y-120.858
X103.353Y-123.398
X104.203Y-129.731
X104.203Y-132.27
X104.673Y-114.643
X104.686Y-110.871
X106.743Y-129.731
X106.743Y-132.27
X107.213Y-114.643
X107.226Y-110.871
X112.344Y-105.829
X112.344Y-108.369
T6
X27.432Y-96.012
X27.432Y-140.716
X112.204Y-96.075
X112.204Y-140.653
T0
M30
